<svg version="1.2" xmlns="http://www.w3.org/2000/svg" viewBox="0 0 100 100" width="100" height="100">
	<title>insta-svg</title>
	<defs>
		<radialGradient id="g1" cx="27.8" cy="103.5" r="90.7" gradientUnits="userSpaceOnUse">
			<stop offset="0" stop-color="#ffdd55"/>
			<stop offset=".1" stop-color="#ffdd55"/>
			<stop offset=".5" stop-color="#ff543e"/>
			<stop offset="1" stop-color="#c837ab"/>
		</radialGradient>
		<radialGradient id="g2" cx="-11.8" cy="11.5" r="40.6" gradientUnits="userSpaceOnUse">
			<stop offset="0" stop-color="#3771c8" stop-opacity="1"/>
			<stop offset=".128" stop-color="#3771c8" stop-opacity="1"/>
			<stop offset="1" stop-color="#6600ff" stop-opacity="0"/>
		</radialGradient>
	</defs>
	<style>
		.s0 { fill: url(#g1) } 
		.s1 { fill: url(#g2) } 
		.s2 { fill: #ffffff } 
	</style>
	<path id="Layer" class="s0" d="m49.3 4.9c-19.1 0-24.7 0-25.8 0.1-3.9 0.4-6.3 1-9 2.3-2 1-3.7 2.2-5.3 3.9q-4.3 4.5-5.3 11.1c-0.3 2.1-0.4 2.6-0.4 13.5 0 3.7 0 8.4 0 14.9 0 19.1 0 24.7 0.1 25.7 0.4 3.9 1 6.3 2.2 8.9 2.4 5 7.1 8.8 12.5 10.2 1.9 0.5 4 0.8 6.7 0.9 1.1 0 12.7 0.1 24.2 0.1 11.6 0 23.1 0 24.3-0.1 3.1-0.1 4.9-0.4 6.8-0.9q2.1-0.5 3.9-1.5 1.9-0.9 3.5-2.2 1.6-1.4 2.9-3 1.3-1.6 2.2-3.5c1.3-2.6 1.9-5.1 2.2-8.7 0.1-0.8 0.1-13.4 0.1-25.9 0-12.6 0-25.1-0.1-25.9-0.3-3.7-0.9-6.2-2.2-8.8-1.1-2.1-2.2-3.7-3.9-5.4q-4.6-4.3-11.2-5.3c-2.1-0.3-2.5-0.4-13.5-0.4z"/>
	<path id="Layer" class="s1" d="m49.3 4.9c-19.1 0-24.7 0-25.8 0.1-3.9 0.4-6.3 1-9 2.3-2 1-3.7 2.2-5.3 3.9q-4.3 4.5-5.3 11.1c-0.3 2.1-0.4 2.6-0.4 13.5 0 3.7 0 8.4 0 14.9 0 19.1 0 24.7 0.1 25.7 0.4 3.9 1 6.3 2.2 8.9 2.4 5 7.1 8.8 12.5 10.2 1.9 0.5 4 0.8 6.7 0.9 1.1 0 12.7 0.1 24.2 0.1 11.6 0 23.1 0 24.3-0.1 3.1-0.1 4.9-0.4 6.8-0.9q2.1-0.5 3.9-1.5 1.9-0.9 3.5-2.2 1.6-1.4 2.9-3 1.3-1.6 2.2-3.5c1.3-2.6 1.9-5.1 2.2-8.7 0.1-0.8 0.1-13.4 0.1-25.9 0-12.6 0-25.1-0.1-25.9-0.3-3.7-0.9-6.2-2.2-8.8-1.1-2.1-2.2-3.7-3.9-5.4q-4.6-4.3-11.2-5.3c-2.1-0.3-2.5-0.4-13.5-0.4z"/>
	<path id="Layer" fill-rule="evenodd" class="s2" d="m49.3 16.9c9.2 0 10.3 0 13.9 0.2 3.6 0.2 6.1 0.7 8.2 1.6 2.3 0.8 4.1 2 6 3.9 1.9 1.9 3.1 3.7 3.9 6 0.9 2.1 1.4 4.6 1.6 8.2 0.2 3.6 0.2 4.7 0.2 13.9 0 9.2 0 10.3-0.2 13.9-0.2 3.6-0.7 6.1-1.6 8.2-0.8 2.3-2 4.2-3.9 6-1.9 1.9-3.7 3.1-6 3.9-2.1 0.9-4.6 1.4-8.2 1.6-3.6 0.2-4.7 0.2-13.9 0.2-9.2 0-10.3 0-13.9-0.2-3.6-0.2-6.1-0.7-8.2-1.6-2.3-0.8-4.2-2-6-3.9-1.9-1.8-3.1-3.7-3.9-6-0.9-2.1-1.4-4.6-1.6-8.2-0.2-3.6-0.2-4.7-0.2-13.9 0-9.2 0-10.3 0.2-13.9 0.2-3.6 0.7-6.1 1.6-8.2 0.8-2.3 2-4.1 3.9-6 1.8-1.9 3.7-3.1 6-3.9 2.1-0.9 4.6-1.4 8.2-1.6 3.6-0.2 4.7-0.2 13.9-0.2zm-3 6.1c-6.3 0-7.5 0-10.7 0.2-3.3 0.1-5 0.7-6.2 1.1-1.6 0.7-2.7 1.4-3.9 2.6-1.2 1.2-1.9 2.3-2.6 3.9-0.4 1.1-1 2.9-1.1 6.2-0.2 3.6-0.2 4.7-0.2 13.7 0 9 0 10.1 0.2 13.6 0.1 3.3 0.7 5.1 1.1 6.3 0.7 1.6 1.4 2.7 2.6 3.9 1.2 1.2 2.3 1.9 3.9 2.5 1.2 0.5 2.9 1 6.2 1.2 3.6 0.2 4.7 0.2 13.7 0.2 9 0 10.1 0 13.7-0.2 3.3-0.1 5-0.7 6.2-1.2 1.6-0.6 2.7-1.3 3.9-2.5 1.2-1.2 1.9-2.3 2.5-3.9 0.5-1.2 1.1-3 1.2-6.2 0.2-3.6 0.2-4.7 0.2-13.7 0-9 0-10.1-0.2-13.7-0.1-3.3-0.7-5-1.2-6.2-0.6-1.6-1.3-2.7-2.5-3.9-1.2-1.2-2.3-1.9-3.9-2.5-1.2-0.5-2.9-1.1-6.2-1.2-3.6-0.2-4.7-0.2-13.7-0.2q-1.7 0-3 0zm25.1 9.7c0 1.6-1 3.1-2.5 3.7-1.5 0.6-3.3 0.3-4.4-0.9-1.2-1.1-1.5-2.9-0.9-4.4 0.6-1.5 2.1-2.5 3.7-2.5 2.3 0 4.1 1.8 4.1 4.1zm-22.1 35.4c-9.6 0-17.4-7.8-17.4-17.4 0-9.6 7.8-17.3 17.4-17.3 9.6 0 17.4 7.7 17.4 17.3 0 9.6-7.8 17.4-17.4 17.4zm11.3-17.4c0-6.2-5.1-11.3-11.3-11.3-6.2 0-11.3 5.1-11.3 11.3 0 6.2 5.1 11.3 11.3 11.3 6.2 0 11.3-5.1 11.3-11.3z"/>
</svg>