<svg width="64" height="64" viewBox="0 0 64 64" fill="none" xmlns="http://www.w3.org/2000/svg">
<path d="M37.3333 48H13.3333C8.91696 47.9952 5.33808 44.4163 5.33325 40V24C5.33808 19.5837 8.91696 16.0048 13.3333 16H37.3333C41.7495 16.0048 45.3284 19.5837 45.3333 24V40C45.3284 44.4163 41.7495 47.9952 37.3333 48Z" fill="#8EBAFA"/>
<path d="M58.3857 20.143C57.7275 18.8248 56.1255 18.2898 54.8073 18.948L45.3027 23.7002C45.3067 23.802 45.3332 23.8974 45.3333 24.0001V40.0001C45.3332 40.1027 45.3067 40.1981 45.3028 40.2999L54.8073 45.0521C55.1777 45.2369 55.5861 45.3332 56 45.3334C57.4723 45.3324 58.6659 44.139 58.6667 42.6667V21.3334C58.6665 20.9201 58.5703 20.5126 58.3857 20.143Z" fill="#1D74F5"/>
</svg>
