<?xml version="1.0" encoding="utf-8"?>
<!-- Generator: Adobe Illustrator 27.6.1, SVG Export Plug-In . SVG Version: 6.00 Build 0)  -->
<svg version="1.1" id="Layer_1" xmlns="http://www.w3.org/2000/svg" xmlns:xlink="http://www.w3.org/1999/xlink" x="0px" y="0px"
	 viewBox="0 0 34.1 25.1" style="enable-background:new 0 0 34.1 25.1;" xml:space="preserve">
<style type="text/css">
	.st0{fill-rule:evenodd;clip-rule:evenodd;fill:#34313F;}
</style>
<path class="st0" d="M32.6,14.9c-0.4-0.6-1.2-1.1-2.1-1.1c-1.7,0-2.9,1.3-2.9,3s1.2,3,2.9,3c0.8,0,1.5-0.3,1.9-0.7c0,0,0-0.1,0-0.1
	v-0.9c0-0.1,0-0.1-0.1-0.1h-2.1c-0.1,0-0.2-0.1-0.2-0.2v-1.4c0-0.1,0.1-0.2,0.2-0.2h3.8v-2.1L32.8,15C32.8,15,32.7,15,32.6,14.9
	L32.6,14.9z M14.6,15.9h2.3c0.7,0,1.1-0.4,1.1-1c0-0.6-0.4-1-1.1-1h-2.3c-0.1,0-0.1,0.1-0.1,0.1c0,0,0,0,0,0v1.6
	C14.5,15.9,14.5,15.9,14.6,15.9C14.6,15.9,14.6,15.9,14.6,15.9z M23.9,21.3c0,0.1-0.1,0.1-0.1,0.1h-1.7c-0.1,0-0.1-0.1-0.1-0.1v-8.9
	c0-0.1,0.1-0.1,0.1-0.1h1.7c0.1,0,0.1,0.1,0.1,0.1L23.9,21.3z M33.6,0.1L16.9,12.3h0.4c1.7,0,2.6,1.1,2.6,2.3c0,0.9-0.5,1.6-1.2,2
	c-0.1,0.1-0.1,0.2,0,0.3c0.8,0.3,1.3,1.1,1.3,2.1c0,1.4-0.9,2.5-2.6,2.5h-4.8c-0.1,0-0.1-0.1-0.1-0.1c0,0,0,0,0,0v-5.8L0.1,24.6
	c-0.2,0.2-0.1,0.5,0.2,0.5h33.5c0.2,0,0.3-0.1,0.3-0.3v-4.6c-0.9,0.8-2.1,1.4-3.5,1.4c-2.7,0-4.9-1.8-4.9-4.7c0-2.9,2.2-4.7,4.9-4.7
	c1.7,0,2.8,0.8,3.5,1.7V0.3C34.1,0.1,33.8-0.1,33.6,0.1L33.6,0.1z M14.6,19.7H17c0.7,0,1.2-0.4,1.2-1c0-0.6-0.4-1-1.2-1h-2.4
	c-0.1,0-0.1,0.1-0.1,0.1c0,0,0,0,0,0v1.8C14.5,19.6,14.5,19.7,14.6,19.7C14.6,19.7,14.6,19.7,14.6,19.7L14.6,19.7z"/>
</svg>
