<svg width="64" height="64" viewBox="0 0 64 64" fill="none" xmlns="http://www.w3.org/2000/svg">
<path fill-rule="evenodd" clip-rule="evenodd" d="M27.1084 4.02445C29.304 4.26841 30.8862 6.24609 30.6422 8.44171L25.3089 56.4417C25.0649 58.6373 23.0873 60.2195 20.8916 59.9755C18.696 59.7316 17.1139 57.7539 17.3578 55.5583L22.6912 7.55826C22.9351 5.36263 24.9128 3.78049 27.1084 4.02445Z" fill="#8EBAFA"/>
<path fill-rule="evenodd" clip-rule="evenodd" d="M43.1084 4.02445C45.304 4.26841 46.8862 6.24609 46.6422 8.44171L41.3089 56.4417C41.0649 58.6373 39.0873 60.2195 36.8916 59.9755C34.696 59.7316 33.1139 57.7539 33.3578 55.5583L38.6912 7.55826C38.9351 5.36263 40.9128 3.78049 43.1084 4.02445Z" fill="#8EBAFA"/>
<path fill-rule="evenodd" clip-rule="evenodd" d="M6.66675 24C6.66675 21.7909 8.45761 20 10.6667 20H53.3334C55.5425 20 57.3334 21.7909 57.3334 24C57.3334 26.2091 55.5425 28 53.3334 28H10.6667C8.45761 28 6.66675 26.2091 6.66675 24Z" fill="#1D74F5"/>
<path fill-rule="evenodd" clip-rule="evenodd" d="M6.66675 40C6.66675 37.7909 8.45761 36 10.6667 36H53.3334C55.5425 36 57.3334 37.7909 57.3334 40C57.3334 42.2091 55.5425 44 53.3334 44H10.6667C8.45761 44 6.66675 42.2091 6.66675 40Z" fill="#1D74F5"/>
</svg>
