<svg width="64" height="64" viewBox="0 0 64 64" fill="none" xmlns="http://www.w3.org/2000/svg">
<path d="M32.0004 58.6667H8.00037C7.47299 58.6667 6.95745 58.5103 6.51895 58.2173C6.08044 57.9243 5.73868 57.5078 5.53687 57.0206C5.33507 56.5333 5.28228 55.9972 5.3852 55.4799C5.48811 54.9627 5.7421 54.4876 6.11504 54.1147L11.3521 48.8776C7.51948 44.1896 5.39642 38.3368 5.33207 32.2818C5.26773 26.2268 7.26592 20.3302 10.998 15.5618C14.7301 10.7933 19.9739 7.43692 25.867 6.04462C31.7601 4.65232 37.9515 5.30701 43.4231 7.901C48.8947 10.495 53.3205 14.8738 55.9728 20.3174C58.6251 25.7609 59.3459 31.945 58.0167 37.8526C56.6874 43.7602 53.3872 49.0396 48.6589 52.8224C43.9306 56.6053 38.0557 58.6663 32.0004 58.6667Z" fill="#8EBAFA"/>
<path d="M32.0001 43.3125C31.6499 43.3129 31.303 43.244 30.9794 43.11C30.6559 42.9759 30.362 42.7792 30.1148 42.5311L22.573 34.9895C21.0747 33.4885 20.2332 31.4542 20.2332 29.3333C20.2332 27.2124 21.0747 25.1781 22.573 23.6771C23.8007 22.4874 25.3702 21.7123 27.061 21.4605C28.7519 21.2088 30.4791 21.4931 32.0001 22.2734C33.5216 21.4933 35.2492 21.2092 36.9403 21.461C38.6315 21.7127 40.2014 22.4877 41.4298 23.6771C42.9272 25.1788 43.7678 27.2131 43.7673 29.3339C43.7668 31.4546 42.9252 33.4885 41.4271 34.9895L33.8854 42.5312C33.6381 42.7792 33.3443 42.9759 33.0207 43.11C32.6972 43.2441 32.3503 43.3129 32.0001 43.3125Z" fill="#1D74F5"/>
</svg>
