<?xml version="1.0" encoding="utf-8"?>
<!-- Generator: Adobe Illustrator 27.6.1, SVG Export Plug-In . SVG Version: 6.00 Build 0)  -->
<svg version="1.1" id="Layer_1" xmlns="http://www.w3.org/2000/svg" xmlns:xlink="http://www.w3.org/1999/xlink" x="0px" y="0px"
	 viewBox="0 0 225 225" style="enable-background:new 0 0 225 225;" xml:space="preserve">
<style type="text/css">
	.st0{fill:#FFFEFF;}
	.st1{fill:#34303F;}
</style>
<g>
	<path class="st0" d="M133.74,148.74c0-0.01,0-0.03,0-0.04c-2.29,0-4.58,0-6.87,0c-2.62,0-5.25,0-7.87,0.02
		c-1.15,0.01-2.18,0.23-2.13,1.76c0.02,0.66-0.03,1.31-0.03,1.97c0,3.54,0.03,7.07,0.02,10.61c-0.01,2.64-0.05,5.28-0.13,7.92
		c-0.06,2.02,0.83,3.04,2.9,3.03c8.41-0.04,16.83,0.02,25.24-0.04c2.37-0.02,4.78-0.12,7.11-0.51c2.69-0.46,5.2-1.61,7.05-3.69
		c2.84-3.19,3.56-7.04,2.72-11.13c-0.75-3.66-2.7-6.56-6.18-8.21c-2.31-1.1-4.81-1.59-7.33-1.66
		C143.4,148.66,138.57,148.74,133.74,148.74z M133.36,128.01c0-0.08,0-0.16,0-0.24c5.44,0,10.88,0.17,16.31-0.06
		c3.37-0.15,6.25-1.84,8.26-4.6c2.43-3.34,2.82-9.01-0.04-13.03c-0.92-1.3-2.21-2.5-3.59-3.27c-2.37-1.31-5.06-1.79-7.78-1.8
		c-9.2-0.03-18.4-0.02-27.6-0.01c-1.47,0-2.01,0.56-2.02,2c-0.01,3.24,0.02,6.49-0.02,9.73c-0.03,2.81-0.14,5.61-0.22,8.42
		c-0.06,2.02,0.71,2.86,2.6,2.86C123.95,128.01,128.65,128.01,133.36,128.01z"/>
	<path class="st1" d="M0,222.5c3.13-3.25,6.22-6.55,9.4-9.75c3.06-3.08,6.23-6.04,9.3-9.1c10.85-10.82,21.68-21.68,32.53-32.5
		c2.8-2.79,5.7-5.49,8.51-8.28c6.97-6.93,13.92-13.9,20.87-20.85c3.73-3.73,7.45-7.46,11.18-11.19c0.22-0.22,0.5-0.39,0.94-0.74
		c0,2.2,0,4.18,0,6.16c0,18.71,0,37.41,0,56.12c0,1.97,0.34,2.36,2.27,2.37c21.29,0,42.58,0.01,63.87-0.05
		c1.34,0,2.67-0.59,4.01-0.88c1.39-0.3,2.84-0.4,4.16-0.86c4.54-1.6,8.64-4.04,12-7.47c4.06-4.14,6.55-9.14,7.2-14.97
		c0.14-1.22,0.34-2.43,0.51-3.65c0.01-0.04,0.02-0.09,0-0.12c-0.92-1.97,0.5-4-0.23-6.05c-0.71-1.98-0.82-4.17-1.55-6.13
		c-2.63-7.05-7.17-12.38-14.27-15.31c-1-0.41-1.79-1.11-1.96-2.23c1.5-0.87,2.97-1.69,4.4-2.57c3.91-2.42,7.17-5.52,9.62-9.42
		c1.86-2.97,2.92-6.21,3.28-9.75c0.31-3.08,0.09-6.06-0.55-9.04c-0.81-3.74-2.55-7.02-4.92-9.98c-1.99-2.49-4.18-4.79-7.04-6.32
		c-1.82-0.97-3.59-2.09-5.5-2.85c-3.37-1.34-6.85-2.43-10.52-2.54c-5.77-0.17-11.55-0.23-17.32-0.32c-0.35-0.01-0.7,0.11-1.36,0.22
		c0.19-0.52,0.22-0.99,0.47-1.26c0.99-1.08,2.04-2.11,3.09-3.15c5.01-4.95,10.03-9.88,15.03-14.83
		c10.83-10.72,21.68-21.42,32.48-32.17c8.64-8.6,17.2-17.27,25.83-25.87c2.45-2.45,5.02-4.78,7.53-7.16c0.25,0,0.5,0,0.75,0
		c-0.06,0.73-0.06,1.4,1,1c0,74.33,0,148.67,0,223c-0.79-0.13-1.23,0.11-1,1c-74.25,0-148.5,0-222.75,0c0.02-0.27,0.03-0.54,0.06-1
		c-0.42,0-0.87,0-1.31,0C0,223.5,0,223,0,222.5z"/>
	<path class="st0" d="M0,224c0.44,0,0.89,0,1.31,0c-0.03,0.46-0.05,0.73-0.06,1c-0.42,0-0.83,0-1.25,0C0,224.67,0,224.33,0,224z"/>
	<path class="st0" d="M225,1c-1.06,0.4-1.06-0.27-1-1c0.33,0,0.67,0,1,0C225,0.33,225,0.67,225,1z"/>
	<path class="st0" d="M224,225c-0.23-0.89,0.21-1.13,1-1c0,0.33,0,0.67,0,1C224.67,225,224.33,225,224,225z"/>
	<path class="st1" d="M133.74,148.74c4.83,0,9.66-0.09,14.49,0.04c2.52,0.06,5.02,0.56,7.33,1.66c3.48,1.65,5.43,4.55,6.18,8.21
		c0.84,4.09,0.12,7.93-2.72,11.13c-1.85,2.08-4.36,3.23-7.05,3.69c-2.33,0.4-4.74,0.5-7.11,0.51c-8.41,0.06-16.83,0-25.24,0.04
		c-2.08,0.01-2.96-1.02-2.9-3.03c0.07-2.64,0.12-5.28,0.13-7.92c0.02-3.54-0.01-7.07-0.02-10.61c0-0.66,0.05-1.32,0.03-1.97
		c-0.06-1.53,0.98-1.75,2.13-1.76c2.62-0.03,5.25-0.02,7.87-0.02c2.29,0,4.58,0,6.87,0C133.74,148.71,133.74,148.73,133.74,148.74z"
		/>
	<path class="st1" d="M133.36,128.01c-4.7,0-9.41,0-14.11,0c-1.89,0-2.66-0.85-2.6-2.86c0.08-2.81,0.18-5.61,0.22-8.42
		c0.04-3.24,0.02-6.49,0.02-9.73c0-1.44,0.55-2,2.02-2c9.2-0.01,18.4-0.02,27.6,0.01c2.72,0.01,5.41,0.48,7.78,1.8
		c1.39,0.77,2.67,1.97,3.59,3.27c2.86,4.03,2.47,9.69,0.04,13.03c-2.01,2.76-4.89,4.45-8.26,4.6c-5.43,0.24-10.87,0.06-16.31,0.06
		C133.36,127.85,133.36,127.93,133.36,128.01z"/>
</g>
</svg>
