<?xml version="1.0" encoding="utf-8"?>
<!-- Generator: Adobe Illustrator 27.6.1, SVG Export Plug-In . SVG Version: 6.00 Build 0)  -->
<svg version="1.1" id="layer" xmlns="http://www.w3.org/2000/svg" xmlns:xlink="http://www.w3.org/1999/xlink" x="0px" y="0px"
	 viewBox="0 0 111.9 111.9" style="enable-background:new 0 0 111.9 111.9;" xml:space="preserve">
<style type="text/css">
	.st0{fill:none;}
	.st1{fill:#25C16F;}
	.st2{fill:#FFFFFF;}
</style>
<g>
	<path class="st0" d="M111.9,14.1v42"/>
	<path class="st1" d="M55.8,0h42c7.9,0,14.1,6.2,14.1,14.1v42c0,30.8-24.9,55.8-55.8,55.8h-0.3C25,111.9,0,87,0,56.1S25,0.4,55.8,0z
		"/>
	<path class="st2" d="M55.8,25c-14.1,0-25.6,11.5-25.6,25.6V68c0,4.6,3.9,8.5,8.5,8.5h7.2v-20h-9.8v-5.6c0.3-11.2,9.8-19.7,20.7-19
		c10.5,0.3,18.7,8.9,19,19v5.6H66v20h6.6v0.3c0,4.3-3.6,7.9-7.9,7.9h-7.9c-0.7,0-1.3,0.3-1.3,1s0.7,1.3,1.3,1.3h7.9
		c5.6,0,10.2-4.6,10.2-10.2v-0.7c3.9-1,6.6-4.3,6.6-8.2V50.8C81.7,36.5,70.2,25,55.8,25z"/>
</g>
</svg>
