<?xml version="1.0" encoding="utf-8"?>
<!-- Generator: Adobe Illustrator 27.6.1, SVG Export Plug-In . SVG Version: 6.00 Build 0)  -->
<svg version="1.1" id="layer" xmlns="http://www.w3.org/2000/svg" xmlns:xlink="http://www.w3.org/1999/xlink" x="0px" y="0px"
	 viewBox="0 0 131.5 141" style="enable-background:new 0 0 131.5 141;" xml:space="preserve">
<path d="M119.5,141h8.3c1.9,0,3.6-1.7,3.7-3.6V45c0-9.1-7.2-16.5-16.1-16.5h-10.7c-1.9,0-3.6-1.7-3.6-3.6v-8.4
	C101.1,7.4,93.9,0,85,0H16.1C7.2,0,0,7.3,0,16.5v92.9c0,9,7.2,16.4,16.1,16.5h79.8c0.7,0,1.4,0.2,2,0.6l19.5,14
	C118,140.8,118.8,141,119.5,141z M100.1,112.6H16.3c-2,0-3.6-1.6-3.6-3.6V16.7c0-2,1.6-3.6,3.6-3.6h68.5c1.9,0,3.6,1.7,3.6,3.6v8.2
	c0,2-1.6,3.6-3.6,3.6h-51c-1.9,0-3.6,1.7-3.6,3.6v61.6c0,2,1.6,3.6,3.6,3.6h63.7c1.9,0,3.6-1.7,3.6-3.6V45.2c0-2,1.6-3.6,3.6-3.6
	h10.4c1.9,0,3.6,1.7,3.6,3.6v75.5c0,1.9-2,2.9-3.4,1.9l-13-9.3C101.5,112.8,100.8,112.6,100.1,112.6z M86.5,84.1H44.7
	c-0.9,0-1.7-0.7-1.7-1.8V43.2c0-0.9,0.7-1.8,1.7-1.8h41.8c0.9,0,1.7,0.7,1.7,1.8v39.1C88.2,83.3,87.5,84.1,86.5,84.1z"/>
</svg>
