<svg width="64" height="64" viewBox="0 0 64 64" fill="none" xmlns="http://www.w3.org/2000/svg">
<path d="M6.97909 47.7968C6.49169 47.5952 6.07509 47.2535 5.78209 46.8149C5.48909 46.3764 5.33288 45.8607 5.33325 45.3333V13.3333C5.33325 11.2115 6.17611 9.17669 7.6764 7.6764C9.17669 6.17611 11.2115 5.33325 13.3333 5.33325H39.9999C42.1217 5.33325 44.1565 6.17611 45.6568 7.6764C47.1571 9.17669 47.9999 11.2115 47.9999 13.3333V31.6615C47.9999 33.7833 47.1571 35.8181 45.6568 37.3184C44.1565 38.8187 42.1217 39.6615 39.9999 39.6615H17.4353L9.88525 47.2186C9.51236 47.5916 9.03718 47.8457 8.51985 47.9486C8.00252 48.0515 7.46629 47.9987 6.97901 47.7967L6.97909 47.7968Z" fill="#8EBAFA"/>
<path d="M55.9999 58.6667C55.6497 58.6667 55.303 58.5976 54.9795 58.4636C54.656 58.3295 54.3621 58.133 54.1146 57.8854L47.7839 51.5547H29.3333C27.2122 51.5524 25.1787 50.7088 23.679 49.209C22.1792 47.7092 21.3356 45.6757 21.3333 43.5547V29.3334C21.3356 27.2124 22.1792 25.1789 23.679 23.6791C25.1787 22.1793 27.2122 21.3357 29.3333 21.3334H50.6666C52.7876 21.3357 54.8211 22.1793 56.3209 23.6791C57.8207 25.1789 58.6643 27.2124 58.6666 29.3334V56C58.6666 56.7073 58.3856 57.3856 57.8855 57.8857C57.3854 58.3858 56.7072 58.6667 55.9999 58.6667Z" fill="#1D74F5"/>
</svg>
