<?xml version="1.0" encoding="utf-8"?>
<!-- Generator: Adobe Illustrator 27.6.1, SVG Export Plug-In . SVG Version: 6.00 Build 0)  -->
<svg version="1.1" id="Layer_1" xmlns="http://www.w3.org/2000/svg" xmlns:xlink="http://www.w3.org/1999/xlink" x="0px" y="0px"
	 viewBox="0 0 816.71 1004.35" style="enable-background:new 0 0 816.71 1004.35;" xml:space="preserve">
<style type="text/css">
	.st0{fill:#FFFFFF;}
	.st1{fill:#013187;}
	.st2{fill:#0270E0;}
	.st3{fill:#001C64;}
</style>
<g>
	<path class="st0" d="M696.4,231.19c0.03-0.56-0.2-0.99-0.67-1.29c0.79-31.99-5.67-62.61-18.7-91.67
		c-25.29-56.39-67.9-94.97-124.46-118.66C520.26,6.05,486.24,0.35,451.47,0.21C352.86-0.17,254.26,0.07,155.65,0.1
		c-3.31,0-6.61,0.38-9.92,0.59l-0.77-0.23l-0.42,0.68c-14.29,3.35-22.28,11.8-24.05,26.47c-1.56,12.93-5.51,25.37-6.3,38.51
		c-0.84,13.95-6.24,27.38-6.15,41.57c0.01,0.99-0.3,1.97-0.42,2.96c-1.42,11.71-6.43,22.82-5.63,34.92
		c0.15,2.23-0.85,4.55-1.41,6.81c-0.69,2.8-1.78,5.54-2.15,8.37c-0.84,6.44-0.4,13.19-2.17,19.33c-4.44,15.38-5.09,31.27-7.67,46.89
		c-0.47,2.86-1.85,5.58-2.18,8.44c-1.11,9.49-1.71,19.04-2.93,28.51c-2.43,18.82-7.55,37.19-9.18,56.19
		c-1.19,13.95-6.35,27.37-6.25,41.57c0.01,0.99-0.3,1.97-0.42,2.96c-1.42,11.71-6.5,22.82-5.59,34.92c0.1,1.29-0.04,2.82-0.65,3.91
		c-4.83,8.71-2.57,18.59-4.67,27.79c-2.45,10.72-3.71,21.71-5.63,32.55c-1.46,8.26-3.5,16.44-4.64,24.74
		c-1.3,9.46-1.61,19.05-2.85,28.51c-2.5,19.15-7.55,37.87-9.31,57.18c-1.27,13.94-6.29,27.38-6.27,41.57c0,0.99-0.31,1.97-0.43,2.96
		c-1.41,11.71-6.53,22.82-5.57,34.92c0.1,1.29-0.01,2.88-0.67,3.9c-5.42,8.27-2.07,17.96-4.52,26.85
		c-2.73,9.93-2.69,20.58-4.69,30.75c-3.69,18.87-8.42,37.55-8.31,56.97c-2.03,3.98-6.95,7.74-0.94,12.34
		c1.67,3.51,2.88,7.36,5.11,10.47c5.39,7.54,13.51,8.64,22.12,8.62c56.87-0.08,113.75-0.05,170.62-0.05
		c-0.7,5.12-1.43,10.24-2.08,15.37c-0.38,2.97-0.47,5.99-1,8.94c-3.03,17.07-6.18,34.12-9.23,51.19c-0.8,4.46-1.5,8.94-2.05,13.44
		c-0.61,4.93-0.65,9.96-1.56,14.83c-1.93,10.26-5.25,20.25-4.76,30.93c0.15,3.25-0.59,6.7-1.65,9.81c-3.08,9.1-3.43,18.5-4.43,27.93
		c-1.9,17.86,11.45,28.58,26.69,28.35c48.31-0.72,96.65-0.66,144.96-0.05c16.42,0.21,29.68-12.01,31.39-26.07
		c2.38-19.62,6.14-39.07,9.22-58.61c8.08-51.27,16.11-102.55,24.17-153.83c2.11-13.4,3.6-26.94,6.53-40.16
		c3.15-14.19,13.54-21.8,28.19-22.25c5.99-0.18,12,0,17.99-0.08c30.98-0.4,61.99-0.04,92.92-1.43
		c38.77-1.74,75.49-12.83,109.46-31.07c58.02-31.15,101.18-76.94,127.57-137.58c6.58-15.14,10.73-31.35,15.71-47.16
		c8.27-26.25,9.1-53.4,6.88-80.37c-3.32-40.39-18.03-76.89-42.29-109.44c-2.58-3.46-5.25-6.93-8.3-9.97
		c-8-7.97-16.63-15.34-24.29-23.61C728.15,249,712.77,239.46,696.4,231.19z"/>
	<path class="st1" d="M3.83,772.17c-0.11-19.41,4.62-38.1,8.31-56.97c1.99-10.17,1.95-20.83,4.69-30.75
		c2.45-8.89-0.91-18.59,4.52-26.85c0.67-1.02,0.78-2.61,0.67-3.9c-0.96-12.1,4.16-23.21,5.57-34.92c0.12-0.99,0.43-1.97,0.43-2.96
		c-0.02-14.19,5-27.62,6.27-41.57c1.75-19.31,6.81-38.03,9.31-57.18c1.24-9.47,1.55-19.06,2.85-28.51
		c1.14-8.3,3.18-16.48,4.64-24.74c1.92-10.85,3.18-21.83,5.63-32.55c2.1-9.19-0.16-19.07,4.67-27.79c0.61-1.1,0.74-2.62,0.65-3.91
		c-0.92-12.09,4.17-23.21,5.59-34.92c0.12-0.99,0.43-1.98,0.42-2.96c-0.1-14.2,5.05-27.62,6.25-41.57c1.63-19,6.75-37.36,9.18-56.19
		c1.22-9.47,1.82-19.02,2.93-28.51c0.34-2.86,1.71-5.58,2.18-8.44c2.58-15.62,3.23-31.51,7.67-46.89
		c1.77-6.14,1.33-12.89,2.17-19.33c0.37-2.84,1.46-5.57,2.15-8.37c0.56-2.26,1.55-4.58,1.41-6.81c-0.8-12.1,4.21-23.21,5.63-34.92
		c0.12-0.99,0.43-1.98,0.42-2.96c-0.09-14.2,5.31-27.62,6.15-41.57c0.79-13.14,4.74-25.59,6.3-38.51
		c1.77-14.67,9.76-23.12,24.04-26.47c-0.01,0,0.74,0.17,0.74,0.17l0.46-0.63c3.31-0.2,6.61-0.59,9.92-0.59
		c98.61-0.03,197.21-0.27,295.82,0.11c34.77,0.13,68.79,5.84,101.1,19.37c56.56,23.69,99.17,62.27,124.46,118.66
		c13.03,29.05,19.49,59.68,18.7,91.66c-18.07-8.45-36.43-16.35-56-20.39c-16.14-3.33-32.56-7.29-48.88-7.42
		c-89.93-0.72-179.87-0.36-269.81-0.35c-13.48,0-25.84,9.78-28.5,22.94c-1.71,8.41-2.86,16.94-4.15,25.44
		c-3.51,23.2-6.8,46.44-10.47,69.61c-2.95,18.59-6.56,37.08-9.44,55.69c-3.08,19.92-5.45,39.95-8.5,59.87
		c-3.79,24.82-7.98,49.58-11.89,74.38c-0.32,2,0.23,4.14,0.37,6.21c-1.33,4.02-3.15,7.94-3.89,12.07
		c-1.4,7.79-2.03,15.72-3.25,23.55c-2.9,18.62-6,37.2-8.94,55.81c-3.09,19.57-6.01,39.16-9.14,58.72
		c-2.87,17.93-6.84,35.74-8.6,53.78c-1.51,15.49-6.63,30.28-7.01,45.99c-0.29,11.78-5.96,22.99-5.64,35.08
		c0.02,0.88-0.82,1.78-1.26,2.67c-56.87,0-113.75-0.03-170.62,0.05c-8.6,0.01-16.72-1.09-22.12-8.62c-2.23-3.11-3.44-6.96-5.1-10.46
		C3.2,780.41,3.51,776.29,3.83,772.17z"/>
	<path class="st2" d="M200.73,803.55c0.44-0.89,1.28-1.79,1.26-2.67c-0.32-12.08,5.35-23.3,5.64-35.08
		c0.38-15.72,5.5-30.5,7.01-45.99c1.76-18.03,5.73-35.84,8.6-53.78c3.13-19.56,6.05-39.16,9.14-58.72
		c2.94-18.61,6.04-37.2,8.94-55.81c1.22-7.83,1.85-15.76,3.25-23.55c0.74-4.12,2.56-8.05,3.88-12.07
		c8.02-10.89,18.98-14.18,32.18-14.08c47.26,0.35,94.52,0.29,141.78-0.06c10.5-0.08,20.98-0.19,31.61-1.8
		c31.17-4.72,60.41-14.98,88.1-29.28c48.73-25.16,87.15-61.74,114.96-109.1c18.34-31.25,30.56-64.78,35.44-100.82
		c1.33-9.85,2.59-19.7,3.89-29.56c16.37,8.27,31.75,17.81,44.39,31.47c7.66,8.28,16.29,15.64,24.29,23.61
		c3.05,3.04,5.71,6.51,8.3,9.97c24.26,32.55,38.97,69.05,42.29,109.44c2.22,26.98,1.39,54.12-6.88,80.37
		c-4.98,15.81-9.13,32.03-15.71,47.16c-26.38,60.64-69.54,106.43-127.57,137.58c-33.97,18.24-70.7,29.33-109.46,31.07
		c-30.93,1.39-61.94,1.04-92.92,1.43c-6,0.08-12-0.1-17.99,0.08c-14.65,0.44-25.05,8.05-28.19,22.25
		c-2.93,13.22-4.42,26.76-6.53,40.16c-8.06,51.28-16.09,102.56-24.17,153.83c-3.08,19.54-6.85,38.99-9.22,58.61
		c-1.7,14.06-14.96,26.28-31.39,26.07c-48.32-0.62-96.65-0.67-144.96,0.05c-15.24,0.23-28.59-10.5-26.69-28.35
		c1-9.44,1.36-18.84,4.43-27.93c1.05-3.11,1.8-6.56,1.65-9.81c-0.49-10.68,2.83-20.67,4.76-30.93c0.92-4.87,0.95-9.9,1.56-14.83
		c0.56-4.5,1.26-8.98,2.05-13.44c3.05-17.07,6.2-34.12,9.23-51.19c0.52-2.94,0.62-5.96,1-8.94
		C199.3,813.8,200.03,808.68,200.73,803.55z"/>
	<path class="st3" d="M696.4,231.19c-1.29,9.85-2.55,19.71-3.89,29.56c-4.88,36.04-17.09,69.57-35.44,100.82
		c-27.8,47.36-66.22,83.94-114.96,109.1c-27.69,14.3-56.93,24.55-88.1,29.28c-10.63,1.61-21.1,1.72-31.61,1.8
		c-47.26,0.35-94.52,0.41-141.78,0.06c-13.2-0.1-24.16,3.19-32.18,14.08c-0.14-2.07-0.69-4.21-0.37-6.21
		c3.91-24.8,8.1-49.56,11.89-74.38c3.04-19.93,5.41-39.95,8.5-59.87c2.88-18.6,6.5-37.09,9.44-55.69
		c3.67-23.17,6.96-46.41,10.47-69.61c1.28-8.49,2.44-17.02,4.15-25.44c2.67-13.16,15.02-22.94,28.5-22.94
		c89.94-0.01,179.88-0.37,269.81,0.35c16.32,0.13,32.74,4.09,48.88,7.42c19.58,4.04,37.93,11.94,56,20.39
		C696.2,230.2,696.42,230.63,696.4,231.19z"/>
	<path class="st2" d="M3.83,772.17c-0.31,4.12-0.62,8.24-0.94,12.35C-3.12,779.91,1.79,776.15,3.83,772.17z"/>
	<path class="st2" d="M145.73,0.69l-0.46,0.63c0,0-0.75-0.17-0.74-0.17c0.01,0,0.43-0.68,0.43-0.68L145.73,0.69z"/>
</g>
</svg>
