<?xml version="1.0" encoding="utf-8"?>
<!-- Generator: Adobe Illustrator 27.6.1, SVG Export Plug-In . SVG Version: 6.00 Build 0)  -->
<svg version="1.1" id="Layer_1" xmlns:v="https://vecta.io/nano"
	 xmlns="http://www.w3.org/2000/svg" xmlns:xlink="http://www.w3.org/1999/xlink" x="0px" y="0px" viewBox="0 0 275.6 339.4"
	 style="enable-background:new 0 0 275.6 339.4;" xml:space="preserve">
<style type="text/css">
	.st0{fill:#001C64;}
	.st1{fill:#0070E0;}
	.st2{fill:#003087;}
</style>
<g transform="translate(936.898 -21.779)">
	<path class="st0" d="M-829.1,89.6c-4.8,0-8.9,3.5-9.7,8.3l-16.1,101.8c0.7-4.8,4.8-8.3,9.7-8.3h47c47.3,0,87.5-34.5,94.8-81.3
		c0.5-3.5,0.9-7,0.9-10.6c-12-6.3-26.2-9.9-41.6-9.9L-829.1,89.6z"/>
	<path class="st1" d="M-702.3,99.6c-0.1,3.5-0.4,7.1-0.9,10.6c-7.3,46.8-47.5,81.3-94.8,81.3h-47c-4.8,0-8.9,3.5-9.7,8.3l-14.8,93.6
		l-9.2,58.7c-0.7,4.3,2.3,8.4,6.6,9.1c0.4,0.1,0.8,0.1,1.3,0.1h51.1c4.8,0,8.9-3.5,9.7-8.3l13.4-85.3c0.8-4.8,4.9-8.3,9.7-8.3h30.1
		c47.3,0,87.5-34.5,94.8-81.3C-657,144.8-673.7,114.6-702.3,99.6L-702.3,99.6z"/>
	<path class="st2" d="M-887.1,21.8c-4.8,0-8.9,3.5-9.7,8.3l-40.1,254c-0.8,4.8,3,9.2,7.9,9.2h59.4l14.8-93.6l16.1-101.8
		c0.8-4.8,4.8-8.3,9.7-8.3h85.1c15.5,0,29.6,3.6,41.6,9.9c0.8-42.6-34.3-77.8-82.7-77.8L-887.1,21.8z"/>
</g>
</svg>
