<?xml version="1.0" encoding="utf-8"?>
<!-- Generator: Adobe Illustrator 27.6.1, SVG Export Plug-In . SVG Version: 6.00 Build 0)  -->
<svg version="1.1" id="Layer_1" xmlns="http://www.w3.org/2000/svg" xmlns:xlink="http://www.w3.org/1999/xlink" x="0px" y="0px"
	 viewBox="0 0 357.02 512" style="enable-background:new 0 0 357.02 512;" xml:space="preserve">
<style type="text/css">
	.st0{fill:#6772E5;}
</style>
<g>
	<path class="st0" d="M181.79,512c-14.33,0-28.67,0-43,0c-1.06-0.32-2.11-0.82-3.19-0.94c-12.56-1.39-25.24-2.04-37.66-4.23
		c-20.01-3.53-40.15-6.78-59.21-14.35c-9.28-3.69-18.6-7.31-27.92-10.89c-2.96-1.14-4.16-2.82-4.14-6.28
		c0.15-41.65,0.1-83.3,0.11-124.95c0-1.35,0.23-2.7,0.32-3.78c10.21,4.8,19.85,9.72,29.8,13.91c11.75,4.95,23.78,9.28,35.67,13.89
		c5.61,2.17,11.07,4.84,16.83,6.47c8.12,2.3,17.17,0.25,24.81,5.1c0.24,0.15,0.66,0.09,0.99,0.05c5.32-0.71,10.38-0.08,15.09,2.72
		c0.64,0.38,1.62,0.23,2.44,0.29c4.91,0.36,9.88,0.37,14.72,1.14c15.51,2.48,30.58,0.41,45.32-4.28
		c6.49-2.07,12.95-5.49,16.04-11.71c2.7-5.45,4.31-11.82,4.79-17.91c1.01-12.79-6.78-21.47-16.53-27.82
		c-8.66-5.64-18.14-10.2-27.64-14.36c-9.81-4.29-20.03-7.66-30.16-11.18c-6.14-2.14-12.59-3.45-18.65-5.78
		c-5.62-2.15-10.92-5.12-16.34-7.78c-13.6-6.69-27.56-12.77-40.66-20.34c-9-5.2-17.39-11.84-25.06-18.92
		C13.73,227.13,1.5,198.36,0.8,164.63c-0.14-6.66,0.04-13.33-0.06-19.99c-0.03-2.1-1.05-4.31-0.63-6.26
		c1.35-6.29,3.27-12.45,4.76-18.71c5.45-22.89,15.61-43.42,31.18-61.06c15.33-17.36,33.83-30.51,55.13-39.66
		c19.48-8.38,39.64-14.1,60.84-16.04C157.65,2.41,163.2,1,168.79,0c16.34,0,32.67,0,49.01,0c0.39,0.27,0.75,0.73,1.16,0.79
		c13.54,1.73,27.13,3.06,40.6,5.22c13.53,2.18,27.09,4.59,40.34,8.03c8.96,2.33,17.35,6.79,26.12,9.93c3.63,1.3,4.56,3.26,4.55,6.95
		c-0.14,40.32-0.08,80.64-0.1,120.96c0,1.6-0.19,3.19-0.34,5.69c-4.18-1.86-7.82-3.24-11.22-5.05c-4.29-2.28-8.15-5.53-12.62-7.27
		c-9.4-3.66-19.09-6.6-28.65-9.87c-0.93-0.32-1.76-1-2.71-1.2c-6.13-1.29-12.26-2.57-18.42-3.69c-10.48-1.9-20.94-4.06-31.49-5.4
		c-9.48-1.21-19.08-1.38-28.62-2.16c-11.59-0.95-22.95-1.46-34.26,2.9c-8.76,3.38-14.96,9.01-18.81,17.09
		c-1.34,2.82-0.78,6.75-0.45,10.1c0.33,3.32,1,6.77,2.32,9.81c3.56,8.16,10.54,13.03,17.96,17.25
		c22.44,12.76,47.64,18.48,71.36,27.99c16.37,6.56,32.64,13.46,48.58,21c13.18,6.24,24.19,15.76,35.04,25.52
		c14.29,12.85,24.24,28.38,30.69,46.23c8.66,23.95,9.35,48.72,7.04,73.8c-1.76,19.15-7.72,37.03-16.85,53.7
		c-11.87,21.67-28.73,39.07-50.12,51.42c-11.79,6.8-24.4,12.31-37,17.52c-17.74,7.33-36.51,10.81-55.57,12.77
		C191.47,510.53,186.64,511.34,181.79,512z"/>
</g>
</svg>
