<?xml version="1.0" encoding="utf-8"?>
<!-- Generator: Adobe Illustrator 27.6.1, SVG Export Plug-In . SVG Version: 6.00 Build 0)  -->
<svg version="1.1" id="Layer_1" xmlns="http://www.w3.org/2000/svg" xmlns:xlink="http://www.w3.org/1999/xlink" x="0px" y="0px"
	 viewBox="0 0 74.3 90.5" style="enable-background:new 0 0 74.3 90.5;" xml:space="preserve">
<style type="text/css">
	.st0{fill:url(#SVGID_1_);}
	.st1{fill:#EF463D;}
	.st2{fill:#761116;}
	.st3{fill:#FFFFFF;}
</style>
<g transform="matrix(1.3333 0 0 -1.3333 0 100.08)">
	<g transform="matrix(.29378 0 0 .29378 0 .042373)">
		
			<linearGradient id="SVGID_1_" gradientUnits="userSpaceOnUse" x1="-371.2344" y1="-928.0038" x2="-370.2344" y2="-928.0038" gradientTransform="matrix(9.6961 -58.5352 -58.5352 -9.6961 -50642.9766 -30542.4922)">
			<stop  offset="0" style="stop-color:#D92231"/>
			<stop  offset="1" style="stop-color:#BA2234"/>
		</linearGradient>
		<path class="st0" d="M156.3,200.2l23-151.6L24.8,24.3L0,176.2L156.3,200.2"/>
		<g transform="translate(0 153.57)">
			<path class="st1" d="M0,22.7l10.9,54.1l156,25l-10.6-55.2L0,22.7"/>
		</g>
		<g transform="translate(166.88 232.7)">
			<path class="st2" d="M0,22.7l22.9-153l-10.4-53.7l-23,151.6L0,22.7"/>
		</g>
		<g transform="translate(500.47 147.76)">
			<path class="st3" d="M-360.8-75c-1.2,1.5-2.9,2.5-4.9,3.2c-2.1,0.7-4.5,1.1-7.5,1.1c-2.8,0-5.9-0.3-9.5-0.9l-40.8-7
				c0.4,3.1,2,7.3,4.7,12.3c3.1,5.6,7.6,12.4,13.6,20.3l0,0c2.1,2.7,3.6,4.8,4.7,6.3c0.8,1,1.9,2.4,3.3,4.3
				c9.3,12.2,15.1,22.2,17.3,30c1.3,4.4,2,8.9,2.3,13.4c0.1,1.2,0.1,2.5,0.1,3.7c0,3.2-0.3,6.4-0.8,9.5c-0.5,2.8-1.2,5.2-2.1,7.1
				c-0.9,1.9-2.1,3.3-3.6,4.2c-1.7,1-4,1.4-7.1,1.4c-2.5,0-5.6-0.3-9.1-0.9l-47.1-8.1c-5.7-1-9.9-2.7-12.6-5.2
				c-2.1-2-3.2-4.6-3.2-7.6c0-0.8,0.1-1.6,0.2-2.4c0.7-4,2.8-6.9,6.1-8.4c2-0.9,4.4-1.3,7.2-1.3c1.9,0,4,0.2,6.3,0.6l39.5,6.7
				c0.1-0.7,0.1-1.4,0.1-2.1c0-2.5-0.4-4.9-1.3-7.2c-1.2-3.3-4.1-7.9-8.8-13.9c-1.3-1.6-3.3-4.1-6.1-7.6
				c-10.6-12.9-18.3-23.9-22.9-33c0,0,0,0,0,0c0,0,0,0,0,0c-3.3-6.3-5.5-12.5-6.8-18.6c-0.7-3.6-1.1-7-1.1-10.3
				c0-2.3,0.2-4.6,0.6-6.8c0.5-3.2,1.3-5.8,2.4-7.8c1-2.1,2.4-3.6,4-4.5c1.5-0.8,3.8-1.2,6.9-1.2c3.9,0,9.3,0.6,16,1.7l42.8,7.3
				c7.6,1.3,12.8,3.1,15.9,5.6c2.4,2,3.7,4.8,3.7,8c0,0.8-0.1,1.7-0.2,2.6C-358.8-78.3-359.6-76.5-360.8-75L-360.8-75z M-397-35.5
				L-397-35.5C-397-35.5-397-35.5-397-35.5L-397-35.5L-397-35.5z"/>
		</g>
	</g>
</g>
</svg>
