<svg width="192" height="192" viewBox="0 0 192 192" fill="none" xmlns="http://www.w3.org/2000/svg">
<g clip-path="url(#clip0)">
<path fill-rule="evenodd" clip-rule="evenodd" d="M14 191.742V163.704H36.0941V28.1668H14V0H102.635C143.206 0 168.014 18.8641 168.014 51.6824C168.24 60.6592 165.608 69.4758 160.499 76.8604C155.391 84.2451 148.068 89.816 139.588 92.7698C150.15 94.7455 159.731 100.24 166.77 108.358C173.809 116.477 177.891 126.74 178.35 137.475C178.35 172.49 151.217 192 106.899 192L14 191.742ZM66.5868 28.1668V79.8492H99.6637C124.471 79.8492 137.392 70.5464 137.392 54.008C137.392 37.4697 124.471 28.1668 99.4052 28.1668H66.5868ZM66.5868 163.704H104.315C133.386 163.704 147.987 154.013 147.987 135.537C147.987 117.061 132.482 107.37 101.989 107.37H66.5868V163.704Z" fill="black"/>
</g>
<defs>
<clipPath id="clip0">
<rect width="192" height="192" fill="white"/>
</clipPath>
</defs>
</svg>
