<?xml version="1.0" encoding="UTF-8"?>
<svg id="katman_1" data-name="katman 1" xmlns="http://www.w3.org/2000/svg" viewBox="0 0 350.64 350.88">
  <defs>
    <style>
      .cls-1 {
        fill: #fff;
      }

      .cls-2 {
        fill: #1fb358;
      }
    </style>
  </defs>
  <path class="cls-2" d="m0,184.07c0-5.28,0-10.56,0-15.84.08-.13.21-.25.22-.38.21-2.88.37-5.76.61-8.63.25-2.94.45-5.9.91-8.81.56-3.6,1.34-7.17,2.07-10.75,2-9.76,4.9-19.26,8.59-28.51,6.3-15.8,14.7-30.4,25.27-43.73,2.93-3.69,5.98-7.29,9.1-10.82,1.86-2.1,3.91-4.02,5.97-5.94,3.46-3.22,6.94-6.43,10.52-9.52,2.51-2.17,5.2-4.15,7.83-6.19,5.33-4.13,10.89-7.91,16.88-11.02,5.04-2.62,10.01-5.41,15.16-7.81,4.57-2.13,9.3-3.92,14.02-5.68,3.7-1.38,7.47-2.62,11.27-3.7,3.51-.99,7.1-1.73,10.68-2.49,3.62-.77,7.24-1.54,10.9-2.09,4.15-.62,8.33-1.09,12.52-1.44,3.63-.31,7.29-.52,10.93-.53,44.51-.03,89.03-.02,133.54-.02,4.27,0,8.45.61,12.5,1.91,2.86.92,5.71,1.82,8.19,3.74,1.92,1.49,4.31,2.37,6.26,3.83,1.96,1.48,3.77,3.23,5.41,5.06,3.75,4.18,6.84,8.79,8.26,14.35.36,1.42,1.19,2.73,1.55,4.15.47,1.86.82,3.78.97,5.69.05.66-.28,1.28.54,1.63v143.53c-.31,1.62-.71,3.23-.92,4.86-.15,1.14.05,2.33-.06,3.48-.35,3.58-.68,7.17-1.22,10.72-.49,3.23-1.19,6.44-1.87,9.64-.29,1.36-.81,2.67-1.12,4.02-.42,1.84-.73,3.71-1.1,5.56-.01.07-.11.12-.14.19-.32.82-.7,1.62-.93,2.47-.45,1.67-.7,3.39-1.25,5.02-.59,1.78-1.49,3.45-2.12,5.22-.59,1.63-.94,3.35-1.52,4.99-.44,1.24-1.03,2.43-1.6,3.63-.69,1.45-1.47,2.85-2.12,4.32-.96,2.16-1.76,4.4-2.79,6.52-.87,1.8-1.99,3.47-2.96,5.22-.47.84-.78,1.76-1.27,2.59-.93,1.59-1.89,3.18-2.91,4.71-3.22,4.85-6.32,9.8-9.76,14.5-5.37,7.33-11.5,14.02-18.06,20.32-15,14.42-32.06,25.76-51.11,34.12-9.37,4.11-19.01,7.42-28.98,9.72-4.94,1.14-9.91,2.13-14.9,3.01-2.91.51-5.87.74-8.82.97-3.9.31-7.8.54-11.71.74-2.87.14-5.74.17-8.61.25h-2.88c-.2-.08-.4-.22-.6-.23-3.92-.25-7.84-.44-11.75-.75-2.93-.23-5.88-.48-8.78-.98-4.79-.83-9.57-1.77-14.31-2.85-16.6-3.79-32.21-10.17-47.01-18.53-4.31-2.44-8.47-5.17-12.55-8-3.77-2.62-7.39-5.47-10.96-8.36-3.14-2.54-6.3-5.1-9.16-7.94-4.39-4.36-8.61-8.91-12.76-13.5-2.62-2.9-5.16-5.9-7.4-9.09-3.62-5.16-7.18-10.4-10.38-15.83-3.2-5.43-6.06-11.07-8.8-16.75-3.4-7.04-6.13-14.37-8.23-21.91-1.46-5.24-2.73-10.54-3.82-15.87-1-4.88-1.77-9.82-2.41-14.76-.45-3.47-.51-7-.76-10.5-.02-.32-.16-.64-.24-.96Zm251.37,27.84c.13-.65.25-1.31.41-1.96.06-.24.31-.46.31-.68,0-.95-.08-1.9-.09-2.85-.01-2.64,0-5.28,0-7.92v-31.92c0-2.68,0-5.36,0-8.04,0-2.64.28-5.32-.08-7.91-.35-2.54.32-5.15-.6-7.63-.04-.1.18-.27.19-.41.01-.32.03-.65-.06-.95-.14-.47-.43-.9-.55-1.37-.88-3.68-1.57-7.42-2.65-11.05-.81-2.72-1.98-5.36-3.21-7.94-1.49-3.13-3.02-6.28-4.87-9.2-3.37-5.34-7.36-10.22-12.05-14.5-3.43-3.13-7.04-6.01-10.96-8.5-3.61-2.29-7.28-4.45-11.32-5.91-3.54-1.28-7.01-2.86-10.65-3.71-4.76-1.12-9.64-1.94-14.52-2.36-3.94-.34-7.96.04-11.94.17-4,.13-7.94.79-11.77,1.93-3.49,1.03-7.02,2.01-10.4,3.34-3.06,1.2-5.97,2.8-8.91,4.3-1.27.65-2.45,1.49-3.66,2.25-1.38.87-2.81,1.68-4.09,2.67-2.05,1.59-3.98,3.33-5.98,4.99-3.49,2.9-6.56,6.24-9.26,9.85-2.47,3.31-4.8,6.78-6.73,10.42-2.14,4.06-3.98,8.33-5.53,12.66-1.5,4.19-2.52,8.56-3.02,13.01-.27,2.39-.69,4.78-.69,7.18-.06,19-.04,38-.02,57,0,1.07.05,2.17.27,3.21,1.77,8.45,6.45,14.75,14.09,18.79,2.79,1.48,5.82,2.58,8.95,2.66,7.51.19,15.04.06,22.55.06.42,0,.85,0,1.3,0v-60.19h-29.41v-1.39c0-5.4-.08-10.8.03-16.2.05-2.66.33-5.34.75-7.97.33-2.1.99-4.15,1.59-6.2,3.21-10.97,9.18-20.16,17.76-27.7,4.58-4.02,9.62-7.28,15.24-9.66,3.92-1.66,7.92-2.98,12.14-3.7,3.04-.52,6.07-.99,9.16-.91,3.11.08,6.23.1,9.34.27,1.53.08,3.05.43,4.57.7,1.9.33,3.86.51,5.69,1.09,2.58.82,5.1,1.85,7.56,2.97,2.52,1.14,5,2.4,7.38,3.81,1.69,1,3.2,2.3,4.76,3.51,1.24.97,2.43,2,3.62,3.03,1.12.96,2.27,1.9,3.28,2.96,1.02,1.08,1.9,2.29,2.8,3.48,1.43,1.88,3.01,3.68,4.19,5.71,1.55,2.67,2.83,5.5,4.13,8.31.93,2.02,1.8,4.09,2.48,6.21.51,1.58.58,3.3.98,4.92.89,3.61,1.28,7.28,1.37,10.97.11,4.8.03,9.6.03,14.4v1.43h-29.45v60.22h19.52c.35,5.6-1.39,10.52-4.53,14.82-1.88,2.57-4.27,4.79-7.17,6.4-3.64,2.02-7.43,3.28-11.63,3.26-7.72-.03-15.44-.02-23.16.01-.9,0-1.82.19-2.68.44-1.06.3-2.14,2.27-1.87,3.21.51,1.74,2.57,3.29,4.4,3.29,7.84,0,15.68-.02,23.52,0,3.8.01,7.45-.75,10.89-2.31,2.04-.93,3.94-2.16,5.91-3.25,2.55-1.42,4.4-3.63,6.29-5.76,1.99-2.24,3.64-4.73,4.58-7.61.74-2.28,1.56-4.57,2.02-6.92.43-2.19.42-4.46.61-6.7,9.6-2.78,15.95-9,18.88-18.62Z"/>
  <path class="cls-1" d="m350.64,40.54c-.82-.35-.49-.97-.54-1.63-.15-1.91-.49-3.83-.97-5.69-.36-1.42-1.19-2.73-1.55-4.15-1.42-5.56-4.5-10.16-8.26-14.35-1.64-1.83-3.45-3.58-5.41-5.06-1.95-1.46-4.34-2.34-6.26-3.83-2.47-1.92-5.32-2.82-8.19-3.74-4.06-1.3-8.24-1.91-12.5-1.91-44.51,0-89.03-.01-133.54.02-3.64,0-7.3.22-10.93.53-4.18.36-8.37.82-12.52,1.44-3.66.55-7.28,1.32-10.9,2.09-3.58.76-7.16,1.5-10.68,2.49-3.8,1.07-7.57,2.32-11.27,3.7-4.72,1.76-9.46,3.55-14.02,5.68-5.15,2.4-10.12,5.19-15.16,7.81-5.99,3.12-11.55,6.9-16.88,11.02-2.63,2.04-5.31,4.02-7.83,6.19-3.58,3.09-7.05,6.3-10.52,9.52-2.05,1.91-4.11,3.84-5.97,5.94-3.12,3.53-6.17,7.13-9.1,10.82-10.57,13.33-18.97,27.92-25.27,43.73-3.69,9.25-6.58,18.75-8.59,28.51-.73,3.57-1.51,7.14-2.07,10.75-.46,2.91-.66,5.87-.91,8.81-.24,2.87-.4,5.75-.61,8.63,0,.13-.15.25-.22.38,0-56.07,0-112.14,0-168.23h350.64v40.54Z"/>
  <path class="cls-1" d="m172.8,350.88c2.87-.08,5.75-.11,8.61-.25,3.91-.19,7.81-.43,11.71-.74,2.95-.23,5.91-.46,8.82-.97,4.99-.88,9.97-1.87,14.9-3.01,9.97-2.3,19.61-5.61,28.98-9.72,19.05-8.36,36.11-19.7,51.11-34.12,6.56-6.3,12.69-12.99,18.06-20.32,3.44-4.7,6.54-9.65,9.76-14.5,1.02-1.54,1.98-3.12,2.91-4.71.48-.83.8-1.75,1.27-2.59.97-1.75,2.09-3.42,2.96-5.22,1.03-2.13,1.83-4.36,2.79-6.52.65-1.46,1.44-2.87,2.12-4.32.57-1.19,1.16-2.38,1.6-3.63.57-1.64.93-3.36,1.52-4.99.64-1.77,1.53-3.44,2.12-5.22.54-1.63.79-3.36,1.25-5.02.23-.85.61-1.65.93-2.47.03-.07.12-.12.14-.19.36-1.85.68-3.72,1.1-5.56.31-1.36.83-2.66,1.12-4.02.68-3.2,1.39-6.4,1.87-9.64.53-3.56.86-7.14,1.22-10.72.11-1.15-.09-2.34.06-3.48.21-1.63.6-3.24.92-4.86v166.81h-177.84Z"/>
  <path class="cls-1" d="m0,184.07c.08.32.22.63.24.96.25,3.5.31,7.02.76,10.5.64,4.94,1.41,9.88,2.41,14.76,1.09,5.33,2.36,10.63,3.82,15.87,2.1,7.53,4.84,14.87,8.23,21.91,2.74,5.68,5.61,11.32,8.8,16.75,3.2,5.43,6.75,10.67,10.38,15.83,2.24,3.19,4.78,6.19,7.4,9.09,4.15,4.6,8.37,9.14,12.76,13.5,2.86,2.84,6.01,5.4,9.16,7.94,3.58,2.89,7.19,5.74,10.96,8.36,4.07,2.83,8.23,5.56,12.55,8,14.8,8.36,30.41,14.74,47.01,18.53,4.74,1.08,9.52,2.02,14.31,2.85,2.9.5,5.84.75,8.78.98,3.91.31,7.83.5,11.75.75.21.01.4.15.6.23H0c0-55.6,0-111.21,0-166.81Z"/>
</svg>