<svg width="42" height="45" viewBox="0 0 42 45" fill="none" xmlns="http://www.w3.org/2000/svg">
<path d="M40.705 44.8085H38.0558C37.8297 44.8085 37.6036 44.7439 37.4097 44.6146L31.2072 40.2535C31.0133 40.1243 30.7872 40.0596 30.5609 40.0596H5.13658C2.29369 40.0274 0 37.7336 0 34.923V5.94505C0 3.10217 2.29369 0.808487 5.13658 0.808487H27.072C29.9148 0.808487 32.2087 3.10217 32.2087 5.94505V8.5618C32.2087 9.17561 32.7255 9.69249 33.3393 9.69249H36.7314C39.5743 9.69249 41.8678 11.9862 41.8678 14.8291V43.6778C41.8357 44.2917 41.3186 44.8085 40.705 44.8085ZM5.20118 35.9568H31.8855C32.1116 35.9568 32.3377 36.0215 32.5316 36.1507L36.6668 39.0582C37.119 39.3811 37.765 39.0582 37.765 38.4768V14.8937C37.765 14.2799 37.2482 13.763 36.6344 13.763H33.3069C32.6933 13.763 32.1762 14.2799 32.1762 14.8937V30.0448C32.1762 30.6587 31.6594 31.1755 31.0455 31.1755H10.7577C10.1439 31.1755 9.62704 30.6587 9.62704 30.0448V10.8232C9.62704 10.2094 10.1439 9.69249 10.7577 9.69249H27.0073C27.6212 9.69249 28.138 9.17561 28.138 8.5618V6.00966C28.138 5.39588 27.6212 4.87896 27.0073 4.87896H5.20118C4.58737 4.87896 4.07049 5.39588 4.07049 6.00966V34.8261C4.07049 35.4722 4.55508 35.9568 5.20118 35.9568ZM14.2467 27.0727H27.5566C27.8795 27.0727 28.1059 26.8144 28.1059 26.5237V14.3122C28.1059 13.9891 27.8473 13.763 27.5566 13.763H14.2467C13.9237 13.763 13.6975 14.0214 13.6975 14.3122V26.5237C13.6975 26.8466 13.956 27.0727 14.2467 27.0727Z" fill="#161616"/>
</svg>
