<?xml version="1.0" encoding="utf-8"?>
<!-- Generator: Adobe Illustrator 19.2.1, SVG Export Plug-In . SVG Version: 6.00 Build 0)  -->
<svg version="1.1" id="layer" xmlns="http://www.w3.org/2000/svg" xmlns:xlink="http://www.w3.org/1999/xlink" x="0px" y="0px"
	 viewBox="0 0 652 652" style="enable-background:new 0 0 652 652;" xml:space="preserve">
<path d="M140.1,391.3h8.3c1.9,0,3.6-1.7,3.7-3.6v-92.4c0-9.1-7.2-16.5-16.1-16.5h-10.7c-1.9,0-3.6-1.7-3.6-3.6v-8.4
	c0-9.1-7.2-16.5-16.1-16.5H36.7c-8.9,0-16.1,7.3-16.1,16.5v92.9c0,9,7.2,16.4,16.1,16.5h79.8c0.7,0,1.4,0.2,2,0.6l19.5,14
	C138.6,391.1,139.4,391.3,140.1,391.3z M120.7,362.9H36.9c-2,0-3.6-1.6-3.6-3.6V267c0-2,1.6-3.6,3.6-3.6h68.5c1.9,0,3.6,1.7,3.6,3.6
	v8.2c0,2-1.6,3.6-3.6,3.6h-51c-1.9,0-3.6,1.7-3.6,3.6V344c0,2,1.6,3.6,3.6,3.6h63.7c1.9,0,3.6-1.7,3.6-3.6v-48.5
	c0-2,1.6-3.6,3.6-3.6h10.4c1.9,0,3.6,1.7,3.6,3.6V371c0,1.9-2,2.9-3.4,1.9l-13-9.3C122.1,363.1,121.4,362.9,120.7,362.9z
	 M107.1,334.4H65.3c-0.9,0-1.7-0.7-1.7-1.8v-39.1c0-0.9,0.7-1.8,1.7-1.8h41.8c0.9,0,1.7,0.7,1.7,1.8v39.1
	C108.8,333.6,108.1,334.4,107.1,334.4z M475.1,270c5.3,0,9.6-4.4,9.6-9.8c0-5.4-4.3-9.8-9.6-9.8c-5.3,0-9.6,4.4-9.6,9.8
	C465.5,265.6,469.8,270,475.1,270z M365.1,284.4v-5.5h-15.5v68.2h15.5v-46.6l18.1-7.7v-15.9h-0.2L365.1,284.4z M304.9,278.8
	c-10.1,0-18.3,3.4-24.6,10.2c-2.9,3.2-5.1,6.8-6.7,11.1c-1.5,4.2-2.3,8.7-2.3,13.3c0,9.6,2.7,17.5,8.1,23.6c6,6.7,14.2,10,24.6,10
	c10.2,0,18.3-3.4,24.5-10.2c5.8-6.5,8.7-14.6,8.7-24.4s-2.9-17.8-8.5-24C322.9,282,314.9,278.8,304.9,278.8z M317.1,327.3
	c-2.9,3.7-7.1,5.6-12.2,5.6c-5.5,0-10.1-1.9-13.5-5.7c-1.6-1.7-2.9-3.9-3.7-6.4c-0.9-2.5-1.3-5-1.3-7.7c0-5.5,1.4-10,4.4-13.9
	c3.2-4.1,7.6-6.2,13.2-6.2c5.5,0,9.9,1.9,13,5.8c2.9,3.6,4.5,8.4,4.5,14.3C321.4,318.9,320,323.7,317.1,327.3z M467.3,278.9h15.4
	v68.3h-15.4V278.9z M231.5,278.8c-8.8,0-16.1,2.6-21.7,7.9c-5.3,5-7.9,11.3-7.9,18.9c0,6.7,2.3,12.3,7,16.8c-4,3.3-6,7.2-6,11.8
	c0,2.8,0.4,5.3,1,7.4c0.6,2.2,1.9,4,3.8,5.6c-7,3.9-10.4,10.3-10.1,19c0.2,7.6,3.4,13.6,9.6,18.1c6.3,4.6,14.6,6.8,24.7,6.8
	c10.2,0,17.8-2,22.9-6c5.2-4,7.8-9.8,7.8-17.3c0-7.5-2.1-13.3-6.2-17.4c-2.2-2.2-5.1-3.9-8.6-5.5c-3.6-1.5-8.4-2.7-14.6-3.7
	c-6.3-1-10.7-2.1-13.4-3.5c-1.3-0.5-2.1-1.2-2.4-1.8c-0.4-0.6-0.5-1.5-0.5-2.7c0-1.2,0.8-2.8,2.3-4.9c3.5,1.2,7.3,1.8,11.4,1.8
	c8.4,0,15.3-2.6,20.7-7.7c2.4-2.4,4.3-5.2,5.6-8.4c1.3-3.2,2-6.7,2-10.7c0-3.9-0.9-7.7-2.7-11.1c0,0,0-0.1-0.1-0.1h6.5v-13.4H231.5z
	 M220.7,352.5l3.2,0.5c9,1.4,15.4,3.2,19.1,5.6c3.3,2.1,4.9,4.9,4.9,8.4c0,7.3-5.1,10.8-15.3,10.8c-6,0-10.8-1.3-14.6-3.7
	c-1.7-1.1-3-2.5-3.9-4c-1-1.5-1.4-3.3-1.4-5.4s0.6-4.3,1.9-6.6C216,355.9,218,354.1,220.7,352.5z M240.2,313.5
	c-2.5,2.3-5.4,3.5-8.8,3.5c-4.5,0-8-1.3-10.8-3.8c-1.3-1.1-2.1-2.5-2.9-3.8c-0.6-1.5-1-2.9-1-4.5c0-1.5,0.3-3.1,0.9-4.6
	c2-5.2,6.3-7.7,13.2-7.7c4.1,0,7.4,1.1,9.7,3.3c2.3,2.2,3.6,5.1,3.6,8.7C244.1,307.8,242.8,310.9,240.2,313.5z M550.9,293.7
	c1.2,3.1,1.8,6.7,1.8,10.7v42.6h-15.2v-3.2c-4.6,2.1-8.8,3.2-12.6,3.2c-4.8,0-8.8-0.5-12.2-1.4c-3.4-0.9-6.3-2.3-8.6-4
	c-4.7-3.6-7.1-8.8-7.1-15.6c0-6,2.9-11.1,8.7-15.1c6.3-4.4,15-6.6,25.9-6.6l2.5,0.1c0.3,0,0.5,0,0.8,0c0.3,0,0.6,0,0.9,0
	c0.3,0,0.6,0.1,0.8,0.1c0.3,0,0.6,0,0.8,0.1c-0.4-6.7-3.2-10.8-8.6-11.8c-1.7-0.4-3.7-0.5-5.6-0.5c-2.1,0-4,0.2-5.9,0.5
	c-2,0.4-3.8,0.9-5.6,1.5c-3.9,1.3-6.9,2.8-8.6,4.5l-0.2-0.1l-1.9-13.9c7.2-3.9,15.3-5.8,23.9-5.8
	C538.6,278.8,547.2,283.7,550.9,293.7z M537.5,330.8V322v-5.9c-1.2-0.2-2.3-0.3-3.5-0.3h-2.5c-9.1,0-14.9,2.1-17.4,6.2
	c-0.7,1.2-1.1,2.5-1.1,3.8c0,1.4,0.3,2.6,0.7,3.6c0.5,1,1.3,1.9,2.4,2.6c2.1,1.3,5.4,1.9,9.6,1.9
	C529.9,333.9,533.9,332.8,537.5,330.8z M609.8,309c2.6,1.3,4.7,2.8,6.3,4.6c2.9,3.3,4.5,7.7,4.5,13.3c0,5.9-2.3,10.8-7,14.5
	c-4.8,3.9-11.6,5.8-20.4,5.8c-10.5,0-18.8-1.8-24.6-5.4v-16.8c0-0.1,0.4,0.3,1,1s1.9,1.5,3.6,2.6c1.7,1.1,3.8,2,6,2.8
	c4.9,1.7,10,2.6,15.4,2.6c7.1,0,10.7-2.5,10.7-7.3c0-1.5-0.7-2.7-2.1-3.5c-2.4-1.3-6-2.3-10.7-2.9c-4.7-0.7-8.6-1.6-11.6-2.9
	c-3-1.3-5.5-2.8-7.4-4.6c-3.5-3.4-5.3-7.7-5.3-13.1c0-6.6,2.5-11.8,7.4-15.5c4.9-3.7,11.7-5.6,20.4-5.6c8.6,0,15.9,2.5,22,7.5
	c-0.3,1.1-0.5,2.2-0.9,3.2c-1,2.8-1.7,4.8-2.1,6l-1.4,3.7c-0.1,0.4-0.2,0.5-0.2,0.5c-0.1,0-0.4-0.5-1-1.4c-2.6-3.1-6.7-5.1-12.1-6.1
	c-1.7-0.4-3.4-0.5-5.2-0.5c-7.5,0-11.3,2.3-11.3,6.9c0,1.5,0.7,2.8,2.3,3.6c2.9,1.6,7,2.8,12.1,3.6
	C603.3,306.7,607.1,307.7,609.8,309z M421.8,278.8c-8.8,0-16.1,2.6-21.7,7.9c-5.3,5-7.9,11.3-7.9,18.9c0,6.7,2.3,12.3,7,16.8
	c-4,3.3-6,7.2-6,11.8c0,2.8,0.4,5.3,1,7.4c0.6,2.2,1.9,4,3.8,5.6c-7,3.9-10.4,10.3-10.1,19c0.2,7.6,3.4,13.6,9.6,18.1
	c6.3,4.6,14.6,6.8,24.7,6.8c10.2,0,17.8-2,22.9-6c5.2-4,7.8-9.8,7.8-17.3c0-7.5-2.1-13.3-6.2-17.4c-2.2-2.2-5.1-3.9-8.6-5.5
	c-3.6-1.5-8.4-2.7-14.6-3.7c-6.3-1-10.7-2.1-13.4-3.5c-1.3-0.5-2.1-1.2-2.4-1.8c-0.4-0.6-0.5-1.5-0.5-2.7c0-1.2,0.8-2.8,2.3-4.9
	c3.5,1.2,7.3,1.8,11.4,1.8c8.4,0,15.3-2.6,20.7-7.7c2.4-2.4,4.3-5.2,5.6-8.4c1.3-3.2,2-6.7,2-10.7c0-3.9-0.9-7.7-2.7-11.1
	c0,0,0-0.1-0.1-0.1h6.5v-13.4H421.8z M411,352.5l3.2,0.5c9,1.4,15.4,3.2,19.1,5.6c3.3,2.1,4.9,4.9,4.9,8.4c0,7.3-5.1,10.8-15.3,10.8
	c-6,0-10.8-1.3-14.6-3.7c-1.7-1.1-3-2.5-3.9-4c-1-1.5-1.4-3.3-1.4-5.4s0.6-4.3,1.9-6.6C406.3,355.9,408.3,354.1,411,352.5z
	 M430.5,313.5c-2.5,2.3-5.4,3.5-8.8,3.5c-4.5,0-8-1.3-10.8-3.8c-1.2-1.1-2.1-2.5-2.9-3.8c-0.6-1.5-1-2.9-1-4.5
	c0-1.5,0.3-3.1,0.9-4.6c2-5.2,6.3-7.7,13.2-7.7c4.1,0,7.4,1.1,9.7,3.3c2.3,2.2,3.6,5.1,3.6,8.7C434.4,307.8,433.1,310.9,430.5,313.5
	z"/>
</svg>
