<svg width="43" height="23" viewBox="0 0 43 23" fill="none" xmlns="http://www.w3.org/2000/svg">
<path d="M10.7845 8.66083L11.7773 7.53636L10.564 6.46521L9.58798 7.75624L10.7845 8.66083ZM24.2515 20.5504L23.2587 21.6748L24.3807 22.6654L25.3737 21.5456L24.2515 20.5504ZM41.8055 2.35554C41.756 1.5286 41.0454 0.898421 40.2185 0.948003L26.7427 1.75599C25.9157 1.80557 25.2855 2.51613 25.3351 3.34307C25.3847 4.17002 26.0953 4.80019 26.9222 4.75061L38.9007 4.0324L39.6189 16.0109C39.6685 16.8378 40.3791 17.468 41.206 17.4184C42.0329 17.3688 42.6631 16.6583 42.6135 15.8313L41.8055 2.35554ZM2.99244 21.455L11.9811 9.56543L9.58798 7.75624L0.59936 19.6458L2.99244 21.455ZM9.79176 9.78531L23.2587 21.6748L25.2442 19.4259L11.7773 7.53636L9.79176 9.78531ZM25.3737 21.5456L41.4305 3.44059L39.186 1.45004L23.1292 19.5551L25.3737 21.5456Z" fill="#FF6000"/>
</svg>