<svg width="43" height="23" viewBox="0 0 43 23" fill="none" xmlns="http://www.w3.org/2000/svg">
<path d="M10.4763 14.3348L11.469 15.4592L10.2558 16.5304L9.27975 15.2394L10.4763 14.3348ZM23.9432 2.44525L22.9505 1.32078L24.0724 0.330248L25.0655 1.44997L23.9432 2.44525ZM41.4973 20.6401C41.4477 21.467 40.7372 22.0972 39.9102 22.0476L26.4344 21.2396C25.6075 21.19 24.9773 20.4795 25.0269 19.6525C25.0765 18.8256 25.787 18.1954 26.614 18.245L38.5925 18.9632L39.3107 6.98472C39.3603 6.15777 40.0708 5.5276 40.8978 5.57718C41.7247 5.62676 42.3549 6.33733 42.3053 7.16427L41.4973 20.6401ZM2.68421 1.54065L11.6728 13.4302L9.27975 15.2394L0.291132 3.34985L2.68421 1.54065ZM9.48353 13.2103L22.9505 1.32078L24.936 3.56972L11.469 15.4592L9.48353 13.2103ZM25.0655 1.44997L41.1222 19.555L38.8778 21.5456L22.821 3.44053L25.0655 1.44997Z" fill="white"/>
</svg>