<?xml version="1.0" encoding="UTF-8"?>
<svg id="Layer_1" data-name="Layer 1" xmlns="http://www.w3.org/2000/svg" viewBox="0 0 821.72 155.47">
  <defs>
    <style>
      .cls-1 {
        fill: #fffeff;
      }

      .cls-2 {
        fill: #1cbb9a;
      }
    </style>
  </defs>
  <path class="cls-1" d="m393.08,59.09V18.93c-4.02,0-7.76,0-11.51,0-2.55,0-5.1-.03-7.65-.01-1.98.01-2.1.15-2.09,2.1,0,2.12.05,4.25.05,6.37,0,33.33.01,66.66.02,99.99,0,1.48,0,2.97,0,4.42h21.14c0-.41,0-.82,0-1.22,0-2.54,0-5.08.05-7.62,0-.4.23-1.04.51-1.14.36-.13.94.07,1.32.3.53.31.95.79,1.44,1.18,2.17,1.72,4.25,3.59,6.56,5.11,2.84,1.87,5.88,3.38,9.38,3.76,2.83.3,5.62.97,8.45,1.18,1.78.13,3.62-.19,5.41-.47,2.4-.37,4.88-.61,7.15-1.41,7.55-2.67,13.55-7.54,18.27-13.92,1.67-2.25,2.8-4.92,4.05-7.45,3.28-6.64,3.98-13.82,4.17-21.07.06-2.21-.25-4.44-.5-6.65-.21-1.89-.42-3.8-.91-5.62-1.38-5.06-3.23-9.9-6.2-14.34-3.74-5.6-8.6-9.81-14.49-12.84-3.9-2.01-8.23-2.81-12.53-3.45-4.92-.74-9.76.17-14.53,1.3-1.39.33-2.7,1.04-4,1.68-1.86.92-3.84,1.71-5.45,2.95-2.75,2.11-5.25,4.54-8.09,7.04Zm-64.15-.16c-1.72-1.64-3.17-3.19-4.8-4.53-1.67-1.37-3.43-2.65-5.3-3.73-1.85-1.08-3.81-2.09-5.85-2.7-2.14-.64-4.44-.77-6.67-1.11-3.26-.49-6.45-.81-9.81-.32-5.1.75-9.82,2.27-14.33,4.71-4.51,2.43-8.03,5.92-11.07,9.92-2.5,3.3-4.25,7.05-5.54,10.98-.92,2.78-2.08,5.58-2.38,8.46-.46,4.5-.5,9.07-.31,13.59.13,3.23.55,6.55,1.49,9.63,1.87,6.08,4.46,11.82,8.69,16.79,3.12,3.66,6.83,6.54,10.87,8.81,2.35,1.32,4.99,2.63,7.98,2.79,2.41.13,4.76,1.1,7.18,1.38,2.88.33,5.81.03,8.58-.8,2.55-.77,5.28-.68,7.74-2.05,3.17-1.76,6.37-3.41,9.01-5.97,1.53-1.49,3.12-2.92,4.91-4.58,0,3.55.04,6.91-.02,10.26-.02,1.09.31,1.44,1.42,1.43,5.62-.04,11.25-.01,16.87,0,2.94,0,2.95,0,2.95-2.96,0-26.58-.01-53.16.03-79.74,0-1.29-.46-1.53-1.58-1.52-6.17.02-12.33,0-18.5-.06-1-.01-1.11.5-1.12,1.22-.02,2.12.02,4.25-.04,6.37-.04,1.18-.24,2.35-.39,3.73Zm301.11,61.56c.11,1.7.24,3.08.27,4.46.04,1.88.08,3.77-.02,5.65-.06,1.15.47,1.31,1.4,1.3,5.71-.02,11.41,0,17.12,0,2.56,0,2.55,0,2.55-2.59,0-26.75,0-53.49.03-80.24,0-1.14-.36-1.41-1.43-1.41-6.17.02-12.33,0-18.5-.04-.9,0-1.17.32-1.16,1.16.03,2.58.05,5.16,0,7.75-.02.86-.25,1.71-.45,2.93-.54-.77-.77-1.28-1.15-1.6-2.39-2.06-4.73-4.19-7.25-6.07-3.13-2.34-6.7-3.96-10.56-4.53-3.71-.55-7.51-.88-11.25-.79-3.11.08-6.3.58-9.28,1.49-2.79.85-5.46,2.27-7.96,3.8-2.39,1.47-4.74,3.16-6.66,5.18-8.07,8.48-11.79,18.79-12.18,30.4-.21,6.18.36,12.22,2.24,18.17,2.12,6.74,5.54,12.69,10.51,17.61,4.39,4.35,9.52,7.68,15.75,8.94,2.19.44,4.33,1.29,6.53,1.52,2.16.23,4.39.05,6.57-.19,3.48-.39,6.93-1.07,10.21-2.33,3.69-1.41,7-3.46,9.9-6.15,1.48-1.37,2.96-2.75,4.75-4.4ZM475.8,25.42c0,3.69,0,7.26,0,10.84,0,26.45.02,52.91,0,79.36,0,4.99-.11,9.97-.23,14.96-.03,1.05.43,1.31,1.31,1.31,6.29,0,12.58,0,18.87.02.76,0,1.08-.23,1.08-1.09-.03-12.66-.02-25.33-.02-37.99,0-1.93,0-1.92,1.88-1.92,5.83-.01,11.66,0,17.49-.07,2.6-.03,5.23,0,7.79-.35,5-.68,9.71-2.21,14.11-4.83,5.81-3.48,10.08-8.18,12.75-14.41,1.88-4.39,2.42-8.93,2.26-13.66-.11-3.25-.29-6.44-1.27-9.56-1.09-3.45-2.63-6.69-4.89-9.49-4.46-5.52-10.19-9.04-17.1-10.87-5.13-1.36-10.3-2.18-15.57-2.23-10.8-.11-21.6-.02-32.4-.01-1.96,0-3.91,0-6.08,0Zm287.65,80.02c0,.07,0,.14,0,.21-3.41,0-6.83,0-10.24,0-1.16,0-1.65.54-1.37,1.64.49,1.91.93,3.86,1.67,5.68,1.62,4,3.92,7.59,7.1,10.55,2.77,2.58,6.01,4.46,9.37,6.14,1.67.83,3.38,1.7,5.17,2.13,2.81.66,5.7.99,8.56,1.41,4.06.6,8.12.51,12.15-.3,2.43-.48,4.93-.73,7.26-1.5,2.98-.98,5.75-2.46,8.44-4.18,4.18-2.68,6.79-6.46,8.69-10.8,1.51-3.46,1.58-7.18,1.36-10.95-.26-4.4-1.92-8.14-4.68-11.44-3.22-3.84-7.48-6.23-12.11-7.83-2.79-.96-5.57-1.98-8.57-2.47-3.6-.59-7.09-1.97-10.57-3.18-2.66-.93-5.3-1.99-7.82-3.25-2.24-1.12-3.66-3.12-3.77-5.64-.2-4.56,4.46-8.69,9.36-8.54,2.16.06,4.33.01,6.5.02.46,0,.94-.05,1.36.09,4.45,1.43,7.87,4.13,9.25,8.69.52,1.71,1.42,2,2.78,2.12.54.05,1.08.03,1.62.04,4.56,0,9.11-.01,13.67.01,2.17.01,2.37-.15,2.18-2.22,0-.04,0-.08,0-.12-.8-6.8-3.71-12.54-8.75-17.18-4.69-4.31-10.28-6.73-16.52-7.55-3.69-.48-7.46-.94-11.15-.73-4.5.26-8.94,1.17-13.25,2.75-2.49.92-4.86,2.03-6.98,3.48-7.35,5.03-10.78,12.15-10.27,21.02.14,2.4.54,4.95,1.52,7.11,2.75,6.04,7.9,9.6,13.79,12.2,1.01.45,2,.99,3.06,1.29,2.59.73,5.23,1.31,7.83,2.02,3.65,1,7.32,1.92,10.89,3.14,2.68.91,5.3,2.09,7.78,3.45,1.28.71,2.39,1.94,2.74,3.56.76,3.52-.64,6.48-3.72,8.39-1.92,1.19-3.93,1.89-6.15,2.09-3.49.3-7,.37-10.23-1.11-4.08-1.86-7.29-4.66-8.28-9.34-.12-.58-.33-.92-1.07-.91-2.87.06-5.74.02-8.61.02Zm-94.94.21c.05.96-.05,2.03.19,3.02.81,3.34,1.92,6.53,3.83,9.49,1.6,2.49,3.49,4.6,5.81,6.33,1.77,1.33,3.39,2.86,5.59,3.63,1.66.58,3.12,1.7,4.7,2.52.38.19.91.07,1.31.24.63.27,1.18.82,1.83.97,1.7.38,3.42.64,5.14.88,2.48.34,4.98.9,7.45.85,3.33-.07,6.65-.61,9.96-1.02,1.67-.21,3.45-.26,4.95-.92,3.1-1.36,6.14-2.94,9.03-4.7,4.33-2.63,6.91-6.75,8.71-11.35,1.23-3.15,1.26-6.52,1.01-9.83-.14-1.96-.5-3.99-1.21-5.82-2.4-6.19-7.13-10.18-13.08-12.67-3.38-1.42-6.98-2.34-10.5-3.42-3.41-1.05-6.88-1.92-10.26-3.05-2.72-.91-5.37-2.04-8.03-3.13-3.64-1.5-5.12-5.78-3.92-8.77,1.18-2.94,3.47-4.69,6.27-5.39,2.32-.58,4.86-.25,7.31-.36,2.48-.11,4.66.45,6.83,1.81,2.91,1.82,4.73,4.27,5.67,7.44.32,1.07.83,1.55,1.88,1.58.5.01,1,.06,1.5.06,4.36,0,8.72.02,13.08-.03,1.26-.02,2.51-.26,3.9-.41-.56-3.94-1.1-7.67-2.92-11.11-2.69-5.06-6.43-9.17-11.47-11.84-2.6-1.38-5.54-2.2-8.41-2.94-2.71-.69-5.51-1.23-8.3-1.32-3.33-.11-6.68.36-10.02.5-3.7.16-7.1,1.46-10.48,2.78-3.73,1.46-6.88,3.81-9.64,6.71-3.92,4.12-5.73,9.07-5.86,14.67-.04,1.53.09,3.06.23,4.58.23,2.69,1.04,5.29,2.54,7.45,2.95,4.25,6.95,7.44,11.77,9.32,4.08,1.59,8.32,2.74,12.52,4.01,4.05,1.24,8.14,2.37,12.2,3.59.57.17,1.08.84,1.6.83,1.78-.05,2.93,1.05,4.18,1.99,3.08,2.31,3.06,5.42,2.01,8.3-.98,2.72-3.47,4.4-6.26,5.07-3.33.8-6.72,1.25-10.19.41-5.54-1.34-9.59-4.25-11.28-9.88-.25-.84-.6-1.09-1.46-1.09-6.49.04-12.99.02-19.68.02ZM52.82,52.53c-.45.03-.73.07-1.02.07-8.71.02-17.42-.04-26.12.09-2.34.03-4.73.41-6.99,1.02-7.02,1.89-12.4,5.93-15.71,12.53-3.18,6.34-3.99,12.89-1.6,19.63.73,2.05,1.76,4.04,2.94,5.87,1.97,3.07,4.73,5.47,7.79,7.33,3.92,2.37,8.18,3.57,12.93,3.44,8.66-.23,17.33-.04,25.99,0,1.76,0,1.76.05,1.76,1.83,0,8.21.03,16.42-.01,24.62-.03,5.29,1.21,10.18,4.05,14.67,4.6,7.27,11.35,10.94,19.76,11.74,3,.29,5.98-.18,8.86-1.17.47-.16,1.07.02,1.5-.19,1.12-.55,2.17-1.24,3.25-1.87,1.82-1.06,3.7-2.03,5.03-3.73,1.28-1.64,2.42-3.39,3.76-4.97,1.3-1.53,2.04-3.3,2.67-5.16.32-.95.97-1.83,1.1-2.79.19-1.39.06-2.83.06-4.25,0-8.5,0-17-.01-25.5,0-.48-.11-.98-.27-1.43-.37-1.02.16-1.89,1.26-1.91,1.34-.02,2.69.01,4.03.02,6.83,0,13.67.02,20.5.02,2.01,0,4.1.28,6.03-.13,3.84-.81,7.77-1.58,10.86-4.32,2.32-2.06,4.86-3.91,6.39-6.74.43-.79,1.27-1.38,1.58-2.2.71-1.9,1.38-3.86,1.76-5.85.31-1.61,1.23-3.23.38-4.95-.03-.07,0-.16,0-.25-.06-1.59,0-3.2-.21-4.77-.88-6.19-3.97-11.11-8.81-15-4.65-3.74-9.98-5.58-15.92-5.61-8.58-.04-17.17,0-25.75,0-1.82,0-1.82.01-1.82-1.74,0-8.92.04-17.83-.03-26.75-.03-3.69-.95-7.2-2.62-10.52-2.28-4.52-5.68-8-10.08-10.36-2.47-1.33-5.2-2.33-7.93-2.99-1.95-.47-4.1-.24-6.15-.12-2.75.17-5.4.73-7.97,1.91-2.36,1.08-4.67,2.05-6.41,4.07-1.26,1.47-2.82,2.69-3.98,4.23-3.21,4.24-4.77,9.12-4.82,14.4-.08,8.75-.02,17.5-.02,26.25,0,.46,0,.91,0,1.5Zm145.12-27.11c-.52,2.62-.45,104.89.06,106.4.08.02.16.06.24.06,18.25,0,36.49.02,54.74.02.93,0,1.44-.68,1.28-1.63-.06-.36-.18-.72-.18-1.08-.01-4.51,0-9.01,0-13.57-.52-.04-.76-.07-1-.07-10.87-.03-21.74-.06-32.62-.08-1.63,0-1.83-.15-1.83-1.84,0-9.91,0-19.83,0-29.74,0-18.96-.02-37.91-.04-56.87,0-1.45-.18-1.59-1.67-1.59-1.21,0-2.42,0-3.62,0-5.12,0-10.24,0-15.34,0Z"/>
  <path class="cls-2" d="m393.08,59.09c2.84-2.5,5.34-4.93,8.09-7.04,1.62-1.25,3.6-2.03,5.45-2.95,1.3-.64,2.61-1.35,4-1.68,4.77-1.13,9.61-2.04,14.53-1.3,4.3.64,8.63,1.45,12.53,3.45,5.89,3.03,10.74,7.24,14.49,12.84,2.97,4.45,4.82,9.28,6.2,14.34.5,1.82.7,3.74.91,5.62.25,2.21.55,4.44.5,6.65-.19,7.25-.88,14.43-4.17,21.07-1.25,2.54-2.38,5.2-4.05,7.45-4.72,6.37-10.72,11.25-18.27,13.92-2.27.8-4.75,1.04-7.15,1.41-1.79.28-3.62.6-5.41.47-2.83-.21-5.62-.87-8.45-1.18-3.5-.38-6.54-1.89-9.38-3.76-2.31-1.52-4.38-3.39-6.56-5.11-.49-.39-.91-.87-1.44-1.18-.38-.23-.96-.43-1.32-.3-.28.1-.5.74-.51,1.14-.05,2.54-.04,5.08-.05,7.62,0,.41,0,.81,0,1.22h-21.14c0-1.45,0-2.93,0-4.42,0-33.33,0-66.66-.02-99.99,0-2.12-.04-4.25-.05-6.37,0-1.95.11-2.09,2.09-2.1,2.55-.02,5.1.01,7.65.01,3.74,0,7.49,0,11.51,0v40.15Zm21.9,5.68c-1.54.07-3.18-.18-4.59.27-7.55,2.4-12.93,7.2-15.88,14.68-1.19,3.02-1.27,6.16-1.39,9.28-.09,2.26.28,4.54.45,6.82.28,3.81,2.1,7.03,4.31,9.94,3.17,4.17,7.24,7.29,12.5,8.36,2.44.49,5.07,1.04,7.46.64,4.07-.67,8-1.93,11.31-4.82,3.18-2.78,5.61-5.99,7.23-9.81,2.44-5.76,2.45-11.76,1.28-17.8-.54-2.77-1.91-5.19-3.46-7.55-4.56-6.92-10.89-10.35-19.21-10.01Z"/>
  <path class="cls-2" d="m328.92,58.93c.15-1.38.35-2.56.39-3.73.07-2.12.02-4.25.04-6.37,0-.71.12-1.23,1.12-1.22,6.16.07,12.33.08,18.5.06,1.12,0,1.59.23,1.58,1.52-.04,26.58-.03,53.16-.03,79.74,0,2.96,0,2.96-2.95,2.96-5.62,0-11.25-.04-16.87,0-1.11,0-1.44-.35-1.42-1.43.06-3.35.02-6.71.02-10.26-1.78,1.66-3.37,3.09-4.91,4.58-2.63,2.56-5.84,4.21-9.01,5.97-2.46,1.37-5.18,1.28-7.74,2.05-2.77.83-5.7,1.13-8.58.8-2.42-.28-4.77-1.25-7.18-1.38-3-.16-5.63-1.47-7.98-2.79-4.05-2.28-7.75-5.15-10.87-8.81-4.23-4.97-6.82-10.71-8.69-16.79-.95-3.08-1.36-6.4-1.49-9.63-.18-4.52-.15-9.09.31-13.59.3-2.87,1.46-5.67,2.38-8.46,1.3-3.93,3.04-7.68,5.54-10.98,3.04-4,6.56-7.49,11.07-9.92,4.51-2.44,9.23-3.96,14.33-4.71,3.36-.49,6.56-.17,9.81.32,2.23.33,4.52.47,6.67,1.11,2.04.61,4,1.62,5.85,2.7,1.86,1.08,3.63,2.36,5.3,3.73,1.63,1.34,3.08,2.89,4.8,4.53Zm-23.07,55.84c1.17,0,2.04-.03,2.92,0,2.63.09,5.11-.57,7.38-1.77,1.55-.82,2.89-2.05,4.34-3.08,2.29-1.65,3.96-3.82,5.42-6.21,1.4-2.29,2.49-4.6,2.59-7.37.09-2.41.72-4.8.76-7.21.04-1.91-.58-3.82-.66-5.75-.1-2.19-.69-4.14-1.77-6.04-4.25-7.44-10.48-11.92-19.09-12.67-6.16-.53-11.48,1.85-15.96,5.84-4.64,4.13-6.95,9.55-7.52,15.74-.34,3.76-.32,7.54.67,11.15.91,3.35,2.48,6.54,4.77,9.21,4.3,5.01,9.43,8.53,16.16,8.14Z"/>
  <path class="cls-2" d="m630.03,120.48c-1.79,1.66-3.27,3.03-4.75,4.4-2.9,2.69-6.22,4.74-9.9,6.15-3.28,1.26-6.73,1.95-10.21,2.33-2.17.24-4.41.42-6.57.19-2.21-.23-4.34-1.08-6.53-1.52-6.24-1.26-11.37-4.59-15.75-8.94-4.97-4.92-8.38-10.87-10.51-17.61-1.88-5.95-2.45-11.99-2.24-18.17.39-11.61,4.1-21.92,12.18-30.4,1.92-2.02,4.27-3.71,6.66-5.18,2.5-1.53,5.17-2.96,7.96-3.8,2.98-.9,6.17-1.41,9.28-1.49,3.75-.09,7.54.24,11.25.79,3.86.57,7.43,2.19,10.56,4.53,2.52,1.88,4.86,4.02,7.25,6.07.38.33.61.84,1.15,1.6.2-1.22.43-2.07.45-2.93.05-2.58.03-5.16,0-7.75,0-.84.26-1.16,1.16-1.16,6.17.05,12.33.07,18.5.04,1.06,0,1.43.27,1.43,1.41-.04,26.75-.03,53.49-.03,80.24,0,2.59.02,2.59-2.55,2.59-5.71,0-11.41-.01-17.12,0-.94,0-1.47-.15-1.4-1.3.1-1.88.06-3.77.02-5.65-.03-1.38-.16-2.75-.27-4.46Zm-22.45-5.75c1.53,0,2.64.18,3.68-.03,4.16-.83,7.87-2.52,11.08-5.43,4.56-4.12,6.92-9.24,7.68-15.21.2-1.55.29-3.13.25-4.69-.03-1.39-.34-2.77-.45-4.15-.25-3.28-1.25-6.3-2.87-9.16-2.16-3.8-5.19-6.62-9.09-8.61-4.1-2.09-8.35-3.51-12.95-2.64-6.8,1.28-12.44,4.43-16.09,10.64-3.24,5.51-4.57,11.35-3.68,17.7.67,4.78,2.02,9.34,5.14,13.07,4.58,5.48,10.14,9.23,17.31,8.52Z"/>
  <path class="cls-2" d="m475.8,25.42c2.17,0,4.12,0,6.08,0,10.8,0,21.6-.1,32.4.01,5.26.05,10.44.88,15.57,2.23,6.91,1.83,12.64,5.35,17.1,10.87,2.26,2.8,3.8,6.03,4.89,9.49.99,3.13,1.17,6.32,1.27,9.56.16,4.73-.38,9.27-2.26,13.66-2.67,6.23-6.94,10.93-12.75,14.41-4.39,2.63-9.11,4.15-14.11,4.83-2.57.35-5.19.32-7.79.35-5.83.06-11.66.05-17.49.07-1.88,0-1.88,0-1.88,1.92,0,12.66,0,25.33.02,37.99,0,.86-.32,1.09-1.08,1.09-6.29-.01-12.58-.02-18.87-.02-.88,0-1.34-.26-1.31-1.31.12-4.98.23-9.97.23-14.96.02-26.45,0-52.91,0-79.36,0-3.57,0-7.15,0-10.84Zm31.04,17.21c-2.79,0-5.58,0-8.37,0-1.1,0-1.72.34-1.69,1.68.09,4.29.06,8.58.02,12.88-.03,3.19-.2,6.38-.22,9.57-.01,1.73.19,3.47.22,5.2.04,2.09.06,2.18,2.18,2.15,5.56-.06,11.13-.12,16.69-.25,1.63-.04,3.32-.11,4.88-.52,6.29-1.68,11.17-6,10.8-13.85-.06-1.16,0-2.33-.02-3.5-.06-4.23-1.8-7.55-5.22-10.08-3.42-2.53-7.46-2.8-11.41-3.23-2.59-.28-5.24-.05-7.86-.06Z"/>
  <path class="cls-2" d="m763.46,105.43c2.87,0,5.74.03,8.61-.02.74-.01.95.33,1.07.91.98,4.69,4.2,7.48,8.28,9.34,3.23,1.47,6.74,1.41,10.23,1.11,2.22-.19,4.23-.9,6.15-2.09,3.08-1.9,4.48-4.87,3.72-8.39-.35-1.63-1.45-2.85-2.74-3.56-2.48-1.37-5.1-2.54-7.78-3.45-3.57-1.22-7.25-2.14-10.89-3.14-2.6-.71-5.24-1.29-7.83-2.02-1.06-.3-2.05-.84-3.06-1.29-5.89-2.61-11.04-6.17-13.79-12.2-.98-2.16-1.38-4.71-1.52-7.11-.51-8.88,2.92-16,10.27-21.02,2.12-1.45,4.49-2.56,6.98-3.48,4.31-1.59,8.75-2.5,13.25-2.75,3.69-.21,7.46.25,11.15.73,6.24.82,11.83,3.24,16.52,7.55,5.05,4.64,7.95,10.38,8.75,17.18,0,.04,0,.08,0,.12.19,2.07,0,2.23-2.18,2.22-4.56-.02-9.11,0-13.67-.01-.54,0-1.09.01-1.62-.04-1.36-.12-2.26-.41-2.78-2.12-1.38-4.55-4.8-7.25-9.25-8.69-.42-.14-.91-.09-1.36-.09-2.17-.01-4.33.04-6.5-.02-4.9-.14-9.56,3.98-9.36,8.54.11,2.52,1.53,4.53,3.77,5.64,2.52,1.26,5.16,2.32,7.82,3.25,3.48,1.21,6.97,2.59,10.57,3.18,3,.49,5.78,1.51,8.57,2.47,4.63,1.6,8.89,3.99,12.11,7.83,2.76,3.3,4.42,7.04,4.68,11.44.23,3.77.15,7.49-1.36,10.95-1.9,4.34-4.5,8.13-8.69,10.8-2.69,1.73-5.46,3.2-8.44,4.18-2.33.77-4.84,1.01-7.26,1.5-4.03.8-8.09.9-12.15.3-2.86-.42-5.75-.74-8.56-1.41-1.79-.42-3.51-1.29-5.17-2.13-3.35-1.68-6.6-3.56-9.37-6.14-3.18-2.96-5.49-6.55-7.1-10.55-.74-1.82-1.18-3.77-1.67-5.68-.28-1.1.21-1.64,1.37-1.64,3.41-.01,6.83,0,10.24,0,0-.07,0-.14,0-.21Z"/>
  <path class="cls-2" d="m668.52,105.64c6.7,0,13.19.02,19.68-.02.86,0,1.21.25,1.46,1.09,1.69,5.63,5.74,8.55,11.28,9.88,3.48.84,6.86.38,10.19-.41,2.79-.67,5.27-2.34,6.26-5.07,1.04-2.88,1.06-5.99-2.01-8.3-1.25-.94-2.4-2.04-4.18-1.99-.52.01-1.03-.66-1.6-.83-4.06-1.22-8.14-2.36-12.2-3.59-4.19-1.28-8.44-2.43-12.52-4.01-4.82-1.88-8.82-5.07-11.77-9.32-1.5-2.16-2.31-4.76-2.54-7.45-.13-1.52-.26-3.06-.23-4.58.14-5.61,1.95-10.55,5.86-14.67,2.76-2.9,5.9-5.26,9.64-6.71,3.38-1.32,6.78-2.62,10.48-2.78,3.34-.15,6.69-.62,10.02-.5,2.78.09,5.59.62,8.3,1.32,2.87.74,5.82,1.56,8.41,2.94,5.03,2.68,8.77,6.78,11.47,11.84,1.83,3.43,2.36,7.17,2.92,11.11-1.38.15-2.64.39-3.9.41-4.36.05-8.72.03-13.08.03-.5,0-1-.05-1.5-.06-1.05-.03-1.56-.52-1.88-1.58-.94-3.17-2.77-5.62-5.67-7.44-2.18-1.36-4.36-1.92-6.83-1.81-2.44.11-4.99-.22-7.31.36-2.8.7-5.1,2.45-6.27,5.39-1.2,2.99.29,7.28,3.92,8.77,2.66,1.09,5.31,2.22,8.03,3.13,3.38,1.13,6.85,2,10.26,3.05,3.52,1.08,7.11,2.01,10.5,3.42,5.95,2.49,10.68,6.48,13.08,12.67.71,1.83,1.07,3.86,1.21,5.82.24,3.31.22,6.68-1.01,9.83-1.8,4.6-4.38,8.72-8.71,11.35-2.9,1.76-5.93,3.33-9.03,4.7-1.5.66-3.28.72-4.95.92-3.31.41-6.63.95-9.96,1.02-2.48.06-4.97-.51-7.45-.85-1.72-.24-3.45-.5-5.14-.88-.65-.15-1.19-.7-1.83-.97-.4-.17-.93-.04-1.31-.24-1.58-.82-3.04-1.94-4.7-2.52-2.2-.77-3.82-2.3-5.59-3.63-2.31-1.73-4.21-3.84-5.81-6.33-1.91-2.96-3.02-6.15-3.83-9.49-.24-.99-.14-2.06-.19-3.02Z"/>
  <path class="cls-2" d="m52.82,52.53c0-.59,0-1.04,0-1.5,0-8.75-.06-17.5.02-26.25.05-5.29,1.61-10.16,4.82-14.4,1.16-1.53,2.72-2.76,3.98-4.23,1.74-2.03,4.06-2.99,6.41-4.07,2.58-1.18,5.22-1.74,7.97-1.91,2.05-.13,4.2-.35,6.15.12,2.73.66,5.45,1.66,7.93,2.99,4.4,2.36,7.8,5.83,10.08,10.36,1.67,3.32,2.59,6.83,2.62,10.52.06,8.92.02,17.83.03,26.75,0,1.75,0,1.74,1.82,1.74,8.58,0,17.17-.03,25.75,0,5.94.03,11.26,1.86,15.92,5.61,4.84,3.89,7.92,8.82,8.81,15,.22,1.57.15,3.18.21,4.77,0,.08-.03.18,0,.25.85,1.72-.07,3.34-.38,4.95-.38,1.99-1.04,3.94-1.76,5.85-.31.81-1.15,1.41-1.58,2.2-1.53,2.83-4.07,4.68-6.39,6.74-3.09,2.74-7.02,3.52-10.86,4.32-1.93.41-4.02.13-6.03.13-6.83,0-13.67-.01-20.5-.02-1.34,0-2.69-.04-4.03-.02-1.1.02-1.63.89-1.26,1.91.16.45.27.95.27,1.43.02,8.5.01,17,.01,25.5,0,1.42.13,2.86-.06,4.25-.13.96-.78,1.84-1.1,2.79-.63,1.86-1.36,3.63-2.67,5.16-1.34,1.58-2.48,3.33-3.76,4.97-1.33,1.7-3.21,2.67-5.03,3.73-1.08.63-2.13,1.31-3.25,1.87-.43.21-1.03.02-1.5.19-2.88,1-5.85,1.46-8.86,1.17-8.4-.8-15.15-4.47-19.76-11.74-2.84-4.49-4.08-9.38-4.05-14.67.05-8.21.01-16.42.01-24.62,0-1.78,0-1.82-1.76-1.83-8.66-.04-17.34-.24-25.99,0-4.75.13-9.02-1.07-12.93-3.44-3.07-1.86-5.82-4.26-7.79-7.33-1.18-1.83-2.21-3.82-2.94-5.87-2.39-6.75-1.58-13.3,1.6-19.63,3.31-6.6,8.69-10.64,15.71-12.53,2.26-.61,4.65-.99,6.99-1.02,8.71-.13,17.41-.07,26.12-.09.28,0,.57-.04,1.02-.07Zm64.19,43.95s0,0,0-.01c3.75,0,7.5.03,11.25-.01,2.16-.02,4.35.05,6.47-.29,3.22-.52,5.87-2.35,8.4-4.33,2.27-1.78,3.69-4.22,4.93-6.71.75-1.51,1.04-3.3,1.25-5,.72-5.71-.41-10.88-4.69-15.06-.44-.43-.78-.97-1.21-1.42-.43-.45-.86-.91-1.38-1.24-3.97-2.6-8.39-3.69-13.07-3.74-6.29-.07-12.58-.01-18.87,0-.21,0-.42.02-.62.03-3.02.07-6.05.23-9.07.17-1.96-.04-3.6-1.36-3.58-3.91.06-10.17.06-20.33,0-30.5-.03-4.1-1.34-7.82-3.93-11.06-3.15-3.93-7.15-6.48-12.18-7.1-1.91-.24-3.89-.04-5.82.13-4.61.4-8.32,2.83-11.24,6.09-3.23,3.6-4.83,8.09-4.8,13.05.03,4.83.05,9.66.05,14.5,0,5.04,0,10.08-.05,15.12-.02,2.61-1.25,3.71-3.76,3.5-.33-.03-.67-.03-1-.03-7.67,0-15.33-.01-23,0-.99,0-2.01.34-2.97.19-2.99-.47-5.87-.15-8.7.82-3.78,1.29-6.98,3.33-9.41,6.65-2.13,2.91-3.4,6.14-3.85,9.6-.47,3.59.45,7.11,2.1,10.33,2.38,4.65,6.2,7.71,11.12,9.38,1.12.38,2.31.72,3.48.73,10.75.08,21.49.09,32.24.11,2.47,0,3.74,1.23,3.74,3.72.01,9.62.02,19.25.04,28.87,0,1.24-.14,2.51.05,3.73.48,2.99,1.64,5.74,3.36,8.24,3.43,4.97,8.27,7.75,14.15,8.29,5.31.49,10.07-1.17,14.11-4.92,4.29-3.98,6.27-8.81,6.27-14.56,0-9.96,0-19.91.03-29.87,0-.44.06-.91.23-1.31.69-1.63,2.04-2.16,3.7-2.16,5.42,0,10.83,0,16.25,0Z"/>
  <path class="cls-2" d="m197.94,25.42c5.1,0,10.22,0,15.34,0,1.21,0,2.42,0,3.62,0,1.49,0,1.67.14,1.67,1.59.02,18.96.03,37.91.04,56.87,0,9.91,0,19.83,0,29.74,0,1.69.2,1.84,1.83,1.84,10.87.02,21.74.05,32.62.08.24,0,.48.03,1,.07,0,4.55,0,9.06,0,13.57,0,.36.12.72.18,1.08.16.96-.35,1.63-1.28,1.63-18.25,0-36.49,0-54.74-.02-.08,0-.16-.04-.24-.06-.51-1.51-.58-103.78-.06-106.4Z"/>
  <path class="cls-2" d="m142.23,81.94c-1.22,4.64-6.37,8.31-11.72,8.28-8.62-.05-17.25-.06-25.87-.01-2.61.01-5.25.04-7.81.46-2.74.45-5.67,4.32-6.03,7.08-.97,7.51-.21,15.03-.36,22.54-.08,4.2.08,8.44-.44,12.59-.68,5.46-5.83,9.53-11.29,9.81-5.05.26-8.91-1.61-11.51-5.89-.9-1.48-1.72-3.06-1.71-4.94.04-8.7.03-17.41.02-26.11,0-2.12.03-4.26-.17-6.37-.48-5.2-4.28-9.24-9.95-9.2-9.92.07-19.83-.08-29.75.05-5.08.07-11.36-3.37-12.63-9.99-.33-1.72-.22-3.56-.08-5.33.1-1.25.96-2.02,2.2-2.6,5.18-2.43,10.66-3.82,16.27-4.56,3.44-.45,6.96-.38,10.44-.4,4.23-.02,8.45.02,12.65.97,2.92.66,6,.55,8.97,1.03,3.88.63,7.72,1.46,11.57,2.28,4.59.97,9.17,1.98,13.73,3.05,4.57,1.07,9.09,2.37,13.69,3.31,6.51,1.34,13.08,2.45,19.62,3.63,1.57.28,3.15.49,4.74.68.46.05.96-.16,1.43-.15,1.78.06,3.59.37,5.34.18,1.85-.2,3.66.1,5.48.04,1-.03,1.99-.26,3.15-.42Zm-93.03-9.55c-2.33,0-4.37,2.15-4.38,4.61,0,2.03,2.42,4.48,4.49,4.36,2.78-.16,4.53-2.11,4.54-4.49.01-2.46-2.11-4.47-4.65-4.48Zm36.11,36.48c0-2.45-1.41-3.72-4.12-3.73-2.15,0-3.63,1.64-3.61,4.03.01,1.75,1.88,3.68,3.59,3.71,2.26.05,4.14-1.77,4.14-4.01Zm3.74-22.49c1.76.02,2.82-.97,2.86-2.69.03-1.35-1.31-3.12-2.36-3.1-1.49.02-3.24,1.67-3.22,3.05.01,1.52,1.21,2.73,2.72,2.75Zm-10.27,44.01c1.64,0,2.98-1.15,2.95-2.53-.03-1.33-1.5-2.72-2.88-2.71-1.35,0-2.97,1.41-3.01,2.63-.05,1.25,1.49,2.62,2.94,2.62Zm-9.56-44.5c-1.87-.01-2.18.29-2.19,2.13,0,1.9.76,2.74,2.4,2.85,1.7.11,2.62-1.47,2.63-2.81.01-1.64-.66-2.16-2.84-2.17Zm-37.41-5.97c.01-1.34-.91-2.29-2.22-2.3-1.46-.01-2.49.81-2.53,2.02-.04,1.16,1.29,2.94,2.23,2.98,1.57.08,2.51-.93,2.52-2.7Z"/>
  <path class="cls-2" d="m80.82,30.54c-.01-2.34,1.93-3.98,4.5-4.19,1.95-.16,4.1,2.07,4.22,4.27.12,2.34-2.08,4.45-4.54,4.51-1.79.05-4.16-2.56-4.18-4.59Z"/>
  <path class="cls-2" d="m85.07,61.31c.21,2.39-1.3,3.46-3.59,3.56-1.94.09-3.55-1.54-3.38-3.61.16-1.93.94-3.69,3.22-3.64,2.57.06,3.75,1.17,3.75,3.69Z"/>
  <path class="cls-2" d="m77.84,47.01c-.01,1.23-1.12,2.38-2.26,2.35-1.39-.04-2.3-1.01-2.26-2.43.04-1.44.69-2.04,2.2-2.03,1.54,0,2.33.73,2.32,2.11Z"/>
</svg>