<?xml version="1.0" encoding="UTF-8"?>
<svg id="Layer_1" data-name="Layer 1" xmlns="http://www.w3.org/2000/svg" viewBox="0 0 822 155.76">
  <defs>
    <style>
      .cls-1 {
        fill: #1cbb9a;
      }
    </style>
  </defs>
  <path class="cls-1" d="m822,111.84c-.35,1.18-.65,2.38-1.06,3.54-2.11,6-6.03,10.37-11.58,13.5-4.95,2.79-10.34,3.69-15.79,4.55-5.04.8-9.97-.19-14.93-.87-6.32-.86-11.58-3.97-16.5-7.76-4.48-3.45-7.31-8.06-9.08-13.36-.42-1.26-.76-2.54-1.09-3.82-.37-1.43.1-2.01,1.59-2.02,1.36-.01,2.72.02,4.08,0,4.51-.07,9.02-.15,13.53-.24,1.75-.04,1.84.09,2.38,1.87.95,3.14,2.91,5.55,5.7,7.24,5.04,3.04,10.43,3.19,15.88,1.51,2.69-.83,4.96-2.43,6.24-5.18,1.23-2.64.43-6.02-2.04-7.57-3.51-2.21-7.35-3.71-11.34-4.81-4.89-1.34-9.82-2.53-14.69-3.96-4.72-1.39-8.99-3.67-12.71-6.96-2.75-2.43-4.62-5.34-5.76-8.82-1.16-3.53-.79-7.09-.5-10.66.28-3.5,1.64-6.62,3.65-9.42,2.7-3.77,6.24-6.53,10.48-8.45,3.46-1.57,7.07-2.62,10.76-3.26,3.78-.65,7.63-.91,11.48-.33,3.18.48,6.39.79,9.52,1.48,4.24.93,7.91,3.06,11.26,5.84,3.16,2.63,5.54,5.8,7.26,9.48,1.39,2.97,2.3,6.08,2.32,9.4,0,1.02-.38,1.42-1.41,1.42-5.4-.03-10.8,0-16.2-.02-1.51,0-2.28-.59-2.79-2.22-1.45-4.58-4.8-7.11-9.16-8.55-.69-.23-1.5-.12-2.26-.13-1.96-.01-3.92,0-5.88,0-3.82,0-7.49,2.58-8.65,6.05-1.06,3.17.41,6.66,3.35,7.97,6.43,2.87,13,5.25,19.9,6.76,5.22,1.14,10.3,2.79,14.75,5.91,4.87,3.41,8.08,7.9,9.05,13.86.02.13.15.23.23.35v7.68Z"/>
  <path class="cls-1" d="m81.84,0c1.83.64,3.69,1.22,5.5,1.92,7.91,3.06,12.88,8.78,15.02,16.93.48,1.85.7,3.82.72,5.74.07,8.64.03,17.28.03,25.92,0,2.14.03,2.16,2.11,2.16,8.76,0,17.52,0,26.28,0,10.9,0,21.36,8.39,23.65,19.01.24,1.12.26,2.29.38,3.44.15,1.37.31,2.73.43,4.1.04.51.09,1.06-.04,1.54-.67,2.57-1.21,5.21-2.18,7.67-.69,1.73-1.83,3.36-3.07,4.77-2.29,2.6-4.66,5.25-7.86,6.69-2.58,1.16-5.39,1.88-8.15,2.53-1.51.36-3.15.21-4.73.21-7.68.02-15.36,0-23.04,0-.99,0-1.99-.1-2.97,0-1.09.13-1.44.85-1.15,1.89.17.6.32,1.22.32,1.84.02,8.16.02,16.32,0,24.48,0,1.42.11,2.88-.16,4.25-.55,2.85-1.62,5.55-3.35,7.91-1.51,2.06-2.92,4.25-4.75,5.99-1.73,1.65-3.9,2.87-5.95,4.15-2.65,1.65-5.71,1.97-8.73,2.37-.33.04-.64.16-.96.24h-1.44c-.16-.08-.32-.21-.48-.23-1.36-.17-2.75-.24-4.09-.51-4.06-.79-7.8-2.4-10.94-5.1-5.26-4.51-8.33-10.26-9.21-17.15-.12-.96-.4-1.92-.38-2.87.05-2.01.34-4.02.36-6.03.05-5.44.02-10.88.02-16.32,0-1,0-2.01-.07-3.01-.11-1.73-.24-1.89-1.69-1.91-6.11-.06-12.23-.12-18.34-.14-2.92,0-5.83.07-8.75.13-4.57.1-8.68-1.31-12.48-3.74-5.6-3.57-9.14-8.64-10.8-15.03C.53,82.4.3,80.91,0,79.44c0-.96,0-1.92,0-2.88.09-.56.16-1.12.26-1.68.6-3.37,1.68-6.57,3.33-9.59,2.66-4.85,6.56-8.27,11.68-10.33,1.79-.72,3.56-1.69,5.43-1.96,1.32-.19,2.65-.13,3.97-.6.59-.21,1.38.24,2.08.25,7.95.02,15.91.02,23.86,0,.78,0,1.57-.09,2.44-.14,0-.44,0-.8,0-1.15-.08-4.66-.19-9.32-.22-13.98-.01-1.9.19-3.8.21-5.71.04-2.72-.1-5.44.05-8.15.11-1.9.43-3.82.92-5.66,1.22-4.59,4.03-8.18,7.35-11.48,2.82-2.8,6.24-4.36,9.96-5.42C72.87.54,74.49.32,76.08,0c1.92,0,3.84,0,5.76,0Zm-22.66,116.2c0,4.72.1,9.44-.03,14.16-.14,5.08,1.88,9.27,5.1,12.94,3.6,4.08,8.34,5.97,13.69,6.19,3.52.15,6.82-.87,9.81-2.82,5.81-3.8,9.07-9.13,9.17-16.07.15-10.16.04-20.32.05-30.47,0-.49.09-1.02.29-1.47.73-1.63,2.09-2.17,3.79-2.16,9.96.01,19.92.01,29.88,0,.98,0,1.97-.1,2.95-.22,4.84-.55,8.58-3.13,11.63-6.7,3.87-4.52,4.57-9.91,3.8-15.64-.42-3.12-1.9-5.7-3.86-8.04-.9-1.08-1.87-2.16-2.99-2.99-4.13-3.06-8.92-4.08-13.96-4.07-7.22.03-14.45.15-21.67.22-2.04.02-4.08,0-6.12,0-2.29,0-3.7-1.36-3.73-3.65-.02-1.72.08-3.43.07-5.15-.02-8.88-.05-17.75-.11-26.63,0-.85-.21-1.71-.39-2.55-.82-3.85-2.74-7.04-5.62-9.73-1.86-1.74-3.93-3.04-6.3-3.93-3.22-1.2-6.49-1-9.82-.73-3.99.33-7.15,2.18-9.87,4.87-3.82,3.78-5.8,8.36-5.77,13.81.06,8.96.02,17.92.02,26.88,0,1.04.07,2.09-.02,3.12-.18,2.13-1.05,3.52-3.64,3.49-7.96-.1-15.92-.04-23.88-.02-1.14,0-2.29.19-3.43.22-1.81.04-3.63-.16-5.42.05-3.16.36-6.06,1.58-8.62,3.45-3.07,2.23-5.29,5.15-6.61,8.73-1.16,3.15-1.79,6.4-1.02,9.71,1.11,4.76,3.36,8.89,7.42,11.82,2.53,1.82,5.29,3.36,8.46,3.48,5.47.21,10.95.17,16.42.2,5.36.03,10.72.04,16.08,0,2.95-.02,4.26,1.48,4.25,4.25-.02,5.16,0,10.32,0,15.48Z"/>
  <path class="cls-1" d="m393.34,18.96v39.87c.9-.75,1.72-1.33,2.42-2.04,5.8-5.93,12.74-9.65,21.01-10.58,9.71-1.09,18.74.87,26.69,6.74,7.04,5.2,11.55,12.21,14.22,20.48,1.08,3.32,1.69,6.72,1.92,10.2.02.29.21.57.33.84.09.21.31.42.3.63-.11,2.13-.28,4.25-.39,6.38-.03.53.14,1.08.21,1.62.03.21.09.43.05.63-.73,3.83-1.4,7.68-2.26,11.49-.34,1.51-1.02,2.97-1.71,4.38-1.84,3.77-3.69,7.51-6.52,10.73-3.97,4.53-8.6,8.07-14.1,10.48-2.34,1.03-4.78,1.7-7.35,1.92-2.31.2-4.62.66-6.93.66-2.23,0-4.46-.41-6.67-.75-1.85-.28-3.72-.58-5.5-1.11-3.4-1.01-6.32-2.92-9.02-5.18-1.63-1.36-3.28-2.69-4.97-3.97-.36-.27-.93-.26-1.4-.39-.11.44-.31.88-.31,1.32-.03,2.8-.01,5.59-.01,8.49h-21.36v-1.26c0-36.55,0-73.11,0-109.66q0-1.93,1.88-1.93c6.44,0,12.87,0,19.46,0Zm45.16,71.58c0-5.13-.57-9.3-2.64-13.15-2.36-4.37-5.46-7.99-9.94-10.38-4.79-2.56-9.92-1.99-15.02-1.93-.04,0-.07.03-.11.05-10.14,2.99-17.27,11.84-17.42,22.31-.03,2.26.08,4.53.25,6.79.11,1.44.24,2.92.69,4.28,2.2,6.66,6.35,11.72,12.86,14.53,3.51,1.51,7.24,2.33,11.13,1.68,3.94-.65,7.65-1.92,10.68-4.58,6.14-5.4,9.68-12.07,9.51-19.59Z"/>
  <path class="cls-1" d="m630.14,120.75c-1.64,1.52-3.09,2.87-4.56,4.21-4.45,4.05-9.64,6.61-15.55,7.77-1.48.29-2.92.77-4.39,1.09-.39.08-.84-.17-1.25-.14-1.6.12-3.19.34-4.78.41-.51.02-1.03-.3-1.56-.42-3.75-.86-7.5-1.71-11.08-3.13-2.8-1.11-5.31-2.73-7.58-4.7-1.41-1.22-2.87-2.42-4.05-3.85-1.96-2.38-3.9-4.82-5.52-7.44-2.97-4.79-4.48-10.17-5.54-15.66-.37-1.93-.34-3.93-.54-5.89-.09-.89-.28-1.77-.41-2.65-.05-.31-.08-.64-.05-.95.22-2.03.54-4.04.69-6.07.31-4.02,1.32-7.87,2.66-11.65,1.54-4.34,3.8-8.31,6.64-11.9,2.87-3.63,6.42-6.45,10.43-8.8,4.6-2.7,9.5-4.19,14.76-4.48,2.56-.14,5.16.12,7.73.29,2.02.13,4.07.26,6.06.63,4.2.78,7.81,2.83,11.05,5.56,2.24,1.89,4.45,3.82,6.86,5.89.11-.97.28-1.86.3-2.74.04-2.4.05-4.8,0-7.2-.02-.99.38-1.37,1.33-1.36,6,.02,12,.03,18,.05,1.68,0,1.95.27,1.95,1.94,0,26.56,0,53.12,0,79.68,0,.12,0,.24,0,.36-.08,2.27-.22,2.4-2.5,2.4-5.8,0-11.6-.02-17.4.02-1.03,0-1.42-.29-1.38-1.35.07-1.92.06-3.84,0-5.76-.03-1.29-.2-2.58-.32-4.16Zm-45.13-30.77c.23,1.56.51,3.66.84,5.75.98,6.22,4.35,10.98,9.04,14.98,4.53,3.86,9.95,4.64,15.49,4.12,4.88-.46,9.19-2.71,12.76-6.17,5.14-4.97,7.08-11.27,7.28-18.18.07-2.38-.25-4.82-.72-7.17-1.29-6.5-4.64-11.63-10.42-15.09-8.7-5.21-17.19-4.58-24.99,1.44-6.34,4.89-8.89,11.87-9.29,20.31Z"/>
  <path class="cls-1" d="m329.24,58.88c.1-3.37.2-6.53.28-9.68.04-1.42.17-1.58,1.59-1.58,5.92,0,11.84,0,17.76,0,1.67,0,2.01.34,2.01,2.04,0,12.92.02,25.84,0,38.76-.02,13.24-.06,26.47-.1,39.71,0,.95-.08,1.9-.14,2.84-.07,1.03-.87,1.02-1.59,1.02-2.64.02-5.28,0-7.92,0-3.28,0-6.56,0-9.84,0-1.81,0-1.87-.23-1.8-2.08.11-3.03.03-6.07.03-9.41-.94.79-1.78,1.36-2.45,2.08-3.32,3.64-7.37,6.27-11.74,8.36-1.83.88-3.95,1.2-5.97,1.61-2.61.53-5.26,1.24-7.89,1.25-2.54.01-5.09-.76-7.64-1.18-1.43-.24-2.88-.37-4.28-.69-3.12-.73-5.83-2.39-8.45-4.14-6.64-4.46-11.38-10.48-14.44-17.87-1.75-4.22-3.13-8.55-3.55-13.07-.33-3.53-.17-7.1-.15-10.65,0-1.62.06-3.27.35-4.86.43-2.42.89-4.87,1.69-7.19,1.09-3.17,2.35-6.31,3.84-9.31,2.06-4.16,5.24-7.48,8.78-10.45,4.97-4.17,10.88-6.28,17.11-7.55,3.41-.7,6.88-.77,10.36-.09,2.19.43,4.48.42,6.66.9,4.24.93,7.93,3.1,11.29,5.76,2.05,1.62,3.93,3.44,6.21,5.46Zm-22.16,55.71c1.52,0,3.05.16,4.54-.03,4.4-.54,7.75-3.21,10.71-6.13,3.49-3.44,6.12-7.42,6.32-12.72.12-3.14.95-6.24.43-9.42-.28-1.74-.29-3.56-.76-5.25-1.3-4.72-4.22-8.4-8.01-11.37-4.96-3.9-10.62-5.57-16.88-4.59-7.27,1.13-12.69,5.13-16.12,11.56-3.05,5.73-3.49,11.99-2.62,18.34,1.39,10.11,11.49,21.1,22.38,19.63Z"/>
  <path class="cls-1" d="m497.28,90.96c-.04.9-.09,1.45-.09,2,0,12.36,0,24.71,0,37.07,0,1.76-.21,1.97-2.01,1.97-5.92,0-11.84,0-17.76,0-1.68,0-1.74-.06-1.74-1.79.11-34.53.22-69.07.34-103.6,0-.35.04-.7.06-1.17h1.22c1.36,0,2.72,0,4.08,0,7.59-.04,15.19-.12,22.78-.13,3.91,0,7.84-.08,11.74.17,7.42.47,14.79,1.5,21.46,5.04,8.29,4.39,13.66,11.13,15.48,20.47.23,1.16.27,2.36.34,3.54.11,1.78.26,3.57.23,5.35-.1,6.1-1.63,11.78-5.24,16.8-2.94,4.09-6.63,7.31-11.06,9.76-4.12,2.28-8.55,3.52-13.14,4.26-1.36.22-2.76.25-4.15.25-5.72.03-11.44.01-17.16.01h-5.41Zm9.14-48.24c-2.48,0-4.96-.01-7.44,0-1.56,0-1.99.47-1.94,2.04.04,1.39.14,2.79.13,4.18-.03,7.79-.09,15.58-.13,23.37,0,1.49.48,1.92,1.94,1.85,1.31-.07,2.63-.1,3.94-.13,5.22-.12,10.44-.13,15.66-.38,3.58-.17,6.72-1.71,9.32-4.16,2.09-1.97,3.36-4.47,3.47-7.4.08-2.04-.05-4.09,0-6.13.12-5.14-2.49-8.59-6.77-10.97-3.41-1.9-7.25-1.91-10.99-2.23-2.38-.21-4.8-.04-7.19-.04Z"/>
  <path class="cls-1" d="m668.36,105.6c6.99,0,13.51,0,20.02,0,.72,0,1.21.24,1.45,1.07,1.05,3.54,3.1,6.4,6.4,8.08,1.89.96,3.99,1.6,6.06,2.08,3.28.76,6.51.06,9.66-.9,4-1.22,6.23-4.1,6.13-8.42-.04-1.94-1.05-3.37-2.49-4.5-1.27-1-2.76-1.55-4.29-2.16-2.91-1.16-5.93-1.87-8.89-2.84-3.35-1.09-6.78-1.94-10.12-3.04-4.3-1.41-8.73-2.53-12.53-5.21-3.27-2.3-6.03-5.06-7.68-8.7-.82-1.81-1.36-3.89-1.45-5.87-.17-3.5-.35-7.02.82-10.48,1.48-4.4,3.99-7.95,7.57-10.92,4.53-3.76,9.84-5.62,15.46-6.71,2.39-.46,4.89-.37,7.33-.54,1.02-.07,2.05-.24,3.07-.23,5.27.06,10.34,1.19,15.28,2.95,6.37,2.26,10.9,6.65,14.21,12.41,1.67,2.91,2.46,6.1,2.91,9.4.09.62.22,1.25.38,1.86.17.64-.19.89-.7.96-.98.12-1.96.25-2.95.25-4.84.02-9.68-.04-14.52.04-1.33.02-2.04-.59-2.35-1.68-.96-3.45-3.01-6.06-6.15-7.67-1.5-.77-3.22-1.41-4.88-1.51-2.76-.17-5.58-.04-8.33.31-3.77.48-6.48,3.47-7.02,7.29-.34,2.4,2.06,5.77,4.5,6.83,7.73,3.36,15.89,5.35,23.92,7.78,5.07,1.54,9.9,3.61,13.6,7.61,2.82,3.05,4.75,6.58,5.18,10.78.19,1.88.16,3.79.27,5.68.02.41.2.81.29,1.22.06.26.22.57.14.78-.64,1.82-1.28,3.65-2.01,5.44-1.94,4.75-5.04,8.49-9.67,10.87-2.21,1.13-4.4,2.31-6.61,3.44-2.21,1.13-4.66,1.19-7.06,1.46-2.55.29-5.09.68-7.64.83-4.74.27-9.33-.92-13.94-1.74-1.65-.29-3.17-1.4-4.73-2.19-1.91-.96-3.89-1.83-5.67-2.99-5.99-3.89-10.35-9.04-12.01-16.16-.37-1.58-.64-3.19-.99-4.97Z"/>
  <path class="cls-1" d="m254.4,115.54c0,5.26.02,10.33-.04,15.41,0,.35-.63.72-.99,1.04-.09.08-.31.01-.47.01-18.03,0-36.07,0-54.1,0h-.66c-.05-.24-.12-.47-.12-.69-.05-4.31-.13-8.63-.14-12.94-.04-24.75-.08-49.5-.1-74.25,0-4.36.05-8.71.1-13.07.02-1.56.12-3.11.12-4.67,0-.72.24-.97.98-.97,6.2.02,12.4.03,18.59,0,.96,0,1.25.51,1.32,1.31.03.32,0,.64,0,.96,0,28.63,0,57.26,0,85.89,0,1.73.12,1.86,1.82,1.86,3.68,0,7.36,0,11.04,0,7.19.03,14.39.06,21.58.1.31,0,.63,0,1.08,0Z"/>
  <path class="cls-1" d="m142.43,82.32c-.85,2.87-2.83,4.89-5.44,6.38-2.09,1.19-4.37,1.69-6.77,1.68-6.31-.04-12.63-.13-18.94-.13-3.87,0-7.74.11-11.61.24-4.7.16-8.32,3.45-8.64,8.16-.29,4.44-.26,8.91-.3,13.37-.04,5,.04,10-.03,15-.03,2.17-.15,4.36-.53,6.49-.63,3.45-2.7,5.97-5.77,7.62-4.7,2.53-9.44,2.55-13.82-.55-3.03-2.15-4.94-5.23-4.95-9.13-.03-10,0-20-.02-30,0-2.56-.45-5.03-2.02-7.15-1.65-2.21-3.82-3.6-6.61-3.81-1.53-.12-3.08-.1-4.62-.11-6.91-.05-13.83-.12-20.74-.13-1.94,0-3.89.27-5.83.2-3.64-.12-6.92-1.33-9.48-3.98-2.1-2.18-3.37-4.82-3.35-7.94,0-.52.02-1.04,0-1.56-.17-4.28,1.04-4.12,3.77-5.38,4.14-1.9,8.59-2.94,13.07-3.6,5.6-.84,11.26-.99,16.9-.54,3.63.29,7.23,1.17,10.86,1.38,7.92.45,15.55,2.39,23.23,4.11,5.68,1.27,11.29,2.8,16.98,4,6.79,1.43,13.63,2.64,20.45,3.93,1.92.36,3.84.78,5.78.96,2.99.27,6,.4,9.01.48,3.1.08,6.2.02,9.42.02Zm-97.31-5.43c-.29,1.92,2.46,4.53,4.24,4.48,2.38-.06,4.6-2.09,4.64-4.41.03-2.34-2.28-4.61-4.72-4.47-2.36.13-4.08,1.98-4.16,4.4Zm36.54,28.46c-2.31,0-3.92,1.54-3.9,3.73.01,1.65,2.1,3.77,3.74,3.78,2.2.02,3.95-1.79,3.94-4.09,0-2.28-1.28-3.43-3.78-3.43Zm10.26-21.53c0-1.86-.85-2.95-2.31-2.95-1.45,0-2.95,1.45-2.96,2.86-.01,1.35,1.29,2.64,2.69,2.66,1.61.02,2.58-.94,2.58-2.57Zm-12.91,46.5c1.49,0,2.86-1.09,2.9-2.29.04-1.27-1.5-2.78-2.82-2.76-1.31.02-3.05,1.51-3.01,2.58.04,1.18,1.58,2.47,2.93,2.47Zm-9.38-44.17c-1.98,0-2.4.32-2.43,1.85-.03,1.51,1.18,2.93,2.5,2.94,1.35.02,2.54-1.35,2.54-2.92,0-1.49-.53-1.87-2.61-1.87Zm-37.65-6.16c0-1.38-.91-2.24-2.35-2.24-1.23,0-2.26.89-2.27,1.96,0,1.31,1.38,2.87,2.53,2.84,1.2-.03,2.1-1.13,2.09-2.56Z"/>
  <path class="cls-1" d="m89.76,30.89c0,2.29-2.2,4.29-4.57,4.42-1.7.09-4.47-2.66-4.28-4.88.19-2.2,1.51-3.98,4.75-4.02,2.21-.02,4.11,2.09,4.1,4.49Z"/>
  <path class="cls-1" d="m78.24,61.45c.11-2.42,1.21-3.96,3.28-3.87,2.68.13,3.98,1.48,3.9,4.25-.05,1.95-1.72,3.28-4.01,3.21-1.91-.06-3.22-1.53-3.18-3.59Z"/>
  <path class="cls-1" d="m78,46.96c0,1.56-.82,2.48-2.23,2.48-1.31,0-2.3-.99-2.32-2.33-.02-1.51.72-2.24,2.28-2.23,1.53.01,2.26.68,2.26,2.08Z"/>
</svg>