<?xml version="1.0" encoding="UTF-8"?>
<svg id="Layer_1" data-name="Layer 1" xmlns="http://www.w3.org/2000/svg" viewBox="0 0 821.57 155.34">
  <defs>
    <style>
      .cls-1 {
        fill: #fff;
      }
    </style>
  </defs>
  <path class="cls-1" d="m392.74,131.77c.23-3.76-.19-7.57.36-11.51.35.29.54.43.7.6,1.31,1.34,2.54,2.76,3.92,4,2.62,2.36,5.63,4.15,8.79,5.66,1.15.55,2.39.94,3.61,1.31.75.23,1.56.23,2.32.41,5.27,1.29,10.56,1.2,15.86.19,1.18-.22,2.38-.37,3.56-.57.44-.08.89-.21,1.31-.37.7-.28,1.36-.62,2.06-.91,2.79-1.15,5.37-2.69,7.75-4.51,3.96-3.03,7.29-6.66,9.86-10.98,2.39-4.01,4.09-8.28,5.25-12.78.88-3.4,1.15-6.88,1.36-10.38.19-3.21.16-6.4-.35-9.58-.25-1.56-.26-3.18-.68-4.69-.76-2.72-1.71-5.39-2.65-8.06-1.3-3.7-3.42-6.95-5.84-9.97-3.89-4.85-8.69-8.54-14.53-10.85-4.31-1.7-8.75-2.61-13.36-2.84-2.81-.14-5.56.25-8.31.78-2.37.46-4.73.87-6.86,2.13-.92.55-2.02.79-2.97,1.29-3.72,1.98-6.85,4.7-9.59,7.88-.36.42-.67.88-1.05,1.39-.16-.24-.27-.34-.28-.44-.07-1.7-.18-3.4-.18-5.1-.02-11.12-.02-22.25-.02-33.37,0-.44-.04-.89-.07-1.4-.9-.06-1.68-.15-2.46-.15-5.58-.02-11.17-.02-16.75,0-.56,0-1.11.15-1.76.24v112.59h20.99Zm-63.83-11.3c.07,1.28.17,2.46.18,3.65.03,2.04,0,4.08,0,6.12,0,1.6.03,1.63,1.59,1.64,4.92,0,9.83.01,14.75.02,1.25,0,2.5.03,3.75-.02.97-.03,1.16-.26,1.16-1.22,0-.46-.03-.92-.03-1.37,0-25.49,0-50.98,0-76.47,0-1.33-.02-2.67.01-4,.02-.74-.31-1.08-1.02-1.1-.29-.01-.58-.02-.87-.02-6-.01-12-.02-17.99-.03-.32,0-.65.05-1.12.09-.07.6-.19,1.16-.2,1.73-.03,2.37,0,4.75-.05,7.12-.01.79-.17,1.57-.29,2.56-1.45-1.44-2.68-2.68-3.92-3.9-3.44-3.4-7.67-5.52-12.08-7.33-.19-.08-.4-.13-.6-.16-2.58-.43-5.17-.82-7.74-1.29-4.2-.76-8.31-.06-12.38.8-1.97.42-3.86,1.24-5.77,1.93-2.96,1.07-5.64,2.67-8.15,4.53-3.86,2.87-6.92,6.51-9.31,10.64-1.41,2.43-2.47,5.09-3.47,7.73-.85,2.25-1.45,4.6-2.03,6.93-.64,2.55-.65,5.19-.8,7.81-.3,4.9.19,9.73.95,14.54.4,2.57,1.5,4.92,2.41,7.33,2.49,6.56,6.33,12.12,11.78,16.59,3.22,2.65,6.86,4.53,10.64,6.18.19.08.4.11.6.15,1.34.28,2.7.49,4.02.84,4.13,1.09,8.31,1.28,12.5.65,2.01-.3,3.97-.92,5.98-1.27,1.23-.21,2.41-.48,3.53-1.06,2.93-1.5,5.88-2.94,8.32-5.23,1.81-1.7,3.68-3.34,5.65-5.12Zm300.93-.12c.1,1.04.26,2.02.28,3.01.04,2.49.03,4.99.01,7.48,0,.67.23,1.03.92,1.03.29,0,.58.01.87.01,5.87,0,11.75,0,17.62,0,.25,0,.5.01.75-.02.78-.1.98-.36.92-1.16-.05-.7-.11-1.41-.11-2.12,0-14.75-.01-29.5-.01-44.25,0-11.71.01-23.42.02-35.12,0-1.43-.07-1.53-1.43-1.53-6.12-.01-12.25-.02-18.37-.02-1.04,0-1.21.13-1.2,1.12,0,1.29.05,2.58.16,3.87.18,2.2-.06,4.36-.55,6.57-.2-.13-.33-.17-.4-.25-2.49-2.94-5.27-5.55-8.59-7.53-1.25-.74-2.47-1.55-3.79-2.16-2.92-1.37-6.03-2.12-9.23-2.52-2.56-.32-5.11-.78-7.7-.4-3.16.46-6.32.92-9.47,1.42-.44.07-.85.33-1.26.52-.45.21-.88.51-1.35.63-1.89.47-3.56,1.38-5.17,2.42-1.33.85-2.77,1.57-3.97,2.58-1.67,1.42-3.27,2.97-4.71,4.63-2.44,2.8-4.69,5.74-6.09,9.24-1.06,2.67-2.33,5.25-2.89,8.1-.48,2.44-1.24,4.86-1.45,7.33-.3,3.48-.39,7-.2,10.48.16,2.98.72,5.95,1.32,8.88.37,1.82,1.11,3.58,1.72,5.35,2.23,6.44,5.98,11.89,11,16.43,4.31,3.9,9.28,6.61,15.05,7.89,3.72.82,7.4,1.42,11.23,1.24,3.58-.17,7.03-1.04,10.37-2.06,3.99-1.22,7.58-3.42,10.67-6.3,1.66-1.55,3.3-3.12,5.04-4.76ZM475.67,25.48c-.03.52-.06.85-.06,1.18,0,3.12-.02,6.25-.02,9.37,0,29.78,0,59.56,0,89.34,0,1.79-.09,3.58-.19,5.36-.04.68.21,1.03.86,1.1.37.04.75.05,1.12.05,5.87,0,11.75.01,17.62,0,.48,0,.96-.1,1.52-.16.03-.47.07-.84.07-1.2,0-12.66,0-25.32,0-37.99,0-1.58.09-1.65,1.69-1.7,2.36-.07,4.71.13,7.08.04,4.95-.18,9.91-.26,14.86-.21,4.16.05,8.07-1.02,11.94-2.29,3.35-1.1,6.29-2.99,9.13-5.07,4.49-3.27,7.5-7.63,9.54-12.71,1.19-2.95,1.88-5.99,2.1-9.2.2-2.97.25-5.94-.24-8.84-.98-5.85-3.21-11.21-7.31-15.61-1.36-1.45-2.82-2.88-4.45-3.99-2.19-1.5-4.48-2.93-6.92-3.95-2.4-1-5.03-1.43-7.54-2.15-3.59-1.02-7.31-1.35-10.99-1.39-12.79-.14-25.57-.07-38.36-.08-.45,0-.89.04-1.45.07Zm296.89,79.93c-.71.06-1.37.17-2.02.17-4.79.01-9.58,0-14.37,0-1,0-2-.16-2.99-.12-1.21.05-1.58.6-1.42,1.8.4,2.96,1.31,5.76,2.75,8.38,2.02,3.68,4.48,7.02,7.91,9.53,1.31.96,2.64,1.9,4.06,2.68,3.3,1.83,6.52,3.9,10.45,4.12.08,0,.16.04.24.06,4.3,1.07,8.65,1.72,13.1,1.39,1.9-.14,3.81-.35,5.69-.63,1.6-.24,3.17-.72,4.78-.89,1.05-.11,2-.32,2.97-.74,2.67-1.16,5.27-2.4,7.74-4,3.95-2.57,6.44-6.2,8.43-10.29,1.02-2.09,1.39-4.36,1.58-6.65.4-4.97-.3-9.68-3.08-13.99-2.61-4.04-6.33-6.7-10.53-8.73-4.17-2.01-8.63-3.27-13.12-4.29-3.83-.87-7.57-1.99-11.23-3.37-2.14-.8-4.31-1.63-6.24-2.81-3.73-2.28-4.25-6.75-1.97-9.9,1.9-2.63,4.59-4.05,7.92-4.03,1.87.01,3.76.12,5.62,0,1.7-.11,3.22.3,4.68,1.06,3.55,1.85,6.15,4.53,7.1,8.54.16.68.54.94,1.18,1.08,2.27.48,4.56.27,6.85.25,2.25-.02,4.49-.05,6.74-.05,1.2,0,2.43.21,3.61.05,1.6-.21,2.18.07,1.7-2.24-.03-.16-.05-.33-.08-.49-1.13-6.89-4.06-12.75-9.47-17.36-3.28-2.79-6.95-4.72-11.01-5.94-4-1.2-8.15-1.64-12.32-1.87-2.68-.15-5.32.16-7.95.64-2.2.4-4.5.6-6.57,1.38-2.27.86-4.57,1.66-6.77,2.82-3.03,1.6-5.52,3.69-7.76,6.17-1.93,2.13-3.24,4.69-4.07,7.38-.85,2.77-1.36,5.7-1.05,8.63.23,2.23.4,4.55,1.18,6.61.76,2.02,2.04,3.95,3.47,5.58,3.11,3.57,7.03,6.1,11.48,7.73,1.82.67,3.7,1.2,5.54,1.81.59.19,1.16.46,1.76.62,2.08.57,4.18,1.09,6.26,1.66,2.21.61,4.38,1.32,6.6,1.9,3,.78,5.9,1.79,8.48,3.52,2.94,1.97,3.97,5,2.58,8.27-1.34,3.16-4.14,4.58-7.18,5.49-2.2.66-4.52.71-6.82.54-3.15-.24-6.16-.88-8.76-2.88-2.54-1.96-4.63-4.19-5.25-7.48-.07-.35-.26-.68-.43-1.11Zm-35.52-31.75c.04-.48.08-.68.07-.89-.14-3.2-.89-6.3-2.23-9.16-2.8-5.99-7.17-10.65-13.12-13.58-3.78-1.86-7.88-2.88-12.08-3.35-2.11-.23-4.23-.43-6.34-.44-1.95,0-3.9.23-5.85.4-3.28.29-6.5.85-9.55,2.21-1.18.52-2.47.8-3.62,1.36-3.24,1.59-6.07,3.73-8.54,6.39-2.94,3.15-4.71,6.89-5.33,11.08-.63,4.31-.52,8.64,1.23,12.76.39.91.66,1.92,1.24,2.7,3.05,4.14,6.95,7.35,11.71,9.23,4.01,1.58,8.2,2.71,12.33,3.98,5.12,1.57,10.25,3.09,15.38,4.63.16.05.32.12.45.22,1.03.76,2.1,1.48,3.08,2.31,1.86,1.56,2,3.66,1.89,5.92-.15,3.09-4.89,6.71-7.54,6.95-.46.04-.91.12-1.36.18-2.56.36-5.13.6-7.7.06-3.06-.64-5.92-1.68-8.19-3.97-1.68-1.69-2.9-3.63-3.54-5.94-.35-1.25-.4-1.28-1.74-1.27-.96.01-1.91.14-2.87.14-4.87-.02-9.74-.06-14.62-.1-.56,0-1.12,0-1.78,0-.04.63-.07,1.07-.08,1.52-.05,1.88.6,3.6,1.19,5.33.88,2.57,1.95,5.06,3.64,7.22,3.27,4.17,7.44,7.28,12.11,9.65,2.52,1.28,5.03,2.86,8.06,2.74.16,0,.32.08.48.12,4.55,1.13,9.14,1.84,13.84,1.34,2.23-.24,4.5-.4,6.66-.95,2.16-.56,4.41-.53,6.52-1.5,3.62-1.66,7.16-3.39,10.03-6.2,2.43-2.38,4.43-5.09,5.64-8.3,1.2-3.17,1.45-6.46,1.38-9.83-.06-3.25-.95-6.22-2.43-9.07-2.4-4.62-6.37-7.53-10.82-9.85-4.19-2.18-8.75-3.4-13.31-4.49-5.03-1.2-9.99-2.59-14.73-4.65-1.47-.64-3.01-1.4-4.15-2.49-3.18-3.06-2.59-8.27,1.05-10.76.45-.31.91-.59,1.35-.91,1.22-.91,2.59-1.29,4.1-1.28,2.37,0,4.75-.09,7.12.03,1.18.06,2.35.44,3.49.8.57.18,1.02.71,1.57,1,3.02,1.55,4.68,4.16,5.73,7.25.52,1.54.52,1.59,2.14,1.72.33.03.66.04,1,.04,4.5,0,9,.02,13.5,0,1.15,0,2.29-.2,3.51-.31ZM52.59,102.67c0,.67,0,1.2,0,1.73,0,8.37-.03,16.75,0,25.12.02,4.22.84,8.26,2.81,12.04,2.63,5.04,6.42,8.83,11.55,11.35,2.56,1.26,5.22,1.9,8,2.23,3.26.38,6.5.26,9.63-.76,1.66-.54,3.3-1.19,4.83-2.02,1.68-.9,3.45-1.82,4.77-3.14,3.12-3.13,5.83-6.62,7.22-10.93.7-2.18,1.19-4.42,1.19-6.73,0-9.08,0-18.16,0-27.25,0-.57.06-1.13.11-1.91.89,0,1.67,0,2.45,0,9.04,0,18.08-.02,27.12.01,1.74,0,3.38-.32,5.03-.78,2.96-.83,5.73-2.08,8.13-3.95,2.03-1.58,3.86-3.41,5.36-5.55,3.91-5.59,5.36-11.69,4.25-18.45-.56-3.39-1.69-6.52-3.49-9.41-2.66-4.26-6.47-7.23-10.94-9.38-1.27-.61-2.62-1.12-3.99-1.42-2.52-.55-5.08-.84-7.68-.83-8.17.04-16.33.02-24.5.02-.33,0-.67,0-1-.02-.54-.03-.85-.29-.85-.86,0-.33-.01-.67-.01-1,0-8.79,0-17.58,0-26.37,0-3.74-.96-7.26-2.57-10.59-1.64-3.38-3.97-6.18-7.03-8.46C87.12.98,80.68-.93,73.41.43c-4.88.92-9.25,2.92-12.86,6.43-5.09,4.94-7.81,10.96-7.92,18.03-.13,8.66-.03,17.33-.04,26,0,.53-.05,1.05-.09,1.74-.56,0-1.01,0-1.45,0-8.79.01-17.58.02-26.37.04-.75,0-1.52-.02-2.24.15-2.3.56-4.62,1.08-6.86,1.84-4.53,1.53-8.15,4.51-10.88,8.28-2.33,3.21-4.05,6.87-4.48,10.99-.44,4.19-.38,8.31,1.15,12.29,1.05,2.75,2.47,5.34,4.41,7.5,3.59,4.02,7.93,6.97,13.28,8.24.69.16,1.38.41,2.07.43,3.79.07,7.58.09,11.36.09,5.5,0,10.99-.03,16.49-.02,1.12,0,2.24.13,3.6.22Zm145.08,29.21c.57,0,1.06,0,1.55,0,17.04,0,34.08,0,51.12,0,.83,0,1.67-.02,2.5,0,.69.02.99-.3.98-.97,0-4.74,0-9.49,0-14.23,0-.08,0-.17-.01-.25-.04-.54-.31-.82-.88-.83-1.29-.03-2.58-.14-3.87-.14-9.67-.01-19.33-.01-29-.02-1.27,0-1.5-.21-1.66-1.48-.03-.21-.02-.42-.02-.62,0-1.87-.02-3.74-.02-5.61,0-23.25,0-46.49,0-69.74,0-3.71-.01-7.42-.03-11.12,0-1.35-.12-1.44-1.41-1.44-6.08,0-12.16,0-18.25,0-.32,0-.64.06-1.06.1-.07.93-.2,1.79-.2,2.66,0,1.58.1,3.16.1,4.74,0,1.41-.15,2.83-.15,4.24,0,27.25,0,54.49.02,81.74,0,4,.11,7.99.17,11.99,0,.25.05.49.11.99Z"/>
  <path d="m392.74,131.77h-20.99V19.18c.65-.09,1.2-.24,1.76-.24,5.58-.01,11.17,0,16.75,0,.78,0,1.57.09,2.46.15.03.51.07.95.07,1.4,0,11.12,0,22.25.02,33.37,0,1.7.11,3.4.18,5.1,0,.1.12.2.28.44.38-.51.69-.97,1.05-1.39,2.74-3.18,5.87-5.89,9.59-7.88.95-.51,2.05-.75,2.97-1.29,2.13-1.26,4.48-1.67,6.86-2.13,2.75-.53,5.5-.92,8.31-.78,4.6.23,9.05,1.14,13.36,2.84,5.84,2.31,10.64,6,14.53,10.85,2.42,3.02,4.54,6.28,5.84,9.97.94,2.67,1.89,5.34,2.65,8.06.42,1.51.43,3.13.68,4.69.51,3.18.54,6.37.35,9.58-.21,3.5-.48,6.98-1.36,10.38-1.16,4.5-2.86,8.76-5.25,12.78-2.57,4.32-5.9,7.95-9.86,10.98-2.38,1.82-4.96,3.36-7.75,4.51-.69.29-1.36.63-2.06.91-.42.17-.86.3-1.31.37-1.18.21-2.38.35-3.56.57-5.3,1.01-10.58,1.11-15.86-.19-.76-.19-1.58-.19-2.32-.41-1.23-.37-2.46-.76-3.61-1.31-3.16-1.52-6.18-3.31-8.79-5.66-1.39-1.25-2.62-2.67-3.92-4-.16-.17-.36-.3-.7-.6-.55,3.94-.13,7.75-.36,11.51Zm45.39-42.25c0-.54,0-1.08,0-1.62-.02-6.79-2.82-12.43-7.4-17.22-1.27-1.32-3.02-2.19-4.58-3.21-3.12-2.04-6.55-3-10.3-2.78-1.54.09-3.08.09-4.61.18-.53.03-1.07.16-1.58.3-2.4.66-4.58,1.84-6.56,3.28-2.69,1.96-5.32,4.03-6.7,7.22-.12.27-.26.52-.43.76-1.61,2.22-2.27,4.81-2.74,7.43-.24,1.34-.06,2.75-.2,4.11-.3,2.8-.12,5.55.4,8.32.65,3.53,2.17,6.66,4.25,9.5,2.04,2.79,4.65,5.03,7.73,6.6,2.79,1.42,5.74,2.4,8.94,2.5,2.1.07,4.13-.25,6.16-.76,2.04-.52,3.97-1.17,5.76-2.3,3.3-2.08,6.02-4.71,8.05-8.04,2.67-4.38,3.96-9.13,3.83-14.27Z"/>
  <path d="m328.91,120.47c-1.97,1.78-3.84,3.42-5.65,5.12-2.44,2.29-5.39,3.73-8.32,5.23-1.13.58-2.3.85-3.53,1.06-2.01.34-3.97.97-5.98,1.27-4.2.63-8.38.44-12.5-.65-1.32-.35-2.68-.56-4.02-.84-.2-.04-.42-.07-.6-.15-3.78-1.65-7.42-3.54-10.64-6.18-5.44-4.47-9.29-10.03-11.78-16.59-.92-2.41-2.01-4.76-2.41-7.33-.75-4.82-1.24-9.65-.95-14.54.16-2.62.17-5.25.8-7.81.58-2.34,1.18-4.69,2.03-6.93,1-2.64,2.06-5.29,3.47-7.73,2.39-4.13,5.45-7.77,9.31-10.64,2.51-1.87,5.19-3.46,8.15-4.53,1.91-.69,3.8-1.52,5.77-1.93,4.07-.86,8.18-1.57,12.38-.8,2.57.47,5.16.86,7.74,1.29.2.03.41.08.6.16,4.41,1.82,8.63,3.93,12.08,7.33,1.24,1.22,2.47,2.46,3.92,3.9.12-.99.28-1.78.29-2.56.04-2.37.02-4.75.05-7.12,0-.56.12-1.13.2-1.73.47-.04.79-.09,1.12-.09,6,0,12,.02,17.99.03.29,0,.58,0,.87.02.71.02,1.04.36,1.02,1.1-.03,1.33-.01,2.67-.01,4,0,25.49,0,50.98,0,76.47,0,.46.03.92.03,1.37,0,.95-.18,1.19-1.16,1.22-1.25.04-2.5.02-3.75.02-4.92,0-9.83,0-14.75-.02-1.55,0-1.59-.04-1.59-1.64,0-2.04.02-4.08,0-6.12-.02-1.19-.12-2.37-.18-3.65Zm-45.25-30.51c.3,2.13.5,4.29.92,6.4.89,4.53,3.1,8.42,6.2,11.78,2.61,2.82,5.83,4.78,9.49,6.03,1.32.45,2.62.73,4.02.62.95-.08,1.92-.11,2.87,0,3.33.37,6.38-.56,9.23-2.09,1.81-.98,3.58-2.19,5.06-3.61,3.48-3.33,6.23-7.14,6.78-12.14.05-.45.14-.91.26-1.35,1.38-5.07.26-10.05-.48-15.05,0-.04-.03-.08-.04-.12-1.6-4.11-3.98-7.72-7.41-10.49-2.87-2.32-6.14-3.94-9.78-4.8-2.81-.66-5.6-.67-8.41-.11-2.64.53-5,1.69-7.36,2.99-3.74,2.05-6.29,5.12-8.25,8.78-2.19,4.1-2.94,8.54-3.11,13.17Z"/>
  <path d="m629.84,120.35c-1.73,1.64-3.38,3.21-5.04,4.76-3.1,2.88-6.69,5.09-10.67,6.3-3.35,1.02-6.79,1.89-10.37,2.06-3.84.18-7.51-.41-11.23-1.24-5.77-1.27-10.74-3.99-15.05-7.89-5.01-4.54-8.77-9.99-11-16.43-.61-1.77-1.35-3.52-1.72-5.35-.59-2.93-1.16-5.9-1.32-8.88-.18-3.48-.09-7,.2-10.48.21-2.46.97-4.88,1.45-7.33.56-2.85,1.83-5.44,2.89-8.1,1.39-3.5,3.65-6.45,6.09-9.24,1.44-1.66,3.04-3.21,4.71-4.63,1.19-1.01,2.64-1.73,3.97-2.58,1.62-1.04,3.29-1.95,5.17-2.42.47-.12.9-.43,1.35-.63.41-.19.82-.45,1.26-.52,3.15-.5,6.31-.95,9.47-1.42,2.59-.38,5.14.08,7.7.4,3.2.4,6.31,1.15,9.23,2.52,1.31.62,2.54,1.42,3.79,2.16,3.33,1.98,6.11,4.59,8.59,7.53.07.09.2.13.4.25.5-2.21.73-4.37.55-6.57-.1-1.29-.15-2.58-.16-3.87,0-.98.16-1.12,1.2-1.12,6.12,0,12.25,0,18.37.02,1.37,0,1.44.1,1.43,1.53,0,11.71-.02,23.42-.02,35.12,0,14.75,0,29.5.01,44.25,0,.71.06,1.41.11,2.12.05.8-.14,1.06-.92,1.16-.25.03-.5.02-.75.02-5.87,0-11.75,0-17.62,0-.29,0-.58-.01-.87-.01-.7,0-.93-.37-.92-1.03.02-2.49.03-4.99-.01-7.48-.02-.98-.18-1.97-.28-3.01Zm-44.98-30.88c0,1.04-.09,2.09.02,3.12.14,1.24.47,2.45.67,3.68.75,4.5,2.87,8.33,5.92,11.63,3.19,3.45,7.15,5.67,11.71,6.81.44.11.9.12,1.35.13,1.87,0,3.74,0,5.6-.02.37,0,.75-.01,1.11-.1,1.01-.26,2.01-.53,3-.84,1.03-.33,2.13-.57,3.03-1.11,1.49-.89,2.94-1.9,4.26-3.03,2.55-2.18,4.71-4.69,6.13-7.79,1.54-3.35,2.17-6.92,2.35-10.54.21-4.22-.27-8.4-1.85-12.38-1.44-3.62-3.57-6.8-6.7-9.17-2.7-2.05-5.7-3.61-9-4.47-1.28-.33-2.59-.61-3.91-.72-3.17-.26-6.19.4-9.13,1.63-5.41,2.26-9.51,5.87-12.04,11.21-1.8,3.79-2.75,7.75-2.54,11.96Z"/>
  <path d="m475.67,25.48c.56-.03,1-.07,1.45-.07,12.79,0,25.57-.06,38.36.08,3.68.04,7.4.36,10.99,1.39,2.52.72,5.15,1.14,7.54,2.15,2.43,1.02,4.73,2.45,6.92,3.95,1.63,1.12,3.09,2.54,4.45,3.99,4.1,4.4,6.33,9.76,7.31,15.61.48,2.9.44,5.87.24,8.84-.22,3.21-.91,6.25-2.1,9.2-2.05,5.08-5.05,9.43-9.54,12.71-2.84,2.07-5.77,3.97-9.13,5.07-3.87,1.27-7.78,2.34-11.94,2.29-4.95-.05-9.91.03-14.86.21-2.37.09-4.72-.12-7.08-.04-1.6.05-1.69.12-1.69,1.7,0,12.66,0,25.32,0,37.99,0,.36-.04.73-.07,1.2-.56.06-1.04.16-1.52.16-5.87,0-11.75,0-17.62,0-.37,0-.75,0-1.12-.05-.66-.07-.9-.42-.86-1.1.1-1.78.19-3.57.19-5.36.01-29.78,0-59.56,0-89.34,0-3.12.01-6.25.02-9.37,0-.33.03-.66.06-1.18Zm31.02,17.14h0c-.42.01-.83.01-1.25.01-2.37,0-4.75-.02-7.12.01-1.5.02-1.73.28-1.73,1.76,0,9.29,0,18.57,0,27.86,0,1.64.21,1.84,1.88,1.88.17,0,.33,0,.5,0,5.58-.08,11.16-.14,16.74-.25,3.11-.06,6.11-.63,8.86-2.22,4.2-2.43,6.46-6,6.57-10.88.04-1.87.06-3.75-.02-5.62-.23-5.31-3.8-9.26-8.37-10.95-3.45-1.28-7.11-1.68-10.81-1.61-1.75.03-3.5,0-5.25,0Z"/>
  <path d="m772.55,105.42c.17.43.36.76.43,1.11.63,3.29,2.71,5.52,5.25,7.48,2.6,2,5.61,2.64,8.76,2.88,2.29.17,4.62.11,6.82-.54,3.04-.91,5.84-2.33,7.18-5.49,1.39-3.28.36-6.31-2.58-8.27-2.57-1.72-5.48-2.74-8.48-3.52-2.21-.57-4.39-1.28-6.6-1.9-2.08-.58-4.18-1.1-6.26-1.66-.6-.16-1.17-.43-1.76-.62-1.85-.61-3.72-1.14-5.54-1.81-4.46-1.63-8.37-4.15-11.48-7.73-1.43-1.64-2.71-3.57-3.47-5.58-.78-2.06-.95-4.38-1.18-6.61-.3-2.93.2-5.86,1.05-8.63.83-2.69,2.14-5.25,4.07-7.38,2.24-2.48,4.74-4.57,7.76-6.17,2.2-1.16,4.5-1.96,6.77-2.82,2.07-.78,4.36-.98,6.57-1.38,2.63-.47,5.27-.78,7.95-.64,4.17.23,8.32.67,12.32,1.87,4.05,1.22,7.73,3.15,11.01,5.94,5.42,4.6,8.35,10.47,9.47,17.36.03.16.05.33.08.49.47,2.31-.11,2.02-1.7,2.24-1.18.16-2.4-.05-3.61-.05-2.25,0-4.49.03-6.74.05-2.29.02-4.58.23-6.85-.25-.64-.14-1.02-.4-1.18-1.08-.95-4.01-3.55-6.68-7.1-8.54-1.46-.76-2.98-1.17-4.68-1.06-1.87.12-3.75,0-5.62,0-3.33-.02-6.02,1.4-7.92,4.03-2.28,3.15-1.77,7.62,1.97,9.9,1.93,1.18,4.11,2.01,6.24,2.81,3.66,1.38,7.4,2.49,11.23,3.37,4.49,1.03,8.95,2.28,13.12,4.29,4.21,2.03,7.93,4.69,10.53,8.73,2.78,4.31,3.49,9.02,3.08,13.99-.19,2.29-.56,4.56-1.58,6.65-2,4.09-4.49,7.72-8.43,10.29-2.47,1.61-5.07,2.84-7.74,4-.97.42-1.92.63-2.97.74-1.61.17-3.18.65-4.78.89-1.89.28-3.79.49-5.69.63-4.44.32-8.8-.32-13.1-1.39-.08-.02-.16-.06-.24-.06-3.94-.22-7.16-2.29-10.45-4.12-1.41-.78-2.75-1.73-4.06-2.68-3.43-2.51-5.89-5.85-7.91-9.53-1.44-2.62-2.35-5.41-2.75-8.38-.16-1.2.2-1.75,1.42-1.8.99-.04,1.99.11,2.99.12,4.79.02,9.58.02,14.37,0,.65,0,1.31-.11,2.02-.17Z"/>
  <path d="m737.03,73.66c-1.22.11-2.37.3-3.51.31-4.5.03-9,.01-13.5,0-.33,0-.67-.01-1-.04-1.62-.13-1.62-.18-2.14-1.72-1.05-3.08-2.72-5.7-5.73-7.25-.55-.28-1-.81-1.57-1-1.13-.37-2.31-.74-3.49-.8-2.37-.12-4.75-.03-7.12-.03-1.5,0-2.88.37-4.1,1.28-.43.32-.9.6-1.35.91-3.64,2.49-4.23,7.7-1.05,10.76,1.14,1.09,2.67,1.85,4.15,2.49,4.74,2.06,9.7,3.45,14.73,4.65,4.56,1.08,9.12,2.31,13.31,4.49,4.45,2.32,8.42,5.23,10.82,9.85,1.48,2.85,2.36,5.82,2.43,9.07.07,3.37-.18,6.66-1.38,9.83-1.22,3.21-3.22,5.92-5.64,8.3-2.87,2.81-6.41,4.55-10.03,6.2-2.11.96-4.36.94-6.52,1.5-2.16.56-4.43.72-6.66.95-4.7.5-9.3-.21-13.84-1.34-.16-.04-.32-.13-.48-.12-3.04.12-5.54-1.46-8.06-2.74-4.67-2.37-8.84-5.48-12.11-9.65-1.69-2.15-2.76-4.64-3.64-7.22-.59-1.73-1.24-3.46-1.19-5.33.01-.45.05-.9.08-1.52.65,0,1.22,0,1.78,0,4.87.04,9.74.08,14.62.1.96,0,1.91-.12,2.87-.14,1.35-.02,1.4.02,1.74,1.27.64,2.31,1.86,4.25,3.54,5.94,2.27,2.29,5.13,3.33,8.19,3.97,2.57.54,5.14.29,7.7-.06.45-.06.91-.14,1.36-.18,2.65-.24,7.38-3.86,7.54-6.95.11-2.26-.03-4.35-1.89-5.92-.98-.83-2.05-1.55-3.08-2.31-.13-.1-.29-.17-.45-.22-5.13-1.54-10.26-3.06-15.38-4.63-4.13-1.27-8.32-2.4-12.33-3.98-4.76-1.88-8.66-5.09-11.71-9.23-.58-.78-.85-1.79-1.24-2.7-1.75-4.12-1.86-8.44-1.23-12.76.61-4.2,2.39-7.93,5.33-11.08,2.47-2.65,5.31-4.79,8.54-6.39,1.15-.57,2.44-.84,3.62-1.36,3.05-1.36,6.27-1.91,9.55-2.21,1.95-.17,3.9-.41,5.85-.4,2.12.01,4.24.21,6.34.44,4.2.46,8.31,1.49,12.08,3.35,5.95,2.93,10.32,7.58,13.12,13.58,1.34,2.86,2.09,5.96,2.23,9.16,0,.2-.03.41-.07.89Z"/>
  <path d="m52.59,102.67c-1.36-.09-2.48-.21-3.6-.22-5.5-.01-10.99.02-16.49.02-3.79,0-7.58-.03-11.36-.09-.69-.01-1.38-.26-2.07-.43-5.34-1.27-9.68-4.22-13.28-8.24-1.94-2.17-3.36-4.76-4.41-7.5-1.53-3.99-1.59-8.1-1.15-12.29.43-4.12,2.15-7.78,4.48-10.99,2.73-3.76,6.35-6.75,10.88-8.28,2.24-.76,4.56-1.28,6.86-1.84.72-.17,1.49-.15,2.24-.15,8.79-.02,17.58-.03,26.37-.04.45,0,.89,0,1.45,0,.04-.68.09-1.21.09-1.74,0-8.67-.09-17.33.04-26,.11-7.07,2.82-13.09,7.92-18.03,3.62-3.51,7.98-5.51,12.86-6.43,7.26-1.37,13.71.55,19.58,4.92,3.06,2.28,5.39,5.08,7.03,8.46,1.61,3.33,2.57,6.85,2.57,10.59,0,8.79,0,17.58,0,26.37,0,.33,0,.67.01,1,0,.57.31.83.85.86.33.02.67.02,1,.02,8.17,0,16.33.02,24.5-.02,2.6-.01,5.16.28,7.68.83,1.37.3,2.72.81,3.99,1.42,4.47,2.15,8.28,5.12,10.94,9.38,1.8,2.89,2.94,6.02,3.49,9.41,1.11,6.76-.34,12.86-4.25,18.45-1.5,2.14-3.33,3.97-5.36,5.55-2.41,1.87-5.18,3.12-8.13,3.95-1.65.46-3.3.79-5.03.78-9.04-.04-18.08-.02-27.12-.01-.78,0-1.55,0-2.45,0-.05.78-.11,1.35-.11,1.91,0,9.08,0,18.16,0,27.25,0,2.31-.48,4.55-1.19,6.73-1.39,4.31-4.1,7.79-7.22,10.93-1.32,1.32-3.09,2.24-4.77,3.14-1.53.82-3.17,1.48-4.83,2.02-3.13,1.02-6.37,1.14-9.63.76-2.78-.33-5.45-.97-8-2.23-5.13-2.52-8.92-6.31-11.55-11.35-1.97-3.78-2.8-7.82-2.81-12.04-.03-8.37,0-16.75,0-25.12,0-.53,0-1.06,0-1.73Zm64.41-6.21s0-.02,0-.03c4.58,0,9.17-.06,13.75.02,2.55.05,4.94-.44,7.28-1.42,1.6-.67,3.03-1.59,4.35-2.67,2.94-2.4,5.06-5.41,6.17-9.05,1.2-3.94,1.13-7.89-.21-11.79-.8-2.33-1.66-4.63-3.7-6.24-.45-.35-.77-.87-1.16-1.3-.42-.46-.77-1.06-1.3-1.33-2.06-1.08-4.09-2.3-6.28-3.01-3.18-1.02-6.55-1.09-9.89-1.05-7.78.09-15.57.19-23.35.29-.75,0-1.5.04-2.25-.01-2.52-.16-3.69-1.38-3.79-3.89-.03-.71-.02-1.42-.02-2.12,0-9.08-.07-18.16.04-27.25.04-3.3-.6-6.42-2.08-9.28-2.69-5.19-7.01-8.53-12.7-9.87-3.84-.91-7.72-.69-11.34,1.03-3.85,1.82-7.35,4.1-9.29,8.14-1,2.07-2.12,4.09-2.33,6.42-.18,1.99-.27,3.99-.28,5.98-.03,3.67.02,7.33.02,11,0,5.33.01,10.67-.05,16-.01.83-.27,1.74-.67,2.48-.54,1-1.42,1.63-2.7,1.23-.31-.1-.66-.09-.99-.09-8.12,0-16.25,0-24.37.01-.7,0-1.43.28-2.1.17-3.26-.57-6.4-.05-9.43,1.1-6.21,2.36-10.07,6.85-11.78,13.25-1.49,5.57-.21,10.61,2.87,15.32,1.02,1.55,2.46,2.69,3.81,3.92,2.25,2.04,4.98,3.11,7.81,3.66,2.5.49,5.13.33,7.7.34,8.66.03,17.32.02,25.99.02,2.66,0,3.88,1.2,3.88,3.86,0,9.66.03,19.33.03,28.99,0,3.69.69,7.14,2.59,10.4,2.16,3.72,5.22,6.42,9.06,8.1,3.43,1.49,7.11,2.04,10.87,1.22,1.58-.34,3.21-.5,4.64-1.37,2.14-1.31,4.1-2.82,5.86-4.63,3.25-3.34,4.82-7.42,4.89-11.95.15-10,.04-20,.05-29.99,0-.62,0-1.26.13-1.86.34-1.62,1.26-2.43,2.91-2.61.7-.08,1.41-.13,2.12-.13,5.08-.01,10.16,0,15.25,0Z"/>
  <path d="m197.67,131.89c-.06-.5-.11-.74-.11-.99-.06-4-.17-7.99-.17-11.99-.02-27.25-.02-54.49-.02-81.74,0-1.41.14-2.83.15-4.24,0-1.58-.1-3.16-.1-4.74,0-.86.12-1.73.2-2.66.42-.04.74-.1,1.06-.1,6.08,0,12.16,0,18.25,0,1.29,0,1.41.09,1.41,1.44.02,3.71.03,7.42.03,11.12,0,23.25,0,46.49,0,69.74,0,1.87,0,3.74.02,5.61,0,.21,0,.42.02.62.16,1.28.39,1.48,1.66,1.48,9.67,0,19.33,0,29,.02,1.29,0,2.58.11,3.87.14.57.01.84.29.88.83,0,.08.01.17.01.25,0,4.74,0,9.49,0,14.23,0,.67-.3.99-.98.97-.83-.02-1.67,0-2.5,0-17.04,0-34.08,0-51.12,0-.49,0-.98,0-1.55,0Z"/>
  <path d="m142.08,81.96c-.81,2.57-2.34,4.3-4.25,5.8-2.25,1.76-4.83,2.41-7.59,2.42-8.5.04-16.99,0-25.49,0-2.21,0-4.41.12-6.62.18-1.38.04-2.65.44-3.66,1.39-1.05,1-2.09,2.04-2.98,3.17-.97,1.23-.95,2.82-1.13,4.3-.19,1.65-.25,3.32-.26,4.98-.02,5,.02,10,.02,15,0,3.95,0,7.91-.05,11.86-.04,2.98-1.4,5.45-3.25,7.67-2.21,2.66-5.02,4.05-8.52,3.92-1.08-.04-2.18.04-3.24-.13-2.89-.45-5.23-1.89-6.98-4.23-1.68-2.24-2.87-4.67-2.83-7.58.05-2.95.02-5.91.02-8.86,0-6.54.02-13.08,0-19.62,0-1.37.06-2.8-.29-4.1-1.28-4.83-4.27-7.92-9.65-7.95-7.42-.05-14.83-.02-22.25-.02-2.83,0-5.67.02-8.5-.01-4.96-.05-10.84-3.81-11.91-10.39-.24-1.5-.16-3.08-.02-4.61.11-1.24.79-2.18,2.05-2.75,4.28-1.92,8.71-3.24,13.32-4.13,3.84-.74,7.67-.98,11.55-.93,3.5.05,7.02-.11,10.48.3,6.15.72,12.33,1.23,18.4,2.59,3.53.79,7.09,1.46,10.62,2.26,5.07,1.15,10.11,2.44,15.19,3.52,5.2,1.11,10.35,2.45,15.6,3.41,4.79.88,9.54,1.92,14.39,2.41,2.02.21,4.05.49,6.08.51,3.33.04,6.66-.1,9.99-.19.53-.01,1.05-.13,1.75-.22Zm-88.46-5.2c0-2.61-1.97-4.38-4.82-4.37-2.15,0-4.22,2.22-4.22,4.53,0,2.23,2.38,4.47,4.71,4.43,2.39-.04,4.33-2.11,4.32-4.59Zm27.45,35.9c2.42,0,4.13-1.53,4.15-3.72.02-2.32-1.68-3.81-4.31-3.79-2.27.01-3.41,1.53-3.51,3.85-.07,1.67,1.77,3.93,3.66,3.66Zm7.87-26.26c1.75.21,2.76-1.33,2.7-2.82-.06-1.48-1.21-2.82-2.48-2.78-1.5.05-2.99,1.41-3.02,2.78-.04,1.57,1.2,2.82,2.8,2.83Zm-10.39,44.01c1.66,0,2.97-1.12,2.96-2.54-.01-1.27-1.59-2.83-2.87-2.85-1.3-.01-3.04,1.64-3.01,2.87.03,1.24,1.5,2.51,2.93,2.52Zm-11.74-42.34c0,1.81.85,2.74,2.42,2.82,1.79.08,2.65-1.56,2.72-3.19.04-.99-1.36-2.1-2.73-1.99-1.85.14-2.36.32-2.4,2.37Zm-35.22-7.99c.05-1.46-.8-2.42-2.18-2.44-1.45-.02-2.51.78-2.58,1.95-.07,1.24,1.26,2.95,2.32,2.99,1.51.05,2.37-.84,2.44-2.5Z"/>
  <path d="m85.21,26.41c1.82-.32,4.11,2.14,4.02,4.25-.13,3.06-1.88,4.16-4.56,4.43-1.88.19-4.11-2.53-3.99-4.7.13-2.22,1.7-3.99,4.53-3.97Z"/>
  <path d="m81.53,64.82c-2.27-.03-3.72-1.44-3.69-3.6.02-1.95,1.66-3.73,3.45-3.75,1.86-.02,3.76,1.89,3.76,3.77,0,2.1-1.48,3.6-3.51,3.57Z"/>
  <path d="m77.61,46.93c0,1.25-1.03,2.42-2.17,2.45-1.34.03-2.33-.98-2.33-2.38,0-1.32.91-2.29,2.13-2.28,1.32.01,2.37.99,2.37,2.21Z"/>
</svg>