<?xml version="1.0" encoding="UTF-8"?>
<svg id="Layer_1" data-name="Layer 1" xmlns="http://www.w3.org/2000/svg" viewBox="0 0 545.08 133.92">
  <defs>
    <style>
      .cls-1 {
        fill: #7ca9db;
      }

      .cls-2 {
        fill: #2056a7;
      }

      .cls-3 {
        fill: #c7d5e9;
      }
    </style>
  </defs>
  <path class="cls-2" d="m88.57.23c1.38.42.67,1.55.66,2.31-.02,1.77-.36,3.53-.41,5.3-.18,6.09-1.45,11.95-3.58,17.64-1.2,3.21-2.23,6.51-3.75,9.56-3.72,7.46-8.19,14.46-14.03,20.46-4.76,4.89-9.53,9.79-14.63,14.3-5.62,4.98-11.85,9.22-18.82,12.12-4.7,1.96-9.55,3.62-14.44,5.06-2.98.88-6.18.97-9.25,1.59-2.86.58-5.72.72-8.62.74-.88,0-1.36-.26-1.69-.99,0-.24,0-.48,0-.72.08-.16.22-.32.23-.48.09-3.02.22-6.04.24-9.07.04-6.2.04-12.4,0-18.59-.03-4.58-.12-9.16-.25-13.74-.03-1.1.19-1.55,1.44-1.48,2.55.14,5.11.12,7.67.12,11.04.01,22.07,0,33.11,0,.38,0,.78-.09,1.13-.22,1.38-.54,1.1-1.78,1.1-2.84.01-8.76-.01-17.51-.02-26.27,0-4.24,0-8.48,0-12.72,0-.67.06-1.34.1-2.01.6-.02,1.2-.04,1.79-.04,14.01,0,28.02-.01,42.03-.02Z"/>
  <path class="cls-2" d="m45.36,133.92c-1.2-.47-1.04-1.54-.94-2.45.43-3.61.78-7.25,1.46-10.82.99-5.2,1.9-10.45,3.82-15.42,2.64-6.83,5.89-13.36,10.4-19.17,2.26-2.91,4.58-5.77,7.06-8.49,3-3.3,6.06-6.58,9.34-9.6,4.81-4.44,9.87-8.61,15.52-11.97,3.88-2.31,7.92-4.33,12.2-5.84,1.82-.64,3.58-1.45,5.43-1.99,2.95-.86,5.92-1.69,8.93-2.27,2.35-.46,4.78-.52,7.17-.78,2.04-.22,4.06-.52,6.1-.69,1.55-.13,1.96.3,2.03,1.87.01.24,0,.48,0,.72,0,13.2,0,26.4,0,39.59,0,.78-.14,1.55-.23,2.47h-44.03c-.02.41-.05.68-.05.95,0,13.96,0,27.92,0,41.87,0,1.56-.02,1.58-1.64,1.58-13,0-26,0-38.99.02-1.11,0-2.22.27-3.33.42h-.24Z"/>
  <path class="cls-1" d="m0,104.88c.72-.24,1.42-.57,2.15-.7,3.95-.7,7.92-1.27,11.86-2.05,1.36-.27,2.6-1.08,3.95-1.49,1.1-.34,2.34-.28,3.41-.68,1.81-.68,3.52-1.62,5.31-2.39,1.39-.6,2.84-1.03,4.22-1.65,6.28-2.8,11.97-6.52,17.2-10.96.84-.71,1.5-1.64,2.24-2.47.71.73.47,2.14-.2,2.45-.17.08-.5.03-.55.14-.92,1.87-3.09,2.62-3.98,4.58-.87,1.89-1.99,3.66-3.06,5.46-.87,1.47-1.89,2.86-2.72,4.36-1.35,2.46-2.88,4.88-3.79,7.51-.75,2.17-1.98,4.13-2.52,6.39-.54,2.27-1.34,4.49-1.9,6.76-.29,1.2-.28,2.47-.48,3.7-.06.39-.5.71-.57,1.1-.23,1.28-.38,2.58-.56,3.87-.07.51-.1,1.03-.18,1.54-.07.39-.22.77-.28,1.16-.3,1.94-.29,1.94-2.23,1.94-8.44,0-16.87-.02-25.31.03-1.24,0-1.56-.4-1.55-1.58.04-8.12.03-16.23,0-24.35,0-.49-.3-.98-.46-1.46,0-.4,0-.8,0-1.2Z"/>
  <path class="cls-1" d="m44.74.29c-.03-.1-.07-.19-.1-.29,14.64,0,29.28,0,43.92,0-.04.08-.04.15,0,.23-14.01,0-28.02.01-42.03.02-.6,0-1.2.03-1.79.04Z"/>
  <path class="cls-2" d="m438.22,101.11h-12.98v-1.49c0-9.72.04-19.44-.02-29.15-.02-2.77-.72-5.39-2.31-7.76-1.99-2.98-7.06-4.22-10.43-1.09-2.23,2.07-3.48,4.56-3.5,7.57-.08,10.11-.09,20.23-.12,30.34,0,.47,0,.94,0,1.49h-13.88c-.02-.44-.06-.89-.07-1.35,0-4.84,0-9.68,0-14.52-.01-3.2-.1-6.39-.09-9.59,0-1.94.36-3.91.17-5.82-.22-2.24-.81-4.44-1.31-6.64-.23-1.01-.95-1.55-1.96-1.91-2.77-1-5.48-1.4-8.35-.27-2.37.93-3.52,2.75-4.13,5-.31,1.17-.36,2.43-.37,3.64-.04,9.99-.03,19.99-.04,29.98,0,.47,0,.93,0,1.47h-13.85v-51.33h12.91v6.75c.6-.64,1.09-.95,1.28-1.4,1.44-3.33,4.2-4.86,7.5-5.87,2.04-.62,4.08-1.01,6.16-.89,3.41.2,6.83.54,9.6,2.86,1.12.94,2.12,2.03,3.16,3.06.33.33.62.71.92,1.08.49.59.85.55,1.21-.15,1.89-3.72,5.24-5.61,9.04-6.49,2.2-.51,4.62-.26,6.93-.11,2.94.18,5.55,1.38,7.98,3.05,3.17,2.19,5.04,5.27,6.34,8.79.07.18.15.35.26.51q.65.9.21,1.85c.22.25.46.51.7.77-.11,0-.21.02-.32.02,0,.94,0,1.89,0,2.83,0,11.04,0,22.08,0,33.11,0,.52.05,1.03.08,1.55-.24.03-.48.06-.72.1Z"/>
  <path class="cls-2" d="m531.6,100.98v-5.24c-.48.43-.77.65-1.01.9-2.72,2.82-6.01,4.57-9.78,5.65-2.42.69-4.73.46-7.07-.01-1.66-.34-3.36-.67-4.91-1.31-1.13-.46-2-1.55-3.1-2.14-4.3-2.31-6.57-6.14-8.1-10.54-.89-2.57-2.06-5.05-2.38-7.83-.08-.69-.11-1.38-.14-2.08-.05-1.06-.19-2.12-.22-3.19-.02-.62.12-1.25.17-1.87.13-1.66.26-3.31.39-4.97.05-.59.11-1.17.21-1.77.07-.58.06-1.18.22-1.73.13-.45.56-.81.67-1.25.95-3.82,3.2-6.91,5.68-9.81,1.01-1.18,2.51-1.93,3.77-2.9,2.5-1.93,5.48-2.1,8.45-2.45,2.31-.27,4.54-.07,6.78.48,3.23.79,5.92,2.43,8.24,4.76.42.42.85.84,1.29,1.25.04.04.15.02.39.05.02-.41.06-.82.06-1.23,0-7.28.03-14.56-.03-21.83,0-1.16.39-1.44,1.43-1.41,3.83.1,7.66.13,11.48.25.32,0,.7.46.9.79.14.24.03.62.03.94,0,20.63.01,41.27-.02,61.9,0,2.17-.3,4.33-.46,6.59h-12.96Zm-22.2-25.56c0,1.83-.33,3.74.08,5.47.6,2.55,1.92,4.88,3.75,6.82,1.91,2.02,4.15,3.57,7.07,3.45,2.61-.1,4.98-1.02,6.89-2.87,3.94-3.82,4.96-8.66,4.64-13.89-.19-3.11-1-6.07-2.35-8.93-1.85-3.91-5.92-5.74-10.04-5.23-4.43.54-7.32,3.1-9.18,7.11-1.22,2.63-.93,5.35-.87,8.08Z"/>
  <path class="cls-2" d="m332.69,49.55c.79,0,1.59,0,2.38,0,7,0,14,0,21,0,.98,0,1.96.05,2.93.15.6.06.78.47.78,1.08-.02,2.44-.03,4.88.04,7.32.04,1.13-.4,1.44-1.47,1.44-7.16-.05-14.32-.04-21.48-.06-1.68,0-3.35,0-5.17,0-.08.6-.21,1.13-.21,1.66.02,6.88.06,13.76.08,20.63,0,2.17.2,4.24,1.78,5.97,2.88,3.15,6.29,3.46,9.88,1.37,2.22-1.29,2.7-3.49,3.1-5.78.83-4.82.53-9.67.57-14.51,0-.51,0-1.03,0-1.6h12.82c.05.38.13.76.13,1.14-.03,5,.05,10-.14,14.99-.15,3.89-1.06,7.72-3.3,10.91-2.34,3.35-5.67,5.62-9.59,7.07-2.64.97-5.37,1.3-8.07,1.32-7.3.06-13.6-2.46-17.9-8.6-1.27-1.81-1.87-4.2-2.32-6.42-.58-2.87-.96-5.84-.98-8.77-.09-12.84-.02-25.68,0-38.52,0-1.57,0-3.14,0-4.6,4.31,0,8.57.02,12.83-.02,1,0,1.04.48,1.05,1.28.04,4.07.14,8.13.22,12.19.04.22.08.44.11.66.3-.1.61-.2.91-.3Z"/>
  <path class="cls-2" d="m235.53,79.21c-.51,3.4,2.48,8.94,5.97,10.93,4.15,2.37,9.57,1.15,12.47-1.78.51-.51.77-1.27,1.24-1.82.35-.4.86-.92,1.31-.93,4.47-.07,8.94-.04,13.59-.04-1.24,3.76-3.03,7.06-5.55,9.97-3.47,4-8.01,6.13-13.11,6.85-2.72.38-5.57.07-8.33-.18-2.28-.21-4.61-.53-6.77-1.24-5.5-1.8-9.43-5.47-11.92-10.71-1.92-4.04-2.85-8.27-2.71-12.75.1-2.99-.12-6,.11-8.98.23-2.99,1.42-5.76,2.83-8.4,2.34-4.39,5.64-7.76,10.26-9.72,2.83-1.2,5.8-1.65,8.84-1.95,5.12-.5,10.03.17,14.66,2.44,4.54,2.23,7.39,5.91,9.25,10.58,1.97,4.94,2.79,10.01,2.58,15.29,0,.08,0,.16,0,.24,0,.66.24,1.59-.1,1.91-.36.35-1.27.18-1.94.18-10.4-.02-20.79-.06-31.19-.09-.44,0-.88.02-1.32.03-.05.06-.11.12-.16.18Zm20.51-9.16c0-.72.14-1.39-.02-1.97-1.2-4.29-3.37-7.49-8.22-8.44-3.83-.75-10.01,1.64-10.75,5.5-.32,1.66-1.1,3.22-1.7,4.91h20.69Z"/>
  <path class="cls-2" d="m456.59,79c-.34,5.68,3.43,11.33,9.21,12.24,3.78.59,6.9-.4,9.51-3.15.19-.2.42-.42.47-.66.31-1.54,1.35-1.79,2.72-1.77,3.92.05,7.84.02,11.76.02.23,0,.46.03.75.05-2.06,6.65-5.86,11.79-12.19,14.81-2.59,1.24-5.36,1.95-8.26,1.94-2.16,0-4.33.08-6.48-.02-3.4-.16-6.52-1.39-9.58-2.8-3.15-1.45-5.56-3.71-7.36-6.65-.81-1.32-1.76-2.57-2.49-3.94-.39-.73-.4-1.65-.64-2.46-.23-.76-.63-1.47-.81-2.24-.15-.68-.08-1.41-.14-2.12-.15-1.91-.31-3.81-.49-5.71-.07-.73-.26-1.45-.36-2.18-.03-.25.02-.51.06-.77.1-.82.37-1.65.28-2.44-.22-1.95.52-3.73.85-5.58.21-1.21.46-2.45.95-3.56.56-1.28,1.35-2.46,2.14-3.63.74-1.09,1.48-2.23,2.43-3.13,3.34-3.19,7.36-5.13,11.81-6.34,1.97-.54,3.98-.24,5.92-.68.52-.12,1.05-.23,1.51-.19,1.59.28,3.21.45,4.76.86,2.02.54,4,1.21,5.96,1.93.93.35,1.83.68,2.71,1.33,1.51,1.13,2.71,2.53,4.06,3.78.78.72,1.58,1.55,2.03,2.5.78,1.67,1.17,3.53,1.96,5.2.71,1.51.44,3.18.99,4.63.71,1.88.01,3.84.66,5.68.18.5.43,1.01.46,1.53.05,1.04.03,2.09-.11,3.12-.02.18-.73.37-1.13.38-3.28.03-6.56.02-9.84.02-7.6,0-15.2,0-22.8,0-.43,0-.86,0-1.28,0Zm20.73-8.97c-.72-6.64-4.21-11.06-11.63-10.47-4.75.38-9.26,5.92-8.84,10.47h20.48Z"/>
  <path class="cls-2" d="m183.55,101.05c-3.92,0-7.74.1-11.54-.04-1.68-.06-1.81-.44-1.81-2.12,0-15.12,0-30.23,0-45.35,0-1.26.1-2.53.15-3.77h12.44c.12,2.08.25,4.2.39,6.65.42-.45.69-.69.89-.98,1.81-2.58,4.13-4.41,7.12-5.53,2.63-.99,5.28-1.76,8.08-1.62,3.44.18,6.87.54,9.95,2.35,3.75,2.22,6.09,5.52,6.97,9.73.45,2.14.48,4.39.51,6.6.14,10.18.22,20.36.29,30.54.03,4.18-.05,3.79-3.77,3.8-2.1,0-4.21.16-6.31.22-1.25.03-2.51,0-3.96,0,0-3.08,0-5.86,0-8.64.01-6.28.13-12.56,0-18.83-.06-3.02-.62-6.02-.85-9.04-.17-2.26-1.57-3.56-3.46-4.16-3.17-1-6.48-1.19-9.53.39-3.19,1.65-5.01,4.35-5.03,8.04-.04,8.92,0,17.84-.07,26.75-.01,1.69-.31,3.37-.47,5.01Z"/>
  <path class="cls-2" d="m265.71,49.5c4.75.01,9.51.1,14.26,0,1.74-.03,2.7.72,3.49,2.14,2.19,3.95,4.46,7.86,6.71,11.78.09.16.25.28.48.54.33-.42.65-.75.87-1.14,2.31-4.04,4.6-8.11,6.94-12.13.26-.44.84-.97,1.28-.98,5.15-.07,10.3-.04,15.63-.04-.8,1.22-1.57,2.43-2.39,3.61-4.6,6.7-9.19,13.4-13.84,20.06-.66.94-.61,1.62.01,2.54,5.24,7.75,10.45,15.52,15.66,23.3.37.55.67,1.15,1.07,1.86-.44.05-.77.13-1.11.13-4.76.04-9.51.03-14.26.13-1.15.02-1.79-.51-2.29-1.36-2.44-4.2-4.84-8.41-7.27-12.62-.25-.43-.58-.81-.98-1.36-1.2,2.07-2.32,3.96-3.4,5.88-1.54,2.72-3.05,5.46-4.57,8.19-.42.76-.99,1.14-1.91,1.14-4.51,0-9.03.07-13.54.07-.43,0-1.16-.13-1.23-.37-.13-.4.02-1.02.28-1.4,3.69-5.51,7.43-11,11.13-16.51,1.54-2.3,2.99-4.66,4.55-6.95.63-.93.6-1.65-.03-2.56-4.06-5.93-8.08-11.9-12.11-17.85-1.05-1.55-2.13-3.09-3.16-4.65-.24-.37-.33-.85-.49-1.28.07-.07.15-.13.22-.2Z"/>
  <path class="cls-1" d="m134.11,28.36c-.22.71-.71.86-1.44.94-2.7.31-5.38.73-8.06,1.14-1.33.2-2.67.38-3.96.74-3.1.86-6.19,1.75-9.24,2.78-2.19.74-4.31,1.72-6.46,2.59-1.5.61-3.05,1.12-4.47,1.88-1.43.76-2.76,1.73-4.08,2.68-3.61,2.57-7.19,5.19-10.79,7.77-.57.41-1.22.72-1.83,1.07,0,0-.04-.04-.04-.04,1.33-1.69,2.67-3.37,3.98-5.08.85-1.11,1.64-2.27,2.44-3.42.89-1.27,1.8-2.53,2.61-3.86.6-.99,1.04-2.08,1.55-3.13.72-1.46,1.44-2.92,2.17-4.37,2.77-5.54,4.93-11.31,6.24-17.36.83-3.85,1.29-7.78,1.97-11.67.05-.3.49-.53.78-.77.07-.06.23-.01.35-.01,8.99,0,17.99,0,26.98,0,.24,0,.47.03.91.06,0,9.11,0,18.19,0,27.28.13.26.26.52.4.78Z"/>
  <path class="cls-1" d="m332.69,49.55c-.3.1-.61.2-.91.3-.04-.22-.08-.44-.11-.66.34.12.68.24,1.02.35Z"/>
  <path class="cls-3" d="m134.11,28.36c-.13-.26-.26-.52-.4-.78.13.26.26.52.4.78Z"/>
  <path class="cls-3" d="m438.22,101.11c.24-.03.48-.06.72-.1-.08.16-.17.31-.25.47-.16-.12-.32-.25-.47-.37Z"/>
  <path class="cls-1" d="m265.71,49.5c-.07.07-.15.13-.22.2.07-.07.15-.13.22-.2Z"/>
  <path class="cls-1" d="m83.79,49.95s-.08.1-.12.15c.03-.06.05-.12.08-.19,0,0,.04.04.04.04Z"/>
  <path class="cls-3" d="m235.53,79.21c.05-.06.11-.12.16-.18-.05.06-.11.12-.16.18Z"/>
</svg>