<?xml version="1.0" encoding="UTF-8"?>
<svg id="Layer_1" data-name="Layer 1" xmlns="http://www.w3.org/2000/svg" viewBox="0 0 544.56 133.45">
  <defs>
    <style>
      .cls-1 {
        fill: #fff;
      }
    </style>
  </defs>
  <path class="cls-1" d="m.12,88.92c.53.03,1.02.07,1.51.08,3.72.07,7.39-.39,11.06-.93,10.35-1.54,19.97-5.12,28.96-10.43,6.28-3.71,11.86-8.3,16.98-13.49,4.5-4.57,9.06-9.07,13.04-14.14,6.47-8.23,11.03-17.42,14.2-27.35,1.14-3.58,2.01-7.21,2.29-10.98.24-3.24.61-6.46.89-9.7.05-.6,0-1.21,0-1.78-1.81-.34-43.97-.23-44.82.08.09,14.59.03,29.19.04,43.97-1.38,0-2.54,0-3.7,0-11.79,0-23.58,0-35.37-.02-1.37,0-2.75-.06-4.12-.13-.67-.04-1.05.2-1.06.89-.01.71,0,1.41,0,2.12C.02,60.79,0,74.46,0,88.12c0,.24.07.48.12.8Zm133.31-44.51c-.48-.06-.76-.14-1.04-.13-2.16.1-4.33.12-6.48.34-7.11.74-14.03,2.29-20.74,4.79-9.32,3.47-17.7,8.52-25.13,15.1-5.33,4.72-10.38,9.75-15.12,15.08-7.18,8.08-12.45,17.25-16.08,27.41-2.91,8.16-3.9,16.67-4.64,25.22-.08.93.18,1.21,1.13,1.22.96.01,1.92-.07,2.87-.07,13.21,0,26.41,0,39.62,0,.44,0,.87-.06,1.41-.11v-44.27c.97,0,1.83,0,2.68,0,13.41.01,26.83.02,40.24.03,1.16,0,1.4-.27,1.38-1.39-.03-1.71-.08-3.41-.09-5.12,0-12.21,0-24.42,0-36.63,0-.45,0-.9,0-1.49Zm261.12,56.68c4.73,0,9.24.04,13.86-.03,0-.65,0-1.11,0-1.56,0-8.13,0-16.25.03-24.38,0-2.12.07-4.25.2-6.37.14-2.31.98-4.38,2.42-6.19,2.24-2.8,5.51-3.73,8.58-2.44,1.91.81,3.14,2.29,3.96,4.14.91,2.05,1.24,4.23,1.24,6.45,0,9.54,0,19.09,0,28.63,0,.53,0,1.06,0,1.62h13.5c.03-.44.06-.77.06-1.09,0-11.38.02-22.75,0-34.13,0-1.2-.11-2.42-.31-3.6-.68-4.12-2.72-7.54-5.92-10.14-4.32-3.5-9.37-4.5-14.82-3.63-4.32.69-7.72,2.76-9.91,6.63-.15.27-.4.49-.68.84-.39-.46-.73-.81-1.02-1.2-2.43-3.22-5.29-5.69-9.5-6.31-3.29-.48-6.49-.3-9.65.55-3.29.89-5.94,2.77-7.76,5.72-.28.45-.64.85-.96,1.27-.1-.04-.2-.09-.29-.13v-6.19h-12.88c-.3,1.72-.2,50.54.13,51.52,4.46-.03,8.97.08,13.52-.07.03-.52.06-.85.06-1.18,0-8.92-.02-17.83,0-26.75,0-2,.04-4,.25-5.99.26-2.53,1.82-5.88,5.56-6.83,1.63-.42,3.3-.36,4.96-.07,2.82.49,4.4,2.23,4.88,4.97.27,1.51.53,3.05.53,4.58.03,9.88,0,19.75-.02,29.63,0,.49,0,.99,0,1.71Zm150.01-70.38c-.25-.07-.4-.16-.56-.16-3.96-.06-7.91-.13-11.87-.15-1.04,0-1.23.24-1.22,1.3.04,2.12.14,4.25.16,6.37.04,5.38.04,10.75.06,16.13,0,.39,0,.78,0,1.18-.59-.26-.98-.61-1.33-1-5.55-6.29-13.51-7.64-21-5.03-5.54,1.94-9.11,6-11.4,11.25-1.87,4.3-2.59,8.84-2.62,13.52-.03,4.83.49,9.57,2.32,14.08,1.48,3.62,3.43,6.95,6.53,9.47,4.01,3.26,8.58,4.76,13.75,4.75,4.58,0,8.46-1.54,11.7-4.74.64-.63,1.29-1.26,1.93-1.89.1.02.2.05.29.07v5.15h13.25V30.71Zm-309.72,48.31c1.17,0,2.11,0,3.05,0,10.37,0,20.74.02,31.11.03,1.05,0,1.19-.12,1.18-1.12-.06-5.61-.68-11.14-2.79-16.4-2.58-6.44-7.15-10.75-13.95-12.48-4.12-1.05-8.29-1.22-12.5-.52-7.1,1.18-12.71,4.54-16.3,10.92-2.03,3.62-3.11,7.52-3.39,11.65-.4,5.87-.04,11.66,2.07,17.22,2.02,5.33,5.48,9.39,10.81,11.67,6.89,2.95,13.93,3.24,21.11,1.19,2.73-.78,5.21-2.04,7.26-4,2.58-2.47,4.62-5.36,6.07-8.63.4-.9.74-1.82,1.12-2.77-.33-.11-.48-.21-.63-.21-4.29-.06-8.58-.1-12.86-.16-.68,0-1.06.34-1.3.95-.72,1.86-2.1,3.06-3.87,3.88-3.51,1.63-9.02,1.45-12.36-2.11-2.39-2.56-3.22-5.61-3.83-9.09Zm221.42.02c.31-.05.59-.13.87-.13,1.33.03,2.66.11,3.99.11,7.75.01,15.5.01,23.24,0,1.91,0,3.83-.04,5.74-.11,1.28-.05,1.33-.09,1.25-1.42-.12-1.95-.29-3.9-.48-5.85-.34-3.58-1.14-7.05-2.52-10.39-1.55-3.76-3.86-6.9-7.21-9.21-4.62-3.19-9.88-4.02-15.34-3.92-1.24.02-2.48.26-3.72.43-4.44.61-8.45,2.26-11.82,5.23-4.5,3.95-6.7,9.12-7.67,14.91-.57,3.43-.58,6.89-.21,10.33.34,3.1.78,6.19,1.95,9.13,2.16,5.45,5.57,9.73,11.16,11.98,6.46,2.6,13.09,3.05,19.83,1.38,3.02-.75,5.75-2.13,8.11-4.24,3.35-3.01,5.5-6.75,7.02-10.91.07-.18.04-.39.07-.7-.51-.03-.96-.08-1.4-.08-2.79-.03-5.58-.05-8.37-.07-1.12,0-2.25,0-3.37-.02-.78-.02-1.16.37-1.51,1.05-.39.76-.87,1.53-1.48,2.12-2.99,2.92-8.37,3.17-11.47,1.71-3.39-1.58-5.26-4.38-6.25-7.85-.31-1.1-.7-2.22-.41-3.47Zm-109.68-11.92c-.02.37-.05.61-.05.86,0,3.46.08,6.92-.01,10.38-.05,2.03-.21,4.09-.62,6.07-.75,3.59-3.11,5.53-6.73,5.75-3.05.18-5.45-.93-6.88-3.77-.83-1.64-1.13-3.39-1.13-5.2-.01-6.83-.01-13.67,0-20.5,0-.4.06-.8.1-1.37h27.9c.14-.22.18-.26.18-.29.05-2.95.12-5.91.13-8.86,0-.21-.36-.51-.62-.62-.25-.11-.57-.03-.86-.03-8.37,0-16.75-.02-25.12-.03-1.6,0-1.69-.05-1.68-1.7.02-3.71.07-7.41.11-11.12.01-1-.12-1.16-1.13-1.17-3.75-.04-7.5-.09-11.25-.11-1.58-.01-1.72.11-1.71,1.7,0,2.12.1,4.25.1,6.37.03,12.29,0,24.59.1,36.88.02,2.4.33,4.82.75,7.19.9,5.06,3.55,9.03,7.96,11.73,3.33,2.04,6.98,3.09,10.9,3.14,1,.01,2,.02,3,0,5.39-.12,10.1-1.94,13.92-5.81,3.47-3.51,5.18-7.9,5.42-12.71.28-5.45.12-10.91.14-16.37,0-.11-.11-.22-.2-.38h-12.7Zm-130.07,33.92c.04-.43.09-.72.09-1,.01-11.16.04-22.33,0-33.49,0-1.82-.17-3.67-.53-5.46-1.21-5.91-4.51-10.15-10.39-12.01-3.2-1.02-6.5-1.21-9.87-.76-5.1.69-9.26,2.84-12.12,7.24-.15.24-.27.5-.4.75-.13-.08-.27-.15-.4-.23,0-1.1.02-2.21,0-3.31-.02-1.1.12-2.21-.11-3.29-4.37.06-8.59-.05-12.77.08-.33,2.05-.21,50.62.12,51.56,4.44-.02,8.91.04,13.42-.03.03-.54.07-.87.07-1.2.02-8.71.02-17.41.05-26.12,0-1.75.06-3.5.25-5.23.44-3.96,3.02-7.45,7.19-8.25,1.86-.35,3.73-.41,5.58-.05,3.33.65,4.83,2.14,5.4,5.51.3,1.76.47,3.56.47,5.34.04,9.46,0,18.91,0,28.37,0,.52.07,1.04.11,1.6h13.84Zm48.33-51.45c.76,1.04,1.34,1.79,1.87,2.57,1.97,2.89,3.93,5.78,5.88,8.69,2.89,4.33,5.77,8.67,8.67,12.99.4.59.46,1.1.03,1.7-.59.81-1.1,1.67-1.66,2.5-4.82,7.2-9.64,14.39-14.45,21.59-.26.38-.4.84-.68,1.48.83,0,1.41,0,1.99,0,4.5,0,9,0,13.49,0,.58,0,1.1.03,1.47-.65,2.1-3.84,4.24-7.65,6.38-11.46.58-1.03,1.2-2.05,1.9-3.24.37.58.63.95.86,1.34,2.51,4.32,5.03,8.64,7.49,12.98.43.76.91,1.05,1.77,1.04,4.87-.03,9.75-.01,14.62-.02.35,0,.7-.06,1.26-.11-1.63-2.44-3.14-4.72-4.66-6.99-4.15-6.19-8.3-12.38-12.47-18.56-.48-.71-.41-1.24.05-1.91,1.84-2.67,3.63-5.39,5.46-8.07,3.32-4.84,6.67-9.66,10-14.5.25-.36.45-.76.81-1.36-.63-.03-1.03-.06-1.42-.06-3.62-.02-7.25-.04-10.87-.06-1,0-2-.03-2.99-.04-.55,0-.9.26-1.18.75-2.46,4.3-4.94,8.59-7.43,12.87-.17.3-.41.56-.81,1.09-.62-1.12-1.11-2.02-1.61-2.91-2.07-3.66-4.15-7.31-6.23-10.97-.37-.65-.86-.84-1.64-.83-4.87.03-9.74-.02-14.62-.03-.31,0-.61.08-1.26.17ZM.41,133.02c.64.03,1.09.07,1.53.07,7.58,0,15.16-.02,22.74-.01,1.04,0,2.08.07,3.11.14,1.02.07,1.23-.09,1.28-1.17.2-3.97,1.02-7.85,1.94-11.68,2.12-8.79,5.49-17.1,10.23-24.83,1.87-3.05,3.77-6.08,6.19-8.75.99-1.08,1.78-2.34,2.66-3.52-.74.42-1.35.97-2.01,1.46-2.86,2.15-5.64,4.43-8.63,6.37-4.93,3.2-10.24,5.76-15.72,7.87-7.24,2.8-14.69,4.87-22.52,5.13-.75.03-1.07.32-1.05,1.04,0,.25-.01.5-.01.75,0,7.08,0,14.16.02,21.24,0,1.9.15,3.8.23,5.88ZM104.7.19c-.62,3.75-1.06,7.42-1.86,11.01-.8,3.57-1.8,7.12-3.03,10.55-1.25,3.48-2.86,6.83-4.4,10.2-1.53,3.34-3.42,6.49-5.59,9.45-2.15,2.94-4.41,5.79-6.63,8.68.5-.27.9-.63,1.33-.96,2.64-2.02,5.2-4.19,7.96-6.03,6.58-4.38,13.62-7.89,21.17-10.29,6-1.91,12.08-3.45,18.41-3.81.87-.05,1.01-.21,1.06-1.19.09-1.95.21-3.91.21-5.87.03-6.79.02-13.58.01-20.38,0-.44-.06-.88-.09-1.39h-28.55Z"/>
  <path d="m.12,88.92C.07,88.6,0,88.36,0,88.12c0-13.67.02-27.33.04-41,0-.71-.01-1.41,0-2.12.01-.69.39-.92,1.06-.89,1.37.07,2.75.13,4.12.13,11.79.01,23.58.01,35.37.02,1.16,0,2.32,0,3.7,0,0-14.79.06-29.38-.04-43.97.85-.31,43.01-.42,44.82-.08,0,.57.05,1.18,0,1.78-.29,3.23-.65,6.46-.89,9.7-.28,3.76-1.15,7.4-2.29,10.98-3.17,9.93-7.73,19.12-14.2,27.35-3.98,5.06-8.53,9.57-13.04,14.14-5.12,5.19-10.7,9.78-16.98,13.49-8.99,5.31-18.61,8.89-28.96,10.43-3.67.54-7.34,1-11.06.93-.49,0-.98-.05-1.51-.08Z"/>
  <path d="m133.43,44.41c0,.58,0,1.04,0,1.49,0,12.21,0,24.42,0,36.63,0,1.71.06,3.41.09,5.12.02,1.13-.22,1.4-1.38,1.39-13.41,0-26.83-.02-40.24-.03-.86,0-1.71,0-2.68,0v44.27c-.54.04-.98.11-1.41.11-13.21,0-26.41,0-39.62,0-.96,0-1.92.08-2.87.07-.95-.01-1.21-.29-1.13-1.22.74-8.56,1.73-17.06,4.64-25.22,3.63-10.16,8.9-19.34,16.08-27.41,4.74-5.33,9.78-10.36,15.12-15.08,7.43-6.58,15.81-11.62,25.13-15.1,6.71-2.5,13.64-4.05,20.74-4.79,2.15-.22,4.32-.24,6.48-.34.28-.01.56.06,1.04.13Z"/>
  <path d="m394.56,101.09c0-.72,0-1.22,0-1.71.02-9.88.05-19.75.02-29.63,0-1.53-.27-3.07-.53-4.58-.48-2.74-2.06-4.48-4.88-4.97-1.66-.29-3.32-.35-4.96.07-3.74.96-5.3,4.31-5.56,6.83-.21,1.98-.24,3.99-.25,5.99-.02,8.92,0,17.83,0,26.75,0,.33-.03.66-.06,1.18-4.54.15-9.05.04-13.52.07-.33-.98-.43-49.8-.13-51.52h12.88v6.19c.1.04.2.09.29.13.32-.42.68-.82.96-1.27,1.83-2.94,4.47-4.83,7.76-5.72,3.16-.85,6.36-1.03,9.65-.55,4.22.62,7.08,3.08,9.5,6.31.29.39.63.74,1.02,1.2.29-.35.53-.57.68-.84,2.19-3.88,5.59-5.94,9.91-6.63,5.45-.87,10.5.13,14.82,3.63,3.2,2.59,5.24,6.01,5.92,10.14.2,1.19.31,2.4.31,3.6.02,11.38,0,22.75,0,34.13,0,.33-.04.65-.06,1.09h-13.5c0-.56,0-1.09,0-1.62,0-9.54,0-19.09,0-28.63,0-2.23-.33-4.4-1.24-6.45-.82-1.85-2.05-3.33-3.96-4.14-3.07-1.3-6.34-.37-8.58,2.44-1.44,1.81-2.28,3.88-2.42,6.19-.12,2.12-.19,4.24-.2,6.37-.03,8.13-.02,16.25-.03,24.38,0,.45,0,.9,0,1.56-4.62.07-9.13.03-13.86.03Z"/>
  <path d="m544.56,30.71v70.29h-13.25v-5.15c-.1-.02-.2-.05-.29-.07-.64.63-1.29,1.26-1.93,1.89-3.25,3.2-7.12,4.73-11.7,4.74-5.16,0-9.74-1.5-13.75-4.75-3.1-2.52-5.05-5.84-6.53-9.47-1.83-4.51-2.35-9.24-2.32-14.08.03-4.68.75-9.22,2.62-13.52,2.29-5.25,5.86-9.32,11.4-11.25,7.49-2.62,15.45-1.26,21,5.03.34.39.73.74,1.33,1,0-.39,0-.78,0-1.18-.02-5.38-.02-10.75-.06-16.13-.01-2.12-.12-4.25-.16-6.37-.02-1.05.17-1.3,1.22-1.3,3.96.02,7.91.09,11.87.15.16,0,.31.09.56.16Zm-12.93,45.12c-.17-3.52-.74-6.79-2.14-9.86-.71-1.56-1.59-2.99-3.04-4.04-4.65-3.35-14.03-2.66-16.5,5.72-1.37,4.65-1.54,9.36-.28,14.05.75,2.8,2.25,5.17,4.49,7.06,1.88,1.59,4.09,2.33,6.47,2.19,3.26-.2,5.79-1.83,7.77-4.43,2.46-3.23,2.91-7,3.23-10.69Z"/>
  <path d="m234.85,79.01c.61,3.48,1.44,6.53,3.83,9.09,3.33,3.56,8.85,3.74,12.36,2.11,1.76-.82,3.15-2.02,3.87-3.88.24-.61.62-.96,1.3-.95,4.29.06,8.58.1,12.86.16.15,0,.3.1.63.21-.38.96-.72,1.88-1.12,2.77-1.45,3.28-3.5,6.16-6.07,8.63-2.05,1.97-4.53,3.23-7.26,4-7.18,2.05-14.22,1.76-21.11-1.19-5.33-2.28-8.79-6.35-10.81-11.67-2.11-5.56-2.47-11.35-2.07-17.22.28-4.13,1.36-8.04,3.39-11.65,3.58-6.39,9.19-9.75,16.3-10.92,4.22-.7,8.38-.53,12.5.52,6.8,1.73,11.36,6.04,13.95,12.48,2.11,5.26,2.73,10.79,2.79,16.4,0,1.01-.13,1.12-1.18,1.12-10.37,0-20.74-.02-31.11-.03-.94,0-1.89,0-3.05,0Zm.51-9.18c1.46.33,19.51.27,20.56-.09-.53-3.78-1.73-7.23-5.32-9.2-3.5-1.92-7.12-1.86-10.39.47-2.97,2.11-4.67,5.09-4.84,8.82Z"/>
  <path d="m456.27,79.03c-.29,1.25.1,2.37.41,3.47.99,3.47,2.86,6.26,6.25,7.85,3.11,1.45,8.48,1.21,11.47-1.71.61-.59,1.1-1.36,1.48-2.12.34-.67.73-1.07,1.51-1.05,1.12.03,2.24.01,3.37.02,2.79.02,5.58.04,8.37.07.45,0,.89.05,1.4.08-.03.31,0,.53-.07.7-1.52,4.16-3.67,7.91-7.02,10.91-2.36,2.12-5.09,3.49-8.11,4.24-6.74,1.68-13.37,1.22-19.83-1.38-5.59-2.25-9-6.53-11.16-11.98-1.17-2.94-1.61-6.03-1.95-9.13-.37-3.45-.36-6.9.21-10.33.97-5.79,3.17-10.96,7.67-14.91,3.38-2.97,7.38-4.62,11.82-5.23,1.24-.17,2.48-.41,3.72-.43,5.46-.09,10.72.73,15.34,3.92,3.35,2.31,5.66,5.46,7.21,9.21,1.38,3.34,2.18,6.81,2.52,10.39.19,1.95.36,3.9.48,5.85.08,1.33.03,1.37-1.25,1.42-1.91.07-3.83.11-5.74.11-7.75.01-15.5.01-23.24,0-1.33,0-2.66-.08-3.99-.11-.28,0-.56.08-.87.13Zm20.74-9.09c-.58-6.7-4.56-10.72-10.6-10.67-5.9.05-10.22,6.43-9.89,10.67h20.5Z"/>
  <path d="m346.59,67.11h12.7c.09.17.2.28.2.38-.02,5.46.14,10.93-.14,16.37-.25,4.81-1.95,9.2-5.42,12.71-3.82,3.87-8.53,5.68-13.92,5.81-1,.02-2,.02-3,0-3.92-.05-7.57-1.1-10.9-3.14-4.4-2.7-7.06-6.66-7.96-11.73-.42-2.37-.73-4.79-.75-7.19-.09-12.29-.07-24.59-.1-36.88,0-2.12-.1-4.25-.1-6.37,0-1.59.14-1.71,1.71-1.7,3.75.03,7.5.07,11.25.11,1.02.01,1.15.18,1.13,1.17-.05,3.71-.09,7.41-.11,11.12,0,1.65.07,1.7,1.68,1.7,8.37,0,16.75.02,25.12.03.29,0,.62-.08.86.03.26.11.62.41.62.62-.01,2.95-.07,5.91-.13,8.86,0,.03-.04.07-.18.29h-27.9c-.04.58-.1.97-.1,1.37,0,6.83,0,13.67,0,20.5,0,1.81.31,3.56,1.13,5.2,1.43,2.84,3.83,3.95,6.88,3.77,3.62-.21,5.98-2.16,6.73-5.75.41-1.98.57-4.04.62-6.07.09-3.46.02-6.92.01-10.38,0-.24.03-.48.05-.86Z"/>
  <path d="m216.51,101.03h-13.84c-.04-.56-.11-1.08-.11-1.6,0-9.46.04-18.91,0-28.37,0-1.78-.18-3.58-.47-5.34-.57-3.37-2.07-4.86-5.4-5.51-1.85-.36-3.73-.31-5.58.05-4.17.8-6.76,4.29-7.19,8.25-.19,1.73-.24,3.49-.25,5.23-.04,8.71-.04,17.41-.05,26.12,0,.33-.03.66-.07,1.2-4.5.07-8.98.02-13.42.03-.33-.94-.45-49.51-.12-51.56,4.18-.12,8.41-.02,12.77-.08.23,1.08.08,2.19.11,3.29.02,1.1,0,2.21,0,3.31.13.08.27.15.4.23.13-.25.25-.51.4-.75,2.85-4.4,7.02-6.54,12.12-7.24,3.37-.46,6.67-.26,9.87.76,5.88,1.87,9.18,6.1,10.39,12.01.37,1.78.53,3.63.53,5.46.04,11.16.01,22.33,0,33.49,0,.28-.05.57-.09,1Z"/>
  <path d="m264.84,49.58c.65-.09.96-.17,1.26-.17,4.87.01,9.74.06,14.62.03.77,0,1.27.18,1.64.83,2.07,3.66,4.15,7.31,6.23,10.97.5.89.99,1.78,1.61,2.91.4-.53.63-.79.81-1.09,2.48-4.29,4.97-8.57,7.43-12.87.28-.49.63-.76,1.18-.75,1,0,2,.04,2.99.04,3.62.02,7.25.04,10.87.06.4,0,.79.03,1.42.06-.36.6-.56.99-.81,1.36-3.33,4.83-6.68,9.66-10,14.5-1.84,2.68-3.62,5.39-5.46,8.07-.46.67-.54,1.2-.05,1.91,4.18,6.17,8.32,12.37,12.47,18.56,1.52,2.27,3.03,4.55,4.66,6.99-.56.05-.91.11-1.26.11-4.87,0-9.75-.01-14.62.02-.86,0-1.34-.28-1.77-1.04-2.46-4.35-4.98-8.66-7.49-12.98-.22-.39-.48-.76-.86-1.34-.7,1.19-1.32,2.21-1.9,3.24-2.14,3.81-4.28,7.62-6.38,11.46-.37.67-.89.65-1.47.65-4.5,0-9,0-13.49,0-.58,0-1.15,0-1.99,0,.29-.63.43-1.09.68-1.48,4.81-7.2,9.63-14.39,14.45-21.59.56-.83,1.07-1.69,1.66-2.5.44-.61.37-1.11-.03-1.7-2.9-4.32-5.77-8.66-8.67-12.99-1.95-2.91-3.91-5.8-5.88-8.69-.53-.78-1.11-1.52-1.87-2.57Z"/>
  <path d="m.41,133.02c-.09-2.08-.23-3.98-.23-5.88-.03-7.08-.02-14.16-.02-21.24,0-.25.02-.5.01-.75-.02-.73.31-1.02,1.05-1.04,7.83-.26,15.28-2.34,22.52-5.13,5.48-2.11,10.78-4.67,15.72-7.87,2.99-1.94,5.77-4.23,8.63-6.37.66-.49,1.27-1.04,2.01-1.46-.88,1.18-1.67,2.44-2.66,3.52-2.43,2.67-4.32,5.7-6.19,8.75-4.74,7.72-8.11,16.03-10.23,24.83-.92,3.83-1.74,7.71-1.94,11.68-.05,1.08-.26,1.23-1.28,1.17-1.04-.07-2.08-.14-3.11-.14-7.58,0-15.16,0-22.74.01-.45,0-.9-.04-1.53-.07Z"/>
  <path d="m104.7.19h28.55c.04.51.09.95.09,1.39,0,6.79.02,13.58-.01,20.38,0,1.96-.13,3.91-.21,5.87-.04.98-.19,1.14-1.06,1.19-6.32.36-12.41,1.89-18.41,3.81-7.55,2.41-14.59,5.91-21.17,10.29-2.77,1.84-5.32,4-7.96,6.03-.43.33-.83.69-1.33.96,2.21-2.89,4.48-5.74,6.63-8.68,2.16-2.96,4.06-6.11,5.59-9.45,1.54-3.37,3.15-6.72,4.4-10.2,1.24-3.44,2.23-6.99,3.03-10.55.81-3.59,1.25-7.27,1.86-11.01Z"/>
  <path class="cls-1" d="m531.63,75.83c-.32,3.68-.77,7.46-3.23,10.69-1.98,2.6-4.51,4.24-7.77,4.43-2.39.14-4.59-.6-6.47-2.19-2.24-1.89-3.74-4.26-4.49-7.06-1.26-4.7-1.09-9.4.28-14.05,2.47-8.38,11.85-9.07,16.5-5.72,1.45,1.05,2.33,2.48,3.04,4.04,1.4,3.08,1.96,6.35,2.14,9.86Z"/>
  <path class="cls-1" d="m235.36,69.84c.17-3.73,1.88-6.71,4.84-8.82,3.27-2.33,6.89-2.4,10.39-.47,3.59,1.97,4.79,5.42,5.32,9.2-1.05.36-19.1.42-20.56.09Z"/>
  <path class="cls-1" d="m477.01,69.94h-20.5c-.32-4.24,4-10.62,9.89-10.67,6.04-.05,10.02,3.97,10.6,10.67Z"/>
</svg>