<svg width="60" height="41" viewBox="0 0 60 41" fill="none" xmlns="http://www.w3.org/2000/svg">
  <rect width="58.3333" height="40" transform="translate(0.833374 0.808483)" fill="white" fill-opacity="0.01"/>
  <g clip-path="url(#clip0)">
    <path d="M22.7841 37.122L23.4044 33.269L22.0227 33.2377H15.425L20.0101 4.80697C20.0243 4.72115 20.0706 4.64112 20.1382 4.58429C20.2058 4.52745 20.2924 4.49614 20.3825 4.49614H31.5071C35.2003 4.49614 37.749 5.24771 39.0796 6.73112C39.7035 7.42701 40.1008 8.15422 40.2929 8.9545C40.4945 9.79421 40.4981 10.7975 40.3012 12.0211L40.287 12.1104V12.8944L40.9108 13.24C41.4362 13.5126 41.8537 13.8246 42.1739 14.1818C42.7076 14.7768 43.0527 15.533 43.1986 16.4296C43.3492 17.3516 43.2994 18.4488 43.0527 19.691C42.7681 21.1199 42.3079 22.3644 41.6864 23.3827C41.1148 24.321 40.3866 25.0992 39.522 25.7024C38.6966 26.2753 37.7157 26.7102 36.6068 26.9886C35.5323 27.2623 34.3072 27.4003 32.9635 27.4003H32.0977C31.4786 27.4003 30.8773 27.6184 30.4053 28.0092C29.9321 28.4082 29.619 28.9533 29.5229 29.5495L29.4577 29.8963L28.3618 36.687L28.312 36.9364C28.299 37.0153 28.2764 37.0547 28.2432 37.0814C28.2136 37.1057 28.1709 37.122 28.1294 37.122H22.7841Z" fill="#253B80"/>
    <path d="M41.5015 12.2009C41.4683 12.4085 41.4304 12.6207 41.3877 12.8388C39.9206 20.2048 34.9015 22.7494 28.4912 22.7494H25.2273C24.4434 22.7494 23.7828 23.3062 23.6607 24.0624L21.9896 34.4266L21.5164 37.3644C21.4369 37.8608 21.8283 38.3085 22.3406 38.3085H28.1295C28.815 38.3085 29.3973 37.8214 29.5052 37.1603L29.5621 36.8726L30.6521 30.1085L30.722 29.7374C30.8288 29.074 31.4123 28.5868 32.0978 28.5868H32.9636C38.5721 28.5868 42.9627 26.36 44.2459 19.916C44.782 17.224 44.5044 14.9763 43.086 13.3955C42.6567 12.9188 42.1242 12.5233 41.5015 12.2009Z" fill="#179BD7"/>
    <path d="M39.9668 11.6024C39.7427 11.5386 39.5114 11.4806 39.2742 11.4284C39.0358 11.3774 38.7915 11.3321 38.5401 11.2927C37.6601 11.1535 36.6959 11.0874 35.6629 11.0874H26.9435C26.7288 11.0874 26.5248 11.135 26.3422 11.2208C25.9401 11.4098 25.6412 11.7822 25.5689 12.238L23.714 23.7272L23.6606 24.0624C23.7828 23.3062 24.4434 22.7494 25.2273 22.7494H28.4912C34.9015 22.7494 39.9206 20.2036 41.3876 12.8388C41.4315 12.6207 41.4683 12.4085 41.5015 12.2008C41.1303 12.0083 40.7282 11.8436 40.2954 11.7033C40.1886 11.6685 40.0783 11.6349 39.9668 11.6024Z" fill="#222D65"/>
    <path d="M25.5689 12.238C25.6412 11.7822 25.9401 11.4099 26.3421 11.222C26.5259 11.1361 26.7288 11.0886 26.9434 11.0886H35.6628C36.6958 11.0886 37.66 11.1547 38.54 11.2939C38.7915 11.3333 39.0358 11.3785 39.2742 11.4296C39.5114 11.4818 39.7426 11.5398 39.9668 11.6035C40.0783 11.636 40.1886 11.6697 40.2965 11.7033C40.7294 11.8436 41.1314 12.0095 41.5026 12.2009C41.9391 9.47875 41.4991 7.62535 39.9941 5.94708C38.3349 4.09948 35.3402 3.30848 31.5083 3.30848H20.3837C19.6009 3.30848 18.9332 3.8652 18.8123 4.62256L14.1786 33.3456C14.0873 33.9139 14.5356 34.4266 15.1215 34.4266H21.9895L23.714 23.7272L25.5689 12.238Z" fill="#253B80"/>
  </g>
  <defs>
    <clipPath id="clip0">
      <rect width="30.3333" height="35" fill="white" transform="translate(14.1667 3.30848)"/>
    </clipPath>
  </defs>
</svg>
