<?xml version="1.0" encoding="UTF-8"?>
<svg id="Layer_1" data-name="Layer 1" xmlns="http://www.w3.org/2000/svg" viewBox="0 0 412.8 116.64">
  <defs>
    <style>
      .cls-1 {
        fill: #fff;
      }

      .cls-2 {
        fill: #222529;
      }

      .cls-3 {
        fill: #f63c68;
      }

      .cls-4 {
        fill: #a10f42;
      }
    </style>
  </defs>
  <path class="cls-1" d="m84.72,0h328.08v28.8c-.29-.09-.59-.27-.88-.27-5-.02-10-.04-15,.03-.47,0-1.22.53-1.35.96-1.2,4.2-2.28,8.44-3.42,12.65-1.34,4.96-2.8,9.9-4.04,14.88-.95,3.8-1.63,7.66-2.44,11.49-.31,1.48-.63,2.96-.96,4.43-.04.17-.24.3-.37.45-.12-.16-.26-.31-.34-.49-.1-.21-.18-.43-.23-.65-1.2-4.64-2.25-9.33-3.63-13.92-1.84-6.1-3.96-12.11-5.93-18.18-1.01-3.12-1.98-6.26-2.91-9.41-.42-1.44-1.27-2.23-2.74-2.23-4.68,0-9.36.07-14.04-.03-1.99-.04-3.97-.4-5.95-.67-1.58-.21-3.15-.58-4.74-.72-2.16-.18-4.11.75-6.05,1.5-1.28.5-2.54.98-3.4,2.3-1.16,1.8-2.63,3.4-4.09,5.24-.4-.66-.85-1.15-1-1.73-.39-1.49-.71-3.01-.94-4.54-.11-.75-.2-1.36-1.12-1.36-3.52,0-7.04-.02-10.56,0-1.01,0-1.5.65-1.44,1.67.02.4.02.8.02,1.2,0,19.12,0,38.24,0,57.36,0,.36,0,.72,0,1.08.02.95.38,1.36,1.45,1.35,4.27-.07,8.54-.03,12.81-.03,1.82,0,2.16-.35,2.16-2.22,0-12.4.08-24.8-.05-37.2-.04-4.14,3.97-7.85,7.38-8.76,2.8-.74,5.73-.4,8.56.21,2.12.45,2.37.31,2.6-1.77.36-3.33.78-6.66,1.23-10.37.39.52.61.72.71.96,1.36,3.03,2.74,6.05,4.04,9.1,1.8,4.23,3.52,8.49,5.32,12.72,1.64,3.87,3.38,7.69,4.99,11.57,1.81,4.36,3.48,8.78,5.28,13.15,1.44,3.5,2.99,6.96,4.44,10.45.31.74.75,1.66.55,2.33-.72,2.51-1.23,5.12-3.04,7.2-2.6,3-5.22,4.57-9.16,3.29-.7-.23-1.02-.13-1.21.72-.8,3.56-1.73,7.08-2.57,10.63-.22.93,0,1.72,1.1,2.03,1.55.44,3.08.93,4.62,1.4H0C0,95.19,0,73.75,0,52.32c.07.08.21.15.21.24.25,2.78.89,5.47,1.59,8.18,1.32,5.05,3.48,9.67,6.38,13.95,3.82,5.66,8.51,10.47,14.39,14.03,3.36,2.03,6.75,3.98,10.59,5.04,4.77,1.31,9.55,2.56,14.57,2.25,3-.19,6.03-.13,8.99-.57,4.06-.61,7.81-2.33,11.51-4.04,6.12-2.83,11.51-6.68,15.87-11.91,3.02-3.62,5.54-7.51,7.48-11.81,2.99-6.64,4.22-13.64,4.27-20.86.07-9.96.06-19.91,0-29.87-.02-2.68-.17-5.39-.61-8.02-.68-4.06-3.94-7.17-7.89-8.2C86.47.49,85.59.24,84.72,0Zm73.88,61.44c1.66,0,3.11.02,4.57,0,3.94-.07,7.88-.15,11.82-.25.34,0,.8-.06.98-.27.7-.86,1.63-.65,2.52-.68.48-.01.99.08,1.43-.07,1.6-.56,3.15-1.25,4.76-1.79,6.84-2.29,11.5-7,14.66-13.31,1.62-3.22,2.54-6.71,2.69-10.29.23-5.5.12-10.95-2.25-16.18-2.37-5.23-5.86-9.26-10.94-11.87-5.83-3-12.2-3.97-18.62-4.26-5.01-.23-10.04.1-15.06.18-.08,0-.16,0-.24,0-3.56.4-7.11.81-10.67,1.19-3,.32-3.17.46-3.13,3.55.01,1.34.22,2.68.22,4.02.01,26.11.01,52.23.01,78.34v1.42c.46-.04.81-.1,1.17-.09,4.51.04,9.03.06,13.54.13,2.33.04,2.57-.16,2.57-2.52-.01-8.72-.03-17.44-.04-26.15,0-.43,0-.86,0-1.1Zm93.85,13.83c-.56.26-.93.4-1.26.59-.34.19-.63.47-.98.65-5.64,2.91-11.58,4.1-17.89,2.92-3.37-.63-6.2-2.21-8.12-5.13-1.71-2.6-2.34-5.59-2.83-8.59-.18-1.09.62-1.82,1.72-1.82,11.44,0,22.88,0,34.32,0,1.67,0,1.74-.11,1.79-1.77.04-1.22.17-2.44.27-3.65.17-1.97.59-3.95.49-5.9-.16-3.05-.52-6.1-1.04-9.1-.98-5.67-4.21-9.88-8.96-12.98-3.87-2.54-8.29-3.25-12.76-3.55-2.52-.17-5.09.02-7.62.22-3.47.27-6.81,1.19-9.92,2.72-4.97,2.44-8.59,6.31-11.11,11.21-2.23,4.33-3.25,9.04-3.52,13.81-.23,4.14.1,8.33.44,12.48.33,4.06,1.62,7.91,3.35,11.6,1.74,3.72,4.25,6.78,7.6,9.21,4.52,3.28,9.71,4.36,15.09,4.65,2.59.14,5.21-.22,7.8-.44,1.99-.17,4.04-.24,5.95-.76,4.58-1.24,8.9-3.11,12.74-6.06-1.85-3.44-3.69-6.84-5.55-10.29Zm33.55-38.48c-.51-2.24-1.11-4.61-1.58-7.01-.17-.86-.49-1.28-1.38-1.27-3.56.03-7.11.05-10.67.03-.76,0-.98.33-.94,1.02.06,1.03.12,2.07.12,3.1-.02,8.47-.06,16.95-.07,25.42-.01,10.39,0,20.79,0,31.18,0,1.92.21,1.95,2.19,1.89,3.95-.11,7.91-.11,11.86,0,1.91.05,2.27-.12,2.27-2.03-.01-12.31-.01-24.62-.05-36.94,0-2.86,1.39-5.07,3.34-6.88,3.2-2.96,7.17-2.96,11.18-2.39,1.21.17,2.39.53,3.64.82.12-.82.22-1.51.33-2.2.3-2.05.61-4.09.9-6.14.27-1.89.49-3.8.79-5.68.18-1.1-.38-1.54-1.31-1.64-2.7-.27-5.39-.6-8.09-.71-2.91-.12-5.48,1.02-7.44,3.08-1.83,1.92-3.35,4.14-5.08,6.32Z"/>
  <path class="cls-2" d="m366.48,116.64c-1.54-.47-3.07-.97-4.62-1.4-1.1-.31-1.32-1.1-1.1-2.03.84-3.55,1.77-7.07,2.57-10.63.19-.84.52-.94,1.21-.72,3.94,1.28,6.56-.29,9.16-3.29,1.81-2.08,2.31-4.7,3.04-7.2.19-.67-.25-1.59-.55-2.33-1.45-3.49-3.01-6.95-4.44-10.45-1.8-4.37-3.47-8.79-5.28-13.15-1.61-3.88-3.35-7.71-4.99-11.57-1.79-4.23-3.52-8.49-5.32-12.72-1.3-3.05-2.68-6.07-4.04-9.1-.11-.24-.32-.44-.71-.96-.44,3.71-.87,7.04-1.23,10.37-.23,2.08-.48,2.23-2.6,1.77-2.83-.61-5.75-.95-8.56-.21-3.42.91-7.43,4.62-7.38,8.76.13,12.4.05,24.8.05,37.2,0,1.87-.34,2.22-2.16,2.22-4.27,0-8.54-.04-12.81.03-1.08.02-1.43-.4-1.45-1.35,0-.36,0-.72,0-1.08,0-19.12,0-38.24,0-57.36,0-.4,0-.8-.02-1.2-.06-1.02.43-1.67,1.44-1.67,3.52-.03,7.04-.01,10.56,0,.92,0,1,.62,1.12,1.36.23,1.53.55,3.05.94,4.54.15.57.61,1.06,1,1.73,1.46-1.84,2.93-3.44,4.09-5.24.85-1.33,2.12-1.81,3.4-2.3,1.95-.76,3.89-1.68,6.05-1.5,1.59.13,3.16.51,4.74.72,1.98.26,3.96.63,5.95.67,4.68.1,9.36.03,14.04.03,1.47,0,2.32.79,2.74,2.23.92,3.15,1.89,6.28,2.91,9.41,1.97,6.06,4.09,12.08,5.93,18.18,1.38,4.59,2.43,9.28,3.63,13.92.06.22.13.45.23.65.09.18.23.33.34.49.13-.15.33-.28.37-.45.34-1.47.65-2.95.96-4.43.81-3.83,1.5-7.7,2.44-11.49,1.24-4.99,2.7-9.92,4.04-14.88,1.14-4.22,2.22-8.45,3.42-12.65.12-.43.88-.95,1.35-.96,5-.07,10-.05,15-.03.29,0,.59.17.88.27v.72c-.24.25-.59.46-.7.75-1.08,3.05-2.07,6.14-3.18,9.18-1.24,3.4-2.57,6.77-3.85,10.16-.09.25-.14.51-.19.78-.15.76-.21,1.54-.45,2.27-2.07,6.26-4.13,12.52-6.26,18.76-2.11,6.18-4.26,12.35-6.48,18.49-1.79,4.98-2.9,10.24-5.59,14.86-1.37,2.34-2.89,4.63-4.6,6.73-2.08,2.57-4.92,4.14-8.07,5.13-2.32,0-4.64,0-6.96,0Z"/>
  <path class="cls-4" d="m84.72,0c.87.24,1.75.49,2.62.72,3.95,1.02,7.21,4.14,7.89,8.2.44,2.64.59,5.35.61,8.02.07,9.96.08,19.91,0,29.87-.05,7.22-1.28,14.22-4.27,20.86-1.94,4.3-4.46,8.19-7.48,11.81-4.36,5.23-9.75,9.08-15.87,11.91-3.7,1.71-7.45,3.43-11.51,4.04-2.96.44-5.99.39-8.99.57-5.02.31-9.8-.94-14.57-2.25-3.83-1.05-7.23-3.01-10.59-5.04-5.88-3.56-10.56-8.37-14.39-14.03-2.9-4.29-5.06-8.9-6.38-13.95-.71-2.71-1.34-5.4-1.59-8.18,0-.08-.14-.16-.21-.24,0-2.8,0-5.6,0-8.4.07-.25.19-.5.19-.75,0-7.99,0-15.99,0-23.98.01-2.77.03-5.55.04-8.32C.45,5.99,3.03,2.64,7.43,1.1,8.69.66,10,.36,11.28,0c1.6,0,3.2,0,4.8,0,.37.08.74.24,1.1.24,22.06.01,44.13.01,66.19,0,.37,0,.74-.16,1.1-.24.08,0,.16,0,.24,0ZM7.93,33.11c0,4.84-.08,9.68.03,14.51.06,2.69.23,5.42.71,8.07,1.37,7.56,4.82,14.14,10.05,19.76,3.88,4.17,8.33,7.53,13.73,9.53,3.6,1.34,7.15,2.92,11.05,3.06,5.04.18,10.1.17,14.99-1.38,1.99-.63,4.03-1.17,5.93-2.02,4.81-2.15,9.04-5.18,12.7-9,1.3-1.36,2.25-2.73,2.16-4.82-.04-.93-.35-1.67-.57-2.49-.95-3.51-1.62-7.15-2.95-10.51-4.53-11.46-11.59-21.24-20.58-29.63-6.14-5.74-12.69-10.96-20.44-14.39-3.55-1.57-7.17-3.03-10.88-4.16-3.83-1.17-7.83-1.54-11.88-1.54-2.09,0-4.22,1.99-4.07,4.09.09,1.29.03,2.6.03,3.9,0,5.68,0,11.35,0,17.03Zm80.13-2.28c0-6.32,0-12.64,0-18.96,0-2.17-1-3.32-3.07-3.47-1.91-.13-3.82-.23-5.73-.19-1.05.02-2.27.09-3.11.63-1.77,1.13-3.6,2.36-4.94,3.93-2.43,2.84-4.62,5.92-5.51,9.68-.18.77-.16,1.63-.51,2.31-.65,1.26-.26,2.19.53,3.17,2.94,3.68,5.99,7.27,8.73,11.09,4.87,6.79,8.33,14.28,10.55,22.34.05.19.29.32.44.48.14-.16.36-.3.42-.49.21-.62.34-1.26.55-1.88,1.14-3.5,1.56-7.13,1.63-10.78.11-5.96.03-11.92.03-17.88Zm-23.08-22.61h-23.26c5.92,3.49,11.12,7.92,16.57,12.36,1.36-4.63,3.51-8.63,6.69-12.36Z"/>
  <path class="cls-1" d="m373.44,116.64c3.15-.99,5.99-2.56,8.07-5.13,1.7-2.11,3.23-4.39,4.6-6.73,2.7-4.62,3.8-9.88,5.59-14.86,2.21-6.14,4.36-12.31,6.48-18.49,2.13-6.24,4.2-12.5,6.26-18.76.24-.73.3-1.51.45-2.27.05-.26.1-.53.19-.78,1.28-3.39,2.61-6.75,3.85-10.16,1.11-3.04,2.1-6.13,3.18-9.18.1-.3.46-.51.7-.75v87.12h-39.36Z"/>
  <path class="cls-1" d="m11.28,0c-1.28.36-2.59.66-3.85,1.1C3.03,2.64.45,5.99.23,10.87c-.08-.02-.15-.05-.23-.07C0,7.2,0,3.6,0,0,3.76,0,7.52,0,11.28,0Z"/>
  <path class="cls-3" d="m84.48,0c-.37.08-.74.24-1.1.24-22.06.01-44.13.01-66.19,0-.37,0-.74-.16-1.1-.24C38.88,0,61.68,0,84.48,0Z"/>
  <path class="cls-1" d="m.19,19.19c0,7.99.01,15.99,0,23.98,0,.25-.13.5-.19.75,0-8.24,0-16.48,0-24.72l.09.03s.09-.04.09-.04Z"/>
  <path class="cls-3" d="m.19,19.19l-.09.04L0,19.2C0,16.4,0,13.6,0,10.8c.08.02.15.05.23.07-.02,2.77-.03,5.55-.04,8.32Z"/>
  <path class="cls-2" d="m158.6,61.44c0,.24,0,.67,0,1.1.01,8.72.03,17.44.04,26.15,0,2.36-.24,2.55-2.57,2.52-4.51-.07-9.03-.09-13.54-.13-.35,0-.71.05-1.17.09v-1.42c0-26.11,0-52.23-.01-78.34,0-1.34-.2-2.68-.22-4.02-.03-3.08.14-3.23,3.13-3.55,3.56-.38,7.11-.79,10.67-1.19.08,0,.16,0,.24,0,5.02-.08,10.05-.41,15.06-.18,6.43.29,12.79,1.26,18.62,4.26,5.08,2.62,8.57,6.64,10.94,11.87,2.37,5.23,2.48,10.68,2.25,16.18-.15,3.58-1.08,7.06-2.69,10.29-3.17,6.31-7.82,11.02-14.66,13.31-1.61.54-3.16,1.23-4.76,1.79-.43.15-.95.06-1.43.07-.89.02-1.82-.18-2.52.68-.18.22-.64.27-.98.27-3.94.1-7.88.18-11.82.25-1.46.03-2.92,0-4.57,0Zm0-29.8c0,4.12.1,8.24-.05,12.36-.05,1.43.64,1.91,1.67,2.26.62.21,1.31.26,1.97.29,3.92.17,7.82-.03,11.63-.97,3.71-.91,6.8-2.76,8.53-6.34,1.8-3.72,2.15-7.68,1.44-11.69-.33-1.85-1.04-3.63-2.33-5.12-2.9-3.33-6.69-4.84-10.94-5.11-3.43-.22-6.88-.07-10.32-.03-1.34.01-1.59.35-1.59,1.75,0,4.2,0,8.4,0,12.6Z"/>
  <path class="cls-2" d="m252.45,75.27c1.86,3.45,3.7,6.86,5.55,10.29-3.83,2.95-8.16,4.82-12.74,6.06-1.91.52-3.96.59-5.95.76-2.6.22-5.22.58-7.8.44-5.38-.29-10.57-1.37-15.09-4.65-3.35-2.43-5.86-5.49-7.6-9.21-1.72-3.69-3.02-7.54-3.35-11.6-.34-4.15-.67-8.34-.44-12.48.27-4.78,1.29-9.48,3.52-13.81,2.52-4.9,6.14-8.77,11.11-11.21,3.11-1.53,6.46-2.45,9.92-2.72,2.53-.2,5.09-.39,7.62-.22,4.47.3,8.89,1.01,12.76,3.55,4.74,3.11,7.98,7.32,8.96,12.98.52,3.01.89,6.06,1.04,9.1.1,1.95-.32,3.93-.49,5.9-.11,1.22-.24,2.43-.27,3.65-.05,1.66-.12,1.77-1.79,1.77-11.44,0-22.88,0-34.32,0-1.11,0-1.9.74-1.72,1.82.49,3.01,1.12,5.99,2.83,8.59,1.92,2.93,4.75,4.51,8.12,5.13,6.31,1.17,12.24-.02,17.89-2.92.34-.18.64-.45.98-.65.33-.19.7-.33,1.26-.59Zm-19.2-21.56c3.44,0,6.88-.01,10.31,0,.84,0,1.27-.31,1.23-1.18-.08-1.58.02-3.2-.28-4.74-.64-3.34-2.26-6.14-5.61-7.35-3.2-1.15-6.56-1.05-9.64.38-4.8,2.25-7.17,6.25-7.54,11.51-.09,1.21.43,1.39,1.45,1.38,3.36-.04,6.72-.02,10.07-.02Z"/>
  <path class="cls-2" d="m286,36.79c1.73-2.18,3.25-4.4,5.08-6.32,1.97-2.06,4.54-3.2,7.44-3.08,2.7.11,5.4.43,8.09.71.93.09,1.49.53,1.31,1.64-.31,1.89-.53,3.79-.79,5.68-.29,2.05-.6,4.09-.9,6.14-.1.69-.2,1.38-.33,2.2-1.25-.29-2.43-.64-3.64-.82-4.01-.57-7.98-.58-11.18,2.39-1.95,1.81-3.35,4.01-3.34,6.88.03,12.31.04,24.62.05,36.94,0,1.91-.36,2.08-2.27,2.03-3.95-.11-7.91-.11-11.86,0-1.97.06-2.19.03-2.19-1.89,0-10.39-.01-20.79,0-31.18.01-8.47.05-16.95.07-25.42,0-1.03-.06-2.07-.12-3.1-.04-.69.18-1.02.94-1.02,3.56.01,7.11,0,10.67-.03.89,0,1.21.41,1.38,1.27.47,2.39,1.07,4.76,1.58,7.01Z"/>
  <path class="cls-3" d="m7.93,33.11c0-5.68,0-11.35,0-17.03,0-1.3.06-2.6-.03-3.9-.15-2.1,1.98-4.09,4.07-4.09,4.05,0,8.05.37,11.88,1.54,3.71,1.13,7.33,2.59,10.88,4.16,7.75,3.44,14.3,8.65,20.44,14.39,8.98,8.39,16.05,18.17,20.58,29.63,1.33,3.37,2,7,2.95,10.51.22.82.53,1.55.57,2.49.09,2.09-.86,3.46-2.16,4.82-3.65,3.83-7.88,6.85-12.7,9-1.9.85-3.94,1.39-5.93,2.02-4.89,1.55-9.95,1.56-14.99,1.38-3.9-.14-7.45-1.73-11.05-3.06-5.4-2-9.85-5.37-13.73-9.53-5.23-5.62-8.68-12.19-10.05-19.76-.48-2.65-.65-5.37-.71-8.07-.11-4.84-.03-9.68-.03-14.51Z"/>
  <path class="cls-3" d="m88.07,30.83c0,5.96.08,11.92-.03,17.88-.07,3.64-.49,7.27-1.63,10.78-.2.62-.34,1.26-.55,1.88-.06.19-.28.33-.42.49-.15-.16-.39-.3-.44-.48-2.22-8.06-5.69-15.55-10.55-22.34-2.74-3.82-5.8-7.41-8.73-11.09-.78-.98-1.18-1.91-.53-3.17.35-.68.33-1.54.51-2.31.89-3.76,3.08-6.84,5.51-9.68,1.35-1.58,3.17-2.8,4.94-3.93.84-.53,2.06-.6,3.11-.63,1.91-.04,3.83.06,5.73.19,2.07.14,3.07,1.3,3.07,3.47.01,6.32,0,12.64,0,18.96Z"/>
  <path class="cls-3" d="m64.99,8.22c-3.18,3.74-5.33,7.73-6.69,12.36-5.45-4.44-10.65-8.87-16.57-12.36h23.26Z"/>
</svg>