<?xml version="1.0" encoding="UTF-8"?>
<svg id="Layer_1" data-name="Layer 1" xmlns="http://www.w3.org/2000/svg" viewBox="0 0 412.75 116.49">
  <defs>
    <style>
      .cls-1 {
        fill: #222529;
      }

      .cls-2 {
        fill: #fffeff;
      }

      .cls-3 {
        fill: #f63c68;
      }

      .cls-4 {
        fill: #a10f42;
      }
    </style>
  </defs>
  <path class="cls-2" d="m95.78,49.64c.07-.02.15-.04.22-.06-.07-.03-.14-.06-.21-.09.02-.58.07-1.16.07-1.74,0-10.44.01-20.88-.02-31.32,0-2.31-.06-4.64-.34-6.93-.6-4.87-5.02-8.92-9.99-9.37-.07,0-.13-.02-.2-.02-.54-.03-1.08-.1-1.62-.1C59.81,0,35.94-.02,12.07.04c-1.68,0-3.45.41-5.01,1.05-2.27.92-4.34,2.38-5.46,4.63C.55,7.83.12,10.14.14,12.55c.06,9.29.03,18.58.04,27.88,0,1.17.08,2.34-.02,3.5-.27,3.4-.22,6.76.34,10.15,1.03,6.23,2.7,12.23,6.07,17.63,1.43,2.28,2.81,4.63,4.52,6.69,1.82,2.18,3.97,4.1,6.04,6.06,3.21,3.02,7.1,5.07,10.96,7.08,2.31,1.21,4.94,1.89,7.49,2.55,2.69.7,5.44,1.39,8.2,1.55,5.87.34,11.78.29,17.43-1.62,3.14-1.06,6.19-2.44,9.16-3.93,8.65-4.35,15.11-10.99,19.73-19.45,3.57-6.54,5.35-13.58,5.67-21.01Zm239.85-20.19c-.49.58-1.06,1.21-1.58,1.89-.96,1.26-1.88,2.55-2.83,3.81-.35.47-.75.91-1.13,1.36-.2-.52-.4-1.04-.61-1.56-.05-.11-.13-.22-.15-.34-.35-1.58-.89-3.16-.97-4.75-.06-1.14-.31-1.51-1.4-1.5-2.75.04-5.5.04-8.25.02-3.42-.02-3.42-.04-3.43,3.31,0,.12,0,.25,0,.37,0,19.13,0,38.26-.02,57.38,0,1.04.28,1.5,1.43,1.48,4.54-.06,9.08-.07,13.62.02,1.2.02,1.39-.46,1.39-1.46-.03-7.21-.03-14.42-.04-21.63,0-5.33-.04-10.67,0-16,0-.97.11-2.01.48-2.89,1.18-2.86,3.38-4.76,6.19-5.95.78-.33,1.66-.54,2.5-.57,2.75-.1,5.49-.02,8.15.9.25.09.95-.33.99-.59.26-1.53.36-3.09.56-4.63.31-2.32.66-4.63,1-6.95.13-.03.27-.06.4-.09.44.86.94,1.7,1.31,2.58,1.69,3.96,3.34,7.94,5.01,11.91,2.21,5.27,4.43,10.53,6.63,15.8,1.09,2.61,2.34,5.18,3.14,7.87.41,1.4,1.04,2.61,1.66,3.87.04.07.06.16.09.23.95,2.3,1.89,4.6,2.86,6.89,1.25,2.94,2.54,5.86,3.78,8.81.28.67.74,1.5.55,2.08-.86,2.71-1.37,5.59-3.5,7.75-2.35,2.38-4.9,4.09-8.46,2.85-.42-.14-.87-.18-1.33-.28-.39,1.49-.79,2.94-1.13,4.39-.29,1.24-.98,2.32-.88,3.75.08,1.27-.58,2.57-.85,3.88-.14.67.03,1.1.83,1.44,3.41,1.46,6.98,1.66,10.6,1.52,2.53-.1,4.76-1.19,6.72-2.65,3.99-2.96,6.3-7.24,8.49-11.54.79-1.54,1.15-3.3,1.74-4.95,2.23-6.28,4.5-12.55,6.68-18.85,1.7-4.93,3.28-9.9,4.93-14.85.8-2.42,1.63-4.84,2.44-7.26.51-1.52,1.08-3.02,1.53-4.56.2-.7.16-1.46.29-2.18.05-.31.21-.61.37-.88.26-.42.68-.78.83-1.23,1.45-4.24,2.85-8.5,4.29-12.75.7-2.06,1.47-4.1,2.22-6.16-.26-.1-.37-.19-.48-.19-5.21-.03-10.41-.06-15.62-.04-.29,0-.75.38-.84.67-.63,2.2-1.19,4.42-1.77,6.63-1.13,4.24-2.26,8.47-3.4,12.71-1.28,4.74-2.68,9.44-3.82,14.21-.71,2.97-1.02,6.04-1.55,9.06-.11.63-.41,1.23-.63,1.85-.15-.02-.31-.05-.46-.07-.47-1.86-.94-3.71-1.39-5.57-.54-2.22-.95-4.48-1.61-6.67-1.16-3.83-2.47-7.62-3.72-11.43-1.64-4.98-3.28-9.96-4.9-14.94-.19-.59-.25-1.23-.43-1.83-.26-.84-.69-1.65-.83-2.51-.15-.94-1.26-2.09-2.23-2.09-7.93-.01-15.89.46-23.73-1.22-2.08-.45-3.98.03-5.88.66-1.31.43-2.55,1.08-3.84,1.63Zm-177.06,31.46c1.38.1,2.65.28,3.92.26,3.82-.04,7.64-.08,11.45-.29.86-.05,2.03.29,2.67-.79.03-.06.27.02.4.01.66-.01,1.32,0,1.98-.05,1.19-.07,2.21-.76,3.34-1.08,5.24-1.49,9.92-4.08,13.42-8.42,3.69-4.58,5.88-9.72,6.31-15.71.32-4.57.31-9.07-1.07-13.42-2.88-9.12-9.14-14.84-18.31-17.3-5.54-1.49-11.23-2.02-16.96-1.93-4.26.07-8.53.22-12.78.53-3.31.24-6.59.82-9.89,1.18-1.16.12-1.69.44-1.69,1.79.06,18.91.05,37.83.06,56.75,0,9.41,0,18.81,0,28.36.52.03,1.08.1,1.65.1,4.67,0,9.33-.04,14,.04,1.21.02,1.56-.3,1.55-1.51-.06-7.63-.04-15.25-.04-22.88,0-1.82,0-3.65,0-5.65Zm93.96,14.24c-.48.24-.84.4-1.18.6-6.02,3.55-12.47,4.83-19.33,3.42-4.3-.88-7.48-3.22-9.09-7.56-.81-2.18-1.32-4.35-1.54-6.65-.09-.93.04-1.23.92-1.22.5,0,1-.03,1.5-.03,10.37,0,20.75,0,31.12,0,1,0,2,.03,3,.01.92-.02,1.53-.34,1.28-1.43-.05-.21,0-.44.02-.66.26-2.62.74-5.23.73-7.85-.01-3.16-.29-6.33-.73-9.46-.73-5.24-3.45-9.45-7.47-12.76-4.12-3.39-9.14-4.45-14.28-4.81-3.99-.27-7.97-.02-11.92.92-7.69,1.84-13.27,6.26-16.84,13.27-2.4,4.72-3.32,9.84-3.67,15.04-.19,2.84.08,5.71.21,8.57.18,3.95,1.12,7.71,2.48,11.44,3.68,10.01,11.01,15.27,21.33,16.39,3.97.43,8.07.23,12.05-.25,5.4-.66,10.47-2.61,15.15-5.46.62-.38,1.17-.87,1.77-1.32-1.89-3.49-3.7-6.84-5.52-10.19Zm33.61-38.01c-.65-2.7-1.35-5.17-1.79-7.68-.18-1.02-.62-1.08-1.4-1.08-2.67.02-5.33,0-8,0-1.07,0-2.59-.4-3.1.14-.58.62-.3,2.08-.3,3.17-.02,19.29-.01,38.57-.06,57.86,0,1.15.38,1.4,1.43,1.39,4.41-.05,8.83-.07,13.24,0,1.24.02,1.63-.27,1.62-1.57-.05-12.33.02-24.66-.07-36.99-.02-2.66,1.01-4.7,2.7-6.55,2.18-2.38,4.93-3.42,8.12-3.39,2.1.02,4.21-.1,6.19.84.34.16.77.13,1.26.21.19-1.29.36-2.46.53-3.62.4-2.79.71-5.59,1.22-8.36.54-2.91.5-3.41-1.74-3.76-2.61-.41-5.31-.88-7.91-.63-2.58.25-5.1,1.33-7.04,3.29-.7.71-1.51,1.35-2.08,2.16-.99,1.4-1.82,2.9-2.85,4.57Z"/>
  <path class="cls-1" d="m335.63,29.45c1.29-.55,2.53-1.2,3.84-1.63,1.9-.63,3.79-1.11,5.88-.66,7.84,1.68,15.8,1.2,23.73,1.22.97,0,2.07,1.16,2.23,2.09.14.86.58,1.66.83,2.51.18.6.24,1.23.43,1.83,1.62,4.99,3.27,9.96,4.9,14.94,1.25,3.81,2.56,7.6,3.72,11.43.66,2.18,1.07,4.44,1.61,6.67.45,1.86.93,3.71,1.39,5.57.15.02.31.05.46.07.21-.62.52-1.22.63-1.85.53-3.02.84-6.09,1.55-9.06,1.14-4.77,2.54-9.47,3.82-14.21,1.14-4.23,2.27-8.47,3.4-12.71.59-2.21,1.14-4.43,1.77-6.63.08-.29.55-.67.84-.67,5.21-.02,10.41.02,15.62.04.11,0,.22.08.48.19-.74,2.06-1.52,4.1-2.22,6.16-1.44,4.24-2.84,8.5-4.29,12.75-.15.45-.57.8-.83,1.23-.17.27-.32.58-.37.88-.12.72-.08,1.49-.29,2.18-.45,1.54-1.01,3.04-1.53,4.56-.82,2.42-1.64,4.84-2.44,7.26-1.64,4.95-3.22,9.92-4.93,14.85-2.18,6.3-4.46,12.57-6.68,18.85-.58,1.65-.95,3.4-1.74,4.95-2.19,4.3-4.5,8.58-8.49,11.54-1.97,1.46-4.19,2.56-6.72,2.65-3.62.14-7.18-.06-10.6-1.52-.81-.35-.97-.78-.83-1.44.27-1.3.94-2.61.85-3.88-.1-1.43.59-2.51.88-3.75.35-1.46.75-2.91,1.13-4.39.46.09.92.13,1.33.28,3.56,1.24,6.11-.47,8.46-2.85,2.12-2.15,2.64-5.04,3.5-7.75.18-.58-.27-1.42-.55-2.08-1.24-2.95-2.53-5.87-3.78-8.81-.97-2.29-1.91-4.59-2.86-6.89-.03-.08-.05-.16-.09-.23-.62-1.26-1.25-2.48-1.66-3.87-.8-2.7-2.05-5.26-3.14-7.87-2.2-5.27-4.42-10.54-6.63-15.8-1.67-3.97-3.32-7.95-5.01-11.91-.38-.89-.87-1.72-1.31-2.58-.13.03-.27.06-.4.09-.34,2.32-.69,4.63-1,6.95-.21,1.54-.3,3.1-.56,4.63-.04.26-.74.67-.99.59-2.66-.92-5.4-.99-8.15-.9-.84.03-1.72.24-2.5.57-2.81,1.19-5,3.1-6.19,5.95-.37.88-.47,1.92-.48,2.89-.04,5.33,0,10.67,0,16,0,7.21.01,14.42.04,21.63,0,.99-.19,1.48-1.39,1.46-4.54-.08-9.08-.07-13.62-.02-1.15.01-1.43-.44-1.43-1.48.02-19.13.02-38.26.02-57.38,0-.12,0-.25,0-.37,0-3.35,0-3.33,3.43-3.31,2.75.02,5.5.02,8.25-.02,1.1-.02,1.34.36,1.4,1.5.08,1.6.62,3.17.97,4.75.03.12.11.22.15.34.2.52.41,1.04.61,1.56.38-.45.78-.89,1.13-1.36.95-1.26,1.87-2.56,2.83-3.81.52-.68,1.09-1.31,1.58-1.89Z"/>
  <path class="cls-4" d="m85.5.14c4.97.44,9.38,4.5,9.99,9.37.28,2.29.34,4.62.34,6.93.04,10.44.02,20.88.02,31.32,0,.58-.05,1.16-.07,1.74-.04.05-.04.1,0,.15-.32,7.43-2.1,14.47-5.67,21.01-4.62,8.46-11.08,15.1-19.73,19.45-2.97,1.49-6.02,2.87-9.16,3.93-5.65,1.91-11.57,1.95-17.43,1.62-2.76-.16-5.51-.85-8.2-1.55-2.55-.66-5.18-1.35-7.49-2.55-3.85-2.01-7.74-4.06-10.96-7.08-2.08-1.96-4.23-3.88-6.04-6.06-1.71-2.06-3.1-4.41-4.52-6.69-3.38-5.4-5.04-11.39-6.07-17.63-.56-3.39-.61-6.75-.34-10.15.09-1.16.02-2.33.02-3.5,0-9.29.02-18.58-.04-27.88-.02-2.41.41-4.72,1.45-6.82,1.12-2.26,3.19-3.71,5.46-4.63C8.61.46,10.39.05,12.07.04,35.94-.02,59.81,0,83.68.01c.54,0,1.08.06,1.62.1,0,0,.09.06.09.06l.1-.03ZM7.99,31.18h.02c0,6.33-.02,12.67.01,19,0,1.12.14,2.24.31,3.34.8,5.23,2.44,10.17,5.18,14.72,2.92,4.86,6.63,8.98,11.21,12.34,3.62,2.65,7.67,4.29,11.87,5.73,3,1.02,6.07,1.58,9.2,1.59,2.87.01,5.8,0,8.61-.51,3.19-.57,6.34-1.53,9.38-2.64,2.04-.74,3.93-1.94,5.78-3.12,3.41-2.18,6.51-4.76,9.04-7.95.4-.5.65-1.31.59-1.95-.38-4.23-1.31-8.36-2.76-12.35-3.79-10.45-10-19.42-17.41-27.55-2.95-3.24-6.34-6.11-9.75-8.89-5.36-4.36-11.16-8.07-17.56-10.76-6.21-2.62-12.58-4.39-19.42-4.31-2.76.03-4.38,1.88-4.34,4.43.11,6.29.04,12.58.04,18.87Zm77.54,30.66c.38-1.1.69-1.93.95-2.79,1.27-4.24,1.55-8.59,1.54-12.99-.04-11.46,0-22.92-.02-34.37,0-1.61-.77-3.14-2.25-3.36-2.5-.36-5.09-.19-7.64-.13-.75.02-1.66.21-2.22.66-2.25,1.81-4.73,3.37-6.35,5.91-1.61,2.52-3.33,4.96-3.83,8.01-.11.69-.19,1.45-.54,2.02-.68,1.12-.2,2.01.43,2.8,2.3,2.88,4.75,5.64,6.98,8.57,4.01,5.24,7.25,10.95,9.79,17.04,1.13,2.71,2.03,5.51,3.16,8.63Zm-27.23-41.43c1.3-4.71,3.51-8.69,6.68-12.36h-23.59c6.09,3.33,11.33,7.72,16.91,12.36Z"/>
  <path class="cls-1" d="m158.57,60.91c0,2,0,3.82,0,5.65,0,7.63-.01,15.25.04,22.88,0,1.21-.34,1.53-1.55,1.51-4.67-.08-9.33-.03-14-.04-.57,0-1.14-.07-1.65-.1,0-9.55,0-18.96,0-28.36,0-18.92,0-37.83-.06-56.75,0-1.35.52-1.66,1.69-1.79,3.3-.35,6.58-.93,9.89-1.18,4.25-.31,8.52-.46,12.78-.53,5.73-.1,11.43.44,16.96,1.93,9.17,2.46,15.43,8.18,18.31,17.3,1.38,4.36,1.39,8.85,1.07,13.42-.42,5.99-2.61,11.13-6.31,15.71-3.49,4.34-8.18,6.93-13.42,8.42-1.13.32-2.15,1-3.34,1.08-.66.04-1.32.04-1.98.05-.14,0-.37-.07-.4-.01-.65,1.08-1.81.74-2.67.79-3.81.21-7.63.25-11.45.29-1.27.01-2.54-.17-3.92-.26Zm0-15.52c.79.3,1.47.72,2.17.78,4.93.4,9.84.31,14.61-1.21,4.03-1.28,6.79-3.92,8.02-8.01.82-2.72.97-5.48.71-8.36-.44-4.79-3.12-7.8-7.1-9.88-2.51-1.31-5.33-1.65-8.11-1.74-2.98-.11-5.97.14-8.96.21-.95.02-1.37.35-1.37,1.4.04,8.96.02,17.91.02,26.8Z"/>
  <path class="cls-1" d="m252.52,75.15c1.82,3.36,3.63,6.7,5.52,10.19-.6.45-1.15.94-1.77,1.32-4.67,2.85-9.74,4.81-15.15,5.46-3.97.48-8.08.68-12.05.25-10.32-1.12-17.65-6.38-21.33-16.39-1.37-3.73-2.31-7.49-2.48-11.44-.13-2.85-.4-5.73-.21-8.57.35-5.2,1.27-10.31,3.67-15.04,3.57-7.02,9.14-11.43,16.84-13.27,3.95-.94,7.93-1.2,11.92-.92,5.14.35,10.16,1.41,14.28,4.81,4.02,3.32,6.74,7.52,7.47,12.76.43,3.13.71,6.31.73,9.46.01,2.62-.47,5.23-.73,7.85-.02.22-.07.45-.02.66.25,1.09-.36,1.42-1.28,1.43-1,.02-2-.01-3-.01-10.37,0-20.75,0-31.12,0-.5,0-1,.03-1.5.03-.88,0-1.01.3-.92,1.22.21,2.3.73,4.46,1.54,6.65,1.61,4.34,4.79,6.68,9.09,7.56,6.86,1.41,13.31.13,19.33-3.42.34-.2.7-.36,1.18-.6Zm-30.38-21.56h.02c4.66-.01,9.33-.03,13.99-.02,2.54,0,5.08.06,7.62.02.42,0,1.18-.39,1.19-.62.13-3.06-.04-6.1-1.63-8.85-2.59-4.49-6.77-4.93-11.16-4.3-6.02.88-10.64,7.07-10.4,13.2,0,.2.24.38.37.57Z"/>
  <path class="cls-1" d="m286.14,37.14c1.03-1.67,1.87-3.17,2.85-4.57.57-.81,1.37-1.45,2.08-2.16,1.94-1.96,4.46-3.04,7.04-3.29,2.59-.25,5.29.22,7.91.63,2.24.36,2.29.85,1.74,3.76-.52,2.77-.82,5.57-1.22,8.36-.17,1.17-.34,2.33-.53,3.62-.5-.08-.93-.05-1.26-.21-1.98-.94-4.09-.82-6.19-.84-3.19-.03-5.94,1.01-8.12,3.39-1.7,1.85-2.72,3.89-2.7,6.55.09,12.33.02,24.66.07,36.99,0,1.3-.38,1.59-1.62,1.57-4.41-.08-8.83-.06-13.24,0-1.06.01-1.44-.24-1.43-1.39.04-19.29.04-38.57.06-57.86,0-1.1-.27-2.56.3-3.17.5-.54,2.03-.13,3.1-.14,2.67,0,5.33,0,8,0,.78,0,1.22.06,1.4,1.08.44,2.51,1.14,4.98,1.79,7.68Z"/>
  <path class="cls-3" d="m95.78,49.64c-.04-.05-.03-.1,0-.15.07.03.14.06.21.09-.07.02-.15.04-.22.06Z"/>
  <path class="cls-3" d="m85.5.14l-.1.03s-.09-.06-.09-.06c.07,0,.13.02.2.02Z"/>
  <path class="cls-3" d="m7.99,31.18c0-6.29.08-12.58-.04-18.87-.05-2.55,1.58-4.4,4.34-4.43,6.84-.08,13.21,1.69,19.42,4.31,6.4,2.7,12.21,6.4,17.56,10.76,3.41,2.78,6.8,5.65,9.75,8.89,7.41,8.13,13.61,17.1,17.41,27.55,1.45,3.99,2.38,8.12,2.76,12.35.06.63-.19,1.45-.59,1.95-2.53,3.18-5.63,5.77-9.04,7.95-1.84,1.18-3.74,2.37-5.78,3.12-3.05,1.11-6.2,2.07-9.38,2.64-2.81.5-5.73.52-8.61.51-3.13-.01-6.2-.57-9.2-1.59-4.2-1.43-8.25-3.08-11.87-5.73-4.59-3.36-8.29-7.48-11.21-12.34-2.74-4.55-4.38-9.49-5.18-14.72-.17-1.1-.3-2.23-.31-3.34-.03-6.33-.01-12.67-.01-19h-.02Z"/>
  <path class="cls-3" d="m85.53,61.84c-1.14-3.12-2.03-5.93-3.16-8.63-2.54-6.09-5.78-11.8-9.79-17.04-2.24-2.93-4.68-5.69-6.98-8.57-.63-.79-1.11-1.68-.43-2.8.35-.57.43-1.33.54-2.02.5-3.05,2.22-5.48,3.83-8.01,1.62-2.54,4.09-4.1,6.35-5.91.56-.45,1.47-.64,2.22-.66,2.55-.06,5.14-.23,7.64.13,1.49.21,2.25,1.74,2.25,3.36,0,11.46-.02,22.92.02,34.37.01,4.4-.27,8.75-1.54,12.99-.26.86-.57,1.69-.95,2.79Z"/>
  <path class="cls-3" d="m58.3,20.41c-5.58-4.64-10.82-9.03-16.91-12.36h23.59c-3.17,3.67-5.37,7.65-6.68,12.36Z"/>
  <polygon class="cls-3" points="222.14 53.59 222.15 53.54 222.16 53.58 222.14 53.59"/>
</svg>