<?xml version="1.0" encoding="UTF-8"?>
<svg id="Layer_1" data-name="Layer 1" xmlns="http://www.w3.org/2000/svg" viewBox="0 0 412.33 116.31">
  <defs>
    <style>
      .cls-1 {
        fill: #fff;
      }
    </style>
  </defs>
  <path class="cls-1" d="m351.3,30.68c.12-.03.25-.06.37-.09.2.34.43.66.58,1.02,1.59,3.8,3.17,7.6,4.75,11.4,4.31,10.37,8.62,20.74,12.94,31.1,2.13,5.1,4.32,10.18,6.44,15.29.26.62.46,1.41.3,2.02-.45,1.68-1,3.35-1.69,4.94-.92,2.13-2.51,3.71-4.57,4.8-1.32.7-2.7,1.07-4.21.77-.88-.18-1.77-.32-2.75-.5-.13.5-.26.93-.36,1.36-.78,3.4-1.55,6.81-2.34,10.21-.28,1.21-.27,1.29.88,1.75,2.74,1.11,5.62,1.46,8.55,1.54,3.22.09,6.04-.91,8.58-2.86,2.62-2.02,4.65-4.5,6.2-7.42,1.52-2.87,2.83-5.83,3.91-8.9,1.27-3.61,2.77-7.13,4.01-10.75,2.95-8.61,5.79-17.27,8.7-25.89,3.5-10.36,7.02-20.71,10.53-31.06.1-.29.13-.61.21-1.03h-16.47c-.12.39-.24.74-.34,1.09-2.51,9.27-5.03,18.54-7.54,27.81-.8,2.97-1.7,5.91-2.04,8.99-.21,1.9-.58,3.78-.92,5.66-.1.54-.14,1.19-1.03,1.45-.17-.49-.39-.96-.51-1.45-.88-3.59-1.53-7.26-2.63-10.78-2.88-9.2-5.96-18.34-8.96-27.51-.58-1.77-1.18-3.53-1.77-5.28-.38-.03-.62-.06-.87-.06-4.42,0-8.83-.02-13.25.03-2.43.03-4.78-.2-7.15-.83-4.16-1.11-8.27-.88-12.08,1.36-2.66,1.56-4.55,3.86-5.98,6.56-.24.45-.54.87-.97,1.55-.28-.69-.51-1.08-.6-1.5-.38-1.75-.71-3.5-1.08-5.25-.14-.63-.36-1.25-.52-1.78h-12.59v4.47c0,17.79,0,35.59,0,53.38,0,1.12.05,2.25,0,3.37-.03.78.33,1.05,1.04,1.05.25,0,.5,0,.75,0,4.5,0,9,.01,13.5.01.24,0,.48-.05.82-.08.05-.49.14-.93.14-1.37,0-12.29-.03-24.59-.03-36.88,0-4.89,3.84-9.31,8.68-10.12,2.09-.35,4.15-.29,6.2.19,1.07.25,2.14.54,3.38.86.6-4.3,1.18-8.47,1.76-12.64ZM47.77.02h0C35.81,0,23.85.02,11.89,0c-3.63,0-6.65,1.29-9.04,4.03C.92,6.26,0,8.84,0,11.81c.03,11.75.02,23.5.01,35.25,0,2.54.07,5.06.47,7.59,1.04,6.44,3.17,12.43,6.57,18.03,5,8.24,11.93,14.27,20.56,18.38,5.03,2.4,10.36,3.77,15.94,4.29,3.39.31,6.76.22,10.1-.17,6.05-.7,11.74-2.67,17.09-5.6,8.54-4.67,15.04-11.33,19.49-19.99,3.63-7.06,5.36-14.56,5.25-22.49-.02-1.37,0-2.75,0-4.13,0-10.29-.02-20.59.02-30.88,0-2.63-.59-5.05-2.13-7.17C90.91,1.56,87.59-.02,83.39,0c-11.87.06-23.75.02-35.62.02Zm110.47,60.9c.28-.16.36-.23.43-.23.25,0,.5.02.75.04,4.57.39,9.15.47,13.72.05,5.15-.48,10.05-1.87,14.64-4.27,7.12-3.72,11.41-9.7,13.35-17.37,1.27-5.03,1.23-10.17.25-15.25-.97-5.03-3.3-9.45-6.88-13.08-3.3-3.34-7.37-5.54-11.93-6.74-6.29-1.66-12.71-2.13-19.18-2.04-5.88.08-11.72.6-17.55,1.34-1.51.19-3.01.48-4.55.73-.03.56-.06.97-.06,1.38,0,16.08.02,32.16,0,48.24-.01,12.04-.06,24.08-.1,36.11,0,.51.21.79.7.84.29.03.58.03.87.03,4.79,0,9.58,0,14.37,0,.32,0,.64-.04,1.17-.08v-29.72Zm62.74,2.75c.68-.06,1.17-.13,1.66-.13,1.71-.02,3.42-.01,5.12-.01,9.83,0,19.67,0,29.5,0,1.27,0,1.31,0,1.48-1.28.22-1.56.39-3.14.59-4.7.59-4.62.67-9.23-.4-13.79-1.79-7.65-6.18-13.15-13.78-15.61-7.34-2.37-14.77-2.21-22.1.16-5.99,1.93-10.61,5.65-13.76,11.11-2.26,3.92-3.44,8.2-3.97,12.66-.57,4.77-.58,9.55-.05,14.34.68,6.16,2.67,11.82,6.37,16.84,1.63,2.22,3.58,4.08,6,5.38,3.78,2.03,7.83,3.3,12.11,3.61,7.32.54,14.48-.15,21.25-3.24,2.04-.93,3.96-2.1,5.93-3.17.63-.34.69-.77.33-1.44-1.49-2.79-2.92-5.61-4.38-8.42-.18-.35-.4-.69-.63-1.08-.28.17-.46.28-.63.39-6.02,3.94-12.61,4.99-19.6,3.78-2.58-.45-4.99-1.43-6.82-3.38-3.11-3.32-3.88-7.5-4.22-12.02Zm62.84-35.35c-.49,0-.94,0-1.39,0-3.29,0-6.58-.01-9.87-.03-1.18,0-1.24.05-1.24,1.27,0,10.83.01,21.66.02,32.49,0,9.08,0,18.16,0,27.24,0,1.4.02,1.44,1.47,1.44,4.41,0,8.83,0,13.24,0,1.38,0,1.44-.06,1.44-1.5-.01-12.66-.02-25.32,0-37.98,0-.65.09-1.35.34-1.95,1.42-3.42,3.88-5.76,7.48-6.8,2.94-.85,5.85-.48,8.73.37.51.15,1.01.29,1.49.43.54-1.06,2.27-14.08,2.03-15.11-.2-.09-.42-.22-.66-.28-1.05-.25-2.1-.52-3.16-.73-7.14-1.4-13.41,1.66-16.73,8.16-.26.5-.56.97-.84,1.46-.11,0-.21-.02-.32-.03-.87-2.7-1.15-5.55-2.01-8.47Z"/>
  <path d="m351.3,30.68c-.58,4.17-1.16,8.34-1.76,12.64-1.24-.32-2.31-.6-3.38-.86-2.05-.48-4.11-.54-6.2-.19-4.84.81-8.68,5.23-8.68,10.12,0,12.29.02,24.59.03,36.88,0,.44-.09.88-.14,1.37-.34.04-.58.08-.82.08-4.5,0-9,0-13.5-.01-.25,0-.5,0-.75,0-.71,0-1.07-.27-1.04-1.05.04-1.12,0-2.25,0-3.37,0-17.79,0-35.59,0-53.38v-4.47h12.59c.16.54.38,1.15.52,1.78.38,1.75.7,3.51,1.08,5.25.09.42.32.81.6,1.5.43-.68.73-1.1.97-1.55,1.43-2.7,3.32-5,5.98-6.56,3.81-2.24,7.92-2.47,12.08-1.36,2.37.63,4.72.86,7.15.83,4.42-.05,8.83-.03,13.25-.03.24,0,.49.03.87.06.59,1.75,1.19,3.51,1.77,5.28,3,9.16,6.08,18.31,8.96,27.51,1.1,3.52,1.76,7.18,2.63,10.78.12.49.33.96.51,1.45.89-.26.93-.9,1.03-1.45.34-1.88.7-3.76.92-5.66.35-3.08,1.24-6.02,2.04-8.99,2.51-9.27,5.02-18.54,7.54-27.81.1-.36.22-.71.34-1.09h16.47c-.08.42-.11.74-.21,1.03-3.51,10.36-7.03,20.7-10.53,31.06-2.91,8.63-5.75,17.28-8.7,25.89-1.24,3.62-2.74,7.14-4.01,10.75-1.08,3.07-2.38,6.03-3.91,8.9-1.55,2.91-3.58,5.4-6.2,7.42-2.54,1.95-5.36,2.95-8.58,2.86-2.93-.08-5.81-.43-8.55-1.54-1.15-.47-1.16-.54-.88-1.75.79-3.4,1.56-6.81,2.34-10.21.1-.44.23-.86.36-1.36.98.18,1.87.32,2.75.5,1.51.3,2.89-.07,4.21-.77,2.06-1.09,3.64-2.67,4.57-4.8.69-1.59,1.25-3.26,1.69-4.94.16-.61-.04-1.41-.3-2.02-2.12-5.11-4.31-10.19-6.44-15.29-4.33-10.36-8.63-20.73-12.94-31.1-1.58-3.8-3.16-7.6-4.75-11.4-.15-.36-.39-.68-.58-1.02-.12.03-.25.06-.37.09Z"/>
  <path d="m47.77.02C59.64.02,71.52.06,83.39,0c4.2-.02,7.52,1.56,9.97,4.93,1.54,2.12,2.14,4.54,2.13,7.17-.04,10.29-.02,20.58-.02,30.88,0,1.38-.01,2.75,0,4.13.11,7.93-1.63,15.43-5.25,22.49-4.45,8.67-10.95,15.32-19.49,19.99-5.35,2.92-11.03,4.9-17.09,5.6-3.34.39-6.71.48-10.1.17-5.57-.51-10.91-1.89-15.94-4.29-8.63-4.11-15.55-10.14-20.56-18.38-3.4-5.6-5.54-11.59-6.57-18.03C.08,52.12.01,49.6.01,47.06.02,35.31.03,23.56,0,11.81c0-2.97.92-5.55,2.86-7.78C5.24,1.29,8.26,0,11.89,0c11.96.02,23.92,0,35.87,0h0ZM7.82,30.49c0,5.54,0,11.08,0,16.63,0,5.13.81,10.11,2.66,14.91,2.95,7.66,7.8,13.81,14.51,18.49,5.39,3.77,11.35,6.09,17.91,6.78,4.37.46,8.73.45,13.04-.48,8.27-1.78,15.24-5.82,21.1-11.93,1.4-1.45,1.85-2.93,1.59-4.83-.76-5.66-2.41-11.06-4.84-16.21-3.61-7.67-8.38-14.59-14.1-20.83-6.11-6.67-12.94-12.49-20.79-17.06-5.69-3.31-11.67-5.88-18.14-7.24-2.98-.63-6-.94-9.05-.85-1.04.03-1.95.34-2.72,1.06-.93.87-1.18,1.96-1.18,3.17.01,6.13,0,12.25,0,18.38Zm77.4,30.72c.21-.46.36-.74.45-1.04,1.2-3.79,1.94-7.67,1.96-11.65.05-9.71.02-19.41.02-29.12,0-2.54.02-5.08,0-7.62-.03-2.29-1.57-3.82-3.85-3.89-.83-.02-1.67.02-2.5-.02-2.94-.13-5.49.92-7.75,2.67-4.85,3.76-7.5,8.81-8.44,14.81-.14.91.04,1.67.69,2.4,3.52,3.95,6.8,8.1,9.67,12.56,4,6.23,7.3,12.79,9.37,19.94.08.26.21.51.39.96ZM41.6,7.94c5.75,3.47,11.13,7.39,16.4,12.02,1.33-4.56,3.46-8.41,6.47-12.02h-22.87Z"/>
  <path d="m158.24,60.92v29.72c-.53.04-.85.08-1.17.08-4.79,0-9.58,0-14.37,0-.29,0-.58,0-.87-.03-.5-.05-.71-.34-.7-.84.04-12.04.09-24.08.1-36.11.01-16.08,0-32.16,0-48.24,0-.41.03-.82.06-1.38,1.54-.25,3.04-.54,4.55-.73,5.83-.73,11.67-1.25,17.55-1.34,6.47-.09,12.9.38,19.18,2.04,4.56,1.2,8.63,3.4,11.93,6.74,3.58,3.62,5.91,8.05,6.88,13.08.98,5.08,1.01,10.22-.25,15.25-1.93,7.67-6.22,13.64-13.35,17.37-4.59,2.4-9.48,3.79-14.64,4.27-4.57.43-9.15.34-13.72-.05-.25-.02-.5-.04-.75-.04-.07,0-.14.07-.43.23Zm0-29.38h0c0,4.33,0,8.66,0,13,0,1.18.09,1.32,1.33,1.48,4.75.58,9.48.42,14.14-.69,6.08-1.44,9.44-5.73,10.12-11.14.18-1.4.21-2.82.21-4.23.01-5.25-2.89-9.62-7.71-11.65-2.85-1.2-5.85-1.61-8.91-1.59-2.62.02-5.24.19-7.86.34-1.15.06-1.32.29-1.32,1.49,0,4.33,0,8.66,0,13Z"/>
  <path d="m220.98,63.67c.34,4.52,1.11,8.69,4.22,12.02,1.83,1.96,4.24,2.94,6.82,3.38,7,1.21,13.59.15,19.6-3.78.17-.11.35-.21.63-.39.22.38.44.72.63,1.08,1.46,2.81,2.88,5.63,4.38,8.42.36.67.3,1.1-.33,1.44-1.97,1.07-3.9,2.24-5.93,3.17-6.76,3.09-13.93,3.78-21.25,3.24-4.29-.31-8.33-1.58-12.11-3.61-2.41-1.3-4.37-3.16-6-5.38-3.69-5.03-5.69-10.68-6.37-16.84-.53-4.78-.53-9.57.05-14.34.54-4.45,1.71-8.74,3.97-12.66,3.16-5.47,7.77-9.18,13.76-11.11,7.34-2.37,14.76-2.53,22.1-.16,7.61,2.46,11.99,7.96,13.78,15.61,1.07,4.55.99,9.17.4,13.79-.2,1.57-.37,3.14-.59,4.7-.18,1.28-.21,1.28-1.48,1.28-9.83,0-19.67,0-29.5,0-1.71,0-3.42,0-5.12.01-.49,0-.98.07-1.66.13Zm23.82-10.46c.13-3.21.03-6.41-1.71-9.35-1.28-2.16-3.12-3.59-5.55-4.09-1.37-.28-2.81-.32-4.21-.27-4.9.18-8.27,2.66-10.26,7.08-.29.64-.56,1.3-.74,1.98-.41,1.55-.82,3.11-.86,4.7,1.24.39,22.35.35,23.33-.05Z"/>
  <path d="m283.82,28.32c.87,2.92,1.15,5.77,2.01,8.47.11,0,.21.02.32.03.28-.49.59-.96.84-1.46,3.33-6.49,9.59-9.55,16.73-8.16,1.06.21,2.11.47,3.16.73.24.06.46.19.66.28.23,1.03-1.5,14.04-2.03,15.11-.48-.14-.99-.29-1.49-.43-2.88-.85-5.79-1.22-8.73-.37-3.6,1.03-6.06,3.37-7.48,6.8-.25.6-.34,1.3-.34,1.95-.01,12.66,0,25.32,0,37.98,0,1.44-.05,1.5-1.44,1.5-4.41,0-8.83,0-13.24,0-1.46,0-1.48-.03-1.47-1.44.01-9.08,0-18.16,0-27.24,0-10.83,0-21.66-.02-32.49,0-1.22.06-1.28,1.24-1.27,3.29.01,6.58.02,9.87.03.45,0,.9,0,1.39,0Z"/>
  <path class="cls-1" d="m7.82,30.49c0-6.13,0-12.25,0-18.38,0-1.21.25-2.3,1.18-3.17.77-.72,1.68-1.03,2.72-1.06,3.05-.09,6.07.23,9.05.85,6.47,1.36,12.45,3.93,18.14,7.24,7.85,4.57,14.68,10.39,20.79,17.06,5.72,6.24,10.49,13.15,14.1,20.83,2.43,5.15,4.08,10.55,4.84,16.21.26,1.9-.2,3.37-1.59,4.83-5.86,6.1-12.83,10.15-21.1,11.93-4.32.93-8.68.94-13.04.48-6.56-.69-12.52-3.02-17.91-6.78-6.71-4.68-11.57-10.83-14.51-18.49-1.85-4.81-2.65-9.79-2.66-14.91,0-5.54,0-11.08,0-16.63Z"/>
  <path class="cls-1" d="m85.22,61.2c-.18-.44-.31-.69-.39-.96-2.06-7.14-5.36-13.7-9.37-19.94-2.87-4.46-6.14-8.61-9.67-12.56-.66-.73-.84-1.49-.69-2.4.94-6,3.59-11.06,8.44-14.81,2.26-1.75,4.81-2.79,7.75-2.67.83.04,1.67,0,2.5.02,2.29.07,3.83,1.6,3.85,3.89.03,2.54,0,5.08,0,7.62,0,9.71.03,19.41-.02,29.12-.02,3.98-.77,7.86-1.96,11.65-.09.3-.25.57-.45,1.04Z"/>
  <path class="cls-1" d="m41.6,7.94h22.87c-3.01,3.61-5.14,7.46-6.47,12.02-5.27-4.63-10.64-8.55-16.4-12.02Z"/>
  <path class="cls-1" d="m158.23,31.54c0-4.33,0-8.66,0-13,0-1.2.17-1.43,1.32-1.49,2.62-.14,5.24-.32,7.86-.34,3.05-.02,6.06.39,8.91,1.59,4.82,2.03,7.73,6.4,7.71,11.65,0,1.41-.04,2.83-.21,4.23-.68,5.41-4.04,9.69-10.12,11.14-4.66,1.11-9.39,1.26-14.14.69-1.24-.15-1.33-.29-1.33-1.48,0-4.33,0-8.66,0-13h0Z"/>
  <path class="cls-1" d="m244.79,53.21c-.99.4-22.1.44-23.33.05.04-1.59.45-3.15.86-4.7.18-.68.45-1.34.74-1.98,1.99-4.42,5.36-6.9,10.26-7.08,1.4-.05,2.84-.01,4.21.27,2.43.5,4.27,1.93,5.55,4.09,1.74,2.94,1.84,6.13,1.71,9.35Z"/>
</svg>