<?xml version="1.0" encoding="UTF-8"?>
<svg width="70px" height="48px" viewBox="0 0 70 48" version="1.1" xmlns="http://www.w3.org/2000/svg" xmlns:xlink="http://www.w3.org/1999/xlink">
    <!-- Generator: sketchtool 58 (101010) - https://sketch.com -->
    <title>4703ed06-009c-4e1b-862b-e8671dff0c40@1.00x</title>
    <desc>Created with sketchtool.</desc>
    <g id="Icons" stroke="none" stroke-width="1" fill="none" fill-rule="evenodd">
        <g id="big-logo-shopify" fill-rule="nonzero">
            <g id="big-Shopify-logo" transform="translate(14.000000, 0.000000)">
                <path d="M36.9510301,9.35264765 C36.9178397,9.11156288 36.7066428,8.97814062 36.5321041,8.96344436 C36.3578955,8.94891322 32.6709498,8.67562877 32.6709498,8.67562877 C32.6709498,8.67562877 30.1103323,6.13350542 29.8292869,5.85212977 C29.5480763,5.57091924 28.9988654,5.6564548 28.785687,5.71920289 C28.754313,5.72844998 28.2262382,5.89142989 27.3527188,6.16174207 C26.4973632,3.70036561 24.9877762,1.43846203 22.3320458,1.43846203 C22.2587296,1.43846203 22.1832668,1.44143431 22.1078039,1.4457276 C21.3525151,0.446877059 20.416908,0.0129244677 19.6087786,0.0129244677 C13.4223122,0.0129244677 10.4667119,7.74662676 9.5400217,11.6766388 C7.13610928,12.4215247 5.42837043,12.9510856 5.21023825,13.0196131 C3.86841985,13.4405207 3.82598232,13.4827931 3.64979229,14.7471671 C3.51719566,15.7044058 0.00627480916,42.8560004 0.00627480916,42.8560004 L27.3641125,47.981859 L42.1875235,44.7751012 C42.1875235,44.7751012 36.9838903,9.59373242 36.9511953,9.35264765 L36.9510301,9.35264765 Z M25.8406549,6.62938047 L23.5257457,7.3458646 C23.5265713,7.18271957 23.5273969,7.02221655 23.5273969,6.84668702 C23.5273969,5.3169546 23.3150442,4.08527561 22.9743881,3.10888228 C24.3427919,3.2806139 25.2541254,4.83759221 25.8406549,6.62938047 Z M21.2768871,3.41221977 C21.6573387,4.36549538 21.9046983,5.7335689 21.9046983,7.57968381 C21.9046983,7.6741362 21.9038726,7.76049739 21.903047,7.84784934 C20.3975882,8.31416673 18.7616794,8.82044476 17.1221378,9.32837405 C18.0427184,5.77551105 19.7682909,4.05951587 21.2768871,3.41221977 Z M19.4388634,1.67228124 C19.705873,1.67228124 19.9748642,1.76293572 20.2322965,1.94011651 C18.2496219,2.87308156 16.1244431,5.22283246 15.2269803,9.91523383 L11.4478939,11.0856509 C12.4990896,7.50653274 14.9951426,1.67228124 19.4386983,1.67228124 L19.4388634,1.67228124 Z" id="Shape" fill="#95BF46"></path>
                <path d="M36.5321041,8.96344436 C36.3578955,8.94891322 32.6709498,8.67562877 32.6709498,8.67562877 C32.6709498,8.67562877 30.1103323,6.13350542 29.8292869,5.85212977 C29.7241012,5.74743953 29.5822575,5.6937734 29.4339739,5.67065569 L27.3654335,47.9815287 L42.1875235,44.7751012 C42.1875235,44.7751012 36.9837252,9.59373242 36.9510301,9.35264765 C36.9178397,9.11156288 36.7066428,8.97814062 36.5321041,8.96344436" id="Path" fill="#5E8E3E"></path>
                <path d="M22.3320458,17.1540518 L20.5042599,22.5910088 C20.5042599,22.5910088 18.9028626,21.7363138 16.9398381,21.7363138 C14.0620125,21.7363138 13.9171965,23.5423029 13.9171965,23.9973917 C13.9171965,26.4805649 20.3901575,27.4320241 20.3901575,33.2484419 C20.3901575,37.8245942 17.487728,40.7712776 13.5742286,40.7712776 C8.87802933,40.7712776 6.47642869,37.8485376 6.47642869,37.8485376 L7.73386742,33.6939534 C7.73386742,33.6939534 10.2025094,35.8133528 12.285581,35.8133528 C13.6467192,35.8133528 14.2003885,34.7416814 14.2003885,33.9586513 C14.2003885,30.7195287 8.88991844,30.575043 8.88991844,25.2525187 C8.88991844,20.7728003 12.1052628,16.4377328 18.5957272,16.4377328 C21.0965689,16.4377328 22.3320458,17.1540518 22.3320458,17.1540518" id="Path" fill="#FFFFFF"></path>
            </g>
        </g>
    </g>
</svg>