<?xml version="1.0" encoding="UTF-8"?>
<svg id="Layer_1" data-name="Layer 1" xmlns="http://www.w3.org/2000/svg" viewBox="0 0 152.89 48.92">
  <defs>
    <style>
      .cls-1 {
        fill: #fff;
      }
    </style>
  </defs>
  <path class="cls-1" d="m83.21,37.09c-.31-.56-.59-1.11-.9-1.64-.32-.54-.78-.96-1.38-1.19-.32-.12-.64-.24-.97-.33-1.35-.36-2.67-.28-3.92.38-.8.42-1.45,1.02-2.01,1.71-.09.11-.17.24-.28.33-.07.05-.2.07-.28.04-.05-.02-.09-.15-.09-.23.02-.18.08-.36.1-.54.05-.36.11-.73.11-1.1s-.18-.57-.61-.57c-.93.02-1.86,0-2.8,0-.22,0-.44,0-.65.03-.42.06-.43.07-.42.48.02,1.65.04,3.3.06,4.95,0,1.29.01,2.58,0,3.88-.01,1.64-.04,3.28-.06,4.92,0,.36.08.46.42.46,1.2.03,2.4.05,3.6.07.27,0,.41-.1.46-.37.04-.25.05-.51.05-.76,0-.24-.03-.47-.03-.71,0-.94-.02-1.89,0-2.83.01-.95.02-1.91.08-2.86.03-.47.11-.94.25-1.39.42-1.4,1.37-2.07,2.75-1.99.95.06,1.74.66,1.98,1.52.25.89.39,1.8.39,2.73,0,2.05,0,4.1,0,6.15v.41c.24.02.45.06.65.06,1.03.01,2.05-.02,3.08.03.59.02.75-.03.82-.74.01-.15,0-.31-.01-.46,0-.19-.03-.39-.03-.58.02-1.73.03-3.46.06-5.2.02-.87.21-1.71.56-2.51.29-.66.74-1.2,1.51-1.33.32-.06.66-.1.98-.07.81.07,1.66.54,1.93,1.49.25.87.39,1.76.4,2.67.01,2.08,0,4.16,0,6.24v.4c.27.02.48.06.7.06,1.09.01,2.17.01,3.26.02.33,0,.48-.11.53-.43.04-.23.04-.47.04-.7,0-.29-.03-.57-.03-.86-.02-2.42-.03-4.84-.07-7.26-.02-1.14-.26-2.25-.75-3.31-.38-.83-.97-1.45-1.74-1.91-.58-.35-1.23-.49-1.89-.55-.81-.07-1.61-.04-2.39.26-1.28.49-2.23,1.36-2.91,2.52-.14.24-.32.42-.56.56ZM39.1,10.62c-.09-.15-.16-.25-.22-.36-.03-.05-.04-.12-.05-.18-.17-1.11-.91-1.79-1.82-2.32-1.29-.76-2.69-.74-4.1-.51-.94.15-1.67.68-2.29,1.37-.17.18-.4.33-.37.63,0,.06-.06.13-.1.19-.08.13-.13.32-.33.27-.2-.04-.15-.25-.16-.39-.03-.49-.04-.98-.06-1.47-.01-.32-.1-.44-.43-.49-.13-.02-.27-.02-.4-.02-.93,0-1.86,0-2.79.01-.18,0-.35.03-.52.05-.16.02-.27.11-.29.28-.02.18-.06.36-.06.55.01,2.31.03,4.61.04,6.92,0,.75-.02,1.5-.03,2.24-.02,1.37-.03,2.75-.04,4.12,0,.1.01.2.03.31.03.17.14.27.31.3.09.02.18.03.28.03,1.17,0,2.34.01,3.51.02.18,0,.3-.08.33-.25.04-.28.1-.57.1-.85,0-.43-.02-.86-.03-1.29,0-.37,0-.74-.02-1.11-.09-1.62-.08-3.24.15-4.85.12-.82.48-1.53,1.14-2.05.81-.64,1.71-.74,2.69-.37.73.28,1.15.76,1.31,1.53.25,1.21.31,2.44.3,3.67,0,.59-.03,1.19-.05,1.78-.02.85-.04,1.7-.06,2.55,0,.24-.02.47,0,.71.03.4.11.47.51.49.14,0,.29.01.43.01.55,0,1.1,0,1.65,0,.48,0,.95.01,1.43.01.29,0,.35-.04.41-.31.05-.24.1-.49.09-.73-.02-.9-.07-1.8-.09-2.7-.03-1.36-.05-2.73.12-4.08.1-.81.35-1.58.88-2.23.52-.64,1.21-.95,2.04-.93.66.01,1.2.35,1.73.69.06.04.12.12.15.19.08.19.15.38.21.58.22.73.36,1.47.4,2.23.11,1.92.03,3.83,0,5.75,0,.01,0,.02,0,.03,0,.33-.03.66-.01.98.03.43.13.51.56.52.84,0,1.68,0,2.52.01.33,0,.66,0,.99,0,.26,0,.31-.03.36-.29.05-.27.1-.55.1-.82,0-.49-.04-.98-.04-1.47,0-1.21.01-2.42,0-3.63-.01-1.14,0-2.28-.08-3.41-.08-1.11-.39-2.18-.87-3.19-.51-1.07-1.32-1.77-2.49-2.04-.41-.1-.83-.17-1.25-.2-1.09-.08-2.15.04-3.13.58-.64.35-1.22.77-1.61,1.41-.3.49-.62.96-.97,1.5ZM4.6,41.3c-.16.01-.29,0-.4.03-.58.15-1.16.32-1.74.47-.64.17-1.28.34-1.92.48-.44.1-.58.19-.54.63.03.39.12.79.24,1.17.58,1.78,1.73,3.09,3.44,3.88.86.4,1.78.67,2.73.81.91.14,1.83.2,2.75.14.75-.05,1.47-.19,2.2-.38,1.14-.28,2.2-.72,3.07-1.54.47-.44.93-.88,1.23-1.45.36-.67.65-1.36.8-2.12.16-.78.18-1.55-.04-2.31-.47-1.63-1.35-2.96-2.95-3.73-.84-.41-1.75-.62-2.66-.82-1.13-.25-2.26-.48-3.39-.74-.56-.13-1.1-.32-1.56-.67-.47-.35-.8-.79-.73-1.41.03-.26.12-.52.21-.77.11-.32.33-.53.65-.65.95-.36,1.91-.58,2.94-.41,1.31.21,2.21.86,2.52,2.2.07.31.21.62.36.91.13.23.21.24.46.16.4-.13.8-.27,1.21-.4.34-.11.69-.2,1.04-.3.4-.12.8-.21,1.19-.36.48-.18.61-.44.43-.91-.27-.69-.53-1.38-.87-2.03-.51-.98-1.28-1.73-2.28-2.24-1.37-.71-2.84-1.01-4.35-1.11-.96-.07-1.92.04-2.87.24-1.51.33-2.89.89-3.97,2.06-.87.94-1.34,2.02-1.41,3.26-.04.62,0,1.25.06,1.87.07.75.3,1.46.73,2.1.87,1.3,2.1,2.1,3.58,2.53.65.19,1.31.38,1.97.54.74.17,1.5.3,2.25.45.68.14,1.35.29,2.03.44.31.07.49.27.62.56.29.67.24,1.34.05,2.01-.08.28-.23.5-.52.6-.2.07-.4.17-.6.24-.98.31-1.97.32-2.98.14-.78-.14-1.44-.5-2.01-1.04-.23-.21-.42-.49-.54-.78-.15-.36-.2-.75-.29-1.13-.05-.2-.08-.4-.14-.64Zm3.22-19.05c1.97,0,3.34-.24,4.65-.76.96-.38,1.87-.86,2.53-1.66,1.33-1.61,1.86-3.42,1.38-5.48-.41-1.75-1.47-2.99-3.13-3.69-1.21-.51-2.5-.8-3.79-1.06-.93-.19-1.85-.42-2.77-.67-.44-.12-.85-.32-1.17-.66-.33-.34-.48-.74-.39-1.21.08-.41.24-.78.47-1.13.04-.07.1-.13.17-.17.41-.25.85-.43,1.32-.5.77-.12,1.53-.03,2.28.14.83.19,1.53.59,1.9,1.39.16.34.26.71.4,1.06.06.16.14.32.23.47.09.16.22.2.42.14.81-.27,1.64-.51,2.45-.77.4-.13.81-.25,1.2-.41.31-.13.36-.26.24-.56-.27-.66-.52-1.32-.83-1.95-.5-1.02-1.25-1.82-2.25-2.39-1.21-.68-2.53-1.01-3.9-1.13-.63-.05-1.26-.02-1.89,0-1.58.02-3.05.41-4.39,1.25-1.12.71-1.92,1.68-2.35,2.93-.34.99-.34,2-.18,3.01.33,2.18,1.54,3.7,3.61,4.51.68.27,1.4.43,2.11.61.92.23,1.85.45,2.79.61.68.11,1.34.26,1.98.5.42.16.68.46.77.89.13.57.09,1.14-.08,1.7-.08.29-.27.51-.56.62-.27.11-.54.22-.81.29-.96.27-1.92.22-2.89.03-1.34-.25-2.19-1-2.48-2.34-.07-.31-.15-.62-.21-.93-.04-.2-.15-.29-.35-.26-.21.03-.43.06-.64.12-.59.18-1.18.38-1.77.55-.5.14-1,.25-1.5.38C.09,15.81,0,15.91,0,16.23c0,.19.01.39.04.58.09.56.36,1.04.6,1.54.6,1.22,1.54,2.1,2.71,2.75,1.56.86,3.26,1.14,4.46,1.16Zm48.13-3.43s.07-.01.11-.02c.13.17.27.33.38.51.32.54.67,1.06,1.11,1.51.47.49,1.03.85,1.68,1.07,1.15.38,2.31.39,3.48.1,1.51-.38,2.64-1.28,3.49-2.5.62-.89.95-1.94,1.18-2.99.26-1.21.21-2.44,0-3.66-.21-1.2-.65-2.31-1.27-3.34-.63-1.06-1.55-1.77-2.76-2.1-.87-.24-1.74-.32-2.64-.26-1.63.12-2.93.8-3.88,2.12-.17.24-.34.48-.51.73-.01-.02-.02-.04-.03-.06-.15.01-.29.03-.46.04.18-.7.16-1.42.08-2.13-.03-.32-.26-.51-.59-.5-.8,0-1.59,0-2.39.01-.35,0-.7,0-1.05.05-.34.04-.41.11-.42.45-.02.51,0,1.02,0,1.53,0,3.78,0,7.56,0,11.35,0,1.93-.03,3.85-.04,5.78,0,.39.13.54.53.55,1.09,0,2.17,0,3.26,0,.16,0,.33-.04.48-.1.26-.09.28-.13.27-.41-.04-2.15-.08-4.3-.12-6.45,0-.26-.01-.51,0-.77.01-.17.06-.33.09-.5Zm44.37,24.24c.09-.19.26-.2.43-.21.63-.01,1.26-.04,1.89-.04.92.01,1.84.08,2.76.07.95,0,1.9-.06,2.85-.09.55-.01,1.1,0,1.65,0,.2,0,.34-.07.38-.24.06-.24.13-.5.12-.75-.07-1.21-.32-2.39-.7-3.54-.75-2.27-2.37-3.64-4.64-4.32-1.21-.36-2.43-.36-3.65-.09-1.99.44-3.59,1.46-4.63,3.23-1.14,1.93-1.53,3.99-1.02,6.18.21.91.52,1.79,1.09,2.56,1.29,1.75,3.1,2.64,5.2,2.99,1.18.2,2.37.06,3.55-.15.93-.16,1.77-.51,2.49-1.11.51-.42,1.01-.86,1.33-1.45.46-.83.24-1.01-.39-1.35-.05-.03-.11-.06-.17-.08-.38-.14-.76-.27-1.13-.43-.29-.13-.58-.27-.84-.45-.18-.12-.33-.16-.51-.05-.14.08-.28.18-.39.29-.3.31-.59.63-.89.94-.19.2-.43.31-.69.4-.45.14-.9.14-1.35.1-1.01-.1-1.85-.5-2.29-1.49-.14-.31-.29-.6-.45-.92Zm-77.38-.09c.2-.04.34-.1.49-.11.98-.03,1.97-.07,2.95-.05,1.09.02,2.17.09,3.26.04.9-.04,1.8-.04,2.7-.06.55-.01.76-.23.76-.77,0-1.45-.34-2.82-.84-4.16-.29-.78-.7-1.51-1.32-2.09-.78-.73-1.7-1.23-2.69-1.61-.77-.29-1.58-.44-2.4-.45-.75,0-1.48.13-2.21.3-.77.18-1.52.45-2.16.91-1.3.94-2.24,2.17-2.75,3.7-.5,1.49-.63,3-.26,4.54.32,1.32.9,2.52,1.84,3.51,1.35,1.41,3.07,2.1,5.01,2.2.76.04,1.53-.03,2.29-.11,1.61-.17,2.97-.87,4.04-2.07.29-.33.53-.71.74-1.09.21-.4.12-.6-.29-.78-.31-.14-.63-.25-.95-.37-.64-.24-1.27-.48-1.91-.71-.09-.03-.2-.03-.3,0-.28.08-.48.27-.63.52-.36.62-.87,1.02-1.6,1.15-.46.08-.91.08-1.36.04-.87-.07-1.49-.52-1.88-1.27-.19-.37-.34-.76-.52-1.18Zm16.24-9.01c-.25-.02-.44-.04-.63-.04-1.1,0-2.2,0-3.29-.02-.17,0-.29.06-.34.21-.05.17-.1.36-.1.53,0,4.06,0,8.12,0,12.18,0,.45,0,.9,0,1.35,0,.34.12.46.45.51.09.01.19.01.28.01.53,0,1.06,0,1.58,0,.6,0,1.2,0,1.8,0,.27,0,.29-.02.32-.3.03-.25.06-.51.06-.76,0-1.45,0-2.89,0-4.34,0-.82,0-1.64.12-2.45.09-.6.18-1.19.44-1.75.18-.4.46-.68.87-.87.8-.38,1.6-.41,2.44-.17.85.24,1.38.81,1.45,1.68.06.74.11,1.49.12,2.24.01,2.06,0,4.12,0,6.18,0,.39.06.46.45.52.06.01.12.02.19.02.9.02,1.8.05,2.7.06.35,0,.7-.04,1.08-.06.03-.32.08-.63.09-.93,0-2.25,0-4.49,0-6.74,0-.84,0-1.68-.13-2.51-.11-.8-.26-1.6-.63-2.33-.57-1.14-1.43-1.95-2.7-2.28-.94-.24-1.89-.26-2.83-.08-1.35.26-2.33,1.01-2.86,2.29-.05.12-.07.26-.11.38-.06.17-.3.34-.42.31-.19-.05-.18-.23-.21-.37-.01-.07-.01-.14-.02-.21-.02-.47-.02-.94-.05-1.41-.02-.29-.09-.58-.13-.84Zm41.35-17.48c.04-.2.21-.29.4-.32.31-.06.63-.12.95-.12,1.75,0,3.5,0,5.25,0,.93,0,1.86.03,2.79.04.34,0,.53-.12.6-.45.04-.18.06-.37.06-.55,0-.31-.05-.61-.04-.92.04-1.15-.29-2.21-.77-3.23-.23-.48-.49-.96-.83-1.36-1.1-1.34-2.51-2.16-4.27-2.39-1.59-.21-3.12-.07-4.6.54-.65.27-1.28.58-1.78,1.1-.92.95-1.6,2.05-2.03,3.31-.38,1.1-.45,2.23-.36,3.37.04.47.11.94.22,1.39.23.9.64,1.73,1.21,2.47.89,1.16,2.01,2.03,3.46,2.43.55.15,1.11.24,1.67.33.36.06.72.11,1.08.09.66-.04,1.32-.1,1.97-.21,1.78-.3,3.22-1.13,4.21-2.66.13-.2.23-.41.33-.63.07-.16.03-.31-.13-.39-.42-.22-.83-.48-1.28-.62-.55-.18-1.06-.4-1.55-.69-.1-.06-.25-.09-.35-.06-.29.09-.53.24-.73.49-.25.33-.52.66-.84.94-.39.34-.89.52-1.4.48-.53-.04-1.06-.19-1.57-.33-.48-.13-.85-.43-1.1-.85-.22-.38-.39-.79-.6-1.19Zm36.54,20.03c0-.14.02-.27.02-.39.01-.57.03-1.15.04-1.72,0-.29-.11-.41-.4-.46-.19-.03-.39-.03-.59-.03-.74.01-1.47.03-2.21.04-.24,0-.48-.02-.71,0-.44.03-.52.1-.51.55,0,.5.04,1,.05,1.51,0,2.11.01,4.22.01,6.34,0,.72,0,1.44-.02,2.15-.03,1.19-.07,2.38-.1,3.57,0,.09,0,.19.03.27.07.3.14.35.45.35.82,0,1.64,0,2.46,0,.3,0,.6.02.9.04.48.03.59-.03.66-.51.04-.26.02-.53.02-.8.03-1.98-.12-3.96.04-5.93.07-.78.25-1.54.55-2.26.29-.68.82-1.09,1.54-1.26.5-.12,1.02-.13,1.51-.04.54.11,1.06.36,1.3.9.17.38.32.79.36,1.2.1,1.07.17,2.14.2,3.22.03,1.01,0,2.03,0,3.04,0,.34-.03.68-.04,1.01,0,.3-.02.6,0,.89.02.38.14.48.52.49.25,0,.5,0,.75,0,.89.01,1.78.03,2.67.05.36,0,.43-.04.52-.39.05-.19.07-.38.08-.58,0-.32-.03-.64-.03-.95,0-2.32-.02-4.63,0-6.95,0-1.34-.33-2.59-.9-3.8-.44-.94-1.16-1.62-2.16-1.97-.44-.15-.89-.28-1.35-.33-1.8-.22-3.36.29-4.58,1.65-.13.15-.22.34-.31.52-.12.23-.22.47-.34.71-.15-.06-.25-.1-.39-.15Zm26.85,6.89c-.13.3-.37.38-.6.45-.2.06-.4.1-.6.15-.71.18-1.43.34-2.13.54-.2.06-.36.22-.53.35-.1.08-.13.21-.06.34.2.37.36.77.6,1.1.77,1.07,1.83,1.76,3.09,2.16,1.32.42,2.66.44,4.02.32,1.22-.11,2.37-.43,3.44-1.04.92-.52,1.52-1.23,1.66-2.27.13-.96.12-1.92-.04-2.88-.12-.76-.48-1.36-1.07-1.85-.53-.44-1.15-.72-1.81-.91-1.02-.3-2.07-.39-3.11-.55-.6-.09-1.2-.22-1.76-.48-.24-.11-.36-.29-.34-.54.02-.24.05-.49.13-.72.05-.15.17-.31.3-.41.49-.36,1.03-.5,1.64-.37.51.1,1.02.14,1.49.39.23.12.37.28.4.54.02.22.05.44.08.68.07,0,.14.03.21.02.48-.08.96-.15,1.43-.25.47-.09.93-.21,1.39-.32.16-.04.32-.07.48-.12.33-.11.42-.28.31-.61-.34-.96-.91-1.76-1.77-2.35-.98-.68-2.11-.94-3.26-1.08-.94-.11-1.88-.1-2.82.05-1.42.23-2.69.72-3.65,1.85-.33.39-.59.82-.72,1.31-.18.64-.21,1.29-.08,1.95.3,1.55,1.12,2.67,2.64,3.28.92.37,1.85.64,2.82.81.64.12,1.28.24,1.92.36.35.07.63.26.85.53.34.42.2,1.14-.28,1.38-.27.13-.55.25-.84.32-.81.21-1.6.15-2.33-.3-.37-.23-.65-.55-.8-.95-.11-.28-.19-.56-.31-.91Zm-14.42-13.78c-.11.16-.25.33-.24.58.02.41.03.82.03,1.23,0,1.68,0,3.36.01,5.04.01,2.4.02,4.8.07,7.19.01.54.1,1.09.26,1.6.41,1.28,1.2,2.28,2.45,2.87.63.3,1.29.44,1.98.46.93.03,1.86.07,2.79.09.46,0,.65-.18.66-.64.01-.88.01-1.76-.01-2.64-.02-.56-.27-.73-.85-.71-.7.02-1.41.02-2.11,0-.56-.01-.74,0-.74-.77,0-.01,0-.02,0-.03,0-1.82,0-3.65,0-5.47,0-.5,0-.51.52-.5,1.04,0,2.07.01,3.11.02.5,0,.5,0,.6-.49,0-.02,0-.04,0-.06.12-1.03.04-2.07-.02-3.1-.01-.24-.14-.35-.4-.39-.17-.02-.35-.03-.53-.03-.8,0-1.59,0-2.39,0-.15,0-.31-.02-.46-.05-.28-.06-.39-.17-.42-.45-.01-.1,0-.2,0-.31,0-1.05,0-2.09,0-3.14,0-.12-.02-.23-.02-.32-.73.03-1.43.08-2.12.08-.7,0-1.4-.03-2.16-.05Zm-78.13,10.55s-.04,0-.06,0c.02,1.29-.03,2.58.06,3.87.14,1.92,1.07,3.37,2.89,4.18.6.27,1.24.39,1.9.41.99.03,1.99.04,2.98.06.33,0,.45-.08.54-.39.03-.1.04-.2.04-.3,0-.79,0-1.58,0-2.37,0-.15,0-.31-.03-.46-.05-.26-.24-.46-.43-.46-.69-.01-1.39-.02-2.08-.04-.32,0-.64-.03-.96-.06-.24-.02-.32-.1-.37-.34-.02-.1-.03-.2-.04-.3-.02-1.49-.05-2.97-.07-4.46,0-.39,0-.78,0-1.17,0-.32.03-.38.34-.42.07,0,.14-.01.22-.01.96-.02,1.92-.03,2.89-.05.18,0,.36-.06.53-.12.18-.07.26-.22.26-.42-.01-.94,0-1.89-.03-2.83,0-.42-.32-.67-.74-.64-.24.02-.48.04-.71.03-.54,0-1.08-.03-1.61-.05-.24,0-.47-.04-.71-.06-.19-.02-.3-.13-.32-.32-.02-.17-.04-.35-.04-.52,0-.83,0-1.66-.02-2.49,0-.18-.03-.37-.08-.54-.06-.21-.15-.25-.37-.22-.16.02-.33.04-.49.04-.57,0-1.14,0-1.71,0-.51,0-1.01.03-1.52.06-.32.02-.38.09-.38.36.02,2.27.03,4.55.06,6.82.01,1.07.05,2.13.08,3.2ZM71.91,1.36c-.65-.03-1.22-.06-1.78-.08-.21,0-.41,0-.62.04-.21.03-.26.12-.24.32.04.49.09.98.1,1.47,0,5.79,0,11.58,0,17.38,0,.19-.02.39-.04.58-.02.25-.06.51-.08.76-.01.24.04.3.28.3.28,0,.56-.02.84-.02.83,0,1.65,0,2.48,0,.28,0,.56,0,.83-.03.29-.03.31-.06.31-.35,0-.51,0-1.03,0-1.54.01-6.18.03-12.36.04-18.54,0-.29-.05-.34-.34-.34-.62.02-1.24.04-1.78.06Zm33.33,12.39h0c-.96,0-1.93,0-2.89,0-.52,0-1.04,0-1.55,0-.3,0-.43.09-.45.36-.06.7-.11,1.41-.12,2.11,0,.74.08,1.47.09,2.21.02.96,0,1.93,0,2.89,0,.23.09.38.29.5.3.17.62.28.97.28.87,0,1.74,0,2.61,0,1.41.01,2.81.03,4.22.05.3,0,.6.02.9,0,.25-.01.5-.04.68-.24.22-.24.36-.5.35-.85-.02-2.09-.01-4.18-.02-6.27,0-.22-.06-.44-.11-.66-.06-.24-.24-.35-.47-.38-.1-.01-.21,0-.31,0-1.4,0-2.8,0-4.19,0Zm-43.09,27.56c0,2.31,0,4.61,0,6.92,0,.39.07.46.47.47.5.02.99.04,1.49.05.66,0,1.32-.06,1.98.02.27.04.48-.13.54-.4.04-.23.05-.47.05-.7,0-.3-.03-.59-.03-.89,0-3.78,0-7.56,0-11.35,0-.35-.02-.7-.06-1.04-.01-.14-.08-.28-.15-.39-.04-.06-.15-.11-.23-.11-1,0-2.01.02-3.01.04-.24,0-.48.02-.71.05-.27.04-.33.12-.34.38,0,.09,0,.18,0,.28,0,2.22,0,4.45,0,6.67ZM18.42,22.12c.15.02.29.05.43.05.81,0,1.62,0,2.42,0,.33,0,.66.01.99.04.31.03.53-.09.61-.39.05-.19.07-.38.07-.58,0-.33-.04-.65-.04-.98,0-3.96,0-7.91,0-11.87,0-.15.02-.31-.01-.46-.05-.18-.13-.36-.23-.52-.03-.05-.14-.09-.21-.09-1.16.02-2.32.04-3.48.07-.52.01-.58.07-.57.59,0,2.99,0,5.98,0,8.98,0,1.63,0,3.26,0,4.89,0,.08.01.16.02.27ZM111.75,7.31c-.23.02-.4.05-.58.04-.67-.03-1.34-.11-2.01-.11-1.31,0-2.63.05-3.94.06-1.36.01-2.71,0-4.07,0-.39,0-.58.16-.68.54-.03.11-.06.22-.06.33,0,1.1,0,2.19-.01,3.29,0,.17.07.29.22.37.35.19.72.31,1.12.32.71.02,1.43.05,2.14.05,2.05,0,4.1-.03,6.15-.06.54,0,1.07-.06,1.57-.3.19-.09.28-.21.28-.42,0-1.12,0-2.23,0-3.35,0-.26-.09-.51-.14-.75Zm-10.08-1.44s0,.02,0,.03c.83-.03,1.66-.03,2.48-.08,1.31-.09,2.52-.51,3.71-1.04.75-.33,1.27-.86,1.68-1.54.26-.43.3-.89.21-1.36-.08-.42-.33-.72-.64-.99-.41-.37-.85-.71-1.42-.77-.77-.08-1.54.05-2.25.34-.98.4-1.75,1.11-2.42,1.92-.27.32-.54.65-.82.96-.18.2-.27.19-.41-.02-.52-.79-1.2-1.43-1.89-2.07-.1-.09-.2-.18-.32-.24-.73-.38-1.44-.8-2.3-.88-.92-.08-1.78-.01-2.48.67-.34.33-.61.72-.66,1.19-.07.68.09,1.33.5,1.89.29.39.57.81,1.04.99.74.29,1.47.62,2.26.75.31.05.61.11.92.14.41.05.82.1,1.23.12.53.02,1.06,0,1.58,0Zm-7.66,12.13c0,1.03,0,2.07,0,3.1,0,.07,0,.14,0,.22,0,.32.13.55.43.68.17.07.34.16.52.18.34.05.68.08,1.02.07.58-.02,1.16-.04,1.73-.13.58-.09.84-.46.83-1.04-.02-2.02-.04-4.03-.07-6.05,0-.26-.07-.53-.15-.78-.14-.4-.3-.49-.72-.49-.97,0-1.94-.02-2.91.12-.53.08-.64.17-.67.71,0,.08,0,.16,0,.25,0,1.05,0,2.11,0,3.16Zm1.54-5.91s0,0,0,0c.24,0,.48,0,.71,0,.45,0,.89,0,1.34,0,.59-.01.87-.29.88-.86,0-.74,0-1.47,0-2.21,0-.36,0-.72-.02-1.08-.02-.39-.26-.62-.65-.63-.55-.02-1.1-.05-1.64-.06-.99-.02-1.99-.03-2.98-.07-.52-.02-.82.27-.81.77.01.62,0,1.25,0,1.87,0,.41,0,.82.05,1.23.08.7.46,1.03,1.18,1.04.64.01,1.28,0,1.93,0ZM23.39,2.79c.03-1.01-.29-1.83-1.23-2.32-.73-.38-1.48-.6-2.3-.38-.94.25-1.68.74-1.88,1.77-.03.14-.05.28-.07.42-.07.71-.01,1.4.46,1.98,1.21,1.48,3.4,1.34,4.57,0,.37-.43.47-.95.44-1.47Zm41.36,23.98c-.7,0-1.27.09-1.82.28-.51.18-.87.51-1.03,1.03-.2.66-.3,1.32-.13,2,.23.96.84,1.59,1.82,1.8.37.08.76.08,1.14.06.41-.02.83-.09,1.18-.33.81-.56,1.27-1.3,1.25-2.33-.03-1.22-.9-2.58-2.41-2.5Z"/>
  <path d="m83.21,37.09c.24-.14.42-.32.56-.56.68-1.16,1.63-2.03,2.91-2.52.77-.3,1.58-.33,2.39-.26.66.06,1.31.2,1.89.55.77.46,1.36,1.08,1.74,1.91.49,1.05.72,2.16.75,3.31.04,2.42.05,4.84.07,7.26,0,.29.03.57.03.86,0,.23,0,.47-.04.7-.05.33-.2.43-.53.43-1.09,0-2.17,0-3.26-.02-.22,0-.43-.04-.7-.06v-.4c0-2.08,0-4.16,0-6.24,0-.9-.15-1.79-.4-2.67-.27-.95-1.12-1.43-1.93-1.49-.32-.03-.66.01-.98.07-.77.14-1.22.67-1.51,1.33-.35.8-.54,1.64-.56,2.51-.03,1.73-.04,3.46-.06,5.2,0,.19.02.39.03.58,0,.15.02.31.01.46-.07.71-.23.76-.82.74-1.02-.04-2.05-.02-3.08-.03-.2,0-.41-.04-.65-.06v-.41c0-2.05,0-4.1,0-6.15,0-.93-.14-1.84-.39-2.73-.24-.86-1.03-1.46-1.98-1.52-1.38-.09-2.33.58-2.75,1.99-.13.45-.22.92-.25,1.39-.06.95-.07,1.91-.08,2.86-.01.94,0,1.89,0,2.83,0,.24.03.47.03.71,0,.25,0,.51-.05.76-.05.26-.19.37-.46.37-1.2-.02-2.4-.04-3.6-.07-.34,0-.43-.11-.42-.46.02-1.64.05-3.28.06-4.92,0-1.29,0-2.58,0-3.88-.01-1.65-.04-3.3-.06-4.95,0-.41,0-.42.42-.48.21-.03.43-.03.65-.03.93,0,1.86.01,2.8,0,.43,0,.61.2.61.57s-.06.73-.11,1.1c-.02.18-.08.36-.1.54,0,.08.03.21.09.23.08.03.21,0,.28-.04.11-.09.19-.22.28-.33.56-.7,1.21-1.3,2.01-1.71,1.25-.66,2.57-.74,3.92-.38.33.09.65.2.97.33.6.23,1.06.64,1.38,1.19.31.53.59,1.07.9,1.64Z"/>
  <path d="m39.1,10.62c.35-.54.67-1.01.97-1.5.39-.64.97-1.06,1.61-1.41.98-.54,2.04-.65,3.13-.58.42.03.84.1,1.25.2,1.17.27,1.98.98,2.49,2.04.48,1.01.79,2.08.87,3.19.08,1.13.07,2.27.08,3.41.01,1.21,0,2.42,0,3.63,0,.49.05.98.04,1.47,0,.27-.05.55-.1.82-.05.26-.1.28-.36.29-.33,0-.66,0-.99,0-.84,0-1.68,0-2.52-.01-.43,0-.53-.09-.56-.52-.02-.33,0-.66.01-.98,0-.01,0-.02,0-.03.03-1.92.11-3.83,0-5.75-.04-.76-.18-1.5-.4-2.23-.06-.2-.13-.39-.21-.58-.03-.07-.08-.15-.15-.19-.53-.35-1.07-.68-1.73-.69-.83-.02-1.52.29-2.04.93-.53.65-.78,1.42-.88,2.23-.17,1.36-.16,2.72-.12,4.08.02.9.07,1.8.09,2.7,0,.24-.04.49-.09.73-.06.28-.12.31-.41.31-.48,0-.95,0-1.43-.01-.55,0-1.1,0-1.65,0-.14,0-.29,0-.43-.01-.4-.03-.48-.09-.51-.49-.02-.23,0-.47,0-.71.02-.85.04-1.7.06-2.55.02-.59.05-1.19.05-1.78,0-1.23-.06-2.45-.3-3.67-.16-.77-.58-1.25-1.31-1.53-.97-.37-1.87-.28-2.69.37-.66.52-1.03,1.23-1.14,2.05-.23,1.61-.24,3.23-.15,4.85.02.37.01.74.02,1.11.01.43.04.86.03,1.29,0,.28-.06.57-.1.85-.03.18-.15.26-.33.25-1.17,0-2.34-.01-3.51-.02-.09,0-.19-.02-.28-.03-.17-.03-.28-.13-.31-.3-.02-.1-.03-.2-.03-.31.01-1.37.03-2.75.04-4.12,0-.75.04-1.5.03-2.24,0-2.31-.03-4.61-.04-6.92,0-.18.04-.36.06-.55.02-.17.13-.25.29-.28.17-.02.35-.05.52-.05.93,0,1.86,0,2.79-.01.13,0,.27,0,.4.02.32.05.42.17.43.49.02.49.03.98.06,1.47,0,.14-.04.35.16.39.19.04.25-.14.33-.27.04-.06.1-.13.1-.19-.03-.31.21-.45.37-.63.62-.69,1.35-1.22,2.29-1.37,1.41-.23,2.82-.24,4.1.51.91.53,1.65,1.22,1.82,2.32,0,.06.03.12.05.18.06.11.12.21.22.36Z"/>
  <path d="m4.6,41.3c.05.24.09.44.14.64.09.38.14.77.29,1.13.12.29.31.56.54.78.56.53,1.23.9,2.01,1.04,1,.18,2,.17,2.98-.14.21-.06.4-.17.6-.24.3-.1.44-.32.52-.6.2-.68.24-1.35-.05-2.01-.12-.28-.31-.49-.62-.56-.67-.15-1.35-.3-2.03-.44-.75-.16-1.5-.28-2.25-.45-.66-.15-1.32-.35-1.97-.54-1.49-.43-2.72-1.23-3.58-2.53-.42-.64-.66-1.35-.73-2.1-.06-.62-.1-1.25-.06-1.87.08-1.24.54-2.32,1.41-3.26,1.08-1.17,2.46-1.73,3.97-2.06.95-.21,1.9-.31,2.87-.24,1.52.1,2.99.41,4.35,1.11,1,.52,1.77,1.26,2.28,2.24.34.65.61,1.34.87,2.03.18.47.05.74-.43.91-.39.14-.79.24-1.19.36-.35.1-.7.19-1.04.3-.4.13-.8.27-1.21.4-.26.08-.34.07-.46-.16-.15-.29-.29-.59-.36-.91-.31-1.34-1.21-1.99-2.52-2.2-1.03-.17-1.99.05-2.94.41-.32.12-.54.34-.65.65-.09.25-.18.51-.21.77-.06.61.27,1.06.73,1.41.46.34,1,.54,1.56.67,1.13.26,2.26.49,3.39.74.91.2,1.82.41,2.66.82,1.59.77,2.47,2.1,2.95,3.73.22.76.2,1.53.04,2.31-.15.76-.44,1.45-.8,2.12-.3.57-.77,1.01-1.23,1.45-.87.82-1.93,1.25-3.07,1.54-.72.18-1.45.32-2.2.38-.93.06-1.84,0-2.75-.14-.94-.14-1.86-.41-2.73-.81-1.71-.79-2.86-2.09-3.44-3.88-.12-.38-.21-.77-.24-1.17-.04-.44.1-.53.54-.63.65-.14,1.28-.31,1.92-.48.58-.15,1.16-.32,1.74-.47.12-.03.24-.02.4-.03Z"/>
  <path d="m7.82,22.25c-1.2-.02-2.9-.29-4.46-1.16-1.17-.65-2.12-1.53-2.71-2.75-.24-.5-.51-.98-.6-1.54-.03-.19-.04-.39-.04-.58,0-.31.09-.42.4-.5.5-.13,1.01-.24,1.5-.38.59-.17,1.18-.38,1.77-.55.21-.06.42-.09.64-.12.19-.03.31.06.35.26.06.31.14.62.21.93.29,1.34,1.14,2.09,2.48,2.34.97.18,1.93.23,2.89-.03.28-.08.55-.19.81-.29.29-.11.48-.33.56-.62.16-.56.21-1.13.08-1.7-.1-.43-.35-.73-.77-.89-.64-.24-1.3-.39-1.98-.5-.94-.16-1.86-.38-2.79-.61-.71-.17-1.43-.34-2.11-.61-2.07-.81-3.28-2.33-3.61-4.51-.15-1.01-.15-2.02.18-3.01.43-1.25,1.23-2.22,2.35-2.93,1.33-.84,2.81-1.23,4.39-1.25.63,0,1.27-.05,1.89,0,1.37.12,2.69.45,3.9,1.13,1.01.57,1.75,1.37,2.25,2.39.31.63.57,1.3.83,1.95.12.3.07.43-.24.56-.39.16-.8.28-1.2.41-.82.26-1.64.5-2.45.77-.2.06-.32.02-.42-.14-.09-.15-.16-.31-.23-.47-.14-.35-.24-.72-.4-1.06-.37-.8-1.07-1.2-1.9-1.39-.75-.17-1.51-.27-2.28-.14-.48.08-.91.26-1.32.5-.07.04-.13.11-.17.17-.23.34-.39.72-.47,1.13-.09.47.07.86.39,1.21.33.34.73.54,1.17.66.92.24,1.84.48,2.77.67,1.29.26,2.58.55,3.79,1.06,1.66.7,2.71,1.94,3.13,3.69.49,2.06-.05,3.87-1.38,5.48-.67.81-1.58,1.29-2.53,1.66-1.31.52-2.68.76-4.65.76Z"/>
  <path d="m55.95,18.82c-.03.17-.08.33-.09.5-.02.26,0,.51,0,.77.04,2.15.08,4.3.12,6.45,0,.28-.01.32-.27.41-.15.05-.32.1-.48.1-1.09,0-2.17,0-3.26,0-.4,0-.54-.15-.53-.55.02-1.93.04-3.85.04-5.78,0-3.78,0-7.56,0-11.35,0-.51-.02-1.02,0-1.53.01-.35.08-.42.42-.45.35-.04.7-.04,1.05-.05.8,0,1.59,0,2.39-.01.33,0,.55.18.59.5.08.71.1,1.43-.08,2.13.16-.01.31-.03.46-.04.01.02.02.04.03.06.17-.24.34-.49.51-.73.95-1.33,2.24-2.01,3.88-2.12.9-.07,1.78.02,2.64.26,1.21.33,2.13,1.05,2.76,2.1.62,1.04,1.06,2.15,1.27,3.34.22,1.22.27,2.45,0,3.66-.23,1.05-.56,2.1-1.18,2.99-.86,1.23-1.98,2.13-3.49,2.5-1.18.3-2.33.28-3.48-.1-.65-.21-1.21-.57-1.68-1.07-.44-.46-.79-.97-1.11-1.51-.11-.18-.25-.34-.38-.51-.04,0-.07.01-.11.02Zm7-3.7c-.06-.56-.1-1.06-.17-1.56-.16-1.02-.75-1.7-1.72-2.07-1.16-.44-2.32-.36-3.46.06-.51.19-.86.59-1.19,1-.06.08-.1.18-.12.28-.2.9-.33,1.81-.27,2.74.07,1.05.58,1.79,1.53,2.25.23.11.48.21.72.27,1.09.27,2.15.12,3.2-.22.68-.22,1.09-.7,1.25-1.37.12-.47.16-.96.22-1.39Z"/>
  <path d="m100.31,43.05c.16.32.31.62.45.92.44.99,1.27,1.39,2.29,1.49.45.05.91.05,1.35-.1.26-.08.5-.2.69-.4.3-.31.59-.63.89-.94.11-.11.25-.21.39-.29.18-.11.33-.07.51.05.26.18.55.32.84.45.37.16.75.29,1.13.43.06.02.11.05.17.08.63.35.85.52.39,1.35-.32.58-.82,1.02-1.33,1.45-.72.6-1.56.95-2.49,1.11-1.18.21-2.37.35-3.55.15-2.1-.35-3.91-1.25-5.2-2.99-.57-.77-.88-1.65-1.09-2.56-.51-2.19-.12-4.25,1.02-6.18,1.04-1.77,2.64-2.79,4.63-3.23,1.22-.27,2.44-.28,3.65.09,2.26.68,3.88,2.05,4.64,4.32.38,1.15.63,2.33.7,3.54.01.25-.05.51-.12.75-.04.17-.19.25-.38.24-.55-.01-1.1-.02-1.65,0-.95.02-1.9.08-2.85.09-.92,0-1.84-.06-2.76-.07-.63,0-1.26.02-1.89.04-.17,0-.33.02-.43.21Zm-.07-3.56c.18.17.33.28.57.28,1,0,2.01,0,3.01,0,.15,0,.31.01.46.02.35.03.7.07,1.05.08.4.01.53-.16.42-.53-.1-.35-.21-.71-.33-1.06-.09-.28-.28-.5-.52-.67-.63-.44-1.31-.68-2.1-.55-.91.15-1.64.54-2.07,1.38-.17.34-.32.69-.49,1.04Z"/>
  <path d="m22.93,42.97c.19.42.33.81.52,1.18.39.76,1.01,1.2,1.88,1.27.45.04.91.03,1.36-.04.73-.12,1.24-.53,1.6-1.15.15-.25.34-.44.63-.52.09-.03.21-.03.3,0,.64.23,1.28.47,1.91.71.32.12.64.23.95.37.41.19.5.39.29.78-.2.39-.45.77-.74,1.09-1.07,1.2-2.43,1.9-4.04,2.07-.76.08-1.53.16-2.29.11-1.94-.11-3.66-.79-5.01-2.2-.94-.99-1.52-2.19-1.84-3.51-.37-1.54-.24-3.04.26-4.54.52-1.53,1.45-2.76,2.75-3.7.64-.46,1.39-.73,2.16-.91.73-.17,1.46-.31,2.21-.3.82,0,1.63.16,2.4.45,1,.37,1.91.88,2.69,1.61.63.59,1.03,1.31,1.32,2.09.5,1.34.85,2.72.84,4.16,0,.54-.21.76-.76.77-.9.02-1.8.02-2.7.06-1.09.05-2.17-.02-3.26-.04-.98-.02-1.97.02-2.95.05-.15,0-.29.06-.49.11Zm5.55-3.16c-.01-.12-.02-.25-.04-.36-.08-.34-.15-.68-.25-1.01-.04-.15-.12-.31-.21-.44-.23-.36-.6-.54-.98-.71-.83-.38-1.64-.35-2.46,0-.91.38-1.49,1.22-1.53,2.39.18.03.37.09.56.09.9.03,1.8.04,2.7.05.72,0,1.44,0,2.21,0Z"/>
  <path d="m39.17,33.96c.04.26.11.55.13.84.03.47.04.94.05,1.41,0,.07,0,.14.02.21.03.14.01.32.21.37.12.03.36-.14.42-.31.05-.12.06-.26.11-.38.53-1.28,1.51-2.03,2.86-2.29.94-.18,1.89-.16,2.83.08,1.27.33,2.13,1.14,2.7,2.28.37.73.51,1.53.63,2.33.12.83.13,1.67.13,2.51,0,2.25,0,4.49,0,6.74,0,.3-.05.61-.09.93-.39.02-.74.06-1.08.06-.9,0-1.8-.04-2.7-.06-.06,0-.12,0-.19-.02-.39-.06-.45-.13-.45-.52,0-2.06.01-4.12,0-6.18,0-.75-.05-1.49-.12-2.24-.07-.87-.6-1.44-1.45-1.68-.84-.23-1.64-.2-2.44.17-.41.19-.69.48-.87.87-.26.56-.35,1.15-.44,1.75-.12.81-.13,1.63-.12,2.45,0,1.45,0,2.89,0,4.34,0,.25-.03.51-.06.76-.03.28-.05.29-.32.3-.6,0-1.2,0-1.8,0-.53,0-1.06,0-1.58,0-.09,0-.19,0-.28-.01-.33-.04-.45-.17-.45-.51,0-.45,0-.9,0-1.35,0-4.06,0-8.12,0-12.18,0-.18.04-.36.1-.53.05-.15.17-.21.34-.21,1.1,0,2.2,0,3.29.02.19,0,.38.03.63.04Z"/>
  <path d="m80.52,16.49c.2.41.38.81.6,1.19.24.43.62.72,1.1.85.52.14,1.04.29,1.57.33.51.04,1.01-.14,1.4-.48.31-.28.58-.61.84-.94.19-.25.44-.4.73-.49.1-.03.25,0,.35.06.49.29,1.01.51,1.55.69.45.15.85.41,1.28.62.17.08.21.23.13.39-.1.21-.2.43-.33.63-.99,1.53-2.43,2.36-4.21,2.66-.65.11-1.31.17-1.97.21-.36.02-.72-.03-1.08-.09-.56-.09-1.12-.18-1.67-.33-1.44-.39-2.56-1.26-3.46-2.43-.57-.74-.98-1.57-1.21-2.47-.12-.45-.19-.92-.22-1.39-.09-1.14-.02-2.27.36-3.37.43-1.26,1.1-2.36,2.03-3.31.5-.51,1.12-.83,1.78-1.1,1.48-.61,3.01-.74,4.6-.54,1.76.23,3.16,1.05,4.27,2.39.34.41.6.89.83,1.36.48,1.02.8,2.08.77,3.23,0,.31.04.61.04.92,0,.18-.02.37-.06.55-.07.33-.26.46-.6.45-.93-.02-1.86-.04-2.79-.04-1.75,0-3.5-.01-5.25,0-.32,0-.64.07-.95.12-.19.03-.35.12-.4.32Zm5.56-3.27c0-.15.03-.3,0-.43-.12-.39-.24-.78-.4-1.16-.2-.47-.55-.8-1.03-1.01-.63-.27-1.28-.28-1.92-.14-1.16.25-1.77,1.06-2.03,2.16-.09.37,0,.48.38.53.04,0,.08.01.12.01,1.58.02,3.17.04,4.75.06.03,0,.06,0,.14-.02Z"/>
  <path d="m117.06,36.52c.14.05.24.09.39.15.11-.24.22-.48.34-.71.09-.18.18-.37.31-.52,1.23-1.36,2.78-1.87,4.58-1.65.46.06.91.18,1.35.33,1,.35,1.71,1.02,2.16,1.97.56,1.2.91,2.45.9,3.8-.02,2.32,0,4.63,0,6.95,0,.32.03.64.03.95,0,.19-.03.39-.08.58-.08.35-.16.39-.52.39-.89-.02-1.78-.03-2.67-.05-.25,0-.5,0-.75,0-.38,0-.5-.1-.52-.49-.02-.3,0-.59,0-.89,0-.34.04-.68.04-1.01,0-1.02.03-2.03,0-3.04-.03-1.07-.1-2.15-.2-3.22-.04-.41-.19-.82-.36-1.2-.24-.54-.75-.79-1.3-.9-.49-.1-1.01-.09-1.51.04-.72.18-1.25.59-1.54,1.26-.3.72-.49,1.47-.55,2.26-.16,1.98-.01,3.96-.04,5.93,0,.27.02.53-.02.8-.07.48-.18.54-.66.51-.3-.02-.6-.04-.9-.04-.82,0-1.64,0-2.46,0-.31,0-.38-.06-.45-.35-.02-.09-.03-.18-.03-.27.03-1.19.07-2.38.1-3.57.02-.72.02-1.44.02-2.15,0-2.11,0-4.22-.01-6.34,0-.5-.04-1-.05-1.51,0-.45.07-.52.51-.55.24-.02.47,0,.71,0,.74-.01,1.47-.03,2.21-.04.2,0,.4,0,.59.03.29.05.4.17.4.46,0,.57-.02,1.15-.04,1.72,0,.12-.02.24-.02.39Z"/>
  <path d="m143.91,43.41c.12.35.2.63.31.91.16.4.43.72.8.95.73.45,1.52.51,2.33.3.29-.07.57-.19.84-.32.49-.24.63-.96.28-1.38-.22-.27-.5-.46-.85-.53-.64-.12-1.28-.25-1.92-.36-.97-.18-1.91-.45-2.82-.81-1.52-.61-2.34-1.73-2.64-3.28-.13-.65-.1-1.3.08-1.95.14-.49.39-.92.72-1.31.95-1.13,2.23-1.62,3.65-1.85.94-.15,1.88-.17,2.82-.05,1.16.14,2.28.39,3.26,1.08.86.59,1.43,1.38,1.77,2.35.12.32.03.5-.31.61-.16.05-.32.08-.48.12-.46.11-.92.23-1.39.32-.47.1-.95.17-1.43.25-.07.01-.14-.01-.21-.02-.03-.24-.06-.46-.08-.68-.02-.26-.17-.42-.4-.54-.47-.25-.99-.29-1.49-.39-.61-.12-1.15.02-1.64.37-.13.1-.25.25-.3.41-.08.23-.11.48-.13.72-.02.24.1.42.34.54.56.26,1.15.39,1.76.48,1.04.16,2.1.25,3.11.55.66.19,1.28.47,1.81.91.58.49.95,1.09,1.07,1.85.15.96.16,1.92.04,2.88-.14,1.04-.74,1.75-1.66,2.27-1.08.61-2.22.93-3.44,1.04-1.36.12-2.71.1-4.02-.32-1.26-.4-2.32-1.09-3.09-2.16-.24-.34-.41-.73-.6-1.1-.07-.13-.04-.25.06-.34.17-.13.33-.29.53-.35.7-.2,1.42-.37,2.13-.54.2-.05.4-.09.6-.15.24-.07.47-.16.6-.45Z"/>
  <path d="m129.49,29.62c.76.02,1.46.05,2.16.05.69,0,1.38-.05,2.12-.08,0,.09.02.21.02.32,0,1.05,0,2.09,0,3.14,0,.1,0,.21,0,.31.04.28.14.39.42.45.15.03.31.05.46.05.8,0,1.59,0,2.39,0,.18,0,.35,0,.53.03.26.04.39.15.4.39.05,1.03.13,2.07.02,3.1,0,.02,0,.04,0,.06-.1.49-.1.49-.6.49-1.04,0-2.07-.02-3.11-.02-.52,0-.52,0-.52.5,0,1.82,0,3.65,0,5.47,0,.01,0,.02,0,.03,0,.76.19.76.74.77.7.01,1.41.02,2.11,0,.58-.02.83.15.85.71.03.88.03,1.76.01,2.64,0,.46-.2.64-.66.64-.93-.01-1.86-.06-2.79-.09-.69-.02-1.35-.17-1.98-.46-1.26-.59-2.05-1.59-2.45-2.87-.16-.51-.25-1.06-.26-1.6-.05-2.4-.06-4.79-.07-7.19-.01-1.68,0-3.36-.01-5.04,0-.41-.01-.82-.03-1.23,0-.25.13-.42.24-.58Z"/>
  <path d="m51.36,40.17c-.03-1.07-.07-2.13-.08-3.2-.03-2.27-.04-4.55-.06-6.82,0-.27.06-.34.38-.36.51-.03,1.01-.05,1.52-.06.57,0,1.14,0,1.71,0,.16,0,.33-.02.49-.04.23-.03.31,0,.37.22.05.17.08.36.08.54.01.83,0,1.66.02,2.49,0,.17.02.35.04.52.02.19.13.3.32.32.24.02.47.05.71.06.54.02,1.08.04,1.61.05.24,0,.48-.02.71-.03.43-.03.73.22.74.64.02.94.02,1.89.03,2.83,0,.2-.08.35-.26.42-.17.06-.35.12-.53.12-.96.03-1.92.04-2.89.05-.07,0-.15,0-.22.01-.32.04-.35.1-.34.42.01.39,0,.78,0,1.17.02,1.49.04,2.97.07,4.46,0,.1.02.2.04.3.05.23.13.32.37.34.32.03.64.05.96.06.69.02,1.39.02,2.08.04.19,0,.38.2.43.46.03.15.03.31.03.46,0,.79,0,1.58,0,2.37,0,.1,0,.21-.04.3-.09.31-.21.39-.54.39-.99-.02-1.99-.03-2.98-.06-.66-.02-1.3-.14-1.9-.41-1.82-.81-2.75-2.26-2.89-4.18-.09-1.28-.05-2.58-.06-3.87.02,0,.04,0,.06,0Z"/>
  <path d="m71.91,1.36c.54-.02,1.16-.04,1.78-.06.29,0,.34.04.34.34-.01,6.18-.03,12.36-.04,18.54,0,.51,0,1.03,0,1.54,0,.29-.02.32-.31.35-.28.03-.55.03-.83.03-.83,0-1.65,0-2.48,0-.28,0-.56.02-.84.02-.24,0-.29-.05-.28-.3.01-.26.05-.51.08-.76.02-.19.04-.39.04-.58,0-5.79,0-11.58,0-17.38,0-.49-.06-.98-.1-1.47-.01-.19.04-.29.24-.32.2-.03.41-.04.62-.04.57.02,1.14.05,1.78.08Z"/>
  <path d="m105.25,13.75c1.4,0,2.8,0,4.19,0,.1,0,.21,0,.31,0,.24.03.42.13.47.38.05.22.11.44.11.66.01,2.09,0,4.18.02,6.27,0,.35-.14.61-.35.85-.18.2-.44.23-.68.24-.3.02-.6,0-.9,0-1.41-.02-2.81-.04-4.22-.05-.87,0-1.74,0-2.61,0-.35,0-.67-.11-.97-.28-.2-.11-.29-.27-.29-.5,0-.96.02-1.93,0-2.89-.01-.74-.09-1.47-.09-2.21,0-.7.06-1.41.12-2.11.02-.27.14-.35.45-.36.52,0,1.04,0,1.55,0,.96,0,1.93,0,2.89,0h0Z"/>
  <path d="m62.16,41.31c0-2.22,0-4.45,0-6.67,0-.09,0-.18,0-.28,0-.27.07-.35.34-.38.24-.03.47-.04.71-.05,1-.02,2.01-.03,3.01-.04.08,0,.19.05.23.11.07.12.14.26.15.39.04.35.06.69.06,1.04,0,3.78,0,7.56,0,11.35,0,.3.03.59.03.89,0,.23,0,.47-.05.7-.05.28-.27.44-.54.4-.66-.09-1.32-.02-1.98-.02-.5,0-.99-.03-1.49-.05-.4-.01-.47-.08-.47-.47,0-2.31,0-4.61,0-6.92Z"/>
  <path d="m18.42,22.12c0-.11-.02-.19-.02-.27,0-1.63,0-3.26,0-4.89,0-2.99,0-5.98,0-8.98,0-.52.06-.58.57-.59,1.16-.03,2.32-.05,3.48-.07.07,0,.18.04.21.09.09.17.18.34.23.52.04.14.01.31.01.46,0,3.96,0,7.91,0,11.87,0,.33.04.65.04.98,0,.19-.02.39-.07.58-.08.3-.3.42-.61.39-.33-.03-.66-.04-.99-.04-.81,0-1.62,0-2.42,0-.14,0-.28-.03-.43-.05Z"/>
  <path d="m111.75,7.31c.04.23.13.49.14.75.02,1.12,0,2.23,0,3.35,0,.22-.09.33-.28.42-.5.24-1.04.29-1.57.3-2.05.03-4.1.05-6.15.06-.71,0-1.43-.03-2.14-.05-.4-.01-.77-.13-1.12-.32-.15-.08-.22-.2-.22-.37,0-1.1,0-2.19.01-3.29,0-.11.03-.22.06-.33.1-.38.29-.53.68-.54,1.36,0,2.71,0,4.07,0,1.31-.01,2.63-.06,3.94-.06.67,0,1.34.08,2.01.11.17,0,.34-.02.58-.04Z"/>
  <path d="m101.67,5.86c-.53,0-1.06.02-1.58,0-.41-.02-.82-.07-1.23-.12-.31-.04-.61-.09-.92-.14-.8-.13-1.52-.45-2.26-.75-.47-.19-.75-.6-1.04-.99-.42-.56-.57-1.21-.5-1.89.05-.47.32-.86.66-1.19.7-.68,1.56-.75,2.48-.67.86.08,1.57.5,2.3.88.12.06.22.15.32.24.68.64,1.37,1.28,1.89,2.07.14.21.24.22.41.02.28-.31.55-.64.82-.96.67-.81,1.44-1.52,2.42-1.92.71-.29,1.48-.42,2.25-.34.57.06,1.01.4,1.42.77.31.27.56.57.64.99.09.48.05.94-.21,1.36-.41.68-.93,1.21-1.68,1.54-1.19.52-2.41.95-3.71,1.04-.82.06-1.65.06-2.48.08,0,0,0-.02,0-.03Zm1.81-1.66s0,.05,0,.07c.06,0,.15.04.19.01.21-.17.45-.13.69-.16.54-.06,1.08-.17,1.61-.31.53-.15.99-.44,1.47-.71.42-.24.54-.6.58-1.01.02-.22-.07-.34-.28-.35-1.08-.07-2.08.08-2.9.86-.1.1-.22.19-.34.26-.24.13-.41.33-.58.54-.08.1-.17.2-.26.31-.02.02-.03.05-.04.08.04.07.07.14.11.22-.09.07-.17.13-.25.19Zm-2.89,0c-.17-.16-.34-.27-.46-.42-.13-.17-.21-.37-.32-.55-.02-.04-.07-.07-.11-.1-.69-.57-1.45-1.02-2.32-1.27-.4-.11-.8-.21-1.22-.17-.2.02-.4.04-.59.18.08.11.18.2.21.31.1.35.33.6.61.79.65.46,1.33.88,2.15.96.17.02.34.09.51.12.49.08.96.32,1.55.16Z"/>
  <path d="m94,17.99c0-1.05,0-2.11,0-3.16,0-.08,0-.16,0-.25.03-.54.14-.63.67-.71.97-.14,1.94-.12,2.91-.12.43,0,.58.09.72.49.09.25.15.52.15.78.03,2.02.05,4.03.07,6.05,0,.58-.25.95-.83,1.04-.57.09-1.15.11-1.73.13-.34.01-.68-.02-1.02-.07-.18-.02-.35-.11-.52-.18-.3-.13-.44-.36-.43-.68,0-.07,0-.14,0-.22,0-1.03,0-2.07,0-3.1Z"/>
  <path d="m95.55,12.08c-.64,0-1.28,0-1.93,0-.72-.01-1.1-.34-1.18-1.04-.05-.41-.05-.82-.05-1.23,0-.62,0-1.25,0-1.87-.01-.5.29-.8.81-.77.99.04,1.99.04,2.98.07.55.01,1.1.04,1.64.06.39.01.64.25.65.63.01.36.02.72.02,1.08,0,.74,0,1.47,0,2.21,0,.58-.28.85-.88.86-.44.01-.89,0-1.34,0-.24,0-.48,0-.71,0,0,0,0,0,0,0Z"/>
  <path d="m23.39,2.79c.03.53-.07,1.05-.44,1.47-1.17,1.34-3.35,1.48-4.57,0-.47-.58-.53-1.27-.46-1.98.01-.14.04-.28.07-.42.2-1.04.94-1.53,1.88-1.77.81-.21,1.57,0,2.3.38.94.49,1.26,1.3,1.23,2.32Z"/>
  <path d="m64.75,26.77c1.51-.07,2.38,1.29,2.41,2.5.03,1.03-.43,1.76-1.25,2.33-.35.24-.77.31-1.18.33-.38.02-.77.02-1.14-.06-.98-.21-1.59-.84-1.82-1.8-.16-.68-.07-1.34.13-2,.16-.52.52-.85,1.03-1.03.55-.2,1.12-.27,1.82-.28Z"/>
</svg>