<?xml version="1.0" encoding="UTF-8"?>
<svg id="Layer_1" data-name="Layer 1" xmlns="http://www.w3.org/2000/svg" viewBox="0 0 322.56 103.68">
  <defs>
    <style>
      .cls-1 {
        fill: #1ea9e1;
      }

      .cls-2 {
        fill: #1b1e2f;
      }
    </style>
  </defs>
  <path class="cls-2" d="m0,89.52c2.14-.43,4.28-.85,6.42-1.28.57-.11,1.13-.29,1.7-.37.92-.13,1.49-.07,1.8,1.19.57,2.32,1.45,4.65,4.07,5.52,3.07,1.02,6.12,1.09,9.09-.39,1.31-.65,2.02-2.19,1.85-3.49-.2-1.52-.85-2.9-2.5-3.31-2.88-.71-5.8-1.28-8.7-1.94-2.91-.67-5.84-1.19-8.35-3.09-2.74-2.07-3.9-4.88-4.66-8.06-.68-2.89.03-5.62,1.05-8.19.56-1.4,1.92-2.63,3.18-3.58,3.26-2.47,7.01-3.53,11.12-3.5,3.69.03,7.26.36,10.68,1.9,4.08,1.85,6.29,5.13,7.32,9.31.51,2.07.59,1.62-1.34,2.24-1.98.64-4.01,1.14-6.03,1.66-1.15.3-1.68-.09-1.99-1.29-.5-1.91-1.17-3.76-3.19-4.58-.8-.33-1.71-.54-2.57-.55-1.86-.02-3.74-.03-5.56.24-1.73.25-2.37,1.79-2.54,3.29-.16,1.37.22,2.87,1.62,3.49,1.75.78,3.6,1.38,5.47,1.81,3.78.86,7.75,1,11.26,2.91,3.23,1.76,5.14,4.44,5.62,8.14.74,5.68-1.42,10.11-5.92,13.41-1.89,1.39-4.19,1.93-6.53,2.22-.74.09-1.47.31-2.2.47h-5.76c-.16-.08-.31-.22-.47-.24-3.92-.34-7.22-2.06-10.07-4.68C1.91,96.97.86,94.61,0,92.16,0,91.28,0,90.4,0,89.52Z"/>
  <path class="cls-2" d="m0,33.6c2.05-.56,4.09-1.12,6.14-1.68.78-.21,1.56-.44,2.34-.65.78-.21,1.25.13,1.35.89.42,3.17,2.14,5.29,5.07,6.5,2.38.99,7.2.07,8.99-1.64,1.16-1.11,1.27-2.29.84-3.73-.47-1.6-1.65-2.24-3.09-2.58-4.42-1.05-8.9-1.92-13.27-3.15-3.26-.92-5.46-3.32-6.65-6.45-.64-1.68-1.21-3.52-1.18-5.28.07-5.38,2.86-10.38,9.11-12.21,3.63-1.06,7.33-1.15,11.09-.76,2.95.3,5.65,1.18,8.08,2.83,3.13,2.13,4.79,5.19,5.3,8.9.09.62.02,1.1-.84,1.31-2.68.66-5.34,1.46-7.95,2.19-.59-1.57-1.01-2.93-1.61-4.19-.53-1.13-1.49-1.84-2.75-2.15-2.44-.6-4.91-.73-7.34-.18-1.89.43-2.74,1.77-2.86,3.53-.16,2.22,1.27,3.45,2.78,3.85,3.08.81,6.21,1.43,9.31,2.2,2.15.54,4.34,1.01,6.37,1.84,2.96,1.21,4.6,3.69,5.3,6.74,1.16,5.05.06,9.55-3.71,13.18-2.32,2.24-5.15,3.61-8.43,3.9-1.96.17-3.93.51-5.88.44-4.46-.16-8.73-1.18-12.17-4.23-2.03-1.8-3.49-4.07-4.12-6.79-.02-.09-.15-.15-.22-.23,0-.8,0-1.6,0-2.4Z"/>
  <path class="cls-2" d="m52.56,103.68c-1.51-.42-3.07-.74-4.53-1.29-5.05-1.93-7.98-5.68-9.14-10.91-1.2-5.44-.24-10.44,3.2-14.82,1.77-2.26,4.13-3.75,6.99-4.51,3.57-.94,7.16-1.06,10.6.01,4.91,1.53,7.94,5.13,9.14,10.1.5,2.08.61,4.26.74,6.41.1,1.69-.33,2.02-2.01,2.02-6.04,0-12.07,0-18.11,0-.2,0-.39,0-.58,0-.33,2.17,1.67,5.04,3.84,5.55,2.81.66,5.68-.06,7.24-2.67.58-.97,1.54-.86,2.33-.58,1.82.64,3.6,1.42,5.38,2.18.88.38.52,1.04.28,1.67-.66,1.76-1.96,2.91-3.44,4-2.27,1.67-4.82,2.3-7.52,2.61-.12.01-.23.15-.35.23-1.36,0-2.72,0-4.08,0Zm7.72-19.62c-1.27-5.06-3.04-6.27-7.61-5.59-2.62.39-4.06,3.11-4.1,5.59h11.71Z"/>
  <path class="cls-2" d="m214.8,103.68c-1.2-.32-2.43-.58-3.6-.97-4.47-1.51-7.52-4.43-9.16-8.93-1.47-4.03-1.57-8.01-.24-12.02,1.85-5.59,5.57-9.08,11.52-10,3.9-.6,7.7-.32,11.23,1.54,3.71,1.95,5.99,5.09,6.78,9.19.43,2.22.49,4.52.76,6.77.13,1.06-.37,1.29-1.31,1.28-5.56-.02-11.12-.03-16.67,0-1.01,0-2.01.18-3.01.28.44,3.22,2.63,5.22,4.58,5.61,2.15.43,5.24-.34,6.73-2.81.52-.86,1.33-.92,2.08-.66,2.29.8,4.53,1.72,6.8,2.59-1.09,2.29-2.63,4.18-4.69,5.6-2.06,1.42-4.38,2.13-6.87,2.31-.2.01-.39.15-.59.23h-4.32Zm-4.02-19.54h11.88c.22-2.98-1.36-5.29-4.06-5.62-3.74-.46-6.69.13-7.82,5.62Z"/>
  <path class="cls-2" d="m305.04,103.68c-.8-.2-1.61-.37-2.4-.6-3.65-1.08-6.39-3.21-7.89-6.81-.51-1.21-.43-1.58.87-1.94,2.17-.6,4.36-1.12,6.54-1.68.26-.07.52-.13.48-.12.87,1.21,1.49,2.53,2.51,3.37,1.69,1.4,5.08,1.16,6.62-.36.47-.46.7-1.42.62-2.11-.11-1.08-1.34-1.83-2.43-2.02-2.97-.52-6.01-.83-8.87-1.73-4.9-1.54-7.06-5.79-6.3-10.42.61-3.73,2.95-6.3,6.85-7.14,5.28-1.14,10.46-1.07,15.4,1.34,2.29,1.11,3.29,3.29,4.02,5.58.08.27-.33.96-.63,1.04-2.09.57-4.2,1.03-6.32,1.51-.77.17-1.19-.29-1.38-.94-.5-1.7-1.6-2.62-3.44-2.43-1.17.12-2.37.05-3.52.26-1.06.2-1.49,1.08-1.46,2.12.03.99.7,1.63,1.55,1.87,1.79.51,3.62.88,5.44,1.27,2.09.45,4.26.65,6.28,1.32,2.59.87,3.94,2.97,4.49,5.61.09.43.31.83.47,1.24v2.64c-.16.26-.41.5-.46.77-.63,3.61-3.02,5.66-6.23,6.89-1.64.63-3.38.98-5.07,1.45h-5.76Z"/>
  <path class="cls-2" d="m44.64,0c.38.16.74.39,1.13.45,2.01.33,3.33,1.45,3.57,3.48.3,2.59.36,5.13-2.18,6.62-2.69,1.56-6.92,1.59-8.66-1.58-1.64-2.98-1.43-7.56,3.16-8.78.05-.01.07-.12.11-.19.96,0,1.92,0,2.88,0Z"/>
  <path class="cls-2" d="m155.07,103.15h-9.54v-31.18h9.55c-.09,1.98-.17,3.88-.26,5.77.1.03.19.05.29.08.48-.77.97-1.54,1.43-2.32,1.66-2.79,4.18-3.94,7.34-3.99,2.78-.05,5.43.25,7.83,1.88,1.85,1.26,2.47,3.22,3.44,5.15.66-1.08,1.19-2.23,1.98-3.17,1.86-2.21,4.16-3.78,7.18-3.83,2.23-.04,4.47-.18,6.65.67,2.3.9,5.28,4.77,5.34,7.23.1,4.06.16,8.12.25,12.18.07,3.34.14,6.68.25,10.02.04,1.11-.22,1.64-1.5,1.59-2.59-.1-5.18-.03-7.88-.03-.04-.57-.1-1.08-.1-1.58-.05-4.99-.03-9.99-.16-14.98-.04-1.45-.48-2.9-.83-4.33-.35-1.44-1.71-1.73-2.85-2.06-3.23-.93-6.46.91-7.16,3.98-.26,1.14-.32,2.33-.39,3.5-.06,1.04-.01,2.08-.01,3.12,0,4.05,0,8.11,0,12.19h-9.56c0-.44,0-.83,0-1.22-.01-5.08,0-10.16-.06-15.24-.02-1.28-.16-2.6-.52-3.82-.47-1.6-1.82-2.46-3.4-2.54-1.43-.07-2.91.13-4.3.49-1.76.46-2.33,2.07-2.78,3.63-.18.63-.22,1.31-.22,1.97-.02,5.59,0,11.18,0,16.84Z"/>
  <path class="cls-2" d="m73.88,46.54c0-5.13.09-10.17-.04-15.2-.05-2.06.14-4.29-1.36-6.05-.43-.51-1.04-1.19-1.59-1.21-1.8-.05-3.72-.17-5.37.39-1.94.66-2.8,2.6-2.86,4.62-.16,5.26-.22,10.52-.3,15.77-.03,1.68,0,1.68-1.71,1.68-2.51,0-5.02,0-7.59,0V15.36c2.81,0,5.59-.03,8.38.02.88.01,1.17.91.96,2.2-.18,1.07-.22,2.15-.16,3.35,2.56-3.93,5.91-6.42,10.7-6,4.58.4,8.22,2.33,9.45,7.09,1.01-1.4,1.79-2.79,2.86-3.89,2.55-2.62,5.71-3.64,9.36-3.01.81.14,1.65.11,2.46.23,3.57.54,5.16,3.21,6.05,6.21.61,2.07.69,4.33.77,6.51.2,5.89.27,11.79.38,17.68,0,.23-.02.47-.04.76h-9.32c0-1.57.01-3.12,0-4.66-.03-3.99-.05-7.99-.14-11.98-.03-1.08-.27-2.17-.48-3.23-.21-1.07-2.01-2.56-3.27-2.6-1.21-.05-2.46,0-3.64.23-2.19.43-3.63,2.08-3.85,4.26-.15,1.45-.23,2.92-.24,4.38-.03,4.53-.01,9.06-.01,13.64h-9.4Z"/>
  <path class="cls-2" d="m118.08,41.12c0,1.55.03,3.11,0,4.66-.05,1.98-.21,3.96-.21,5.94,0,1.54.12,3.08.23,4.62.06.8-.28,1.04-1.05,1.03-2.72-.03-5.43-.01-8.32-.01,0-.5,0-.92,0-1.34.07-10.67.15-21.33.18-32,0-1.21-.34-2.41-.39-3.62-.07-1.61-.02-3.23-.02-5,2.18,0,4.08,0,5.99,0,.88,0,1.76,0,2.64-.04.71-.03.99.26.98.99-.04,1.71-.01,3.41-.01,5.41.84-1.09,1.55-1.95,2.19-2.85,1.4-1.96,3.02-3.26,5.62-3.64,3.98-.58,7.54.09,10.83,2.26,2.62,1.73,3.78,4.46,4.63,7.34.83,2.85.94,5.79.68,8.69-.41,4.67-2.02,8.91-6.15,11.56-3.84,2.46-8.07,3.05-12.37,1.15-2.04-.9-3.33-2.73-4.56-4.53-.18-.26-.38-.52-.56-.78-.11.05-.21.1-.32.15Zm7.09-2.35c.99-.2,1.98-.39,2.97-.59,2-.41,3.21-1.63,3.9-3.56.77-2.15.33-4.25.01-6.36-.31-2.06-1.43-3.47-3.54-4.07-2.22-.63-4.44-.58-6.65-.19-.74.13-1.63.59-2.06,1.18-1.99,2.71-2.49,5.77-1.49,8.99.96,3.1,3.13,4.48,6.87,4.61Z"/>
  <path class="cls-2" d="m169.79,34.04c-.27,2.57,2.32,5.89,4.91,5.82,1.49-.04,3.04.12,4.33-.76.86-.59,1.68-1.33,2.28-2.17.47-.65.71-.8,1.49-.49,2.3.91,4.65,1.69,7.08,2.55-.47,1.83-1.53,3.27-2.87,4.47-2.46,2.2-5.4,3.18-8.68,3.63-5.17.71-9.72-.59-13.67-3.82-2.37-1.94-3.8-4.64-4.57-7.62-.35-1.35-.7-2.75-.71-4.13-.04-7.44,4.37-15.08,12.98-16.3,4.27-.6,8.65-.3,12.44,2.52,2.84,2.12,4.41,4.98,5.22,8.27.5,2.04.6,4.18.75,6.29.12,1.63-.12,1.78-1.84,1.78-4.08,0-8.15-.03-12.23-.04-2.28,0-4.55,0-6.91,0Zm11.41-6.37c-.03-1.63-.03-3.19-1.26-4.26-1.51-1.31-6-1.87-7.92-.7-1.86,1.14-2.29,2.94-2.49,4.96h11.68Z"/>
  <path class="cls-2" d="m73.78,71.95h9.49v5.76c.86-1.3,1.53-2.64,2.51-3.7,1.53-1.67,3.57-2.35,5.84-2.51,2.54-.18,4.91.42,7.24,1.25,1.63.58,2.64,1.94,3.3,3.43,1.08,2.45,1.54,5.03,1.55,7.74.01,5.9.14,11.8.22,17.7,0,.44,0,.88,0,1.39h-9.31c-.02-.38-.05-.76-.05-1.15-.02-5.08.04-10.16-.08-15.23-.03-1.44-.46-2.91-.9-4.3-.44-1.38-1.61-1.94-3.02-1.92-1.39.02-2.84-.17-4.14.18-2.31.62-3.03,2.26-3.1,4.93-.15,5.62-.16,11.24-.23,16.86,0,.23-.04.46-.06.73h-9.24v-31.16Z"/>
  <path class="cls-2" d="m246.68,103.04h-9.35v-30.98h9.3v5.57c1.07-1.38,1.93-2.66,2.95-3.77,1.46-1.58,3.32-2.33,5.52-2.35,2.18-.02,4.29.15,6.34.97,2.96,1.2,4.8,3.36,5.16,6.5.41,3.56.59,7.15.74,10.74.17,4.3.2,8.6.29,12.89,0,.11-.05.23-.09.4h-9.3c-.04-.5-.11-1-.12-1.5,0-3.64.07-7.28-.03-10.91-.07-2.48-.25-4.97-.64-7.41-.13-.84-.88-1.87-1.64-2.27-2.3-1.22-4.76-1.28-6.96.24-1.5,1.03-2.09,2.74-2.12,4.52-.06,5.32-.05,10.63-.06,15.95,0,.44,0,.87,0,1.42Z"/>
  <path class="cls-2" d="m281.69,80.12v14.56c2.11,0,4.17,0,6.23,0,1.76,0,1.8.01,1.75,1.71-.06,2.22-.19,4.44-.3,6.81-4.12-.19-8.39.73-12.28-1.5-2.48-1.42-4.12-3.55-4.65-6.4-.21-1.11-.27-2.27-.27-3.41-.04-7.28,0-14.55-.07-21.83-.02-2.05-.25-4.09-.43-6.14-.08-.9.26-1.31,1.17-1.3,2.48.05,4.95.1,7.43.11.92,0,1.31.35,1.3,1.28-.03,1.92,0,3.84-.01,5.76,0,.2,0,.41-.05.59-.35,1.2-.07,1.58,1.22,1.63,2.14.08,4.28.2,6.42.22.78,0,.96.39.96,1.03.01,2.03.01,4.07.05,6.1.02.81-.51.77-1.04.77-2,0-4,0-6,0-.47,0-.94,0-1.43,0Z"/>
  <path class="cls-2" d="m108,62.88c2.98,0,5.76,0,8.54,0,1.03,0,.96.86.98,1.47.07,1.88.06,3.76.01,5.63-.05,1.71.15,1.94,1.84,1.91,1.84-.03,3.68.02,5.51-.02,1.05-.03,1.4.42,1.37,1.44-.06,1.8-.06,3.6,0,5.39.03,1.11-.46,1.48-1.51,1.47-2.35-.04-4.7-.01-7.19-.01,0,1.5.02,2.96,0,4.43-.05,2.79-.12,5.57-.2,8.36-.04,1.31.47,1.86,1.82,1.86,1.99,0,3.98,0,5.99,0v8.2c-3.62-.38-7.38.69-10.96-.78-3.36-1.37-5.41-3.93-5.88-7.52-.32-2.43-.3-4.91-.31-7.36-.03-7.75-.01-15.51-.01-23.26,0-.43,0-.86,0-1.2Z"/>
  <path class="cls-2" d="m145.85,2.96h9.87v43.6c-2.99,0-5.98.04-8.96-.05-.37-.01-.87-.7-1.02-1.17-.17-.54-.05-1.18.01-1.77.11-1.09.4-2.17.4-3.25.03-11.16.03-22.31,0-33.47,0-1.25-.19-2.51-.3-3.89Z"/>
  <path class="cls-1" d="m221.74,46.65c-2.52,0-5.04.02-7.55-.01-1.04-.01-2.23.19-2.73-1.15-.12-.32-.24-.67-.24-1-.02-4.44-.01-8.88,0-13.32,0-1.24.4-1.64,1.61-1.66,5.14-.1,10.28-.2,15.43-.26.98-.01,1.97.11,2.93.29.64.12,1.12.41,1.09,1.33-.08,2.76.06,5.52,0,8.27-.04,1.97-.26,3.94-.43,5.91-.09,1.08-.73,1.6-1.83,1.59-2.76-.01-5.52,0-8.28,0,0,0,0,0,0,0Z"/>
  <path class="cls-2" d="m48.44,46.52h-9.29V15.37c2.8,0,5.63-.04,8.45.05.31,0,.81.74.84,1.16.1,1.39,0,2.79,0,4.19,0,8.11,0,16.22,0,24.34v1.42Z"/>
  <path class="cls-2" d="m131.06,71.88c2.21,0,4.33-.08,6.44.02,2.01.1,2.9.88,2.91,2.95.05,9.32,0,18.63-.02,27.95,0,.11-.04.22-.08.38h-9.25v-31.3Z"/>
  <path class="cls-1" d="m214.4,6.94c1.46-1.28,2.89-2.49,4.27-3.76,2.34-2.16,5-3.46,8.22-2.81,1.39.28,2.92.49,3.73,2.08.71,1.41.56,3.76-.34,5.08-2.1,3.07-5.3,4.03-8.66,4.68-3.39.66-6.83.94-10.28.73-3.34-.2-6.69-.56-9.46-2.67-1.23-.94-2.32-2.1-3.32-3.29-.92-1.09-.53-3.6.54-4.81,1.61-1.83,3.69-1.98,5.92-1.8,3.27.26,5.39,2.33,7.47,4.52.74.78,1.47,1.56,1.93,2.05Zm-3.21,2.15c-.95-3.5-5.66-5.67-8.28-5.2-1.19.21-1.47,1.37-.48,2.22,2.5,2.14,5.53,2.78,8.76,2.98Zm6.94-.24c.18.08.39.26.53.22,2.36-.62,4.74-1.19,7.05-1.95,1.16-.38,1.72-1.41,1.78-2.65-3.37-1.86-6.68.34-9.36,4.37Z"/>
  <path class="cls-1" d="m223.25,25.48c-3.27,0-6.55,0-9.82,0-1.88,0-1.99-.11-1.99-1.93,0-2.28.03-4.55-.01-6.83-.02-.94.23-1.37,1.26-1.37,5.47,0,10.94-.05,16.41-.07,1.4,0,2.8-.04,4.19,0,1.7.05,2.18.58,2.18,2.25,0,1.84.01,3.67,0,5.51-.02,2.05-.41,2.44-2.4,2.44-3.27,0-6.55,0-9.82,0Z"/>
  <path class="cls-1" d="m207.36,34.9c0,3.22.01,6.45,0,9.67,0,1.12-.7,1.96-1.8,1.99-2.23.06-4.47,0-6.71-.01-.89,0-1.1-.56-1.1-1.36.02-2.89,0-5.78,0-8.66,0-1.73-.01-3.45,0-5.18.01-1.33.46-1.77,1.76-1.83,1.86-.08,3.73-.14,5.59-.25,1.8-.1,2.22.33,2.46,2.39.12,1.07.02,2.16.02,3.24-.08,0-.16,0-.24,0Z"/>
  <path class="cls-1" d="m200.9,15.36c1.32,0,2.64,0,3.96,0,2.3,0,2.61.15,2.7,2.39.09,2.18-.02,4.38-.29,6.54-.06.51-1.11,1.26-1.72,1.28-3.14.11-6.3.05-9.45,0-1.8-.03-1.85-1.52-1.9-2.69-.07-2.02.05-4.05.24-6.06.08-.92.67-1.53,1.78-1.48,1.56.07,3.12.02,4.68.02Z"/>
  <path class="cls-2" d="m141.36,61.86c0,4.03-1.75,5.69-5.57,5.85-2.31.1-4.17-.5-5.42-2.52-1.33-2.14-1.02-5.79.91-7.42.56-.47,1.35-.73,2.08-.91,1.95-.47,3.94-.46,5.76.39,2.03.95,2.44,2.84,2.24,4.61Z"/>
</svg>