<?xml version="1.0" encoding="UTF-8"?>
<svg id="Layer_1" data-name="Layer 1" xmlns="http://www.w3.org/2000/svg" viewBox="0 0 322.56 103.68">
  <defs>
    <style>
      .cls-1 {
        fill: #fff;
      }

      .cls-2 {
        fill: #1ea9e1;
      }

      .cls-3 {
        fill: #1b1e2f;
      }
    </style>
  </defs>
  <path class="cls-1" d="m0,89.52C0,71.68,0,53.84,0,36c.08.08.2.14.22.23.63,2.72,2.09,4.99,4.12,6.79,3.44,3.05,7.71,4.07,12.17,4.23,1.95.07,3.92-.27,5.88-.44,3.27-.29,6.11-1.66,8.43-3.9,3.77-3.63,4.87-8.13,3.71-13.18-.7-3.05-2.34-5.53-5.3-6.74-2.04-.83-4.23-1.31-6.37-1.84-3.09-.77-6.23-1.39-9.31-2.2-1.51-.4-2.94-1.62-2.78-3.85.12-1.76.97-3.1,2.86-3.53,2.43-.56,4.9-.42,7.34.18,1.26.31,2.22,1.02,2.75,2.15.6,1.27,1.01,2.62,1.61,4.19,2.61-.73,5.26-1.53,7.95-2.19.85-.21.92-.69.84-1.31-.52-3.7-2.17-6.76-5.3-8.9-2.43-1.65-5.13-2.53-8.08-2.83-3.76-.39-7.46-.3-11.09.76C3.4,5.43.62,10.43.55,15.82c-.02,1.76.55,3.6,1.18,5.28,1.19,3.13,3.39,5.53,6.65,6.45,4.37,1.24,8.84,2.11,13.27,3.15,1.45.34,2.62.98,3.09,2.58.43,1.45.32,2.63-.84,3.73-1.79,1.71-6.61,2.63-8.99,1.64-2.93-1.21-4.65-3.33-5.07-6.5-.1-.76-.57-1.1-1.35-.89-.78.21-1.56.44-2.34.65C4.09,32.48,2.05,33.04,0,33.6,0,22.42,0,11.24,0,0,13.92,0,27.84,0,41.76,0c-.04.06-.06.17-.11.19-4.59,1.22-4.8,5.8-3.16,8.78,1.75,3.17,5.97,3.15,8.66,1.58,2.55-1.48,2.49-4.03,2.18-6.62-.24-2.03-1.56-3.15-3.57-3.48C45.38.39,45.02.16,44.64,0c92.64,0,185.28,0,277.92,0v91.92c-.16-.41-.38-.81-.47-1.24-.56-2.63-1.9-4.74-4.49-5.61-2.01-.67-4.18-.88-6.28-1.32-1.82-.39-3.65-.76-5.44-1.27-.85-.24-1.52-.88-1.55-1.87-.03-1.04.4-1.92,1.46-2.12,1.15-.21,2.35-.14,3.52-.26,1.84-.19,2.94.72,3.44,2.43.19.65.61,1.11,1.38.94,2.11-.48,4.23-.94,6.32-1.51.3-.08.71-.77.63-1.04-.73-2.28-1.74-4.47-4.02-5.58-4.95-2.4-10.13-2.47-15.4-1.34-3.9.84-6.24,3.41-6.85,7.14-.76,4.64,1.39,8.88,6.3,10.42,2.85.9,5.9,1.22,8.87,1.73,1.09.19,2.32.95,2.43,2.02.07.69-.16,1.65-.62,2.11-1.54,1.51-4.93,1.75-6.62.36-1.02-.84-1.64-2.17-2.51-3.37.05-.01-.21.05-.48.12-2.18.55-4.37,1.07-6.54,1.68-1.3.36-1.38.73-.87,1.94,1.5,3.59,4.23,5.73,7.89,6.81.79.23,1.6.4,2.4.6h-85.92c.2-.08.39-.22.59-.23,2.49-.18,4.81-.89,6.87-2.31,2.06-1.43,3.61-3.31,4.69-5.6-2.26-.87-4.51-1.78-6.8-2.59-.75-.26-1.56-.2-2.08.66-1.49,2.47-4.58,3.23-6.73,2.81-1.95-.39-4.15-2.39-4.58-5.61,1-.1,2.01-.27,3.01-.28,5.56-.03,11.12-.03,16.67,0,.94,0,1.44-.22,1.31-1.28-.27-2.26-.34-4.55-.76-6.77-.79-4.1-3.07-7.24-6.78-9.19-3.53-1.86-7.33-2.14-11.23-1.54-5.94.92-9.66,4.41-11.52,10-1.33,4.02-1.24,8,.24,12.02,1.64,4.5,4.69,7.42,9.16,8.93,1.18.4,2.4.65,3.6.97H56.64c.12-.08.22-.21.35-.23,2.7-.32,5.25-.95,7.52-2.61,1.48-1.09,2.78-2.24,3.44-4,.24-.63.6-1.29-.28-1.67-1.78-.76-3.55-1.54-5.38-2.18-.79-.28-1.75-.39-2.33.58-1.56,2.61-4.44,3.33-7.24,2.67-2.17-.51-4.17-3.38-3.84-5.55.18,0,.38,0,.58,0,6.04,0,12.07,0,18.11,0,1.68,0,2.12-.33,2.01-2.02-.13-2.14-.24-4.33-.74-6.41-1.2-4.97-4.23-8.56-9.14-10.1-3.45-1.08-7.04-.96-10.6-.01-2.87.76-5.22,2.25-6.99,4.51-3.44,4.38-4.41,9.38-3.2,14.82,1.16,5.23,4.09,8.98,9.14,10.91,1.46.56,3.02.87,4.53,1.29H20.16c.73-.16,1.46-.38,2.2-.47,2.34-.28,4.64-.83,6.53-2.22,4.5-3.31,6.66-7.73,5.92-13.41-.48-3.7-2.39-6.38-5.62-8.14-3.5-1.91-7.47-2.05-11.26-2.91-1.87-.43-3.72-1.03-5.47-1.81-1.39-.62-1.77-2.12-1.62-3.49.17-1.49.81-3.03,2.54-3.29,1.83-.27,3.71-.26,5.56-.24.86.01,1.77.22,2.57.55,2.01.83,2.69,2.67,3.19,4.58.31,1.19.84,1.59,1.99,1.29,2.02-.53,4.05-1.02,6.03-1.66,1.93-.62,1.84-.17,1.34-2.24-1.02-4.18-3.23-7.47-7.32-9.31-3.42-1.55-7-1.88-10.68-1.9-4.11-.03-7.87,1.03-11.12,3.5-1.26.96-2.62,2.18-3.18,3.58-1.02,2.57-1.73,5.3-1.05,8.19.75,3.18,1.92,5.99,4.66,8.06,2.51,1.9,5.44,2.43,8.35,3.09,2.9.66,5.82,1.23,8.7,1.94,1.64.41,2.3,1.79,2.5,3.31.17,1.3-.54,2.84-1.85,3.49-2.98,1.49-6.03,1.41-9.09.39-2.62-.87-3.5-3.2-4.07-5.52-.31-1.25-.88-1.31-1.8-1.19-.57.08-1.13.26-1.7.37C4.28,88.67,2.14,89.09,0,89.52Zm155.07,13.63c0-5.66,0-11.25,0-16.84,0-.66.04-1.34.22-1.97.45-1.56,1.02-3.17,2.78-3.63,1.39-.36,2.87-.56,4.3-.49,1.58.08,2.93.94,3.4,2.54.36,1.22.5,2.54.52,3.82.07,5.08.05,10.16.06,15.24,0,.39,0,.78,0,1.22h9.56c0-4.08,0-8.14,0-12.19,0-1.04-.05-2.08.01-3.12.07-1.17.13-2.36.39-3.5.7-3.06,3.93-4.91,7.16-3.98,1.14.33,2.5.62,2.85,2.06.35,1.43.79,2.88.83,4.33.14,4.99.12,9.99.16,14.98,0,.5.06,1.01.1,1.58,2.69,0,5.29-.07,7.88.03,1.29.05,1.54-.48,1.5-1.59-.11-3.34-.18-6.68-.25-10.02-.09-4.06-.14-8.12-.25-12.18-.06-2.46-3.04-6.33-5.34-7.23-2.17-.85-4.41-.71-6.65-.67-3.02.05-5.32,1.62-7.18,3.83-.79.94-1.32,2.09-1.98,3.17-.97-1.93-1.59-3.9-3.44-5.15-2.41-1.63-5.05-1.92-7.83-1.88-3.17.05-5.69,1.2-7.34,3.99-.46.78-.95,1.55-1.43,2.32-.1-.03-.19-.05-.29-.08.08-1.89.17-3.79.26-5.77h-9.55v31.18h9.54Zm-81.19-56.61h9.4c0-4.59-.02-9.12.01-13.64,0-1.46.1-2.93.24-4.38.22-2.18,1.67-3.83,3.85-4.26,1.19-.23,2.43-.27,3.64-.23,1.27.05,3.06,1.53,3.27,2.6.21,1.07.45,2.15.48,3.23.09,3.99.1,7.99.14,11.98.01,1.54,0,3.08,0,4.66h9.32c.01-.29.04-.53.04-.76-.12-5.89-.18-11.79-.38-17.68-.07-2.18-.15-4.45-.77-6.51-.89-3.01-2.48-5.67-6.05-6.21-.81-.12-1.65-.09-2.46-.23-3.65-.63-6.81.39-9.36,3.01-1.08,1.1-1.85,2.5-2.86,3.89-1.23-4.76-4.87-6.69-9.45-7.09-4.79-.42-8.14,2.07-10.7,6-.06-1.2-.02-2.28.16-3.35.21-1.29-.08-2.18-.96-2.2-2.79-.05-5.57-.02-8.38-.02v31.2c2.57,0,5.08,0,7.59,0,1.71,0,1.69,0,1.71-1.68.08-5.26.14-10.52.3-15.77.06-2.03.92-3.96,2.86-4.62,1.65-.56,3.57-.44,5.37-.39.54.01,1.16.7,1.59,1.21,1.5,1.76,1.31,3.99,1.36,6.05.13,5.03.04,10.06.04,15.2Zm44.2-5.42c.11-.05.21-.1.32-.15.19.26.38.51.56.78,1.24,1.8,2.52,3.62,4.56,4.53,4.3,1.9,8.52,1.31,12.37-1.15,4.13-2.64,5.73-6.89,6.15-11.56.26-2.9.15-5.84-.68-8.69-.85-2.88-2.01-5.62-4.63-7.34-3.29-2.17-6.85-2.84-10.83-2.26-2.61.38-4.23,1.68-5.62,3.64-.64.9-1.35,1.76-2.19,2.85,0-2-.03-3.71.01-5.41.02-.73-.27-1.02-.98-.99-.88.03-1.76.04-2.64.04-1.9,0-3.81,0-5.99,0,0,1.77-.05,3.39.02,5,.05,1.21.4,2.42.39,3.62-.03,10.67-.11,21.33-.18,32,0,.42,0,.84,0,1.34,2.89,0,5.6-.02,8.32.01.77,0,1.11-.23,1.05-1.03-.11-1.54-.24-3.08-.23-4.62,0-1.98.17-3.96.21-5.94.04-1.55,0-3.11,0-4.66Zm51.71-7.08c2.36,0,4.64,0,6.91,0,4.08,0,8.15.03,12.23.04,1.72,0,1.95-.15,1.84-1.78-.15-2.11-.25-4.25-.75-6.29-.8-3.29-2.38-6.15-5.22-8.27-3.78-2.83-8.17-3.13-12.44-2.52-8.61,1.22-13.02,8.86-12.98,16.3,0,1.38.36,2.78.71,4.13.77,2.98,2.2,5.69,4.57,7.62,3.94,3.23,8.49,4.53,13.67,3.82,3.28-.45,6.21-1.44,8.68-3.63,1.34-1.2,2.4-2.64,2.87-4.47-2.43-.87-4.79-1.64-7.08-2.55-.78-.31-1.02-.16-1.49.49-.6.84-1.42,1.58-2.28,2.17-1.29.89-2.84.72-4.33.76-2.59.08-5.18-3.24-4.91-5.82Zm-96.02,37.91v31.16h9.24c.02-.28.06-.51.06-.73.07-5.62.08-11.24.23-16.86.07-2.67.8-4.31,3.1-4.93,1.3-.35,2.76-.16,4.14-.18,1.41-.02,2.58.54,3.02,1.92.44,1.39.87,2.86.9,4.3.12,5.08.07,10.16.08,15.23,0,.38.03.77.05,1.15h9.31c0-.52,0-.96,0-1.39-.08-5.9-.21-11.8-.22-17.7,0-2.7-.47-5.29-1.55-7.74-.66-1.5-1.67-2.85-3.3-3.43-2.33-.83-4.7-1.43-7.24-1.25-2.27.17-4.31.85-5.84,2.51-.97,1.06-1.65,2.4-2.51,3.7v-5.76h-9.49Zm172.9,31.09c0-.55,0-.98,0-1.42.01-5.32,0-10.63.06-15.95.02-1.78.62-3.48,2.12-4.52,2.2-1.52,4.67-1.46,6.96-.24.76.4,1.5,1.43,1.64,2.27.39,2.44.57,4.93.64,7.41.1,3.64.02,7.27.03,10.91,0,.5.08,1,.12,1.5h9.3c.04-.18.1-.29.09-.4-.09-4.3-.11-8.6-.29-12.89-.14-3.58-.33-7.18-.74-10.74-.36-3.14-2.2-5.31-5.16-6.5-2.04-.82-4.16-.99-6.34-.97-2.2.02-4.06.77-5.52,2.35-1.03,1.11-1.88,2.39-2.95,3.77v-5.57h-9.3v30.98h9.35Zm35.01-22.92c.49,0,.96,0,1.43,0,2,0,4,0,6,0,.53,0,1.06.03,1.04-.77-.04-2.03-.04-4.07-.05-6.1,0-.64-.18-1.02-.96-1.03-2.14-.02-4.28-.14-6.42-.22-1.29-.05-1.57-.42-1.22-1.63.05-.19.05-.4.05-.59,0-1.92-.02-3.84.01-5.76.01-.92-.38-1.28-1.3-1.28-2.48,0-4.95-.06-7.43-.11-.91-.02-1.25.39-1.17,1.3.18,2.04.41,4.09.43,6.14.06,7.28.04,14.55.07,21.83,0,1.14.06,2.29.27,3.41.53,2.85,2.17,4.98,4.65,6.4,3.89,2.23,8.16,1.31,12.28,1.5.11-2.38.24-4.6.3-6.81.05-1.7,0-1.7-1.75-1.71-2.06,0-4.13,0-6.23,0v-14.56Zm-173.69-17.24c0,.34,0,.77,0,1.2,0,7.75-.02,15.51.01,23.26.01,2.46,0,4.94.31,7.36.47,3.58,2.52,6.14,5.88,7.52,3.58,1.47,7.34.4,10.96.78v-8.2c-2,0-4,0-5.99,0-1.35,0-1.85-.55-1.82-1.86.08-2.78.15-5.57.2-8.36.03-1.46,0-2.93,0-4.43,2.49,0,4.84-.02,7.19.01,1.05.02,1.54-.35,1.51-1.47-.05-1.8-.06-3.6,0-5.39.03-1.02-.31-1.47-1.37-1.44-1.84.04-3.68,0-5.51.02-1.7.03-1.89-.2-1.84-1.91.05-1.88.05-3.76-.01-5.63-.02-.6.05-1.46-.98-1.47-2.78,0-5.57,0-8.54,0ZM145.85,2.96c.11,1.38.3,2.63.3,3.89.02,11.16.03,22.31,0,33.47,0,1.08-.29,2.16-.4,3.25-.06.59-.18,1.24-.01,1.77.15.47.65,1.16,1.02,1.17,2.98.09,5.97.05,8.96.05V2.96h-9.87Zm75.89,43.7s0,0,0,0c2.76,0,5.52,0,8.28,0,1.1,0,1.73-.51,1.83-1.59.17-1.97.38-3.94.43-5.91.06-2.76-.08-5.52,0-8.27.03-.93-.45-1.21-1.09-1.33-.96-.18-1.96-.3-2.93-.29-5.14.06-10.28.17-15.43.26-1.22.02-1.61.42-1.61,1.66,0,4.44,0,8.88,0,13.32,0,.33.12.68.24,1,.5,1.34,1.69,1.13,2.73,1.15,2.52.03,5.04.01,7.55.01Zm-173.3-.13v-1.42c0-8.11,0-16.22,0-24.34,0-1.4.09-2.8,0-4.19-.03-.42-.54-1.15-.84-1.16-2.82-.09-5.64-.05-8.45-.05v31.16h9.29Zm82.62,25.36v31.3h9.25c.03-.16.08-.27.08-.38.02-9.32.07-18.63.02-27.95-.01-2.07-.89-2.85-2.91-2.95-2.11-.1-4.23-.02-6.44-.02ZM214.4,6.94c-.46-.49-1.19-1.27-1.93-2.05-2.08-2.19-4.2-4.26-7.47-4.52-2.23-.18-4.31-.03-5.92,1.8-1.07,1.22-1.46,3.72-.54,4.81,1.01,1.19,2.09,2.36,3.32,3.29,2.78,2.11,6.13,2.47,9.46,2.67,3.45.21,6.89-.07,10.28-.73,3.36-.65,6.56-1.61,8.66-4.68.91-1.33,1.06-3.68.34-5.08-.81-1.59-2.34-1.8-3.73-2.08-3.23-.65-5.89.65-8.22,2.81-1.37,1.27-2.81,2.48-4.27,3.76Zm8.85,18.54c3.27,0,6.55,0,9.82,0,1.99,0,2.38-.39,2.4-2.44.01-1.84,0-3.67,0-5.51,0-1.67-.48-2.19-2.18-2.25-1.4-.04-2.8-.02-4.19,0-5.47.03-10.94.08-16.41.07-1.03,0-1.28.44-1.26,1.37.05,2.28.01,4.55.01,6.83,0,1.82.11,1.93,1.99,1.93,3.27,0,6.55,0,9.82,0Zm-15.89,9.43c.08,0,.16,0,.24,0,0-1.08.1-2.17-.02-3.24-.24-2.06-.66-2.5-2.46-2.39-1.86.11-3.73.17-5.59.25-1.3.05-1.75.5-1.76,1.83-.01,1.73,0,3.45,0,5.18,0,2.89.01,5.78,0,8.66,0,.79.21,1.35,1.1,1.36,2.24.02,4.47.07,6.71.01,1.09-.03,1.79-.87,1.8-1.99.02-3.22,0-6.45,0-9.67Zm-6.46-19.54c-1.56,0-3.12.05-4.68-.02-1.11-.05-1.69.56-1.78,1.48-.19,2.01-.31,4.04-.24,6.06.04,1.17.09,2.66,1.9,2.69,3.15.05,6.3.11,9.45,0,.62-.02,1.66-.77,1.72-1.28.27-2.16.38-4.36.29-6.54-.09-2.24-.4-2.39-2.7-2.39-1.32,0-2.64,0-3.96,0Zm-59.54,46.5c.19-1.77-.21-3.66-2.24-4.61-1.82-.85-3.81-.87-5.76-.39-.73.18-1.53.44-2.08.91-1.92,1.63-2.23,5.28-.91,7.42,1.25,2.02,3.11,2.62,5.42,2.52,3.82-.16,5.57-1.81,5.57-5.85Z"/>
  <path class="cls-3" d="m0,89.52c2.14-.43,4.28-.85,6.42-1.28.57-.11,1.13-.29,1.7-.37.92-.13,1.49-.07,1.8,1.19.57,2.32,1.45,4.65,4.07,5.52,3.07,1.02,6.12,1.09,9.09-.39,1.31-.65,2.02-2.19,1.85-3.49-.2-1.52-.85-2.9-2.5-3.31-2.88-.71-5.8-1.28-8.7-1.94-2.91-.67-5.84-1.19-8.35-3.09-2.74-2.07-3.9-4.88-4.66-8.06-.68-2.89.03-5.62,1.05-8.19.56-1.4,1.92-2.63,3.18-3.58,3.26-2.47,7.01-3.53,11.12-3.5,3.69.03,7.26.36,10.68,1.9,4.08,1.85,6.29,5.13,7.32,9.31.51,2.07.59,1.62-1.34,2.24-1.98.64-4.01,1.14-6.03,1.66-1.15.3-1.68-.09-1.99-1.29-.5-1.91-1.17-3.76-3.19-4.58-.8-.33-1.71-.54-2.57-.55-1.86-.02-3.74-.03-5.56.24-1.73.25-2.37,1.79-2.54,3.29-.16,1.37.22,2.87,1.62,3.49,1.75.78,3.6,1.38,5.47,1.81,3.78.86,7.75,1,11.26,2.91,3.23,1.76,5.14,4.44,5.62,8.14.74,5.68-1.42,10.11-5.92,13.41-1.89,1.39-4.19,1.93-6.53,2.22-.74.09-1.47.31-2.2.47h-5.76c-.16-.08-.31-.22-.47-.24-3.92-.34-7.22-2.06-10.07-4.68C1.91,96.97.86,94.61,0,92.16,0,91.28,0,90.4,0,89.52Z"/>
  <path class="cls-3" d="m0,33.6c2.05-.56,4.09-1.12,6.14-1.68.78-.21,1.56-.44,2.34-.65.78-.21,1.25.13,1.35.89.42,3.17,2.14,5.29,5.07,6.5,2.38.99,7.2.07,8.99-1.64,1.16-1.11,1.27-2.29.84-3.73-.47-1.6-1.65-2.24-3.09-2.58-4.42-1.05-8.9-1.92-13.27-3.15-3.26-.92-5.46-3.32-6.65-6.45-.64-1.68-1.21-3.52-1.18-5.28.07-5.38,2.86-10.38,9.11-12.21,3.63-1.06,7.33-1.15,11.09-.76,2.95.3,5.65,1.18,8.08,2.83,3.13,2.13,4.79,5.19,5.3,8.9.09.62.02,1.1-.84,1.31-2.68.66-5.34,1.46-7.95,2.19-.59-1.57-1.01-2.93-1.61-4.19-.53-1.13-1.49-1.84-2.75-2.15-2.44-.6-4.91-.73-7.34-.18-1.89.43-2.74,1.77-2.86,3.53-.16,2.22,1.27,3.45,2.78,3.85,3.08.81,6.21,1.43,9.31,2.2,2.15.54,4.34,1.01,6.37,1.84,2.96,1.21,4.6,3.69,5.3,6.74,1.16,5.05.06,9.55-3.71,13.18-2.32,2.24-5.15,3.61-8.43,3.9-1.96.17-3.93.51-5.88.44-4.46-.16-8.73-1.18-12.17-4.23-2.03-1.8-3.49-4.07-4.12-6.79-.02-.09-.15-.15-.22-.23,0-.8,0-1.6,0-2.4Z"/>
  <path class="cls-3" d="m52.56,103.68c-1.51-.42-3.07-.74-4.53-1.29-5.05-1.93-7.98-5.68-9.14-10.91-1.2-5.44-.24-10.44,3.2-14.82,1.77-2.26,4.13-3.75,6.99-4.51,3.57-.94,7.16-1.06,10.6.01,4.91,1.53,7.94,5.13,9.14,10.1.5,2.08.61,4.26.74,6.41.1,1.69-.33,2.02-2.01,2.02-6.04,0-12.07,0-18.11,0-.2,0-.39,0-.58,0-.33,2.17,1.67,5.04,3.84,5.55,2.81.66,5.68-.06,7.24-2.67.58-.97,1.54-.86,2.33-.58,1.82.64,3.6,1.42,5.38,2.18.88.38.52,1.04.28,1.67-.66,1.76-1.96,2.91-3.44,4-2.27,1.67-4.82,2.3-7.52,2.61-.12.01-.23.15-.35.23-1.36,0-2.72,0-4.08,0Zm7.72-19.62c-1.27-5.06-3.04-6.27-7.61-5.59-2.62.39-4.06,3.11-4.1,5.59h11.71Z"/>
  <path class="cls-3" d="m214.8,103.68c-1.2-.32-2.43-.58-3.6-.97-4.47-1.51-7.52-4.43-9.16-8.93-1.47-4.03-1.57-8.01-.24-12.02,1.85-5.59,5.57-9.08,11.52-10,3.9-.6,7.7-.32,11.23,1.54,3.71,1.95,5.99,5.09,6.78,9.19.43,2.22.49,4.52.76,6.77.13,1.06-.37,1.29-1.31,1.28-5.56-.02-11.12-.03-16.67,0-1.01,0-2.01.18-3.01.28.44,3.22,2.63,5.22,4.58,5.61,2.15.43,5.24-.34,6.73-2.81.52-.86,1.33-.92,2.08-.66,2.29.8,4.53,1.72,6.8,2.59-1.09,2.29-2.63,4.18-4.69,5.6-2.06,1.42-4.38,2.13-6.87,2.31-.2.01-.39.15-.59.23h-4.32Zm-4.02-19.54h11.88c.22-2.98-1.36-5.29-4.06-5.62-3.74-.46-6.69.13-7.82,5.62Z"/>
  <path class="cls-3" d="m305.04,103.68c-.8-.2-1.61-.37-2.4-.6-3.65-1.08-6.39-3.21-7.89-6.81-.51-1.21-.43-1.58.87-1.94,2.17-.6,4.36-1.12,6.54-1.68.26-.07.52-.13.48-.12.87,1.21,1.49,2.53,2.51,3.37,1.69,1.4,5.08,1.16,6.62-.36.47-.46.7-1.42.62-2.11-.11-1.08-1.34-1.83-2.43-2.02-2.97-.52-6.01-.83-8.87-1.73-4.9-1.54-7.06-5.79-6.3-10.42.61-3.73,2.95-6.3,6.85-7.14,5.28-1.14,10.46-1.07,15.4,1.34,2.29,1.11,3.29,3.29,4.02,5.58.08.27-.33.96-.63,1.04-2.09.57-4.2,1.03-6.32,1.51-.77.17-1.19-.29-1.38-.94-.5-1.7-1.6-2.62-3.44-2.43-1.17.12-2.37.05-3.52.26-1.06.2-1.49,1.08-1.46,2.12.03.99.7,1.63,1.55,1.87,1.79.51,3.62.88,5.44,1.27,2.09.45,4.26.65,6.28,1.32,2.59.87,3.94,2.97,4.49,5.61.09.43.31.83.47,1.24v2.64c-.16.26-.41.5-.46.77-.63,3.61-3.02,5.66-6.23,6.89-1.64.63-3.38.98-5.07,1.45h-5.76Z"/>
  <path class="cls-3" d="m44.64,0c.38.16.74.39,1.13.45,2.01.33,3.33,1.45,3.57,3.48.3,2.59.36,5.13-2.18,6.62-2.69,1.56-6.92,1.59-8.66-1.58-1.64-2.98-1.43-7.56,3.16-8.78.05-.01.07-.12.11-.19.96,0,1.92,0,2.88,0Z"/>
  <path class="cls-3" d="m155.07,103.15h-9.54v-31.18h9.55c-.09,1.98-.17,3.88-.26,5.77.1.03.19.05.29.08.48-.77.97-1.54,1.43-2.32,1.66-2.79,4.18-3.94,7.34-3.99,2.78-.05,5.43.25,7.83,1.88,1.85,1.26,2.47,3.22,3.44,5.15.66-1.08,1.19-2.23,1.98-3.17,1.86-2.21,4.16-3.78,7.18-3.83,2.23-.04,4.47-.18,6.65.67,2.3.9,5.28,4.77,5.34,7.23.1,4.06.16,8.12.25,12.18.07,3.34.14,6.68.25,10.02.04,1.11-.22,1.64-1.5,1.59-2.59-.1-5.18-.03-7.88-.03-.04-.57-.1-1.08-.1-1.58-.05-4.99-.03-9.99-.16-14.98-.04-1.45-.48-2.9-.83-4.33-.35-1.44-1.71-1.73-2.85-2.06-3.23-.93-6.46.91-7.16,3.98-.26,1.14-.32,2.33-.39,3.5-.06,1.04-.01,2.08-.01,3.12,0,4.05,0,8.11,0,12.19h-9.56c0-.44,0-.83,0-1.22-.01-5.08,0-10.16-.06-15.24-.02-1.28-.16-2.6-.52-3.82-.47-1.6-1.82-2.46-3.4-2.54-1.43-.07-2.91.13-4.3.49-1.76.46-2.33,2.07-2.78,3.63-.18.63-.22,1.31-.22,1.97-.02,5.59,0,11.18,0,16.84Z"/>
  <path class="cls-3" d="m73.88,46.54c0-5.13.09-10.17-.04-15.2-.05-2.06.14-4.29-1.36-6.05-.43-.51-1.04-1.19-1.59-1.21-1.8-.05-3.72-.17-5.37.39-1.94.66-2.8,2.6-2.86,4.62-.16,5.26-.22,10.52-.3,15.77-.03,1.68,0,1.68-1.71,1.68-2.51,0-5.02,0-7.59,0V15.36c2.81,0,5.59-.03,8.38.02.88.01,1.17.91.96,2.2-.18,1.07-.22,2.15-.16,3.35,2.56-3.93,5.91-6.42,10.7-6,4.58.4,8.22,2.33,9.45,7.09,1.01-1.4,1.79-2.79,2.86-3.89,2.55-2.62,5.71-3.64,9.36-3.01.81.14,1.65.11,2.46.23,3.57.54,5.16,3.21,6.05,6.21.61,2.07.69,4.33.77,6.51.2,5.89.27,11.79.38,17.68,0,.23-.02.47-.04.76h-9.32c0-1.57.01-3.12,0-4.66-.03-3.99-.05-7.99-.14-11.98-.03-1.08-.27-2.17-.48-3.23-.21-1.07-2.01-2.56-3.27-2.6-1.21-.05-2.46,0-3.64.23-2.19.43-3.63,2.08-3.85,4.26-.15,1.45-.23,2.92-.24,4.38-.03,4.53-.01,9.06-.01,13.64h-9.4Z"/>
  <path class="cls-3" d="m118.08,41.12c0,1.55.03,3.11,0,4.66-.05,1.98-.21,3.96-.21,5.94,0,1.54.12,3.08.23,4.62.06.8-.28,1.04-1.05,1.03-2.72-.03-5.43-.01-8.32-.01,0-.5,0-.92,0-1.34.07-10.67.15-21.33.18-32,0-1.21-.34-2.41-.39-3.62-.07-1.61-.02-3.23-.02-5,2.18,0,4.08,0,5.99,0,.88,0,1.76,0,2.64-.04.71-.03.99.26.98.99-.04,1.71-.01,3.41-.01,5.41.84-1.09,1.55-1.95,2.19-2.85,1.4-1.96,3.02-3.26,5.62-3.64,3.98-.58,7.54.09,10.83,2.26,2.62,1.73,3.78,4.46,4.63,7.34.83,2.85.94,5.79.68,8.69-.41,4.67-2.02,8.91-6.15,11.56-3.84,2.46-8.07,3.05-12.37,1.15-2.04-.9-3.33-2.73-4.56-4.53-.18-.26-.38-.52-.56-.78-.11.05-.21.1-.32.15Zm7.09-2.35c.99-.2,1.98-.39,2.97-.59,2-.41,3.21-1.63,3.9-3.56.77-2.15.33-4.25.01-6.36-.31-2.06-1.43-3.47-3.54-4.07-2.22-.63-4.44-.58-6.65-.19-.74.13-1.63.59-2.06,1.18-1.99,2.71-2.49,5.77-1.49,8.99.96,3.1,3.13,4.48,6.87,4.61Z"/>
  <path class="cls-3" d="m169.79,34.04c-.27,2.57,2.32,5.89,4.91,5.82,1.49-.04,3.04.12,4.33-.76.86-.59,1.68-1.33,2.28-2.17.47-.65.71-.8,1.49-.49,2.3.91,4.65,1.69,7.08,2.55-.47,1.83-1.53,3.27-2.87,4.47-2.46,2.2-5.4,3.18-8.68,3.63-5.17.71-9.72-.59-13.67-3.82-2.37-1.94-3.8-4.64-4.57-7.62-.35-1.35-.7-2.75-.71-4.13-.04-7.44,4.37-15.08,12.98-16.3,4.27-.6,8.65-.3,12.44,2.52,2.84,2.12,4.41,4.98,5.22,8.27.5,2.04.6,4.18.75,6.29.12,1.63-.12,1.78-1.84,1.78-4.08,0-8.15-.03-12.23-.04-2.28,0-4.55,0-6.91,0Zm11.41-6.37c-.03-1.63-.03-3.19-1.26-4.26-1.51-1.31-6-1.87-7.92-.7-1.86,1.14-2.29,2.94-2.49,4.96h11.68Z"/>
  <path class="cls-3" d="m73.78,71.95h9.49v5.76c.86-1.3,1.53-2.64,2.51-3.7,1.53-1.67,3.57-2.35,5.84-2.51,2.54-.18,4.91.42,7.24,1.25,1.63.58,2.64,1.94,3.3,3.43,1.08,2.45,1.54,5.03,1.55,7.74.01,5.9.14,11.8.22,17.7,0,.44,0,.88,0,1.39h-9.31c-.02-.38-.05-.76-.05-1.15-.02-5.08.04-10.16-.08-15.23-.03-1.44-.46-2.91-.9-4.3-.44-1.38-1.61-1.94-3.02-1.92-1.39.02-2.84-.17-4.14.18-2.31.62-3.03,2.26-3.1,4.93-.15,5.62-.16,11.24-.23,16.86,0,.23-.04.46-.06.73h-9.24v-31.16Z"/>
  <path class="cls-3" d="m246.68,103.04h-9.35v-30.98h9.3v5.57c1.07-1.38,1.93-2.66,2.95-3.77,1.46-1.58,3.32-2.33,5.52-2.35,2.18-.02,4.29.15,6.34.97,2.96,1.2,4.8,3.36,5.16,6.5.41,3.56.59,7.15.74,10.74.17,4.3.2,8.6.29,12.89,0,.11-.05.23-.09.4h-9.3c-.04-.5-.11-1-.12-1.5,0-3.64.07-7.28-.03-10.91-.07-2.48-.25-4.97-.64-7.41-.13-.84-.88-1.87-1.64-2.27-2.3-1.22-4.76-1.28-6.96.24-1.5,1.03-2.09,2.74-2.12,4.52-.06,5.32-.05,10.63-.06,15.95,0,.44,0,.87,0,1.42Z"/>
  <path class="cls-3" d="m281.69,80.12v14.56c2.11,0,4.17,0,6.23,0,1.76,0,1.8.01,1.75,1.71-.06,2.22-.19,4.44-.3,6.81-4.12-.19-8.39.73-12.28-1.5-2.48-1.42-4.12-3.55-4.65-6.4-.21-1.11-.27-2.27-.27-3.41-.04-7.28,0-14.55-.07-21.83-.02-2.05-.25-4.09-.43-6.14-.08-.9.26-1.31,1.17-1.3,2.48.05,4.95.1,7.43.11.92,0,1.31.35,1.3,1.28-.03,1.92,0,3.84-.01,5.76,0,.2,0,.41-.05.59-.35,1.2-.07,1.58,1.22,1.63,2.14.08,4.28.2,6.42.22.78,0,.96.39.96,1.03.01,2.03.01,4.07.05,6.1.02.81-.51.77-1.04.77-2,0-4,0-6,0-.47,0-.94,0-1.43,0Z"/>
  <path class="cls-3" d="m108,62.88c2.98,0,5.76,0,8.54,0,1.03,0,.96.86.98,1.47.07,1.88.06,3.76.01,5.63-.05,1.71.15,1.94,1.84,1.91,1.84-.03,3.68.02,5.51-.02,1.05-.03,1.4.42,1.37,1.44-.06,1.8-.06,3.6,0,5.39.03,1.11-.46,1.48-1.51,1.47-2.35-.04-4.7-.01-7.19-.01,0,1.5.02,2.96,0,4.43-.05,2.79-.12,5.57-.2,8.36-.04,1.31.47,1.86,1.82,1.86,1.99,0,3.98,0,5.99,0v8.2c-3.62-.38-7.38.69-10.96-.78-3.36-1.37-5.41-3.93-5.88-7.52-.32-2.43-.3-4.91-.31-7.36-.03-7.75-.01-15.51-.01-23.26,0-.43,0-.86,0-1.2Z"/>
  <path class="cls-3" d="m145.85,2.96h9.87v43.6c-2.99,0-5.98.04-8.96-.05-.37-.01-.87-.7-1.02-1.17-.17-.54-.05-1.18.01-1.77.11-1.09.4-2.17.4-3.25.03-11.16.03-22.31,0-33.47,0-1.25-.19-2.51-.3-3.89Z"/>
  <path class="cls-2" d="m221.74,46.65c-2.52,0-5.04.02-7.55-.01-1.04-.01-2.23.19-2.73-1.15-.12-.32-.24-.67-.24-1-.02-4.44-.01-8.88,0-13.32,0-1.24.4-1.64,1.61-1.66,5.14-.1,10.28-.2,15.43-.26.98-.01,1.97.11,2.93.29.64.12,1.12.41,1.09,1.33-.08,2.76.06,5.52,0,8.27-.04,1.97-.26,3.94-.43,5.91-.09,1.08-.73,1.6-1.83,1.59-2.76-.01-5.52,0-8.28,0,0,0,0,0,0,0Z"/>
  <path class="cls-3" d="m48.44,46.52h-9.29V15.37c2.8,0,5.63-.04,8.45.05.31,0,.81.74.84,1.16.1,1.39,0,2.79,0,4.19,0,8.11,0,16.22,0,24.34v1.42Z"/>
  <path class="cls-3" d="m131.06,71.88c2.21,0,4.33-.08,6.44.02,2.01.1,2.9.88,2.91,2.95.05,9.32,0,18.63-.02,27.95,0,.11-.04.22-.08.38h-9.25v-31.3Z"/>
  <path class="cls-2" d="m214.4,6.94c1.46-1.28,2.89-2.49,4.27-3.76,2.34-2.16,5-3.46,8.22-2.81,1.39.28,2.92.49,3.73,2.08.71,1.41.56,3.76-.34,5.08-2.1,3.07-5.3,4.03-8.66,4.68-3.39.66-6.83.94-10.28.73-3.34-.2-6.69-.56-9.46-2.67-1.23-.94-2.32-2.1-3.32-3.29-.92-1.09-.53-3.6.54-4.81,1.61-1.83,3.69-1.98,5.92-1.8,3.27.26,5.39,2.33,7.47,4.52.74.78,1.47,1.56,1.93,2.05Zm-3.21,2.15c-.95-3.5-5.66-5.67-8.28-5.2-1.19.21-1.47,1.37-.48,2.22,2.5,2.14,5.53,2.78,8.76,2.98Zm6.94-.24c.18.08.39.26.53.22,2.36-.62,4.74-1.19,7.05-1.95,1.16-.38,1.72-1.41,1.78-2.65-3.37-1.86-6.68.34-9.36,4.37Z"/>
  <path class="cls-2" d="m223.25,25.48c-3.27,0-6.55,0-9.82,0-1.88,0-1.99-.11-1.99-1.93,0-2.28.03-4.55-.01-6.83-.02-.94.23-1.37,1.26-1.37,5.47,0,10.94-.05,16.41-.07,1.4,0,2.8-.04,4.19,0,1.7.05,2.18.58,2.18,2.25,0,1.84.01,3.67,0,5.51-.02,2.05-.41,2.44-2.4,2.44-3.27,0-6.55,0-9.82,0Z"/>
  <path class="cls-2" d="m207.36,34.9c0,3.22.01,6.45,0,9.67,0,1.12-.7,1.96-1.8,1.99-2.23.06-4.47,0-6.71-.01-.89,0-1.1-.56-1.1-1.36.02-2.89,0-5.78,0-8.66,0-1.73-.01-3.45,0-5.18.01-1.33.46-1.77,1.76-1.83,1.86-.08,3.73-.14,5.59-.25,1.8-.1,2.22.33,2.46,2.39.12,1.07.02,2.16.02,3.24-.08,0-.16,0-.24,0Z"/>
  <path class="cls-2" d="m200.9,15.36c1.32,0,2.64,0,3.96,0,2.3,0,2.61.15,2.7,2.39.09,2.18-.02,4.38-.29,6.54-.06.51-1.11,1.26-1.72,1.28-3.14.11-6.3.05-9.45,0-1.8-.03-1.85-1.52-1.9-2.69-.07-2.02.05-4.05.24-6.06.08-.92.67-1.53,1.78-1.48,1.56.07,3.12.02,4.68.02Z"/>
  <path class="cls-3" d="m141.36,61.86c0,4.03-1.75,5.69-5.57,5.85-2.31.1-4.17-.5-5.42-2.52-1.33-2.14-1.02-5.79.91-7.42.56-.47,1.35-.73,2.08-.91,1.95-.47,3.94-.46,5.76.39,2.03.95,2.44,2.84,2.24,4.61Z"/>
</svg>