<?xml version="1.0" encoding="UTF-8"?>
<svg id="Layer_1" data-name="Layer 1" xmlns="http://www.w3.org/2000/svg" viewBox="0 0 322.43 103.63">
  <defs>
    <style>
      .cls-1 {
        fill: #fff;
      }

      .cls-2 {
        fill: #1ea9e1;
      }

      .cls-3 {
        fill: #1b1e2f;
      }
    </style>
  </defs>
  <path class="cls-1" d="m175.7,103.01c.13-5.84.22-11.59.4-17.35.13-3.95,3.56-6.54,7.41-5.58,1.38.34,2.72,1.03,3.09,2.62.3,1.29.64,2.61.66,3.92.08,5.12.04,10.24.05,15.36,0,.35.06.7.09,1.05.38.02.63.05.88.05,2.28,0,4.57-.08,6.85.03,1.64.08,1.65.21,1.63-1.36-.08-6.72-.09-13.43-.29-20.14-.05-1.76,0-3.66-1.2-5.22-.27-.35-.39-.82-.7-1.12-1.2-1.15-2.27-2.77-3.71-3.24-2.04-.67-4.38-.7-6.57-.59-1.46.08-3.02.65-4.27,1.43-2.15,1.33-3.78,3.24-4.7,6.02-1.15-3-2.53-5.54-5.49-6.63-2.86-1.05-5.79-1.23-8.75-.38-3.08.88-4.37,3.58-6.07,6.33-.08-.6-.14-.79-.13-.97.07-1.47.15-2.93.24-4.4.04-.65-.19-1-.92-.99-2.9.02-5.8,0-8.73,0v31.29h9.57c0-4.13,0-8.08,0-12.03,0-1.87-.11-3.76.1-5.61.44-3.94,2.24-5.46,6.17-5.46.29,0,.58,0,.87,0,1.85.04,3.61,1.5,3.88,3.31.15,1,.25,2.03.26,3.04.04,4.96.03,9.91.04,14.87,0,.57,0,1.13,0,1.77h9.31Zm-92.62-56.49c0-2.81-.07-5.54.02-8.25.1-3.27.21-6.54.55-9.79.31-2.94,2.53-4.71,5.47-4.71.58,0,1.16-.02,1.74,0,1.16.05,3.36,1.63,3.53,2.64.25,1.46.52,2.93.54,4.4.05,4.71-.01,9.41-.03,14.12,0,.53.05,1.05.07,1.55h9.27c0-3.33.06-6.58-.01-9.83-.09-4.18-.17-8.37-.5-12.53-.2-2.56-1.02-5.02-3.07-6.84-.72-.64-1.35-1.56-2.19-1.83-1.35-.43-2.84-.48-4.28-.58-1.03-.07-2.1-.13-3.09.1-1.29.3-2.52.88-3.76,1.37-.33.13-.7.29-.91.55-1.25,1.54-2.89,2.81-3.45,4.85-.03.1-.18.17-.46.42-1.45-4.88-4.97-7.06-9.8-7.31-5.03-.26-8.19,2.51-10.44,6.76-.1-1.03-.04-1.95,0-2.87.04-.9.12-1.81.06-2.71-.01-.25-.43-.67-.66-.68-2.89-.05-5.78-.03-8.7-.03v31.16h9.23c.04-.36.1-.64.1-.92,0-3.34-.05-6.69,0-10.03.03-2.17.09-4.35.35-6.5.23-1.98,1.04-3.86,2.93-4.77,1.03-.5,2.36-.39,3.57-.5,2.59-.23,3.79,1.27,4.34,3.25.2.74.33,1.52.34,2.28.06,5.11.08,10.23.12,15.35,0,.61,0,1.22,0,1.88h9.11ZM1.97,65.51c-.2.77-.33,1.49-.58,2.16-.82,2.22-.91,4.56-.48,6.77,1.01,5.22,4.21,8.69,9.45,10.01,3.83.97,7.73,1.69,11.6,2.52,1.75.37,2.74,1.48,3.01,3.24.31,1.99-.47,3.45-2.18,4.18-2.66,1.12-5.4.99-8.16.33-2.88-.69-3.91-2.92-4.58-5.43-.48-1.79-.5-1.8-2.41-1.35-2.47.59-4.95,1.11-7.57,1.69,0,.49-.14,1.3.02,2.04,1.04,4.64,3.91,7.84,8.12,9.95,2.94,1.47,6.12,1.91,9.33,1.92,2.18,0,4.4-.27,6.53-.77,2.64-.61,5.26-1.68,7.08-3.69,2.54-2.81,4.01-6.08,3.89-10.14-.17-5.92-4.08-9.47-8.83-10.84-3.32-.95-6.84-1.24-10.2-2.08-2.48-.61-5.2-1.14-5.08-4.79.05-1.56.97-3.29,2.85-3.57,1.62-.24,3.29-.32,4.93-.25,2.55.11,4.69,1.01,5.6,3.66.22.64.53,1.27.65,1.93.21,1.16.87,1.2,1.8.94,2.02-.55,4.03-1.11,6.07-1.57,1.7-.38,1.77-.37,1.38-2.02-1.27-5.33-4.48-8.83-9.8-10.44-3.88-1.17-7.82-1.22-11.77-.67-1.45.2-2.91.64-4.24,1.26-2.27,1.06-4.3,2.49-5.73,4.62-.15.22-.53.29-.7.37ZM17.08,2.58c-1.64.12-3.3.11-4.9.4-3.09.56-6.01,1.78-8.11,4.1C.18,11.38-.21,16.76,2.14,21.68c1.72,3.6,4.85,5.56,8.57,6.51,3.83.98,7.72,1.67,11.58,2.51,1.76.38,2.76,1.84,2.91,4.11.06,1.03-1.42,2.87-2.51,3.37-1.91.87-3.92.69-5.92.71-1.73,0-3.17-.72-4.42-1.81-1.51-1.31-2.23-3.08-2.53-5-.14-.87-.52-.98-1.26-.78-2.39.64-4.76,1.35-7.19,1.8-1.24.23-1.47.77-1.3,1.79.1.59.17,1.2.37,1.77,1.6,4.53,4.67,7.6,9.27,9.18,4.41,1.51,8.86,1.53,13.42.77,6.2-1.02,12.24-6.21,11.87-13.94-.22-4.64-2.06-8.25-6.33-10.03-2.9-1.21-6.16-1.59-9.25-2.33-2.04-.49-4.14-.8-6.09-1.51-1.92-.7-2.73-2.26-2.56-4.01.14-1.5,1.57-3.31,3.27-3.51,2.04-.24,4.17-.28,6.18.04,3.01.49,4.3,2.78,4.78,5.56.16.97.6,1.08,1.42.83,1.86-.54,3.73-1.05,5.61-1.54,2.47-.65,2.53-.66,1.92-3.06-1.12-4.39-3.92-7.4-8.1-9.09-2.79-1.13-5.73-1.61-8.77-1.43Zm100.95,38.07c.13-.05.25-.1.38-.15.2.3.4.59.58.89,1.08,1.75,2.37,3.31,4.17,4.4,2.58,1.56,5.36,1.55,8.19,1.03,5.53-1.02,9.12-5.22,10.27-10.31.8-3.52.82-7.11.06-10.67-.59-2.77-1.7-5.31-3.68-7.39-2.56-2.69-5.94-3.33-9.44-3.59-.64-.05-1.35-.03-1.92.21-1.24.52-2.9,0-3.77,1.45-.05.08-.32.02-.46.07-.16.06-.33.16-.43.29-1.24,1.6-2.47,3.21-3.71,4.84-.08-.17-.25-.34-.24-.52.05-1.62.12-3.25.21-4.87.04-.76-.28-1.04-1.03-1.01-.95.04-1.91.02-2.86.02-1.85,0-3.7,0-5.38,0-.22,1.19-.55,2.19-.54,3.18,0,1.11.47,2.21.48,3.32.05,8.54.04,17.09.02,25.63,0,1.68-.13,3.37-.16,5.05-.03,1.55,0,3.1,0,4.7,2.95,0,5.73-.02,8.51.01.72,0,1-.29.96-.95-.07-1.26-.24-2.52-.23-3.79.03-3.12.17-6.24.22-9.36.01-.83-.12-1.67-.19-2.51Zm-48.88,49.92c.21-.57.43-.91.44-1.25.07-3.1-.12-6.17-1.28-9.09-1.39-3.49-3.92-6.05-7.22-7.65-1.66-.8-3.68-1.1-5.55-1.18-4.13-.16-8.02.57-11.46,3.28-1.42,1.12-2.32,2.47-3.19,3.85-2.46,3.9-2.73,8.27-1.91,12.66,1.06,5.64,4.41,9.52,9.92,11.38,2.55.86,5.17,1.14,7.91.82,2.41-.29,4.69-.77,6.75-2.04,1.95-1.2,3.76-2.51,4.61-4.82.37-1.02-.12-1.33-.81-1.62-1.43-.59-2.9-1.08-4.32-1.69-1.95-.85-2.18-.81-3.39,1.05-.13.2-.33.37-.5.54-1.37,1.38-3.09,1.63-4.94,1.58-3.06-.09-5.5-2.59-5.44-5.83h20.39Zm13.92,12.45c0-1.5-.02-2.86,0-4.22.08-4.65.04-9.3.32-13.94.11-1.84.9-3.83,2.95-4.41,1.46-.41,3.11-.25,4.67-.18,1.95.09,2.81,1.48,3.21,3.16.23.98.3,2.02.31,3.04.04,5.12.03,10.24.04,15.36,0,.39.04.79.06,1.18h9.3c.04-.14.08-.22.08-.29-.08-6.63-.09-13.26-.28-19.89-.05-1.86-.38-3.79-1.04-5.52-.86-2.26-2.18-4.34-4.82-5.03-.46-.12-.94-.21-1.39-.37-3.99-1.39-9.77-.51-12.13,4.18-.39.78-.79,1.55-1.15,2.25v-6.48h-9.5v31.15h9.38Zm106.88-64.07c-2.48-.91-4.75-1.71-7-2.59-.61-.24-1.04-.4-1.43.31-1.34,2.46-3.46,3.27-6.22,3.24-3.36-.04-5.56-2.99-5.64-5.96.62,0,1.23,0,1.85,0,5.98,0,11.97-.02,17.95.02,1.02,0,1.34-.28,1.36-1.33.05-3.35-.48-6.59-1.82-9.64-1-2.27-2.47-4.2-4.66-5.61-1.53-.99-3.2-1.79-4.85-2.05-2.69-.43-5.52-.64-8.25.06-1.11.29-2.22.69-3.24,1.21-3.63,1.82-6.04,4.75-7.33,8.55-.52,1.53-1.08,3.13-1.15,4.72-.07,1.78.22,3.63.65,5.38,1.29,5.31,4.48,8.97,9.73,10.86,3.32,1.2,6.68,1.19,10.05.65,3.79-.61,6.82-2.57,9.02-5.72.44-.64.67-1.42.98-2.1Zm21.02,51.75c.9-.08,1.78-.23,2.67-.23,5.78-.03,11.55-.04,17.33-.02.91,0,1.32-.25,1.22-1.2-.27-2.38-.25-4.82-.81-7.12-1.2-4.91-4.32-8.3-9.18-9.9-2.74-.9-5.57-1.21-8.45-.64-3.97.79-7.43,2.4-9.71,5.89-2.68,4.1-3.62,8.7-2.69,13.41,1.16,5.9,4.72,10.09,10.63,11.9,2.44.75,4.98.86,7.6.59,4.11-.43,7.53-1.9,10.09-5.14.67-.85,1.16-1.86,1.76-2.83-2.46-.9-4.66-1.66-6.81-2.51-1-.39-1.53-.19-2.07.76-.4.7-1.06,1.37-1.76,1.76-4.53,2.48-8.67.51-9.79-4.71Zm26.3-18.8v31.1h9.37c0-5.3-.01-10.54.01-15.77,0-.97.05-1.96.27-2.9.57-2.46,2.25-4.52,5.42-4.32.46.03.91,0,1.37,0,1.74,0,3.54,1.31,3.88,2.99.27,1.34.49,2.73.5,4.09.06,4.91.03,9.83.04,14.74,0,.39.04.78.06,1.16h9.39c0-4.03.1-7.99-.03-11.94-.12-3.91-.34-7.83-.77-11.71-.26-2.35-1.39-4.37-3.39-5.89-1.49-1.13-3.12-1.63-4.91-1.91-3.71-.58-7.02-.01-9.5,3.06-.83,1.04-1.52,2.18-2.37,3.41v-6.11h-9.35Zm65.87,20.5c-2.82.7-5.49,1.33-8.13,2.06-.25.07-.58.93-.44,1.18.89,1.54,1.65,3.29,2.93,4.44,2.54,2.25,5.76,3.2,9.13,3.46,3.04.24,6.02-.2,8.89-1.21,5.09-1.79,7.71-6.2,6.66-11.43-.65-3.2-2.51-5.49-5.76-6.29-2.57-.64-5.23-.92-7.84-1.44-1.11-.22-2.23-.54-3.24-1.02-1.22-.59-1.06-1.9-.76-2.84.19-.57,1.16-1.07,1.86-1.24.86-.21,1.81-.05,2.73-.04,2.35.02,2.98.47,3.79,2.69.19.54.43.9,1.15.72,2.08-.51,4.18-.94,6.26-1.43.55-.13.99-.41.74-1.11-.9-2.46-2.11-4.69-4.67-5.81-4.61-2.01-9.37-2.25-14.23-1.13-2.59.6-4.76,1.84-6.13,4.21-.87,1.5-1.31,3.11-1.34,4.86-.03,1.93.86,3.61,1.73,5.18.57,1.03,1.72,1.84,2.78,2.48,2.71,1.63,5.9,1.51,8.86,2.28,1.39.36,3.12-.12,4.06,1.67.53,1.01.77,1.81-.04,2.7-1.51,1.65-3.55,1.52-5.4,1.21-1.95-.34-3.28-1.72-3.6-4.14Zm-177.9,10.47c0-2.42-.18-4.8.07-7.15.14-1.33-.49-1.08-1.19-1.08-1.7-.01-3.41-.08-5.1.02-1.23.08-1.56-.38-1.55-1.52.05-3.92.02-7.84.02-11.76,0-.43,0-.87,0-1.36,2.61,0,5.02-.06,7.42.03,1.1.04,1.35-.37,1.33-1.36-.06-1.86-.05-3.72,0-5.57.03-.95-.25-1.33-1.26-1.29-1.99.07-3.98-.06-5.97.04-1.24.07-1.57-.4-1.54-1.54.06-2.19.05-4.37,0-6.56-.01-.37-.41-1.03-.65-1.04-2.93-.07-5.85-.05-8.79-.05,0,9.58,0,18.99.01,28.4,0,1.09.07,2.19.26,3.27.58,3.34,2.29,5.89,5.39,7.45,1.61.81,3.31,1.07,5.09,1.07,2.17,0,4.34,0,6.47,0Zm155.76-31.56c.23-.53.52-.88.53-1.24.04-2.19.05-4.38,0-6.57,0-.29-.41-.8-.64-.81-2.86-.05-5.73-.04-8.6,0-.19,0-.54.43-.54.65.01.52.3,1.03.3,1.55.12,9.73.17,19.45.32,29.18.05,3.37,3.02,7.11,6.59,8.24,3.44,1.09,6.97.66,10.46.75.12-2.45.2-4.78.37-7.11.08-1.05-.31-1.37-1.35-1.34-2.27.07-4.54.02-6.81.02v-14.59c.38-.02.66-.04.95-.04,2.16,0,4.32,0,6.48,0,.77,0,1.46.02.98-1.11-.13-.32-.02-.73-.02-1.11,0-1.57-.04-3.14.02-4.71.03-.86-.36-1.02-1.12-1.03-2.22-.04-4.45-.12-6.67-.25-.43-.02-.84-.33-1.25-.5ZM145.93,2.9c.11,1.22.27,2.24.27,3.26.02,11.8.03,23.6,0,35.4,0,.95-.32,1.9-.45,2.86-.04.27.03.57.13.83.16.44.38.85.55,1.23h9.38V2.9h-9.88Zm75.88,43.67c2.74,0,5.48,0,8.22,0,1.05,0,1.79-.42,1.92-1.5.14-1.09.23-2.19.24-3.29.03-3.34.04-6.68,0-10.03-.01-1.62-.11-2.51-2.62-2.54-4.57-.05-9.13-.02-13.7.01-1.06,0-2.13.13-3.19.25-.9.1-1.39.66-1.4,1.54-.03,4.25-.09,8.49-.03,12.74.03,2.25,1,2.88,2.83,2.83,2.57-.08,5.15-.02,7.72-.02Zm-81.41,56.59c0-.6,0-.97,0-1.34,0-8.96.01-17.92.02-26.88q0-3.05-3.01-3.07c-2.13,0-4.26,0-6.39,0v31.29h9.38ZM39.09,15.34v31.14h9.3c0-2.71,0-5.34,0-7.96,0-3.63,0-7.26,0-10.9,0-3.71,0-7.43.04-11.14,0-.74-.15-1.17-1.02-1.16-2.77.03-5.55.01-8.33.01Zm184.36,10.08h0c1.66,0,3.32,0,4.98,0,1.66,0,3.32.02,4.98.02,1.48,0,2.05-.54,2.06-1.97.01-1.86,0-3.71.02-5.57,0-2.32-.36-2.71-2.76-2.71-6.19-.01-12.37,0-18.56,0-.54,0-1.07.11-1.61.14-.79.05-1.13.42-1.12,1.25.04,2.23.01,4.46.02,6.68,0,1.89.2,2.12,2.14,2.14,3.28.03,6.56,0,9.84,0Zm-8.73-18.07c-1.43-1.5-2.78-3.13-4.36-4.5-2.66-2.32-5.74-3.34-9.24-2.05-2.75,1.02-3.88,4.44-2.06,6.69,1.05,1.3,2.41,2.49,3.87,3.31,3.11,1.75,6.68,1.89,10.13,2,2.9.09,5.86-.27,8.73-.77,3.07-.53,6.05-1.53,8.16-4.05,2.16-2.58,1.47-6.63-2.19-7.52-3.35-.82-6.26.2-8.74,2.4-1.54,1.36-2.86,2.96-4.32,4.49Zm-16.94,30.34c0,2.18-.03,4.36,0,6.55.03,2.01.4,2.34,2.37,2.34,1.83,0,3.67.08,5.49-.05.55-.04,1.27-.57,1.54-1.08.32-.6.31-1.42.32-2.14.05-3.87.07-7.75.09-11.62,0-1.39-.57-2.4-1.62-2.41-2.34-.02-4.69.07-7.02.3-.43.04-1.08.92-1.11,1.44-.12,2.22-.05,4.44-.05,6.67Zm2.98-12.28s0,.07,0,.1c1.41,0,2.82,0,4.23,0,1.38,0,2.47-.64,2.5-1.63.07-2.31.09-4.62.02-6.93-.02-.87-.51-1.58-1.55-1.59-1.5-.02-3,0-4.51,0-1.75,0-3.5-.01-5.25.01-1.02.01-1.6.53-1.62,1.59-.02,1.16.13,2.35-.11,3.46-.28,1.24-.14,2.38,0,3.59.13,1.12.79,1.38,1.66,1.41,1.54.05,3.07.01,4.61.01Zm-59.33,36.69c.39-3.69-2.05-5.63-5.72-5.6-3.93.03-5.91,1.87-6,5.56-.07,3.17,2.23,5.55,5.66,5.61,3.25.06,6.59-1.74,6.05-5.57ZM49.42,5.53C49.77,1.08,46.62.21,43.46.01c-3.25-.2-5.91,2.39-5.74,5.47.18,3.31,1.82,5.77,5.66,5.86,3.35.07,6.52-1.71,6.04-5.81Z"/>
  <path class="cls-3" d="m175.7,103.01h-9.31c0-.63,0-1.2,0-1.77-.01-4.96,0-9.91-.04-14.87,0-1.01-.1-2.04-.26-3.04-.28-1.81-2.03-3.26-3.88-3.31-.29,0-.58,0-.87,0-3.93,0-5.73,1.52-6.17,5.46-.21,1.85-.09,3.74-.1,5.61-.01,3.95,0,7.9,0,12.03h-9.57v-31.29c2.93,0,5.83.01,8.73,0,.72,0,.96.34.92.99-.09,1.47-.17,2.93-.24,4.4,0,.19.05.37.13.97,1.7-2.75,2.99-5.45,6.07-6.33,2.96-.84,5.89-.67,8.75.38,2.96,1.09,4.34,3.62,5.49,6.63.92-2.78,2.55-4.68,4.7-6.02,1.25-.78,2.82-1.35,4.27-1.43,2.19-.12,4.53-.08,6.57.59,1.44.47,2.51,2.09,3.71,3.24.31.3.43.77.7,1.12,1.2,1.56,1.14,3.46,1.2,5.22.2,6.71.22,13.43.29,20.14.02,1.57,0,1.45-1.63,1.36-2.28-.12-4.57-.03-6.85-.03-.25,0-.49-.03-.88-.05-.03-.35-.09-.7-.09-1.05-.01-5.12.03-10.24-.05-15.36-.02-1.31-.36-2.63-.66-3.92-.37-1.59-1.71-2.28-3.09-2.62-3.85-.96-7.28,1.63-7.41,5.58-.19,5.75-.27,11.51-.4,17.35Z"/>
  <path class="cls-3" d="m83.08,46.52h-9.11c0-.66,0-1.27,0-1.88-.03-5.12-.05-10.23-.12-15.35,0-.76-.14-1.54-.34-2.28-.55-1.98-1.76-3.48-4.34-3.25-1.2.11-2.54,0-3.57.5-1.89.91-2.69,2.79-2.93,4.77-.25,2.15-.31,4.33-.35,6.5-.05,3.34,0,6.69,0,10.03,0,.28-.06.56-.1.92h-9.23V15.33c2.91,0,5.81-.02,8.7.03.24,0,.65.43.66.68.05.9-.02,1.8-.06,2.71-.04.92-.1,1.84,0,2.87,2.24-4.24,5.4-7.02,10.44-6.76,4.83.25,8.35,2.42,9.8,7.31.28-.25.43-.32.46-.42.55-2.04,2.19-3.31,3.45-4.85.21-.26.58-.42.91-.55,1.24-.49,2.47-1.07,3.76-1.37.98-.23,2.06-.17,3.09-.1,1.44.1,2.93.15,4.28.58.84.27,1.47,1.19,2.19,1.83,2.05,1.82,2.87,4.28,3.07,6.84.33,4.16.4,8.35.5,12.53.07,3.25.01,6.5.01,9.83h-9.27c-.02-.5-.07-1.02-.07-1.55.01-4.71.08-9.41.03-14.12-.02-1.47-.29-2.95-.54-4.4-.17-1.01-2.38-2.59-3.53-2.64-.58-.03-1.16,0-1.74,0-2.94,0-5.16,1.77-5.47,4.71-.34,3.25-.45,6.52-.55,9.79-.09,2.72-.02,5.44-.02,8.25Z"/>
  <path class="cls-3" d="m1.97,65.51c.17-.08.55-.15.7-.37,1.43-2.14,3.46-3.57,5.73-4.62,1.32-.62,2.79-1.05,4.24-1.26,3.95-.56,7.89-.5,11.77.67,5.32,1.6,8.53,5.11,9.8,10.44.39,1.65.32,1.63-1.38,2.02-2.04.46-4.05,1.02-6.07,1.57-.94.26-1.6.22-1.8-.94-.12-.66-.43-1.29-.65-1.93-.92-2.65-3.05-3.56-5.6-3.66-1.64-.07-3.31,0-4.93.25-1.87.28-2.8,2.01-2.85,3.57-.12,3.65,2.61,4.17,5.08,4.79,3.37.84,6.88,1.12,10.2,2.08,4.76,1.37,8.67,4.92,8.83,10.84.11,4.06-1.35,7.32-3.89,10.14-1.82,2.01-4.44,3.08-7.08,3.69-2.12.49-4.35.77-6.53.77-3.21,0-6.39-.44-9.33-1.92-4.21-2.11-7.08-5.3-8.12-9.95-.17-.74-.02-1.56-.02-2.04,2.62-.58,5.1-1.09,7.57-1.69,1.91-.46,1.93-.44,2.41,1.35.67,2.5,1.7,4.74,4.58,5.43,2.76.66,5.5.8,8.16-.33,1.71-.72,2.49-2.19,2.18-4.18-.27-1.76-1.26-2.86-3.01-3.24-3.87-.82-7.76-1.55-11.6-2.52-5.24-1.32-8.44-4.79-9.45-10.01-.43-2.21-.33-4.55.48-6.77.25-.67.38-1.39.58-2.16Z"/>
  <path class="cls-3" d="m17.08,2.58c3.04-.18,5.97.3,8.77,1.43,4.18,1.69,6.97,4.7,8.1,9.09.62,2.41.55,2.41-1.92,3.06-1.87.49-3.75,1-5.61,1.54-.83.24-1.26.13-1.42-.83-.47-2.78-1.77-5.08-4.78-5.56-2.01-.33-4.14-.28-6.18-.04-1.71.2-3.13,2.01-3.27,3.51-.17,1.75.64,3.31,2.56,4.01,1.95.71,4.05,1.02,6.09,1.51,3.1.75,6.35,1.12,9.25,2.33,4.27,1.79,6.11,5.39,6.33,10.03.37,7.73-5.67,12.91-11.87,13.94-4.56.75-9.01.74-13.42-.77-4.6-1.58-7.66-4.64-9.27-9.18-.2-.56-.27-1.17-.37-1.77-.17-1.02.07-1.56,1.3-1.79,2.42-.45,4.8-1.16,7.19-1.8.75-.2,1.13-.1,1.26.78.3,1.92,1.03,3.69,2.53,5,1.25,1.09,2.69,1.82,4.42,1.81,2-.01,4,.16,5.92-.71,1.1-.5,2.58-2.34,2.51-3.37-.14-2.27-1.15-3.73-2.91-4.11-3.86-.84-7.76-1.53-11.58-2.51-3.73-.95-6.86-2.91-8.57-6.51C-.21,16.76.18,11.38,4.07,7.08c2.1-2.32,5.02-3.54,8.11-4.1,1.61-.29,3.27-.28,4.9-.4Z"/>
  <path class="cls-3" d="m118.03,40.65c.07.84.2,1.67.19,2.51-.05,3.12-.19,6.24-.22,9.36-.01,1.26.15,2.52.23,3.79.04.66-.24.95-.96.95-2.78-.03-5.56-.01-8.51-.01,0-1.6-.02-3.15,0-4.7.03-1.68.16-3.37.16-5.05.01-8.54.02-17.09-.02-25.63,0-1.11-.47-2.21-.48-3.32,0-1,.32-1.99.54-3.18,1.67,0,3.52,0,5.38,0,.96,0,1.91.02,2.86-.02.75-.03,1.07.25,1.03,1.01-.09,1.62-.16,3.25-.21,4.87,0,.17.16.35.24.52,1.25-1.63,2.48-3.24,3.71-4.84.1-.13.27-.23.43-.29.14-.06.41,0,.46-.07.88-1.46,2.53-.93,3.77-1.45.57-.24,1.28-.26,1.92-.21,3.5.26,6.88.9,9.44,3.59,1.98,2.08,3.09,4.62,3.68,7.39.76,3.56.74,7.15-.06,10.67-1.15,5.09-4.74,9.3-10.27,10.31-2.83.52-5.61.53-8.19-1.03-1.8-1.09-3.08-2.65-4.17-4.4-.19-.3-.39-.6-.58-.89-.13.05-.25.1-.38.15Zm-.32-9.87c.09.02.19.05.28.07,0,.54-.04,1.08,0,1.61.22,2.3,1.08,4.32,3.27,5.31,2.02.91,4.18,1.05,6.43.53,3.75-.87,4.73-2.9,4.96-6.55.05-.83-.38-1.69-.31-2.52.11-1.45-.88-3.71-2.14-4.46-2.25-1.34-4.77-1.39-7.23-1.2-1.92.16-3.47,1.32-4.2,3.16-.52,1.29-.72,2.69-1.07,4.05Z"/>
  <path class="cls-3" d="m69.16,90.57h-20.39c-.06,3.23,2.38,5.74,5.44,5.83,1.85.05,3.57-.2,4.94-1.58.17-.18.37-.34.5-.54,1.21-1.86,1.44-1.9,3.39-1.05,1.42.62,2.89,1.1,4.32,1.69.69.29,1.19.59.81,1.62-.85,2.31-2.66,3.62-4.61,4.82-2.06,1.27-4.34,1.76-6.75,2.04-2.75.32-5.37.04-7.91-.82-5.51-1.85-8.86-5.74-9.92-11.38-.82-4.38-.56-8.76,1.91-12.66.87-1.38,1.77-2.74,3.19-3.85,3.44-2.71,7.33-3.44,11.46-3.28,1.88.07,3.9.37,5.55,1.18,3.31,1.6,5.84,4.15,7.22,7.65,1.16,2.92,1.35,5.99,1.28,9.09,0,.34-.23.67-.44,1.25Zm-20.77-6.33c3.78,0,7.46,0,11.14-.02.27,0,.77-.29.76-.37-.29-1.55-.37-3.15-1.72-4.34-1.26-1.11-2.69-1.2-4.23-1.23-4-.07-5.18,1.92-5.95,5.96Z"/>
  <path class="cls-3" d="m83.08,103.03h-9.38v-31.15h9.5v6.48c.36-.7.76-1.47,1.15-2.25,2.36-4.69,8.14-5.57,12.13-4.18.45.16.93.25,1.39.37,2.64.69,3.96,2.77,4.82,5.03.66,1.73.98,3.66,1.04,5.52.19,6.63.21,13.26.28,19.89,0,.08-.04.15-.08.29h-9.3c-.02-.39-.06-.78-.06-1.18-.01-5.12,0-10.24-.04-15.36,0-1.02-.08-2.05-.31-3.04-.39-1.68-1.26-3.07-3.21-3.16-1.56-.07-3.21-.23-4.67.18-2.05.57-2.84,2.56-2.95,4.41-.28,4.64-.24,9.29-.32,13.94-.02,1.36,0,2.73,0,4.22Z"/>
  <path class="cls-3" d="m189.96,38.96c-.31.67-.54,1.46-.98,2.1-2.19,3.15-5.23,5.11-9.02,5.72-3.37.55-6.73.55-10.05-.65-5.25-1.89-8.44-5.55-9.73-10.86-.43-1.75-.72-3.6-.65-5.38.07-1.59.63-3.18,1.15-4.72,1.28-3.81,3.69-6.73,7.33-8.55,1.03-.52,2.13-.92,3.24-1.21,2.73-.7,5.55-.49,8.25-.06,1.65.26,3.32,1.07,4.85,2.05,2.2,1.41,3.67,3.34,4.66,5.61,1.34,3.05,1.87,6.29,1.82,9.64-.01,1.05-.34,1.34-1.36,1.33-5.98-.04-11.97-.02-17.95-.02-.62,0-1.23,0-1.85,0,.08,2.97,2.28,5.93,5.64,5.96,2.76.03,4.89-.78,6.22-3.24.39-.71.81-.55,1.43-.31,2.24.88,4.52,1.68,7,2.59Zm-8.63-11.26c-.05-1.84-.15-3.62-1.71-4.69-.85-.58-2.02-.82-3.08-.95-4.75-.61-6.67,1.52-7.08,5.65h11.87Z"/>
  <path class="cls-3" d="m210.98,90.71c1.12,5.22,5.26,7.19,9.79,4.71.71-.39,1.37-1.06,1.76-1.76.54-.94,1.07-1.15,2.07-.76,2.16.85,4.35,1.61,6.81,2.51-.6.98-1.08,1.98-1.76,2.83-2.56,3.24-5.98,4.72-10.09,5.14-2.62.27-5.16.15-7.6-.59-5.91-1.81-9.47-6-10.63-11.9-.93-4.71,0-9.31,2.69-13.41,2.28-3.49,5.74-5.1,9.71-5.89,2.89-.57,5.72-.27,8.45.64,4.86,1.6,7.98,5,9.18,9.9.56,2.3.55,4.74.81,7.12.11.94-.31,1.2-1.22,1.2-5.78-.02-11.55,0-17.33.02-.89,0-1.77.15-2.67.23Zm11.96-6.53c-.55-3.85-1.39-6.12-6.56-5.92-2.97.12-5.23,2.38-5.56,5.92h12.12Z"/>
  <path class="cls-3" d="m237.28,71.91h9.35v6.11c.85-1.23,1.54-2.38,2.37-3.41,2.48-3.08,5.79-3.64,9.5-3.06,1.8.28,3.43.78,4.91,1.91,2,1.52,3.13,3.54,3.39,5.89.42,3.89.65,7.8.77,11.71.12,3.95.03,7.92.03,11.94h-9.39c-.02-.38-.06-.77-.06-1.16-.01-4.91.02-9.83-.04-14.74-.02-1.37-.23-2.75-.5-4.09-.34-1.68-2.14-2.98-3.88-2.99-.46,0-.92.02-1.37,0-3.16-.2-4.84,1.86-5.42,4.32-.22.94-.26,1.93-.27,2.9-.02,5.24-.01,10.47-.01,15.77h-9.37v-31.1Z"/>
  <path class="cls-3" d="m303.15,92.42c.32,2.42,1.65,3.8,3.6,4.14,1.84.32,3.89.45,5.4-1.21.81-.89.58-1.69.04-2.7-.94-1.79-2.67-1.31-4.06-1.67-2.95-.76-6.15-.65-8.86-2.28-1.06-.64-2.21-1.45-2.78-2.48-.87-1.58-1.76-3.25-1.73-5.18.02-1.74.47-3.36,1.34-4.86,1.37-2.37,3.54-3.61,6.13-4.21,4.86-1.12,9.62-.89,14.23,1.13,2.56,1.12,3.78,3.34,4.67,5.81.26.71-.18.98-.74,1.11-2.09.49-4.19.92-6.26,1.43-.72.18-.96-.18-1.15-.72-.8-2.22-1.44-2.67-3.79-2.69-.91,0-1.87-.17-2.73.04-.71.17-1.68.67-1.86,1.24-.31.94-.46,2.25.76,2.84,1.01.49,2.14.8,3.24,1.02,2.6.52,5.26.8,7.84,1.44,3.25.8,5.11,3.09,5.76,6.29,1.05,5.22-1.57,9.63-6.66,11.43-2.87,1.01-5.85,1.45-8.89,1.21-3.37-.26-6.6-1.21-9.13-3.46-1.29-1.14-2.04-2.9-2.93-4.44-.14-.25.18-1.11.44-1.18,2.64-.74,5.32-1.37,8.13-2.06Z"/>
  <path class="cls-3" d="m125.25,102.89c-2.13,0-4.3,0-6.47,0-1.77,0-3.48-.26-5.09-1.07-3.1-1.56-4.81-4.12-5.39-7.45-.19-1.07-.26-2.18-.26-3.27-.02-9.41-.01-18.82-.01-28.4,2.94,0,5.87-.02,8.79.05.23,0,.64.67.65,1.04.06,2.19.07,4.37,0,6.56-.03,1.14.3,1.6,1.54,1.54,1.98-.1,3.98.02,5.97-.04,1.01-.03,1.3.34,1.26,1.29-.06,1.86-.06,3.71,0,5.57.03.99-.23,1.4-1.33,1.36-2.4-.08-4.81-.03-7.42-.03,0,.5,0,.93,0,1.36,0,3.92.03,7.84-.02,11.76-.01,1.15.32,1.6,1.55,1.52,1.7-.11,3.4-.03,5.1-.02.7,0,1.34-.25,1.19,1.08-.25,2.34-.07,4.73-.07,7.15Z"/>
  <path class="cls-3" d="m281.01,71.33c.41.17.82.48,1.25.5,2.22.13,4.45.22,6.67.25.76.01,1.15.16,1.12,1.03-.05,1.57-.02,3.14-.02,4.71,0,.37-.11.79.02,1.11.48,1.13-.21,1.11-.98,1.11-2.16-.01-4.32,0-6.48,0-.29,0-.57.02-.95.04v14.59c2.27,0,4.54.05,6.81-.02,1.04-.03,1.42.28,1.35,1.34-.17,2.32-.25,4.66-.37,7.11-3.49-.09-7.02.35-10.46-.75-3.57-1.13-6.54-4.88-6.59-8.24-.16-9.73-.21-19.45-.32-29.18,0-.52-.29-1.03-.3-1.55,0-.22.34-.65.54-.65,2.86-.05,5.73-.06,8.6,0,.23,0,.63.52.64.81.05,2.19.05,4.38,0,6.57,0,.36-.29.71-.53,1.24Z"/>
  <path class="cls-3" d="m145.93,2.9h9.88v43.58h-9.38c-.17-.38-.39-.8-.55-1.23-.09-.26-.16-.56-.13-.83.13-.96.45-1.91.45-2.86.03-11.8.02-23.6,0-35.4,0-1.02-.17-2.04-.27-3.26Z"/>
  <path class="cls-2" d="m221.81,46.57c-2.57,0-5.15-.06-7.72.02-1.83.05-2.8-.58-2.83-2.83-.06-4.25,0-8.49.03-12.74,0-.88.5-1.45,1.4-1.54,1.06-.11,2.13-.24,3.19-.25,4.57-.03,9.13-.06,13.7-.01,2.51.03,2.6.92,2.62,2.54.03,3.34.02,6.68,0,10.03-.01,1.1-.1,2.2-.24,3.29-.14,1.08-.87,1.5-1.92,1.5-2.74,0-5.48,0-8.22,0Z"/>
  <path class="cls-3" d="m140.4,103.16h-9.38v-31.29c2.13,0,4.26,0,6.39,0q3.02.01,3.01,3.07c0,8.96-.01,17.92-.02,26.88,0,.37,0,.74,0,1.34Z"/>
  <path class="cls-3" d="m39.09,15.34c2.78,0,5.55.02,8.33-.01.87,0,1.03.41,1.02,1.16-.03,3.71-.04,7.43-.04,11.14,0,3.63,0,7.26,0,10.9,0,2.63,0,5.25,0,7.96h-9.3V15.34Z"/>
  <path class="cls-2" d="m223.45,25.42c-3.28,0-6.56.02-9.84,0-1.94-.02-2.14-.25-2.14-2.14,0-2.23.03-4.46-.02-6.68-.02-.83.32-1.2,1.12-1.25.54-.04,1.07-.14,1.61-.14,6.19-.01,12.37-.02,18.56,0,2.39,0,2.77.4,2.76,2.71,0,1.86,0,3.71-.02,5.57-.01,1.43-.58,1.97-2.06,1.97-1.66,0-3.32-.02-4.98-.02-1.66,0-3.32,0-4.98,0h0Z"/>
  <path class="cls-2" d="m214.72,7.34c1.46-1.53,2.78-3.13,4.32-4.49,2.48-2.2,5.38-3.22,8.74-2.4,3.65.89,4.35,4.94,2.19,7.52-2.11,2.52-5.1,3.52-8.16,4.05-2.87.5-5.83.86-8.73.77-3.45-.11-7.02-.25-10.13-2-1.46-.82-2.82-2.01-3.87-3.31-1.82-2.25-.69-5.67,2.06-6.69,3.51-1.3,6.58-.27,9.24,2.05,1.58,1.37,2.93,3.01,4.36,4.5Zm-3.27,1.75c-1.3-3.16-4.77-5.47-8.09-5.37-.53.02-1.41.35-1.5.7-.13.5.13,1.35.54,1.7,2.58,2.2,5.78,2.61,9.05,2.97Zm6.43-.33c.3.13.57.35.77.31,1.96-.45,3.93-.86,5.85-1.45.88-.27,1.76-.78,2.44-1.4.44-.4.71-1.21.65-1.8-.03-.29-.95-.63-1.5-.71-2.39-.34-4.24.78-5.84,2.38-.81.81-1.52,1.71-2.37,2.68Z"/>
  <path class="cls-2" d="m197.78,37.68c0-2.22-.07-4.45.05-6.67.03-.52.68-1.4,1.11-1.44,2.33-.23,4.68-.32,7.02-.3,1.05,0,1.62,1.01,1.62,2.41-.01,3.87-.04,7.75-.09,11.62,0,.72,0,1.54-.32,2.14-.27.5-.98,1.04-1.54,1.08-1.82.13-3.66.05-5.49.05-1.97,0-2.34-.33-2.37-2.34-.03-2.18,0-4.36,0-6.55Z"/>
  <path class="cls-2" d="m200.76,25.4c-1.54,0-3.08.03-4.61-.01-.88-.03-1.53-.29-1.66-1.41-.14-1.21-.28-2.35,0-3.59.25-1.11.09-2.3.11-3.46.02-1.06.6-1.57,1.62-1.59,1.75-.03,3.5-.01,5.25-.01,1.5,0,3-.01,4.51,0,1.04.01,1.52.72,1.55,1.59.06,2.31.05,4.62-.02,6.93-.03,1-1.12,1.64-2.5,1.63-1.41,0-2.82,0-4.23,0,0-.03,0-.07,0-.1Z"/>
  <path class="cls-3" d="m141.43,62.09c.54,3.83-2.81,5.63-6.05,5.57-3.43-.07-5.74-2.44-5.66-5.61.09-3.69,2.06-5.53,6-5.56,3.67-.03,6.11,1.91,5.72,5.6Z"/>
  <path class="cls-3" d="m49.42,5.53c.48,4.1-2.69,5.88-6.04,5.81-3.83-.08-5.48-2.55-5.66-5.86-.17-3.09,2.49-5.68,5.74-5.47,3.16.2,6.31,1.07,5.96,5.52Z"/>
</svg>