<svg width="250" height="250" viewBox="0 0 250 250" fill="none" xmlns="http://www.w3.org/2000/svg">
<rect width="250" height="250" rx="30" fill="#FF4F00"/>
<path d="M37.6758 203.374L37.6401 203.261L60.181 182.626V172.683H24.0179V182.626H45.6181L45.6539 182.721L23.3333 203.374V213.317H60.5441V203.374H37.6758Z" fill="#FFFDF9"/>
<path d="M82.7456 171.735C78.574 171.735 75.1744 172.365 72.5468 173.623C70.0991 174.719 68.0373 176.526 66.6288 178.809C65.2813 181.106 64.4352 183.663 64.1461 186.31L75.1188 187.852C75.5158 185.514 76.3096 183.857 77.5003 182.881C78.8539 181.86 80.5219 181.344 82.2157 181.422C84.4424 181.422 86.0578 182.018 87.062 183.208C88.0563 184.399 88.5624 186.048 88.5624 188.221V189.305H78.0123C72.6421 189.305 68.784 190.496 66.4383 192.877C64.0925 195.259 62.9216 198.402 62.9255 202.308C62.9255 206.309 64.0965 209.286 66.4383 211.239C68.7801 213.191 71.7252 214.162 75.2736 214.15C79.6754 214.15 83.0611 212.636 85.4307 209.607C86.8301 207.746 87.8294 205.616 88.3659 203.35H88.7648L90.277 213.293H100.22V188.114C100.22 182.911 98.8485 178.88 96.1058 176.022C93.3631 173.164 88.9097 171.735 82.7456 171.735ZM86.2225 202.772C84.6448 204.088 82.5789 204.743 80.0068 204.743C77.8873 204.743 76.4148 204.372 75.5892 203.63C75.1869 203.279 74.8669 202.843 74.6518 202.354C74.4368 201.866 74.332 201.335 74.3449 200.802C74.3214 200.298 74.4006 199.795 74.5777 199.323C74.7548 198.852 75.026 198.421 75.3748 198.057C75.7522 197.703 76.1973 197.429 76.6834 197.252C77.1695 197.075 77.6863 196.999 78.2029 197.027H88.5802V197.712C88.6013 198.679 88.3996 199.639 87.9908 200.517C87.582 201.394 86.977 202.166 86.2225 202.772Z" fill="#FFFDF9"/>
<path d="M160.343 172.683H148.596V213.323H160.343V172.683Z" fill="#FFFDF9"/>
<path d="M229.698 172.683C226.38 172.683 223.764 173.854 221.851 176.196C220.478 177.878 219.434 180.365 218.719 183.656H218.374L216.838 172.683H206.806V213.317H218.553V192.479C218.553 189.851 219.168 187.837 220.398 186.436C221.629 185.035 223.899 184.334 227.209 184.334H231.669V172.683H229.698Z" fill="#FFFDF9"/>
<path d="M195.147 174.01C192.404 172.379 188.945 171.566 184.77 171.569C178.197 171.569 173.053 173.441 169.337 177.184C165.622 180.927 163.765 186.087 163.765 192.664C163.67 196.64 164.538 200.58 166.295 204.148C167.903 207.328 170.408 209.967 173.499 211.739C176.611 213.537 180.312 214.438 184.603 214.442C188.314 214.442 191.414 213.871 193.903 212.728C196.242 211.701 198.28 210.092 199.821 208.054C201.288 206.053 202.377 203.802 203.036 201.41L192.914 198.576C192.488 200.131 191.668 201.55 190.533 202.696C189.39 203.839 187.475 204.41 184.787 204.41C181.592 204.41 179.211 203.495 177.643 201.666C176.506 200.344 175.791 198.457 175.476 196.01H203.19C203.304 194.866 203.363 193.908 203.363 193.134V190.604C203.43 187.204 202.728 183.834 201.309 180.744C199.981 177.93 197.833 175.582 195.147 174.01ZM184.43 181.256C189.193 181.256 191.894 183.6 192.533 188.288H175.684C175.952 186.723 176.6 185.249 177.571 183.995C179.115 182.165 181.402 181.252 184.43 181.256Z" fill="#FFFDF9"/>
<path d="M154.599 156.304C153.716 156.274 152.835 156.422 152.009 156.739C151.184 157.056 150.431 157.536 149.795 158.15C149.167 158.769 148.675 159.513 148.35 160.333C148.026 161.153 147.875 162.031 147.907 162.913C147.875 163.8 148.027 164.684 148.352 165.51C148.677 166.335 149.169 167.086 149.797 167.713C150.425 168.34 151.176 168.831 152.002 169.156C152.828 169.48 153.712 169.631 154.599 169.599C155.481 169.632 156.359 169.481 157.179 169.156C157.999 168.831 158.743 168.339 159.362 167.711C159.977 167.077 160.456 166.325 160.772 165.5C161.089 164.675 161.235 163.795 161.202 162.913C161.242 162.035 161.1 161.159 160.783 160.34C160.466 159.521 159.981 158.777 159.361 158.156C158.74 157.534 157.996 157.049 157.177 156.731C156.359 156.414 155.483 156.27 154.605 156.31L154.599 156.304Z" fill="#FFFDF9"/>
<path d="M130.333 171.569C126.332 171.569 123.117 172.826 120.688 175.338C118.89 177.2 117.57 179.978 116.728 183.673H116.353L114.817 172.701H104.785V224.998H116.532V203.458H116.961C117.319 204.894 117.822 206.29 118.461 207.625C119.455 209.8 121.084 211.623 123.135 212.853C125.261 214.013 127.656 214.59 130.077 214.526C134.994 214.526 138.739 212.611 141.311 208.78C143.883 204.95 145.169 199.606 145.169 192.747C145.169 186.122 143.925 180.937 141.436 177.19C138.948 173.443 135.247 171.569 130.333 171.569ZM131.523 201.017C130.154 203.001 128.011 203.994 125.093 203.994C123.89 204.049 122.692 203.817 121.596 203.317C120.501 202.817 119.54 202.063 118.794 201.118C117.274 199.209 116.516 196.595 116.52 193.277V192.503C116.52 189.133 117.278 186.553 118.794 184.763C120.311 182.973 122.41 182.088 125.093 182.108C128.062 182.108 130.22 183.05 131.565 184.936C132.911 186.821 133.583 189.451 133.583 192.824C133.591 196.313 132.909 199.044 131.535 201.017H131.523Z" fill="#FFFDF9"/>
</svg>
