<?xml version="1.0" encoding="UTF-8"?>
<svg width="70px" height="48px" viewBox="0 0 70 48" version="1.1" xmlns="http://www.w3.org/2000/svg" xmlns:xlink="http://www.w3.org/1999/xlink" style="background: #FFFFFF;">
    <!-- Generator: Sketch 58 (84663) - https://sketch.com -->
    <title>big-logo-Zendesk</title>
    <desc>Created with Sketch.</desc>
    <g id="big-logo-Zendesk" stroke="none" stroke-width="1" fill="none" fill-rule="evenodd">
        <rect fill="#FFFFFF" opacity="0" x="0" y="0" width="70" height="48"></rect>
        <g id="zendesk-1" transform="translate(8.000000, 5.000000)" fill="#03363D" fill-rule="nonzero">
            <path d="M25.7835165,6.00824176 L25.7835165,22.7571429 L11.9126374,22.7571429 L25.7835165,6.00824176 Z M25.7835165,0 C25.7835165,3.82747253 22.682967,6.92802198 18.8554945,6.92802198 C15.028022,6.92802198 11.9126374,3.82747253 11.9126374,0 L25.7835165,0 Z M28.0681319,22.7571429 C28.0681319,18.9296703 31.1686813,15.8291209 34.9961538,15.8291209 C38.8236264,15.8291209 41.9241758,18.9296703 41.9241758,22.7571429 L28.0681319,22.7571429 L28.0681319,22.7571429 Z M28.0681319,16.7489011 L28.0681319,0 L41.939011,0 L28.0681319,16.7489011 Z M35.8269231,37.0730769 C36.539011,37.0879121 37.2362637,36.8208791 37.7554945,36.3313187 L38.7049451,37.3549451 C38.0818681,38.0076923 37.2065934,38.4824176 35.8417582,38.4824176 C33.5126374,38.4824176 32.0142857,36.9395604 32.0142857,34.8478022 C31.9697802,32.8747253 33.5423077,31.2576923 35.5005495,31.2131868 L35.6192308,31.2131868 C37.9335165,31.2131868 39.239011,32.9637363 39.1203297,35.4115385 L33.6758242,35.4115385 C33.8686813,36.4351648 34.5807692,37.0879121 35.8269231,37.0730769 M37.4884615,34.2692308 C37.3401099,33.3197802 36.7763736,32.6225275 35.6489011,32.6225275 C34.5956044,32.6225275 33.8686813,33.2159341 33.6758242,34.2692308 L37.4884615,34.2692308 L37.4884615,34.2692308 Z M0,36.9989011 L4.19835165,32.7263736 L0.103846154,32.7263736 L0.103846154,31.3912088 L6.14175824,31.3912088 L6.14175824,32.756044 L1.94340659,37.0285714 L6.2010989,37.0285714 L6.2010989,38.3637363 L0,38.3637363 L0,36.9989011 Z M10.9186813,37.0730769 C11.6307692,37.0879121 12.328022,36.8208791 12.8324176,36.3313187 L13.7818681,37.3549451 C13.1587912,38.0076923 12.2835165,38.4824176 10.9186813,38.4824176 C8.58956044,38.4824176 7.09120879,36.9395604 7.09120879,34.8478022 C7.0467033,32.8747253 8.61923077,31.2576923 10.5774725,31.2131868 L10.6961538,31.2131868 C13.0104396,31.2131868 14.3159341,32.9637363 14.1972527,35.4115385 L8.76758242,35.4115385 C8.96043956,36.4351648 9.67252747,37.0879121 10.9186813,37.0730769 M12.5802198,34.2692308 C12.4318681,33.3197802 11.8681319,32.6225275 10.7406593,32.6225275 C9.68736264,32.6225275 8.96043956,33.2159341 8.76758242,34.2692308 L12.5802198,34.2692308 Z M23.2912088,34.8626374 C23.2912088,32.6373626 24.9527473,31.2428571 26.7923077,31.2428571 C27.6824176,31.228022 28.528022,31.6137363 29.1214286,32.2813187 L29.1214286,28.171978 L30.6049451,28.171978 L30.6049451,38.3489011 L29.1214286,38.3489011 L29.1214286,37.3846154 C28.5428571,38.0818681 27.6824176,38.4972527 26.7774725,38.4824176 C24.9972527,38.4824176 23.2912088,37.0730769 23.2912088,34.8626374 M29.1956044,34.8478022 C29.1659341,33.6313187 28.1423077,32.667033 26.9258242,32.6967033 C25.7093407,32.7263736 24.7450549,33.75 24.7747253,34.9664835 C24.8043956,36.1681319 25.7835165,37.1175824 26.9851648,37.1175824 C28.260989,37.1175824 29.1956044,36.1087912 29.1956044,34.8478022 M40.0994505,36.8653846 L41.4494505,36.1681319 C41.8054945,36.8208791 42.5027473,37.2065934 43.2445055,37.1917582 C44.0901099,37.1917582 44.5203297,36.7615385 44.5203297,36.271978 C44.5203297,35.7082418 43.7043956,35.5895604 42.8291209,35.4115385 C41.6423077,35.1593407 40.410989,34.7736264 40.410989,33.3346154 C40.410989,32.2368132 41.4642857,31.2131868 43.110989,31.228022 C44.4164835,31.228022 45.3807692,31.7472527 45.9296703,32.578022 L44.6835165,33.2604396 C44.3274725,32.7412088 43.7340659,32.4445055 43.110989,32.4593407 C42.3098901,32.4593407 41.9093407,32.8450549 41.9093407,33.2901099 C41.9093407,33.7945055 42.5472527,33.928022 43.556044,34.1505495 C44.6983516,34.4027473 46.0038462,34.7736264 46.0038462,36.2274725 C46.0038462,37.1917582 45.1582418,38.4824176 43.1703297,38.4675824 C41.7164835,38.4824176 40.6928571,37.9038462 40.0994505,36.8653846 M50.0241758,35.2483516 L48.8521978,36.539011 L48.8521978,38.3489011 L47.3686813,38.3489011 L47.3686813,28.171978 L48.8521978,28.171978 L48.8521978,34.832967 L51.9972527,31.3763736 L53.8071429,31.3763736 L51.0774725,34.3582418 L53.8813187,38.3489011 L52.2049451,38.3489011 L50.0241758,35.2483516 Z M18.810989,31.228022 C17.0456044,31.228022 15.5620879,32.3703297 15.5620879,34.2692308 L15.5620879,38.3489011 L17.0752747,38.3489011 L17.0752747,34.4620879 C17.0752747,33.3197802 17.728022,32.6373626 18.8554945,32.6373626 C19.982967,32.6373626 20.5318681,33.3197802 20.5318681,34.4620879 L20.5318681,38.3489011 L22.0302198,38.3489011 L22.0302198,34.2692308 C22.0450549,32.3703297 20.5615385,31.228022 18.810989,31.228022" id="Shape"></path>
        </g>
    </g>
</svg>