<svg width="36" height="36" viewBox="0 0 36 36" fill="none" xmlns="http://www.w3.org/2000/svg">
<path d="M18.0001 0.826904C8.06019 0.826904 0 8.88568 0 18.827C0 26.78 5.15756 33.5272 12.3096 35.9073C13.2091 36.0739 13.5395 35.5168 13.5395 35.0414C13.5395 34.6122 13.5227 33.1941 13.5151 31.6901C8.50728 32.7789 7.45061 29.5663 7.45061 29.5663C6.63181 27.4857 5.45204 26.9326 5.45204 26.9326C3.81897 25.8154 5.57514 25.8383 5.57514 25.8383C7.3827 25.9653 8.33448 27.6932 8.33448 27.6932C9.93988 30.4451 12.5453 29.6495 13.5725 29.1897C13.734 28.0261 14.2006 27.2322 14.7153 26.7827C10.7173 26.3274 6.51436 24.784 6.51436 17.8869C6.51436 15.9218 7.21753 14.316 8.36907 13.0555C8.18216 12.602 7.56609 10.7713 8.54342 8.29191C8.54342 8.29191 10.0549 7.80812 13.4947 10.137C14.9304 9.73807 16.4703 9.53817 18.0001 9.5314C19.5298 9.53817 21.0708 9.73807 22.5094 10.137C25.9451 7.80812 27.4545 8.29191 27.4545 8.29191C28.4342 10.7713 27.8178 12.602 27.6309 13.0555C28.785 14.316 29.4834 15.9217 29.4834 17.8869C29.4834 24.8004 25.2725 26.3228 21.2644 26.7683C21.91 27.3269 22.4852 28.4224 22.4852 30.1016C22.4852 32.51 22.4643 34.4484 22.4643 35.0414C22.4643 35.5204 22.7883 36.0817 23.7009 35.9049C30.8489 33.5221 36 26.7773 36 18.827C36 8.88568 27.9409 0.826904 18.0001 0.826904Z" fill="#161614"/>
</svg>
