<svg width="36" height="37" viewBox="0 0 36 37" fill="none" xmlns="http://www.w3.org/2000/svg">
<path d="M17.9803 31.644C10.6671 31.644 4.7385 25.7154 4.7385 18.4023C4.7385 11.0891 10.6671 5.16064 17.9803 5.16064C25.2934 5.16064 31.2218 11.0891 31.2218 18.4023C31.2218 25.7154 25.2934 31.644 17.9803 31.644ZM17.9803 0.421997C8.05008 0.421997 0 8.47222 0 18.4023C0 28.3325 8.05008 36.3825 17.9803 36.3825C27.9104 36.3825 35.9605 28.3325 35.9605 18.4023C35.9605 8.47222 27.9104 0.421997 17.9802 0.421997H17.9803Z" fill="#CF272D"/>
<path d="M18.7213 13.9243C18.7213 11.8596 20.3952 10.1858 22.46 10.1858C24.5248 10.1858 26.1985 11.8596 26.1985 13.9243C26.1985 15.9892 24.5248 17.6629 22.46 17.6629C20.3952 17.6629 18.7213 15.9892 18.7213 13.9243ZM18.7213 22.8801C18.7213 20.8155 20.3952 19.1415 22.46 19.1415C24.5248 19.1415 26.1985 20.8155 26.1985 22.8801C26.1985 24.9449 24.5248 26.6188 22.46 26.6188C20.3952 26.6188 18.7213 24.9449 18.7213 22.8801ZM9.76562 22.8801C9.76562 20.8155 11.4396 19.1415 13.5043 19.1415C15.5691 19.1415 17.2429 20.8155 17.2429 22.8801C17.2429 24.9449 15.5691 26.6188 13.5043 26.6188C11.4396 26.6188 9.76562 24.9449 9.76562 22.8801ZM9.76562 13.9244C9.76562 11.8596 11.4396 10.1859 13.5043 10.1859C15.5691 10.1859 17.2429 11.8596 17.2429 13.9244C17.2429 15.9894 15.5691 17.6631 13.5043 17.6631C11.4396 17.6631 9.76562 15.9894 9.76562 13.9244Z" fill="#CF272D"/>
</svg>
