<svg width="43" height="43" viewBox="0 0 43 43" fill="none" xmlns="http://www.w3.org/2000/svg">
<path d="M40.1445 0H2.85547C1.27844 0 0 1.27594 0 2.8499V40.0663C0 41.6402 1.27844 42.9162 2.85547 42.9162H40.1445C41.7216 42.9162 43 41.6402 43 40.0663V2.8499C43 1.27594 41.7216 0 40.1445 0Z" fill="#FFD02F"/>
<path d="M29.3002 5.7226H24.7099L28.7849 12.0272L20.1698 5.7226H15.5795L19.6543 13.9831L11.0394 5.7226H6.44922L10.4572 16.3853L6.44922 37.1945H11.0394L19.6543 14.8823L15.5795 37.1945H20.1698L28.7849 12.9264L24.7099 37.1945H29.3002L37.982 10.5374L29.3002 5.7226Z" fill="#050038"/>
</svg>
