<svg width="100" height="100" fill="none" xmlns="http://www.w3.org/2000/svg"><path d="M99.22 46.56L77.53 9.02c-1.04-1.88-3.75-3.34-5.84-3.34H28.31c-2.09 0-4.8 1.46-5.84 3.34L.78 46.56c-1.04 1.88-1.04 5.01 0 6.88l21.69 37.54c1.04 1.88 3.75 3.34 5.84 3.34h43.38c2.09 0 4.8-1.46 5.84-3.34l21.69-37.54c1.04-2.08 1.04-5 0-6.88z" fill="#005FC5"/><path d="M50.42 31.13c-10.01 0-18.35 8.13-18.35 18.35 0 4.38 1.67 8.55 4.17 11.68.63.63 23.77 24.4 32.53 33.16h2.92c2.09 0 4.8-1.46 5.84-3.34l14.39-24.82-26.28-27.11c-4.59-4.59-9.17-7.92-15.22-7.92z" fill="#004EB3"/><path d="M50.42 67.83c-10.01 0-18.35-8.13-18.35-18.35s8.13-18.35 18.35-18.35 18.35 8.13 18.35 18.35-8.34 18.35-18.35 18.35zm0-32.32c-7.72 0-13.97 6.26-13.97 13.97 0 7.71 6.26 13.97 13.97 13.97 7.71 0 13.97-6.26 13.97-13.97 0-7.71-6.47-13.97-13.97-13.97z" fill="#fff"/><path d="M71.9 68.46l-7.3-7.72c2.5-3.13 3.96-7.09 3.96-11.26 0-10.01-8.13-18.35-18.35-18.35s-18.35 8.13-18.35 18.35 8.13 18.35 18.35 18.35c4.17 0 8.13-1.46 11.26-3.96l7.09 7.51 3.34-2.92zm-21.48-5.01c-7.72 0-13.97-6.26-13.97-13.97 0-7.71 6.26-13.97 13.97-13.97 7.71 0 13.97 6.26 13.97 13.97 0 7.71-6.47 13.97-13.97 13.97z" fill="#fff"/><path d="M51.46 44.68h-3.13V59.7h3.13V44.68zM41.45 55.32l3.13 3.13v-9.39h-3.13v6.26zm13.76 3.13l3.13-3.13v-3.76h-3.13v6.89z" fill="#fff"/></svg>