<svg xmlns:xlink="http://www.w3.org/1999/xlink" width="70" height="70" viewBox="0 0 20 20" fill="none" xmlns="http://www.w3.org/2000/svg">
<path d="M18.9217 20H17.7264C17.6243 20 17.5223 19.9706 17.4348 19.9119L14.6361 17.9295C14.5486 17.8708 14.4466 17.8414 14.3445 17.8414H2.87243C1.58965 17.8267 0.554688 16.7841 0.554688 15.5066V2.3348C0.554688 1.04258 1.58965 0 2.87243 0H12.7702C14.053 0 15.0879 1.04258 15.0879 2.3348V3.52423C15.0879 3.80323 15.3212 4.03818 15.5981 4.03818H17.1287C18.4115 4.03818 19.4465 5.08076 19.4465 6.37298V19.486C19.4319 19.7651 19.1987 20 18.9217 20ZM2.90158 15.9765H14.9422C15.0442 15.9765 15.1463 16.0059 15.2337 16.0646L17.0996 17.3862C17.3037 17.533 17.5952 17.3862 17.5952 17.1219V6.40235C17.5952 6.12335 17.362 5.8884 17.085 5.8884H15.5836C15.3066 5.8884 15.0734 6.12335 15.0734 6.40235V13.2893C15.0734 13.5683 14.8401 13.8032 14.5632 13.8032H5.40883C5.13186 13.8032 4.89863 13.5683 4.89863 13.2893V4.55213C4.89863 4.27313 5.13186 4.03818 5.40883 4.03818H12.7411C13.018 4.03818 13.2512 3.80323 13.2512 3.52423V2.36417C13.2512 2.08517 13.018 1.85022 12.7411 1.85022H2.90158C2.62462 1.85022 2.39139 2.08517 2.39139 2.36417V15.4626C2.39139 15.7562 2.61004 15.9765 2.90158 15.9765ZM6.98314 11.9383H12.9889C13.1346 11.9383 13.2367 11.8209 13.2367 11.6887V6.13803C13.2367 5.99119 13.1201 5.8884 12.9889 5.8884H6.98314C6.83737 5.8884 6.73533 6.00587 6.73533 6.13803V11.6887C6.73533 11.8355 6.85195 11.9383 6.98314 11.9383Z" fill="currentColor"></path>
</svg>