<svg xmlns:xlink="http://www.w3.org/1999/xlink" xmlns="http://www.w3.org/2000/svg" width="70" height="70" viewBox="0 0 16 16" fill="none">
  <path fill-rule="evenodd" clip-rule="evenodd" d="M6.65825 3.45094C7.17427 2.89229 7.89263 2.5458 8.68722 2.5458C9.74339 2.5458 10.6649 3.15774 11.1555 4.06618C11.582 3.86821 12.054 3.75808 12.5506 3.75808C14.4556 3.75808 16 5.37675 16 7.37337C16 9.37023 14.4556 10.9889 12.5506 10.9889C12.3225 10.9891 12.0949 10.9654 11.8713 10.9186C11.4391 11.7194 10.6156 12.2606 9.67047 12.2606C9.27474 12.2606 8.90049 12.1656 8.56729 11.9968C8.12921 13.0674 7.10861 13.8182 5.91909 13.8182C4.68035 13.8182 3.62462 13.0038 3.21938 11.8615C3.04229 11.9006 2.85881 11.921 2.67054 11.921C1.19567 11.921 0 10.6659 0 9.11733C0 8.07958 0.537211 7.1735 1.33538 6.68873C1.17106 6.29586 1.07966 5.86224 1.07966 5.40635C1.07966 3.62546 2.47111 2.18182 4.18736 2.18182C5.19499 2.18182 6.0905 2.67962 6.65825 3.45094Z" fill="#00A1E0"/>
  <path d="M4.72726 8.72727C5.32975 8.72727 5.81817 8.23886 5.81817 7.63637C5.81817 7.03387 5.32975 6.54546 4.72726 6.54546C4.12477 6.54546 3.63635 7.03387 3.63635 7.63637C3.63635 8.23886 4.12477 8.72727 4.72726 8.72727Z" fill="white"/>
  <path d="M8.36361 8.72727C8.96611 8.72727 9.45452 8.23886 9.45452 7.63637C9.45452 7.03387 8.96611 6.54546 8.36361 6.54546C7.76112 6.54546 7.27271 7.03387 7.27271 7.63637C7.27271 8.23886 7.76112 8.72727 8.36361 8.72727Z" fill="white"/>
  <path d="M12 8.72727C12.6025 8.72727 13.0909 8.23886 13.0909 7.63637C13.0909 7.03387 12.6025 6.54546 12 6.54546C11.3975 6.54546 10.9091 7.03387 10.9091 7.63637C10.9091 8.23886 11.3975 8.72727 12 8.72727Z" fill="white"/>
</svg>