<svg xmlns:xlink="http://www.w3.org/1999/xlink" xmlns="http://www.w3.org/2000/svg" width="70" height="70" viewBox="0 0 16 16" fill="none">
<g clip-path="url(#clip0_14_12975)">
<path d="M3.35997 10.1121C3.35997 11.0401 2.60797 11.7921 1.67997 11.7921C0.751969 11.7921 -3.05176e-05 11.0401 -3.05176e-05 10.1121C-3.05176e-05 9.18407 0.751969 8.43207 1.67997 8.43207H3.35997V10.1121Z" fill="#E01E5A"/>
<path d="M4.20792 10.1121C4.20792 9.18407 4.95992 8.43207 5.88792 8.43207C6.81592 8.43207 7.56792 9.18407 7.56792 10.1121V14.3201C7.56792 15.2481 6.81592 16.0001 5.88792 16.0001C4.95992 16.0001 4.20792 15.2481 4.20792 14.3201V10.1121Z" fill="#E01E5A"/>
<path d="M5.88792 3.35998C4.95992 3.35998 4.20792 2.60798 4.20792 1.67998C4.20792 0.751977 4.95992 -2.28882e-05 5.88792 -2.28882e-05C6.81592 -2.28882e-05 7.56792 0.751977 7.56792 1.67998V3.35998H5.88792Z" fill="#36C5F0"/>
<path d="M5.88797 4.20792C6.81597 4.20792 7.56797 4.95992 7.56797 5.88792C7.56797 6.81592 6.81597 7.56792 5.88797 7.56792H1.67997C0.751969 7.56792 -3.05176e-05 6.81592 -3.05176e-05 5.88792C-3.05176e-05 4.95992 0.751969 4.20792 1.67997 4.20792H5.88797Z" fill="#36C5F0"/>
<path d="M12.64 5.88792C12.64 4.95992 13.392 4.20792 14.32 4.20792C15.248 4.20792 16 4.95992 16 5.88792C16 6.81592 15.248 7.56792 14.32 7.56792H12.64V5.88792Z" fill="#2EB67D"/>
<path d="M11.792 5.88798C11.792 6.81598 11.04 7.56798 10.112 7.56798C9.18398 7.56798 8.43198 6.81598 8.43198 5.88798V1.67998C8.43198 0.751977 9.18398 -2.28882e-05 10.112 -2.28882e-05C11.04 -2.28882e-05 11.792 0.751977 11.792 1.67998V5.88798Z" fill="#2EB67D"/>
<path d="M10.112 12.64C11.04 12.64 11.792 13.392 11.792 14.32C11.792 15.248 11.04 16 10.112 16C9.18398 16 8.43198 15.248 8.43198 14.32V12.64H10.112Z" fill="#ECB22E"/>
<path d="M10.112 11.7921C9.18398 11.7921 8.43198 11.0401 8.43198 10.1121C8.43198 9.18407 9.18398 8.43207 10.112 8.43207H14.32C15.248 8.43207 16 9.18407 16 10.1121C16 11.0401 15.248 11.7921 14.32 11.7921H10.112Z" fill="#ECB22E"/>
</g>
<defs>
<clipPath id="clip0_14_12975">
<rect width="16" height="16" fill="white"/>
</clipPath>
</defs>
</svg>